<?xml version="1.0" encoding="utf-8"?>
<!-- Generator: Adobe Illustrator 18.1.1, SVG Export Plug-In . SVG Version: 6.00 Build 0)  -->
<!DOCTYPE svg PUBLIC "-//W3C//DTD SVG 1.1//EN" "http://www.w3.org/Graphics/SVG/1.1/DTD/svg11.dtd">
<svg version="1.1" id="Layer_1" xmlns:sketch="http://www.bohemiancoding.com/sketch/ns"
	 xmlns="http://www.w3.org/2000/svg" xmlns:xlink="http://www.w3.org/1999/xlink" x="0px" y="0px" viewBox="0 0 1000 1000"
	 enable-background="new 0 0 1000 1000" xml:space="preserve">
<title>icon/data-light</title>
<desc>Created with Sketch.</desc>
<g id="approach" sketch:type="MSPage">
	<g id="Desktop-HD" transform="translate(-359.000000, -5884.000000)" sketch:type="MSArtboardGroup">
		<g id="section_x2F_approach_x2F_active" transform="translate(-26.000000, 416.000000)" sketch:type="MSLayerGroup">
			<g id="approach_x2F_5-active" transform="translate(26.000000, 4970.000000)" sketch:type="MSShapeGroup">
				<g id="icon_x2F_data" transform="translate(359.000000, 498.000000)">
					<path fill="#2C2828" d="M754,886.5h-50.9c-3.5,0-5.8-2.3-5.8-5.8v-45H303.2v45c0,3.5-2.3,5.8-5.8,5.8h-50.9
						c-3.5,0-5.8-2.3-5.8-5.8V119.3c0-3.5,2.3-5.8,5.8-5.8h507c3.5,0,5.8,2.3,5.8,5.8v760.8C759.9,883.6,757.6,886.5,754,886.5z
						 M709,874.9h39.2V125.1H252.9v749.1h39.2v-45c0-3.5,2.3-5.8,5.8-5.8h405.8c3.5,0,5.8,2.3,5.8,5.8v45.6H709z"/>
					<path fill="#2C2828" d="M703.2,784.8H297.3c-3.5,0-5.8-2.3-5.8-5.8V170.2c0-3.5,2.3-5.8,5.8-5.8h405.8c3.5,0,5.8,2.3,5.8,5.8
						v608.8C709,782.5,706.7,784.8,703.2,784.8z M303.2,773.1h394.2V176H303.2V773.1z"/>
					<path fill="#2C2828" d="M703.2,784.8H297.3c-3.5,0-5.8-2.3-5.8-5.8s2.3-5.8,5.8-5.8h405.8c3.5,0,5.8,2.3,5.8,5.8
						S706.7,784.8,703.2,784.8z"/>
					<path fill="#2C2828" d="M703.2,581.9H297.3c-3.5,0-5.8-2.3-5.8-5.8c0-3.5,2.3-5.8,5.8-5.8h405.8c3.5,0,5.8,2.3,5.8,5.8
						C709,579.5,706.7,581.9,703.2,581.9z"/>
					<path fill="#2C2828" d="M703.2,378.9H297.3c-3.5,0-5.8-2.3-5.8-5.8c0-3.5,2.3-5.8,5.8-5.8h405.8c3.5,0,5.8,2.3,5.8,5.8
						C709,376.6,706.7,378.9,703.2,378.9z"/>
					<path fill="#A57F5F" d="M551.1,645H450c-3.5,0-5.8-2.3-5.8-5.8V614c0-3.5,2.3-5.8,5.8-5.8h101.2c3.5,0,5.8,2.3,5.8,5.8v25.1
						C557,642.7,554.6,645,551.1,645z M455.8,633.3h89.5v-13.5h-89.5V633.3z"/>
					<path fill="#A57F5F" d="M551.1,442.7H450c-3.5,0-5.8-2.3-5.8-5.8v-25.1c0-3.5,2.3-5.8,5.8-5.8h101.2c3.5,0,5.8,2.3,5.8,5.8
						v25.1C557,439.8,554.6,442.7,551.1,442.7z M455.8,431h89.5v-13.5h-89.5V431z"/>
					<path fill="#A57F5F" d="M551.1,239.8H450c-3.5,0-5.8-2.3-5.8-5.8v-25.1c0-3.5,2.3-5.8,5.8-5.8h101.2c3.5,0,5.8,2.3,5.8,5.8
						v25.1C557,236.8,554.6,239.8,551.1,239.8z M455.8,228.1h89.5v-13.5h-89.5V228.1z"/>
					<path fill="#2C2828" d="M602,619.9H399.1c-3.5,0-5.8-2.3-5.8-5.8s2.3-5.8,5.8-5.8H602c3.5,0,5.8,2.3,5.8,5.8
						S604.9,619.9,602,619.9z"/>
					<path fill="#2C2828" d="M602,417H399.1c-3.5,0-5.8-2.3-5.8-5.8c0-3.5,2.3-5.8,5.8-5.8H602c3.5,0,5.8,2.3,5.8,5.8
						C607.9,414.6,604.9,417,602,417z"/>
					<path fill="#2C2828" d="M602,214H399.1c-3.5,0-5.8-2.3-5.8-5.8c0-3.5,2.3-5.8,5.8-5.8H602c3.5,0,5.8,2.3,5.8,5.8
						C607.9,211.7,604.9,214,602,214z"/>
				</g>
			</g>
		</g>
	</g>
</g>
</svg>
