<svg xmlns="http://www.w3.org/2000/svg" viewBox="0 0 1000 1000">
  <path fill="#2C2828" d="M754 886.5h-50.9c-3.5 0-5.8-2.3-5.8-5.8v-45H303.2v45c0 3.5-2.3 5.8-5.8 5.8h-50.9c-3.5 0-5.8-2.3-5.8-5.8V119.3c0-3.5 2.3-5.8 5.8-5.8h507c3.5 0 5.8 2.3 5.8 5.8v760.8c.6 3.5-1.7 6.4-5.3 6.4zm-45-11.6h39.2V125.1H252.9v749.1h39.2v-45c0-3.5 2.3-5.8 5.8-5.8h405.8c3.5 0 5.8 2.3 5.8 5.8v45.6h-.5z"/>
  <path fill="#2C2828" d="M703.2 784.8H297.3c-3.5 0-5.8-2.3-5.8-5.8V170.2c0-3.5 2.3-5.8 5.8-5.8h405.8c3.5 0 5.8 2.3 5.8 5.8V779c.1 3.5-2.2 5.8-5.7 5.8zm-400-11.7h394.2V176H303.2v597.1z"/>
  <path fill="#2C2828" d="M703.2 784.8H297.3c-3.5 0-5.8-2.3-5.8-5.8s2.3-5.8 5.8-5.8h405.8c3.5 0 5.8 2.3 5.8 5.8s-2.2 5.8-5.7 5.8zm0-202.9H297.3c-3.5 0-5.8-2.3-5.8-5.8s2.3-5.8 5.8-5.8h405.8c3.5 0 5.8 2.3 5.8 5.8.1 3.4-2.2 5.8-5.7 5.8zm0-203H297.3c-3.5 0-5.8-2.3-5.8-5.8s2.3-5.8 5.8-5.8h405.8c3.5 0 5.8 2.3 5.8 5.8.1 3.5-2.2 5.8-5.7 5.8z"/>
  <path fill="#A57F5F" d="M551.1 645H450c-3.5 0-5.8-2.3-5.8-5.8V614c0-3.5 2.3-5.8 5.8-5.8h101.2c3.5 0 5.8 2.3 5.8 5.8v25.1c0 3.6-2.4 5.9-5.9 5.9zm-95.3-11.7h89.5v-13.5h-89.5v13.5zm95.3-190.6H450c-3.5 0-5.8-2.3-5.8-5.8v-25.1c0-3.5 2.3-5.8 5.8-5.8h101.2c3.5 0 5.8 2.3 5.8 5.8v25.1c0 2.9-2.4 5.8-5.9 5.8zM455.8 431h89.5v-13.5h-89.5V431zm95.3-191.2H450c-3.5 0-5.8-2.3-5.8-5.8v-25.1c0-3.5 2.3-5.8 5.8-5.8h101.2c3.5 0 5.8 2.3 5.8 5.8V234c0 2.8-2.4 5.8-5.9 5.8zm-95.3-11.7h89.5v-13.5h-89.5v13.5z"/>
  <path fill="#2C2828" d="M602 619.9H399.1c-3.5 0-5.8-2.3-5.8-5.8s2.3-5.8 5.8-5.8H602c3.5 0 5.8 2.3 5.8 5.8s-2.9 5.8-5.8 5.8zm0-202.9H399.1c-3.5 0-5.8-2.3-5.8-5.8s2.3-5.8 5.8-5.8H602c3.5 0 5.8 2.3 5.8 5.8.1 3.4-2.9 5.8-5.8 5.8zm0-203H399.1c-3.5 0-5.8-2.3-5.8-5.8s2.3-5.8 5.8-5.8H602c3.5 0 5.8 2.3 5.8 5.8.1 3.5-2.9 5.8-5.8 5.8z"/>
</svg>
