<?xml version="1.0" encoding="utf-8"?>
<!-- Generator: Adobe Illustrator 18.1.1, SVG Export Plug-In . SVG Version: 6.00 Build 0)  -->
<!DOCTYPE svg PUBLIC "-//W3C//DTD SVG 1.1//EN" "http://www.w3.org/Graphics/SVG/1.1/DTD/svg11.dtd">
<svg version="1.1" id="Layer_1" xmlns:sketch="http://www.bohemiancoding.com/sketch/ns"
	 xmlns="http://www.w3.org/2000/svg" xmlns:xlink="http://www.w3.org/1999/xlink" x="0px" y="0px" viewBox="0 0 1000 1000"
	 enable-background="new 0 0 1000 1000" xml:space="preserve">
<g id="Desktop-HD" transform="translate(-629.000000, -3875.000000)" sketch:type="MSArtboardGroup">
	<g id="section_x2F_approach" transform="translate(-1.000000, 3471.000000)" sketch:type="MSLayerGroup">
		<g id="icon_x2F_design" transform="translate(629.000000, 403.000000)" sketch:type="MSShapeGroup">
			<g id="compass" transform="translate(0.227070, 0.139237)">
				<path fill="#2C2828" d="M629.9,425.4c-36.8,0-66.7-29.8-66.7-66.7s29.8-66.7,66.7-66.7s66.7,29.8,66.7,66.7
					S666.7,425.4,629.9,425.4z M629.9,303.8c-30.4,0-55,24.6-55,55c0,30.4,24.6,55,55,55c30.4,0,55-24.6,55-55
					C684.8,328.3,660.3,303.8,629.9,303.8z"/>
				<g id="hands" transform="translate(70.000000, 42.000000)">
					<path fill="#2C2828" d="M561,255.9c-3.5,0-5.8-2.3-5.8-5.8v-51.5c0-3.5,2.3-5.8,5.8-5.8s5.8,2.3,5.8,5.8v51.5
						C566.9,253,564,255.9,561,255.9z"/>
					<path fill="#2C2828" d="M328.3,724.9c-0.6,0-1.8,0-2.3-0.6c-2.9-1.2-4.1-4.7-2.9-7.6l170.8-390.1c1.2-2.9,4.7-4.1,7.6-2.9
						c2.9,1.2,4.1,4.7,2.9,7.6L333.6,721.4C332.4,723.8,330.6,724.9,328.3,724.9z"/>
					<path fill="#2C2828" d="M791.4,724.9c-2.3,0-4.7-1.2-5.3-3.5L615.4,331.4c-1.2-2.9,0-6.4,2.9-7.6c2.9-1.2,6.4,0,7.6,2.9
						l170.8,390.1c1.2,2.9,0,6.4-2.9,7.6C793.2,724.9,792,724.9,791.4,724.9z"/>
					<path fill="#A57F5F" d="M559.9,529.6c-46.8,0-90.6-14.6-128.1-42.7c-2.3-1.8-2.9-5.8-1.2-8.2c1.8-2.3,5.8-2.9,8.2-1.2
						c35.1,26.3,77.2,40.4,121.1,40.4C671,517.9,761,427.3,761,316.2c0-3.5,2.3-5.8,5.8-5.8s5.8,2.3,5.8,5.8
						C772.7,434.3,677.4,529.6,559.9,529.6z"/>
				</g>
			</g>
			
				<g id="beizer-curve" transform="translate(55.377786, 80.758880) rotate(23.000000) translate(-55.377786, -80.758880) translate(32.434713, 47.413658)">
				<path fill="#A57F5F" d="M536.6,480.8c-0.6,0.6-1.8,0.6-2.3,0.6h-62c-3.5,0-5.8-2.3-5.8-5.8v-62c0-3.5,2.3-5.8,5.8-5.8h62
					c1.8,0,2.9,0.6,4.1,1.8c1.2,1.2,1.8,2.3,1.8,4.1v62c0,1.8-0.6,2.9-1.8,4.1C537.8,480.2,537.2,480.8,536.6,480.8z M478.2,469.7
					h50.3v-50.3h-50.3L478.2,469.7z M366.5,341c-0.6,0.6-1.8,0.6-2.3,0.6l-93,0c-1.8,0-2.9-0.6-4.1-1.8c-1.2-1.2-1.8-2.3-1.8-4.1
					v-93.6c0-1.8,0.6-2.9,1.8-4.1c1.2-1.2,2.3-1.8,4.1-1.8l93,0c1.8,0,2.9,0.6,4.1,1.8c1.2,1.2,1.8,2.3,1.8,4.1l0,93.6
					C370,338.1,368.2,340.4,366.5,341z M277,329.9h81.3V248l-81.3,0L277,329.9z M536.6,170.3c-0.6,0.6-1.8,0.6-2.3,0.6h-62
					c-1.8,0-2.9-0.6-4.1-1.8c-1.2-1.2-1.8-2.3-1.8-4.1v-62c0-3.5,2.3-5.8,5.8-5.8l62,0c1.8,0,2.9,0.6,4.1,1.8s1.8,2.3,1.8,4.1v62
					C540.1,167.3,539,169.1,536.6,170.3z M478.2,158.6l50.3,0v-50.3l-50.3,0V158.6z"/>
				<path fill="#2C2828" d="M319.7,442.2c-0.6,0.6-1.8,0.6-2.3,0.6c-3.5,0-5.8-2.3-5.8-5.8l0-93.6c0-3.5,2.3-5.8,5.8-5.8
					c3.5,0,5.8,2.3,5.8,5.8v93.6C323.2,439.3,322,441,319.7,442.2z M319.7,239.9c-0.6,0.6-1.8,0.6-2.3,0.6c-3.5,0-5.8-2.3-5.8-5.8
					V141c0-3.5,2.3-5.8,5.8-5.8c3.5,0,5.8,2.3,5.8,5.8l0,93.6C323.2,236.9,322,239.3,319.7,239.9z"/>
				<path fill="#2C2828" d="M327.3,483.7c-2.9,1.2-6.4,1.8-9.9,1.8c-7,0-12.9-2.3-17.5-7.6c-4.7-4.7-7.6-11.1-7.6-18.1
					c0-9.9,5.8-19.3,15.2-23.4c2.9-1.2,6.4-1.8,9.9-1.8c14,0,25.1,11.1,25.1,25.1C342.5,470.9,336.6,479.6,327.3,483.7z M312.1,448
					c-5.3,2.3-8.2,7-8.2,12.3c0,3.5,1.2,7,4.1,9.4c2.3,2.3,5.8,4.1,9.4,4.1c7.6,0,13.5-6.4,13.5-13.5c0-7.6-5.8-13.5-13.5-13.5
					C315.6,446.9,313.8,447.5,312.1,448z M327.3,141c-2.9,1.2-6.4,1.8-9.9,1.8c-14,0-25.1-11.1-25.1-25.1c0-9.9,5.8-19.3,15.2-23.4
					c2.9-1.2,6.4-1.8,9.9-1.8c7,0,12.9,2.9,18.1,7.6c4.7,4.7,7.6,11.1,7.6,18.1C342.5,127.6,336.6,136.9,327.3,141z M312.1,105.4
					c-5.3,2.3-8.2,7-8.2,12.3c0,7.6,5.8,13.5,13.5,13.5c7.6,0,13.5-6.4,13.5-13.5c0-3.5-1.2-7-4.1-9.4c-2.3-2.3-5.8-4.1-9.4-4.1
					C315.6,104.2,313.8,104.2,312.1,105.4z"/>
				<path fill="#2C2828" d="M472.3,446.3c-0.6,0.6-1.8,0.6-2.3,0.6c-74.9,0-134.5-43.3-152-109.9c-0.6-2.9,1.2-6.4,4.1-7
					c2.9-0.6,6.4,1.2,7,4.1c16.4,61.4,71.3,101.2,140.9,101.2c3.5,0,5.8,2.3,5.8,5.8C475.8,443.4,474.6,445.7,472.3,446.3z
					 M326.1,248c-1.2,0.6-2.3,0.6-3.5,0c-2.9-0.6-5.3-4.1-4.1-7c17.5-66.7,77.2-109.9,152-109.9c3.5,0,5.8,2.3,5.8,5.8
					c0,3.5-2.3,5.8-5.8,5.8C401,142.8,346,182.6,329.6,244C329,245.7,327.3,246.9,326.1,248z"/>
			</g>
		</g>
	</g>
</g>
</svg>
