<svg xmlns="http://www.w3.org/2000/svg" viewBox="0 0 1000 1000">
  <path fill="#2C2828" d="M629.127 424.54c-36.8 0-66.7-29.8-66.7-66.7s29.8-66.7 66.7-66.7 66.7 29.8 66.7 66.7-29.9 66.7-66.7 66.7zm0-121.6c-30.4 0-55 24.6-55 55s24.6 55 55 55 55-24.6 55-55c-.1-30.5-24.6-55-55-55z"/>
  <path fill="#2C2828" d="M630.227 297.04c-3.5 0-5.8-2.3-5.8-5.8v-51.5c0-3.5 2.3-5.8 5.8-5.8s5.8 2.3 5.8 5.8v51.5c.1 2.9-2.8 5.8-5.8 5.8zm-232.7 469c-.6 0-1.8 0-2.3-.6-2.9-1.2-4.1-4.7-2.9-7.6l170.8-390.1c1.2-2.9 4.7-4.1 7.6-2.9 2.9 1.2 4.1 4.7 2.9 7.6l-170.8 390.1c-1.2 2.4-3 3.5-5.3 3.5zm463.1 0c-2.3 0-4.7-1.2-5.3-3.5l-170.7-390c-1.2-2.9 0-6.4 2.9-7.6 2.9-1.2 6.4 0 7.6 2.9l170.8 390.1c1.2 2.9 0 6.4-2.9 7.6-.6.5-1.8.5-2.4.5z"/>
  <path fill="#A57F5F" d="M629.127 570.74c-46.8 0-90.6-14.6-128.1-42.7-2.3-1.8-2.9-5.8-1.2-8.2 1.8-2.3 5.8-2.9 8.2-1.2 35.1 26.3 77.2 40.4 121.1 40.4 111.1 0 201.1-90.6 201.1-201.7 0-3.5 2.3-5.8 5.8-5.8s5.8 2.3 5.8 5.8c.1 118.1-95.2 213.4-212.7 213.4zm-276.76 121.605c-.787.318-1.89-.15-2.352-.346l-57.07-24.23c-3.223-1.37-4.44-4.39-3.074-7.61l24.23-57.07c1.37-3.23 4.39-4.44 7.61-3.08l57.07 24.22c1.66.7 2.44 1.68 3.07 3.26.64 1.57.76 2.82.06 4.48l-24.22 57.07c-.7 1.66-1.68 2.43-3.26 3.07-.71.13-1.49.45-2.05.21zm-49.42-33.036l46.3 19.65 19.655-46.3L322.6 613l-19.653 46.302zm-52.534-162.12c-.786.31-1.89-.15-2.35-.35l-85.608-36.34c-1.657-.71-2.435-1.69-3.07-3.26-.637-1.58-.76-2.82-.056-4.48l36.57-86.16c.7-1.66 1.68-2.44 3.26-3.07 1.57-.64 2.82-.76 4.47-.06l85.6 36.33c1.65.7 2.43 1.68 3.07 3.26.63 1.57.76 2.82.05 4.47l-36.57 86.16c-1.03 2.17-3.59 3.583-5.39 3.47zM172.365 452l74.837 31.767 32-75.39-74.836-31.764-32 75.39zm301.324-45.48c-.79.32-1.9-.15-2.36-.344l-57.07-24.226c-1.66-.702-2.44-1.684-3.07-3.257-.64-1.574-.76-2.82-.06-4.478l24.22-57.07c1.37-3.225 4.38-4.44 7.6-3.076l57.07 24.23c1.66.7 2.432 1.68 3.07 3.26s.76 2.82.06 4.47l-24.22 57.07c-.86 2.02-2.58 3.25-5.25 3.42zm-49.19-33.58l46.3 19.652 19.65-46.3-46.3-19.655-19.65 46.303z"/>
  <path fill="#2C2828" d="M167.792 572.064c-.787.318-1.892-.15-2.352-.347-3.222-1.367-4.44-4.383-3.073-7.605l36.573-86.16c1.367-3.22 4.383-4.44 7.605-3.072 3.222 1.368 4.44 4.384 3.073 7.606l-36.573 86.16c-.898 2.116-2.667 3.212-5.253 3.418zm79.045-186.218c-.787.318-1.892-.15-2.352-.347-3.222-1.37-4.44-4.39-3.073-7.61l36.612-86.25c1.367-3.23 4.383-4.44 7.605-3.08 3.22 1.36 4.44 4.38 3.07 7.6l-36.58 86.16c-.9 2.11-2.94 3.85-5.3 3.51z"/>
  <path fill="#2C2828" d="M158.572 613.234c-3.138-.028-6.594-.843-9.816-2.21-6.444-2.736-10.976-7.16-13.14-13.835-2.49-6.17-2.658-13.19.077-19.63 3.868-9.12 12.88-15.5 23.135-15.61 3.138.03 6.594.84 9.816 2.21 12.887 5.47 18.768 20.02 13.297 32.91-4.37 10.31-13.2 16.01-23.36 16.15zm-.042-38.8c-5.778.046-10.284 3.24-12.355 8.117-1.367 3.23-1.63 6.92.102 10.26 1.218 3.02 3.737 6.04 7.05 7.45 6.996 2.97 14.928-.61 17.702-7.15 2.97-6.99-.07-14.69-7.16-17.7-1.7-.61-3.59-.76-5.35-.96zm133.946-276.657c-3.14-.028-6.595-.843-9.817-2.21-12.89-5.47-18.77-20.026-13.3-32.913 3.87-9.113 12.88-15.5 23.13-15.6 3.14.028 6.59.843 9.81 2.21 6.44 2.736 10.74 7.71 13.69 14.07 2.49 6.162 2.66 13.186-.08 19.63-4.23 8.418-13.29 14.673-23.46 14.813zm-.082-38.71c-5.777.048-10.283 3.24-12.354 8.12-2.97 6.995.064 14.693 7.152 17.7 6.996 2.97 14.927-.615 17.702-7.15 1.367-3.223 1.63-6.913-.102-10.256-1.218-3.01-3.737-6.04-7.05-7.44-1.657-.7-3.314-1.4-5.348-.96zm14.266 376.396c-.788.318-1.893-.15-2.353-.346-68.946-29.266-106.89-92.41-96.975-160.554.58-2.904 3.605-5.423 6.51-4.842 2.903.59 5.42 3.61 4.84 6.51-8.894 62.93 26.09 121.02 90.158 148.21 3.22 1.37 4.44 4.39 3.072 7.61-.898 2.12-2.902 3.77-5.253 3.42zm-57.097-239.66c-1.34.083-2.352-.347-3.222-1.368-2.43-1.685-3.27-5.845-1.03-8.046 42.17-54.56 114.01-71 182.86-41.78 3.23 1.37 4.44 4.38 3.08 7.6-1.37 3.22-4.38 4.44-7.6 3.07-64.01-27.07-130.19-11.92-169.28 38.19-1.21 1.33-3.25 1.77-4.78 2.31z"/>
</svg>
