<?xml version="1.0" encoding="utf-8"?>
<!-- Generator: Adobe Illustrator 18.1.1, SVG Export Plug-In . SVG Version: 6.00 Build 0)  -->
<!DOCTYPE svg PUBLIC "-//W3C//DTD SVG 1.1//EN" "http://www.w3.org/Graphics/SVG/1.1/DTD/svg11.dtd">
<svg version="1.1" id="Layer_1" xmlns:sketch="http://www.bohemiancoding.com/sketch/ns"
	 xmlns="http://www.w3.org/2000/svg" xmlns:xlink="http://www.w3.org/1999/xlink" x="0px" y="0px" viewBox="0 0 1000 1000"
	 enable-background="new 0 0 1000 1000" xml:space="preserve">
<title>icon/devise-light</title>
<desc>Created with Sketch.</desc>
<g id="pride" sketch:type="MSPage">
	<g id="Desktop-HD" transform="translate(-33.000000, -3859.000000)" sketch:type="MSArtboardGroup">
		<g id="section_x2F_approach" transform="translate(-1.000000, 3471.000000)" sketch:type="MSLayerGroup">
			<g id="icon_x2F_devise" transform="translate(34.000000, 388.000000)" sketch:type="MSShapeGroup">
				<g id="bulb" transform="translate(58.492546, 53.940444)">
					<path fill="#2C2828" d="M525.7,622.3H351.4c-3.5,0-5.8-2.3-5.8-5.8v-60.2c-42.7-31-69-83.6-69-137.4
						c0-87.7,77.2-161.4,167.8-161.4c88.9,0,161.4,72.5,161.4,161.4c0,69-24,113.5-74.3,138v59.6
						C531.5,619.9,529.2,622.3,525.7,622.3z M357.3,610.6h162.6v-57.9c0-2.3,1.2-4.1,3.5-5.3c48.5-22.2,71.3-63.7,71.3-129.2
						c0-82.5-67.3-149.7-149.7-149.7c-84.8,0-156.1,68.4-156.1,149.7c0,51.5,25.7,101.2,66.7,129.8c1.8,1.2,2.3,2.9,2.3,4.7v57.9
						H357.3z"/>
					<path fill="#2C2828" d="M438.5,773.7c-41.5,0-67.3-21.6-67.3-55.6c0-3.5,2.3-5.8,5.8-5.8h122.2c3.5,0,5.8,2.3,5.8,5.8
						C505.8,752.1,480.1,773.7,438.5,773.7z M383.6,723.4c4.1,35.1,42.7,38,55,38s51.5-2.9,55-38H383.6z"/>
					<path fill="#2C2828" d="M515.7,657.3h-155c-3.5,0-5.8-2.3-5.8-5.8c0-3.5,2.3-5.8,5.8-5.8h155c3.5,0,5.8,2.3,5.8,5.8
						C521.6,655,519.2,657.3,515.7,657.3z"/>
					<path fill="#2C2828" d="M511.1,692.4H366c-3.5,0-5.8-2.3-5.8-5.8s2.3-5.8,5.8-5.8h145c3.5,0,5.8,2.3,5.8,5.8
						S514.6,692.4,511.1,692.4z"/>
					<path fill="#2C2828" d="M425.1,622.3c-2.3,0-4.7-1.8-5.8-4.1l-54.4-190.6c0-0.6,0-1.2,0-1.8c0-2.3,1.8-4.7,4.1-5.8
						c2.9-1.2,6.4,1.2,7,4.1l54.4,190.6c0,0.6,0,1.2,0,1.8c0,2.3-1.8,4.7-4.1,5.8C426.3,622.3,425.7,622.3,425.1,622.3z"/>
					<path fill="#2C2828" d="M449.7,622.3c-0.6,0-1.2,0-1.8-0.6c-2.3-0.6-4.1-2.9-4.1-5.3c0-0.6,0-1.2,0.6-1.8L511.6,424
						c1.2-2.9,4.7-4.7,7.6-3.5c2.3,0.6,4.1,2.9,4.1,5.3c0,0.6,0,1.2-0.6,1.8l-67.3,190.6C454.3,620.5,452,622.3,449.7,622.3z"/>
					<path fill="#A57F5F" d="M466,429.9c-8.2,0-17-4.1-24-7.6c-13.5-6.4-22.2-9.9-31-1.2c-2.3,2.3-5.8,2.3-8.2,0s-2.3-5.8,0-8.2
						c15.2-15.2,31.6-7.6,44.4-1.2c13.5,6.4,21.6,9.4,29.8,1.2c2.3-2.3,5.8-2.3,8.2,0s2.3,5.8,0,8.2
						C478.3,427.5,471.9,429.9,466,429.9z"/>
				</g>
				<path fill="#A57F5F" d="M782.5,626.8c-0.6,0-1.8,0-2.3-0.6l-45-22.2c-2.9-1.2-4.1-4.7-2.9-7.6c1.2-2.9,4.7-4.1,7.6-2.9l45,22.2
					c2.9,1.2,4.1,4.7,2.9,7.6C787.1,625.7,784.8,626.8,782.5,626.8z M217.5,626.8c-2.3,0-4.1-1.2-5.3-3.5c-1.2-2.9,0-6.4,2.9-7.6
					l45-22.2c2.9-1.2,6.4,0,7.6,2.9c1.2,2.9,0,6.4-2.9,7.6l-45,22.2C219.3,626.3,218.1,626.8,217.5,626.8z M814,490h-50.3
					c-3.5,0-5.8-2.3-5.8-5.8c0-3.5,2.3-5.8,5.8-5.8H814c3.5,0,5.8,2.3,5.8,5.8C819.9,487.7,817,490,814,490z M236.3,490H186
					c-3.5,0-5.8-2.3-5.8-5.8c0-3.5,2.3-5.8,5.8-5.8h50.3c3.5,0,5.8,2.3,5.8,5.8C242.1,487.7,239.8,490,236.3,490z M737.4,376
					c-2.3,0-4.1-1.2-5.3-3.5c-1.2-2.9,0-6.4,2.9-7.6l45-22.2c2.9-1.2,6.4,0,7.6,2.9c1.2,2.9,0,6.4-2.9,7.6l-45,22.2
					C739.2,376,738.6,376,737.4,376z M262.6,376c-0.6,0-1.8,0-2.3-0.6l-45-22.2c-2.9-1.2-4.1-4.7-2.9-7.6s4.7-4.1,7.6-2.9l45,22.2
					c2.9,1.2,4.1,4.7,2.9,7.6C266.7,374.8,264.3,376,262.6,376z M664.3,284.1c-1.2,0-2.3-0.6-3.5-1.2c-2.3-1.8-2.9-5.8-0.6-8.2
					l31.6-39.2c1.8-2.3,5.8-2.9,8.2-0.6c2.3,1.8,2.9,5.8,0.6,8.2L669,282.4C667.8,283,666.1,284.1,664.3,284.1z M335.7,284.1
					c-1.8,0-3.5-0.6-4.7-2.3l-31.6-39.2c-1.8-2.3-1.8-6.4,0.6-8.2c2.3-1.8,6.4-1.8,8.2,0.6l31.6,39.2c1.8,2.3,1.8,6.4-0.6,8.2
					C338.6,283.6,336.8,284.1,335.7,284.1z M441.5,233.3c-2.9,0-5.3-1.8-5.8-4.7l-11.1-49.1c-0.6-2.9,1.2-6.4,4.1-7
					c2.9-0.6,6.4,1.2,7,4.1l11.1,49.1c0.6,2.9-1.2,6.4-4.1,7C442.1,232.7,442.1,233.3,441.5,233.3z M558.5,233.3c-0.6,0-1.2,0-1.2,0
					c-2.9-0.6-5.3-4.1-4.7-7l11.1-49.1c0.6-2.9,4.1-5.3,7-4.1c2.9,0.6,5.3,4.1,4.7,7l-11.1,49.1
					C563.7,230.9,561.4,233.3,558.5,233.3z"/>
			</g>
		</g>
	</g>
</g>
</svg>
