<svg xmlns="http://www.w3.org/2000/svg" viewBox="0 0 1000 1000">
  <path fill="#2C2828" d="M584.193 676.24h-174.3c-3.5 0-5.8-2.3-5.8-5.8v-60.2c-42.7-31-69-83.6-69-137.4 0-87.7 77.2-161.4 167.8-161.4 88.9 0 161.4 72.5 161.4 161.4 0 69-24 113.5-74.3 138v59.6c0 3.4-2.3 5.8-5.8 5.8zm-168.4-11.7h162.6v-57.9c0-2.3 1.2-4.1 3.5-5.3 48.5-22.2 71.3-63.7 71.3-129.2 0-82.5-67.3-149.7-149.7-149.7-84.8 0-156.1 68.4-156.1 149.7 0 51.5 25.7 101.2 66.7 129.8 1.8 1.2 2.3 2.9 2.3 4.7v57.9h-.6zm81.2 163.1c-41.5 0-67.3-21.6-67.3-55.6 0-3.5 2.3-5.8 5.8-5.8h122.2c3.5 0 5.8 2.3 5.8 5.8.8 34-24.9 55.6-66.5 55.6zm-54.9-50.3c4.1 35.1 42.7 38 55 38s51.5-2.9 55-38h-110zm132.1-66.1h-155c-3.5 0-5.8-2.3-5.8-5.8s2.3-5.8 5.8-5.8h155c3.5 0 5.8 2.3 5.8 5.8.1 3.5-2.3 5.8-5.8 5.8zm-4.6 35.1h-145.1c-3.5 0-5.8-2.3-5.8-5.8s2.3-5.8 5.8-5.8h145c3.5 0 5.8 2.3 5.8 5.8s-2.2 5.8-5.7 5.8z"/>
  <path fill="#2C2828" d="M483.593 676.24c-2.3 0-4.7-1.8-5.8-4.1l-54.4-190.6v-1.8c0-2.3 1.8-4.7 4.1-5.8 2.9-1.2 6.4 1.2 7 4.1l54.4 190.6v1.8c0 2.3-1.8 4.7-4.1 5.8h-1.2zm24.6 0c-.6 0-1.2 0-1.8-.6-2.3-.6-4.1-2.9-4.1-5.3 0-.6 0-1.2.6-1.8l67.2-190.6c1.2-2.9 4.7-4.7 7.6-3.5 2.3.6 4.1 2.9 4.1 5.3 0 .6 0 1.2-.6 1.8l-67.3 190.6c-1.1 2.3-3.4 4.1-5.7 4.1z"/>
  <path fill="#A57F5F" d="M524.493 483.84c-8.2 0-17-4.1-24-7.6-13.5-6.4-22.2-9.9-31-1.2-2.3 2.3-5.8 2.3-8.2 0s-2.3-5.8 0-8.2c15.2-15.2 31.6-7.6 44.4-1.2 13.5 6.4 21.6 9.4 29.8 1.2 2.3-2.3 5.8-2.3 8.2 0s2.3 5.8 0 8.2c-6.9 6.4-13.3 8.8-19.2 8.8zM782.5 626.8c-.6 0-1.8 0-2.3-.6l-45-22.2c-2.9-1.2-4.1-4.7-2.9-7.6 1.2-2.9 4.7-4.1 7.6-2.9l45 22.2c2.9 1.2 4.1 4.7 2.9 7.6-.7 2.4-3 3.5-5.3 3.5zm-565 0c-2.3 0-4.1-1.2-5.3-3.5-1.2-2.9 0-6.4 2.9-7.6l45-22.2c2.9-1.2 6.4 0 7.6 2.9 1.2 2.9 0 6.4-2.9 7.6l-45 22.2c-.5.1-1.7.6-2.3.6zM814 490h-50.3c-3.5 0-5.8-2.3-5.8-5.8s2.3-5.8 5.8-5.8H814c3.5 0 5.8 2.3 5.8 5.8.1 3.5-2.8 5.8-5.8 5.8zm-577.7 0H186c-3.5 0-5.8-2.3-5.8-5.8s2.3-5.8 5.8-5.8h50.3c3.5 0 5.8 2.3 5.8 5.8s-2.3 5.8-5.8 5.8zm501.1-114c-2.3 0-4.1-1.2-5.3-3.5-1.2-2.9 0-6.4 2.9-7.6l45-22.2c2.9-1.2 6.4 0 7.6 2.9 1.2 2.9 0 6.4-2.9 7.6l-45 22.2c-.5.6-1.1.6-2.3.6zm-474.8 0c-.6 0-1.8 0-2.3-.6l-45-22.2c-2.9-1.2-4.1-4.7-2.9-7.6s4.7-4.1 7.6-2.9l45 22.2c2.9 1.2 4.1 4.7 2.9 7.6-1.2 2.3-3.6 3.5-5.3 3.5zm401.7-91.9c-1.2 0-2.3-.6-3.5-1.2-2.3-1.8-2.9-5.8-.6-8.2l31.6-39.2c1.8-2.3 5.8-2.9 8.2-.6 2.3 1.8 2.9 5.8.6 8.2L669 282.4c-1.2.6-2.9 1.7-4.7 1.7zm-328.6 0c-1.8 0-3.5-.6-4.7-2.3l-31.6-39.2c-1.8-2.3-1.8-6.4.6-8.2 2.3-1.8 6.4-1.8 8.2.6l31.6 39.2c1.8 2.3 1.8 6.4-.6 8.2-.6 1.2-2.4 1.7-3.5 1.7zm105.8-50.8c-2.9 0-5.3-1.8-5.8-4.7l-11.1-49.1c-.6-2.9 1.2-6.4 4.1-7 2.9-.6 6.4 1.2 7 4.1l11.1 49.1c.6 2.9-1.2 6.4-4.1 7-.6 0-.6.6-1.2.6zm117 0h-1.2c-2.9-.6-5.3-4.1-4.7-7l11.1-49.1c.6-2.9 4.1-5.3 7-4.1 2.9.6 5.3 4.1 4.7 7l-11.1 49.1c-.6 1.7-2.9 4.1-5.8 4.1z"/>
</svg>
