<?xml version="1.0" encoding="UTF-8" standalone="no"?>
<svg width="1035px" height="782px" viewBox="0 0 1035 782" version="1.1" xmlns="http://www.w3.org/2000/svg" xmlns:xlink="http://www.w3.org/1999/xlink" xmlns:sketch="http://www.bohemiancoding.com/sketch/ns">
    <!-- Generator: Sketch 3.5.2 (25235) - http://www.bohemiancoding.com/sketch -->
    <title>imac</title>
    <desc>Created with Sketch.</desc>
    <defs></defs>
    <g id="Page-1" stroke="none" stroke-width="1" fill="none" fill-rule="evenodd" sketch:type="MSPage">
        <g id="imac" sketch:type="MSLayerGroup" transform="translate(7.000000, 8.000000)" stroke-linecap="round" stroke-linejoin="round">
            <path d="M245.375896,765 L775.624104,765" id="Stroke-6393" stroke="#2C2828" stroke-width="15" sketch:type="MSShapeGroup"></path>
            <path d="M510,677.754907 L510,765.962865" id="Stroke-6394" stroke="#2C2828" stroke-width="15" sketch:type="MSShapeGroup"></path>
            <path d="M0.834063745,529 L1020.16594,529" id="Stroke-6395" stroke="#A57F5F" stroke-width="15" sketch:type="MSShapeGroup"></path>
            <path d="M1020.16594,618.677984 C1020.16594,651.068435 988.579283,677.754907 949.860159,677.754907 L71.1398406,677.754907 C32.4207171,677.754907 0.834063745,651.272149 0.834063745,618.677984 L0.834063745,59.2806366 C0.834063745,26.8901857 32.4207171,0.203713528 71.1398406,0.203713528 L949.860159,0.203713528 C988.579283,0.203713528 1020.16594,26.6864721 1020.16594,59.2806366 L1020.16594,618.677984 L1020.16594,618.677984 L1020.16594,618.677984 Z" id="Stroke-6396" stroke="#2C2828" stroke-width="15" sketch:type="MSShapeGroup"></path>
            <path d="M525.17251,604.01061 C525.17251,612.159151 518.651394,618.677984 510.5,618.677984 C502.348606,618.677984 495.82749,612.159151 495.82749,604.01061 C495.82749,595.862069 502.348606,589.343236 510.5,589.343236 C518.651394,589.343236 525.17251,596.065782 525.17251,604.01061 L525.17251,604.01061 L525.17251,604.01061 Z" id="Stroke-6397" stroke="#2C2828" stroke-width="9" sketch:type="MSShapeGroup"></path>
        </g>
    </g>
</svg>