<svg xmlns="http://www.w3.org/2000/svg" viewBox="0 0 1000 1000">
  <path fill="#2C2828" d="M499.7 745c-94.2 0-180.7-55-221.1-139.8-1.2-2.3-.6-4.7 1.2-6.4 1.8-1.8 4.1-2.3 6.4-1.2C354 624.5 426 638 500.2 638s146.2-13.5 214-40.4c2.3-1.2 4.7-.6 6.4 1.2 1.8 1.8 2.3 4.1 1.2 6.4C680.4 690.1 593.9 745 499.7 745zM296.2 613.5c40.9 73.1 119.3 119.9 204.1 119.9s163.2-46.8 203.5-119.9c-64.9 24-133.3 35.7-203.5 35.7-70.8-.1-139.2-12.4-204.1-35.7zm419.3-210c-.6 0-1.2 0-2.3-.6-67.8-26.9-139.8-40.4-214-40.4S353 376 285.2 402.9c-2.3 1.2-4.7.6-6.4-1.2-1.8-1.8-1.8-4.1-1.2-6.4 40.4-84.8 127.5-139.8 221.1-139.8 94.2 0 180.7 55 221.1 139.8 1.2 2.3.6 4.7-1.2 6.4.4 1.2-1.3 1.8-3.1 1.8zm-215.8-52.6c70.2 0 139.2 12.3 203.5 35.7-40.9-73.1-119.3-119.9-203.5-119.9-84.8 0-163.2 46.8-204.1 119.9 65.5-24 133.9-35.7 204.1-35.7z"/>
  <path fill="#2C2828" d="M499.7 625.1c-69 0-125.1-56.1-125.1-125.1s56.1-125.1 125.1-125.1S624.9 431 624.9 500s-56.2 125.1-125.2 125.1zm0-238.6c-62.6 0-113.5 50.9-113.5 113.5s50.9 113.5 113.5 113.5S613.2 562.6 613.2 500s-50.9-113.5-113.5-113.5z"/>
  <path fill="#A57F5F" d="M499.7 565.5c-36.3 0-65.5-29.2-65.5-65.5s29.2-65.5 65.5-65.5 65.5 29.2 65.5 65.5-29.2 65.5-65.5 65.5zm0-119.3c-29.8 0-53.8 24-53.8 53.8 0 29.8 24 53.8 53.8 53.8 29.8 0 53.8-24 53.8-53.8 0-29.8-24-53.8-53.8-53.8z"/>
  <path fill="#2C2828" d="M499.7 649.1c-144.4 0-281.3-51.5-386.5-145-1.2-1.2-1.8-2.9-1.8-4.1 0-1.8.6-3.5 1.8-4.1 104.7-93.6 242.1-145 386.5-145s281.3 51.5 386.5 145c1.2 1.2 1.8 2.9 1.8 4.1 0 1.8-.6 3.5-1.8 4.1-105.2 93.6-242 145-386.5 145zM126 500c102.3 88.9 234.5 137.4 373.7 137.4S771.1 588.9 873.4 500c-102.3-88.9-234.5-137.4-373.7-137.4S228.4 411.1 126 500z"/>
  <path fill="#2C2828" d="M499.7 529.8c-16.4 0-29.8-13.5-29.8-29.8s13.5-29.8 29.8-29.8c16.4 0 29.8 13.5 29.8 29.8s-13.4 29.8-29.8 29.8zm0-47.9c-9.9 0-18.1 8.2-18.1 18.1s8.2 18.1 18.1 18.1 18.1-8.2 18.1-18.1-8.2-18.1-18.1-18.1zm191.2-167.3c-1.8 0-2.9-.6-4.1-1.8-2.3-2.3-2.3-5.8 0-8.2l95.3-95.3c1.2-1.2 2.3-1.8 4.1-1.8h191.2c3.5 0 5.8 2.3 5.8 5.8s-2.3 5.8-5.8 5.8H788.6l-94.2 94.2c-.5.7-1.7 1.3-3.5 1.3zm191.3-24h-48c-3.5 0-5.8-2.3-5.8-5.8s2.3-5.8 5.8-5.8h48c3.5 0 5.8 2.3 5.8 5.8s-2.3 5.8-5.8 5.8zm95.9-23.9H834.8c-3.5 0-5.8-2.3-5.8-5.8s2.3-5.8 5.8-5.8h143.3c3.5 0 5.8 2.3 5.8 5.8 0 3.4-2.9 5.8-5.8 5.8zm-95.9-95.4h-48c-3.5 0-5.8-2.3-5.8-5.8v-48c0-3.5 2.3-5.8 5.8-5.8h48c3.5 0 5.8 2.3 5.8 5.8v48c0 2.9-2.3 5.8-5.8 5.8zm-42.1-11.7h36.3v-36.3h-36.3v36.3z"/>
  <path fill="#2C2828" d="M165.2 936.3h-48c-3.5 0-5.8-2.3-5.8-5.8s2.3-5.8 5.8-5.8h48c3.5 0 5.8 2.3 5.8 5.8s-2.9 5.8-5.8 5.8zm48-143.9H21.9c-3.5 0-5.8-2.3-5.8-5.8s2.3-5.8 5.8-5.8h188.9l94.2-94.2c2.3-2.3 5.8-2.3 8.2 0 2.3 2.3 2.3 5.8 0 8.2l-95.3 95.3c-1.8 1.7-3.6 2.3-4.7 2.3zm-48-47.4H21.9c-3.5 0-5.8-2.3-5.8-5.8s2.3-5.8 5.8-5.8h143.3c3.5 0 5.8 2.3 5.8 5.8.1 3.5-2.9 5.8-5.8 5.8zm0-23.9h-48c-3.5 0-5.8-2.3-5.8-5.8s2.3-5.8 5.8-5.8h48c3.5 0 5.8 2.3 5.8 5.8.1 3.4-2.9 5.8-5.8 5.8zm669-549.8c-1.8 0-2.9-.6-4.1-1.8-2.3-2.3-2.3-5.8 0-8.2l48-48c2.3-2.3 5.8-2.3 8.2 0 2.3 2.3 2.3 5.8 0 8.2l-48 48c-1.2 1.3-2.3 1.8-4.1 1.8zm48-95.9h-48c-3.5 0-5.8-2.3-5.8-5.8s2.3-5.8 5.8-5.8h48c3.5 0 5.8 2.3 5.8 5.8s-2.3 5.8-5.8 5.8z"/>
  <path fill="#A57F5F" d="M141.2 888.3c-16.4 0-29.8-13.5-29.8-29.8s13.5-29.8 29.8-29.8c16.4 0 29.8 13.5 29.8 29.8.1 16.4-13.4 29.8-29.8 29.8zm0-47.9c-9.9 0-18.1 8.2-18.1 18.1 0 9.9 8.2 18.1 18.1 18.1s18.1-8.2 18.1-18.1c.1-10-8.1-18.1-18.1-18.1z"/>
  <path fill="#2C2828" d="M308.5 936.3h-95.3c-3.5 0-5.8-2.3-5.8-5.8v-95.9c0-3.5 2.3-5.8 5.8-5.8h95.3c3.5 0 5.8 2.3 5.8 5.8v95.3c0 3.4-2.3 6.4-5.8 6.4zM219 924.6h83.6v-84.2H219v84.2z"/>
  <path fill="#A57F5F" d="M738.9 171.3c-29.8 0-53.8-24-53.8-53.8s24-53.8 53.8-53.8 53.8 24 53.8 53.8-24.6 53.8-53.8 53.8zm0-95.9c-23.4 0-42.1 18.7-42.1 42.1s18.7 42.1 42.1 42.1c23.4 0 42.1-18.7 42.1-42.1s-19.3-42.1-42.1-42.1z"/>
  <path fill="#2C2828" d="M308.5 888.3h-95.3c-3.5 0-5.8-2.3-5.8-5.8s2.3-5.8 5.8-5.8h95.3c3.5 0 5.8 2.3 5.8 5.8s-2.3 5.8-5.8 5.8z"/>
</svg>
