<?xml version="1.0" encoding="utf-8"?>
<!-- Generator: Adobe Illustrator 18.1.1, SVG Export Plug-In . SVG Version: 6.00 Build 0)  -->
<!DOCTYPE svg PUBLIC "-//W3C//DTD SVG 1.1//EN" "http://www.w3.org/Graphics/SVG/1.1/DTD/svg11.dtd">
<svg version="1.1" id="Layer_1" xmlns:sketch="http://www.bohemiancoding.com/sketch/ns"
	 xmlns="http://www.w3.org/2000/svg" xmlns:xlink="http://www.w3.org/1999/xlink" x="0px" y="0px" viewBox="0 0 1000 1000"
	 enable-background="new 0 0 1000 1000" xml:space="preserve">
<title>icon/interface-light</title>
<desc>Created with Sketch.</desc>
<g id="approach" sketch:type="MSPage">
	<g id="Desktop-HD" transform="translate(-917.000000, -6476.000000)" sketch:type="MSArtboardGroup">
		<g id="section_x2F_approach_x2F_active" transform="translate(-26.000000, 416.000000)" sketch:type="MSLayerGroup">
			<g id="approach_x2F_5-active" transform="translate(26.000000, 4970.000000)" sketch:type="MSShapeGroup">
				<g id="icon_x2F_interface" transform="translate(917.000000, 1090.000000)">
					<path fill="#2C2828" d="M499.7,745c-94.2,0-180.7-55-221.1-139.8c-1.2-2.3-0.6-4.7,1.2-6.4c1.8-1.8,4.1-2.3,6.4-1.2
						c67.8,26.9,139.8,40.4,214,40.4s146.2-13.5,214-40.4c2.3-1.2,4.7-0.6,6.4,1.2c1.8,1.8,2.3,4.1,1.2,6.4
						C680.4,690.1,593.9,745,499.7,745z M296.2,613.5c40.9,73.1,119.3,119.9,204.1,119.9s163.2-46.8,203.5-119.9
						c-64.9,24-133.3,35.7-203.5,35.7C429.5,649.1,361.1,636.8,296.2,613.5z M715.5,403.5c-0.6,0-1.2,0-2.3-0.6
						c-67.8-26.9-139.8-40.4-214-40.4s-146.2,13.5-214,40.4c-2.3,1.2-4.7,0.6-6.4-1.2c-1.8-1.8-1.8-4.1-1.2-6.4
						c40.4-84.8,127.5-139.8,221.1-139.8c94.2,0,180.7,55,221.1,139.8c1.2,2.3,0.6,4.7-1.2,6.4C719,402.9,717.3,403.5,715.5,403.5z
						 M499.7,350.9c70.2,0,139.2,12.3,203.5,35.7c-40.9-73.1-119.3-119.9-203.5-119.9c-84.8,0-163.2,46.8-204.1,119.9
						C361.1,362.6,429.5,350.9,499.7,350.9z"/>
					<path fill="#2C2828" d="M499.7,625.1c-69,0-125.1-56.1-125.1-125.1c0-69,56.1-125.1,125.1-125.1S624.9,431,624.9,500
						C624.9,569,568.7,625.1,499.7,625.1z M499.7,386.5c-62.6,0-113.5,50.9-113.5,113.5c0,62.6,50.9,113.5,113.5,113.5
						c62.6,0,113.5-50.9,113.5-113.5C613.2,437.4,562.3,386.5,499.7,386.5z"/>
					<path fill="#A57F5F" d="M499.7,565.5c-36.3,0-65.5-29.2-65.5-65.5s29.2-65.5,65.5-65.5s65.5,29.2,65.5,65.5
						S536,565.5,499.7,565.5z M499.7,446.2c-29.8,0-53.8,24-53.8,53.8c0,29.8,24,53.8,53.8,53.8c29.8,0,53.8-24,53.8-53.8
						C553.5,470.2,529.5,446.2,499.7,446.2z"/>
					<path fill="#2C2828" d="M499.7,649.1c-144.4,0-281.3-51.5-386.5-145c-1.2-1.2-1.8-2.9-1.8-4.1c0-1.8,0.6-3.5,1.8-4.1
						c104.7-93.6,242.1-145,386.5-145s281.3,51.5,386.5,145c1.2,1.2,1.8,2.9,1.8,4.1c0,1.8-0.6,3.5-1.8,4.1
						C781,597.7,644.2,649.1,499.7,649.1z M126,500c102.3,88.9,234.5,137.4,373.7,137.4S771.1,588.9,873.4,500
						c-102.3-88.9-234.5-137.4-373.7-137.4S228.4,411.1,126,500z"/>
					<path fill="#2C2828" d="M499.7,529.8c-16.4,0-29.8-13.5-29.8-29.8s13.5-29.8,29.8-29.8c16.4,0,29.8,13.5,29.8,29.8
						S516.1,529.8,499.7,529.8z M499.7,481.9c-9.9,0-18.1,8.2-18.1,18.1s8.2,18.1,18.1,18.1s18.1-8.2,18.1-18.1
						S509.6,481.9,499.7,481.9z"/>
					<path fill="#2C2828" d="M690.9,314.6c-1.8,0-2.9-0.6-4.1-1.8c-2.3-2.3-2.3-5.8,0-8.2l95.3-95.3c1.2-1.2,2.3-1.8,4.1-1.8h191.2
						c3.5,0,5.8,2.3,5.8,5.8c0,3.5-2.3,5.8-5.8,5.8H788.6l-94.2,94.2C693.9,314,692.7,314.6,690.9,314.6z M882.2,290.6h-48
						c-3.5,0-5.8-2.3-5.8-5.8c0-3.5,2.3-5.8,5.8-5.8h48c3.5,0,5.8,2.3,5.8,5.8C888,288.3,885.7,290.6,882.2,290.6z M978.1,266.7
						H834.8c-3.5,0-5.8-2.3-5.8-5.8c0-3.5,2.3-5.8,5.8-5.8h143.3c3.5,0,5.8,2.3,5.8,5.8C983.9,264.3,981,266.7,978.1,266.7z"/>
					<path fill="#2C2828" d="M882.2,171.3h-48c-3.5,0-5.8-2.3-5.8-5.8v-48c0-3.5,2.3-5.8,5.8-5.8h48c3.5,0,5.8,2.3,5.8,5.8v48
						C888,168.4,885.7,171.3,882.2,171.3z M840.1,159.6h36.3v-36.3h-36.3V159.6z"/>
					<path fill="#2C2828" d="M165.2,936.3h-48c-3.5,0-5.8-2.3-5.8-5.8s2.3-5.8,5.8-5.8h48c3.5,0,5.8,2.3,5.8,5.8
						S168.1,936.3,165.2,936.3z M213.2,792.4H21.9c-3.5,0-5.8-2.3-5.8-5.8s2.3-5.8,5.8-5.8h188.9l94.2-94.2c2.3-2.3,5.8-2.3,8.2,0
						c2.3,2.3,2.3,5.8,0,8.2l-95.3,95.3C216.1,791.8,214.3,792.4,213.2,792.4z M165.2,745H21.9c-3.5,0-5.8-2.3-5.8-5.8
						c0-3.5,2.3-5.8,5.8-5.8h143.3c3.5,0,5.8,2.3,5.8,5.8C171.1,742.7,168.1,745,165.2,745z M165.2,721.1h-48
						c-3.5,0-5.8-2.3-5.8-5.8c0-3.5,2.3-5.8,5.8-5.8h48c3.5,0,5.8,2.3,5.8,5.8C171.1,718.7,168.1,721.1,165.2,721.1z M834.2,171.3
						c-1.8,0-2.9-0.6-4.1-1.8c-2.3-2.3-2.3-5.8,0-8.2l48-48c2.3-2.3,5.8-2.3,8.2,0c2.3,2.3,2.3,5.8,0,8.2l-48,48
						C837.1,170.8,836,171.3,834.2,171.3z M882.2,75.4h-48c-3.5,0-5.8-2.3-5.8-5.8c0-3.5,2.3-5.8,5.8-5.8h48c3.5,0,5.8,2.3,5.8,5.8
						C888,73.1,885.7,75.4,882.2,75.4z"/>
					<path fill="#A57F5F" d="M141.2,888.3c-16.4,0-29.8-13.5-29.8-29.8s13.5-29.8,29.8-29.8c16.4,0,29.8,13.5,29.8,29.8
						C171.1,874.9,157.6,888.3,141.2,888.3z M141.2,840.4c-9.9,0-18.1,8.2-18.1,18.1c0,9.9,8.2,18.1,18.1,18.1s18.1-8.2,18.1-18.1
						C159.4,848.5,151.2,840.4,141.2,840.4z"/>
					<path fill="#2C2828" d="M308.5,936.3h-95.3c-3.5,0-5.8-2.3-5.8-5.8v-95.9c0-3.5,2.3-5.8,5.8-5.8h95.3c3.5,0,5.8,2.3,5.8,5.8
						v95.3C314.3,933.3,312,936.3,308.5,936.3z M219,924.6h83.6v-84.2H219V924.6z"/>
					<path fill="#A57F5F" d="M738.9,171.3c-29.8,0-53.8-24-53.8-53.8s24-53.8,53.8-53.8s53.8,24,53.8,53.8S768.1,171.3,738.9,171.3z
						 M738.9,75.4c-23.4,0-42.1,18.7-42.1,42.1s18.7,42.1,42.1,42.1c23.4,0,42.1-18.7,42.1-42.1S761.7,75.4,738.9,75.4z"/>
					<path fill="#2C2828" d="M308.5,888.3h-95.3c-3.5,0-5.8-2.3-5.8-5.8c0-3.5,2.3-5.8,5.8-5.8h95.3c3.5,0,5.8,2.3,5.8,5.8
						C314.3,886,312,888.3,308.5,888.3z"/>
				</g>
			</g>
		</g>
	</g>
</g>
</svg>
