<svg xmlns="http://www.w3.org/2000/svg" viewBox="0 0 1000 1000">
  <path fill="#FFF" d="M625.7 437.1c0 69-56.1 125.7-125.7 125.7s-125.7-56.1-125.7-125.7c0-69 56.1-125.7 125.7-125.7s125.7 56.7 125.7 125.7z"/>
  <path fill="#A57F5F" d="M500 568.7c-72.5 0-131.6-59.1-131.6-131.6S427.5 305.6 500 305.6s131.6 59.1 131.6 131.6S572.5 568.7 500 568.7zm0-250.9c-66.1 0-119.9 53.8-119.9 119.9S433.9 557.6 500 557.6s119.9-53.8 119.9-119.9S566.1 317.8 500 317.8z"/>
  <path fill="#A57F5F" d="M545 417.8c-2.9 0-5.8-2.3-5.8-5.8 0 0 0-.6-.6-.6-3.5 0-5.8-2.3-5.8-5.8v-6.4s0-.6-.6-.6h-4.1c-4.1 0-7.6-1.2-10.5-3.5-2.9 2.3-6.4 3.5-10.5 3.5h-37.4s-.6 0-.6.6v6.4c0 3.5-2.3 5.8-5.8 5.8 0 0-.6 0-.6.6 0 2.9-2.9 5.8-5.8 5.8s-5.8-2.9-5.8-5.8v-24.6c0-24 22.2-43.3 49.7-43.3 27.5 0 49.7 19.3 49.7 43.3v25.1c.4 2.4-2.5 5.3-5.5 5.3zm-27.5-35.6c1.8 0 3.5 1.2 4.7 2.3 1.2 1.8 3.5 2.9 5.8 2.9h4.1c2.3 0 4.7.6 6.4 1.8v-2.3c0-17.5-17-31.6-38-31.6s-38 14-38 31.6v2.3c1.8-1.2 4.1-1.8 6.4-1.8h37.4c2.3 0 4.1-1.2 5.8-2.9 1.9-1.8 3.7-2.3 5.4-2.3zm-107 148.5h-1.8c-2.9-1.2-4.7-4.1-4.1-7l7-25.1c1.2-5.3 5.8-9.9 10.5-12.3 51.5-22.8 51.5-22.8 52-22.8 1.8-.6 3.5 0 4.7.6 1.2 1.2 2.3 2.3 2.3 4.1 1.2 9.4 9.4 17 19.3 17 9.4 0 18.1-7 19.3-17 0-1.8 1.2-3.5 2.9-4.1 1.8-1.2 3.5-1.2 5.3 0l50.9 22.2c4.7 2.3 9.4 7.6 10.5 12.3l6.4 24c.6 2.9-1.2 6.4-4.1 7-2.9.6-6.4-1.2-7-4.1l-6.4-24c-.6-1.8-2.9-4.1-4.1-4.7l-45-19.9c-4.7 11.7-16.4 19.9-29.2 19.9s-24.6-8.2-28.7-19.9c-11.1 4.7-34.5 15.2-45 19.9-1.8.6-3.5 2.9-4.1 4.7l-7 25.1c.1 2.3-2.2 4.1-4.6 4.1z"/>
  <path fill="#2C2828" d="M750.9 234.2H249.1c-3.5 0-5.8-2.3-5.8-5.8V123.7c0-3.5 2.3-5.8 5.8-5.8h501.8c3.5 0 5.8 2.3 5.8 5.8v104.7c0 2.9-2.9 5.8-5.8 5.8zM255 222.5h490v-93H255v93z"/>
  <path fill="#2C2828" d="M750.9 777.5H249.1c-3.5 0-5.8-2.3-5.8-5.8V227.8c0-3.5 2.3-5.8 5.8-5.8h501.8c3.5 0 5.8 2.3 5.8 5.8v543.9c0 3.4-2.9 5.8-5.8 5.8zM255 765.8h490V233.6H255v532.2z"/>
  <path fill="#2C2828" d="M750.9 882.2H249.1c-3.5 0-5.8-2.3-5.8-5.8V771.6c0-3.5 2.3-5.8 5.8-5.8h501.8c3.5 0 5.8 2.3 5.8 5.8v104.7c0 3.5-2.9 5.9-5.8 5.9zM255 870.5h490v-93H255v93zM542.1 736h-83.6c-3.5 0-5.8-2.3-5.8-5.8V688c0-3.5 2.3-5.8 5.8-5.8h83.6c3.5 0 5.8 2.3 5.8 5.8v42.1c.1 2.9-2.9 5.9-5.8 5.9zm-77.8-11.7h71.9v-30.4h-71.9v30.4zm77.8-93h-83.6c-3.5 0-5.8-2.3-5.8-5.8s2.3-5.8 5.8-5.8h83.6c3.5 0 5.8 2.3 5.8 5.8.1 3.4-2.9 5.8-5.8 5.8zm41.5-21.1H416.4c-3.5 0-5.8-2.3-5.8-5.8s2.3-5.8 5.8-5.8h167.3c3.5 0 5.8 2.3 5.8 5.8s-2.4 5.8-5.9 5.8z"/>
  <path fill="#2C2828" d="M531.6 840.6H469c-3.5 0-5.8-2.3-5.8-5.8v-21.1c0-3.5 2.3-5.8 5.8-5.8h62.6c3.5 0 5.8 2.3 5.8 5.8v21.1c0 2.9-2.3 5.8-5.8 5.8zm-56.7-11.7h50.9v-9.4h-50.9v9.4zm56.7-636.8H469c-3.5 0-5.8-2.3-5.8-5.8v-21.1c0-3.5 2.3-5.8 5.8-5.8h62.6c3.5 0 5.8 2.3 5.8 5.8v21.1c0 3.5-2.3 5.8-5.8 5.8zm-56.7-11.7h50.9V171h-50.9v9.4z"/>
  <path fill="#A57F5F" d="M501.2 478.7c-11.1 0-21.6-5.3-29.8-15.2-5.8-7.6-9.9-16.4-12.3-26.9-4.7-1.8-7.6-6.4-7.6-11.1v-12.9c0-4.7 2.9-8.2 6.4-10.5v-1.8c0-6.4 5.3-12.3 12.3-12.3h37.4c2.3 0 4.1-1.2 5.8-2.9 1.2-1.8 2.9-2.9 4.7-2.9 1.8 0 3.5 1.2 4.7 2.3 1.2 1.8 3.5 2.9 5.8 2.9h4.1c6.4 0 12.3 5.3 12.3 12.3v1.8c3.5 1.8 5.8 5.8 6.4 9.9v12.9c0 5.3-3.5 9.4-7.6 11.1-2.3 10.5-6.4 19.9-12.3 26.9-8.7 10.5-19.2 16.4-30.3 16.4zm-36.9-53.8c2.9 0 5.3 2.3 5.8 5.3 1.2 9.9 5.3 18.7 10.5 25.7 5.8 7 12.9 11.1 20.5 11.1s14.6-4.1 20.5-11.1c5.3-6.4 9.4-15.8 10.5-25.7.6-2.9 3.5-5.3 6.4-4.7 0 0 .6 0 .6-.6V412h-.6c-3.5 0-5.8-2.3-5.8-5.8v-6.4s0-.6-.6-.6H528c-4.1 0-7.6-1.2-10.5-3.5-2.9 2.3-6.4 3.5-10.5 3.5h-37.4s-.6 0-.6.6v6.4c0 3.5-2.3 5.8-5.8 5.8 0 0-.6 0-.6.6v12.3s0 .6.6.6c.5-.1.5-.6 1.1-.6z"/>
</svg>
