<?xml version="1.0" encoding="utf-8"?>
<!-- Generator: Adobe Illustrator 18.1.1, SVG Export Plug-In . SVG Version: 6.00 Build 0)  -->
<!DOCTYPE svg PUBLIC "-//W3C//DTD SVG 1.1//EN" "http://www.w3.org/Graphics/SVG/1.1/DTD/svg11.dtd">
<svg version="1.1" id="Layer_1" xmlns:sketch="http://www.bohemiancoding.com/sketch/ns"
	 xmlns="http://www.w3.org/2000/svg" xmlns:xlink="http://www.w3.org/1999/xlink" x="0px" y="0px" viewBox="0 0 1000 1000"
	 enable-background="new 0 0 1000 1000" xml:space="preserve">
<title>icon/UI-light</title>
<desc>Created with Sketch.</desc>
<g id="approach" sketch:type="MSPage">
	<g id="Desktop-HD" transform="translate(-361.000000, -4781.000000)" sketch:type="MSArtboardGroup">
		<g id="section_x2F_approach_x2F_active" transform="translate(-26.000000, 416.000000)" sketch:type="MSLayerGroup">
			<g id="approach_x2F_4-active" transform="translate(26.000000, 3283.000000)" sketch:type="MSShapeGroup">
				<g id="icon_x2F_UI" transform="translate(361.000000, 1082.000000)">
					<path id="Fill-2" fill="#FFFFFF" d="M625.7,437.1c0,69-56.1,125.7-125.7,125.7s-125.7-56.1-125.7-125.7
						c0-69,56.1-125.7,125.7-125.7S625.7,368.1,625.7,437.1L625.7,437.1z"/>
					<path fill="#A57F5F" d="M500,568.7c-72.5,0-131.6-59.1-131.6-131.6S427.5,305.6,500,305.6s131.6,59.1,131.6,131.6
						S572.5,568.7,500,568.7z M500,317.8c-66.1,0-119.9,53.8-119.9,119.9S433.9,557.6,500,557.6s119.9-53.8,119.9-119.9
						S566.1,317.8,500,317.8z"/>
					<path fill="#A57F5F" d="M545,417.8c-2.9,0-5.8-2.3-5.8-5.8c0,0,0-0.6-0.6-0.6c-3.5,0-5.8-2.3-5.8-5.8v-6.4c0,0,0-0.6-0.6-0.6
						h-4.1c-4.1,0-7.6-1.2-10.5-3.5c-2.9,2.3-6.4,3.5-10.5,3.5h-37.4c0,0-0.6,0-0.6,0.6v6.4c0,3.5-2.3,5.8-5.8,5.8
						c0,0-0.6,0-0.6,0.6c0,2.9-2.9,5.8-5.8,5.8s-5.8-2.9-5.8-5.8l0,0l0,0v-24.6c0-24,22.2-43.3,49.7-43.3
						c27.5,0,49.7,19.3,49.7,43.3v25.1C550.9,414.9,548,417.8,545,417.8L545,417.8z M517.5,382.2c1.8,0,3.5,1.2,4.7,2.3
						c1.2,1.8,3.5,2.9,5.8,2.9h4.1c2.3,0,4.7,0.6,6.4,1.8v-2.3c0-17.5-17-31.6-38-31.6s-38,14-38,31.6v2.3c1.8-1.2,4.1-1.8,6.4-1.8
						h37.4c2.3,0,4.1-1.2,5.8-2.9C514,382.7,515.8,382.2,517.5,382.2L517.5,382.2z"/>
					<path fill="#A57F5F" d="M410.5,530.7c-0.6,0-1.2,0-1.8,0c-2.9-1.2-4.7-4.1-4.1-7l7-25.1c1.2-5.3,5.8-9.9,10.5-12.3
						c51.5-22.8,51.5-22.8,52-22.8c1.8-0.6,3.5,0,4.7,0.6c1.2,1.2,2.3,2.3,2.3,4.1c1.2,9.4,9.4,17,19.3,17c9.4,0,18.1-7,19.3-17
						c0-1.8,1.2-3.5,2.9-4.1c1.8-1.2,3.5-1.2,5.3,0l50.9,22.2c4.7,2.3,9.4,7.6,10.5,12.3l6.4,24c0.6,2.9-1.2,6.4-4.1,7
						c-2.9,0.6-6.4-1.2-7-4.1l-6.4-24c-0.6-1.8-2.9-4.1-4.1-4.7l-45-19.9c-4.7,11.7-16.4,19.9-29.2,19.9s-24.6-8.2-28.7-19.9
						c-11.1,4.7-34.5,15.2-45,19.9c-1.8,0.6-3.5,2.9-4.1,4.7l-7,25.1C415.2,528.9,412.9,530.7,410.5,530.7z"/>
					<path fill="#2C2828" d="M750.9,234.2H249.1c-3.5,0-5.8-2.3-5.8-5.8V123.7c0-3.5,2.3-5.8,5.8-5.8h501.8c3.5,0,5.8,2.3,5.8,5.8
						v104.7C756.7,231.3,753.8,234.2,750.9,234.2z M255,222.5H745v-93H255L255,222.5L255,222.5z"/>
					<path fill="#2C2828" d="M750.9,777.5H249.1c-3.5,0-5.8-2.3-5.8-5.8V227.8c0-3.5,2.3-5.8,5.8-5.8h501.8c3.5,0,5.8,2.3,5.8,5.8
						v543.9C756.7,775.1,753.8,777.5,750.9,777.5z M255,765.8H745V233.6H255L255,765.8L255,765.8z"/>
					<path fill="#2C2828" d="M750.9,882.2H249.1c-3.5,0-5.8-2.3-5.8-5.8V771.6c0-3.5,2.3-5.8,5.8-5.8h501.8c3.5,0,5.8,2.3,5.8,5.8
						v104.7C756.7,879.8,753.8,882.2,750.9,882.2z M255,870.5H745v-93H255L255,870.5L255,870.5z"/>
					<path fill="#2C2828" d="M542.1,736h-83.6c-3.5,0-5.8-2.3-5.8-5.8V688c0-3.5,2.3-5.8,5.8-5.8h83.6c3.5,0,5.8,2.3,5.8,5.8v42.1
						C548,733,545,736,542.1,736z M464.3,724.3h71.9v-30.4h-71.9V724.3z M542.1,631.3h-83.6c-3.5,0-5.8-2.3-5.8-5.8
						c0-3.5,2.3-5.8,5.8-5.8h83.6c3.5,0,5.8,2.3,5.8,5.8C548,628.9,545,631.3,542.1,631.3z M583.6,610.2H416.4
						c-3.5,0-5.8-2.3-5.8-5.8c0-3.5,2.3-5.8,5.8-5.8h167.3c3.5,0,5.8,2.3,5.8,5.8C589.5,607.9,587.1,610.2,583.6,610.2z"/>
					<path fill="#2C2828" d="M531.6,840.6H469c-3.5,0-5.8-2.3-5.8-5.8v-21.1c0-3.5,2.3-5.8,5.8-5.8h62.6c3.5,0,5.8,2.3,5.8,5.8v21.1
						C537.4,837.7,535.1,840.6,531.6,840.6z M474.9,828.9h50.9v-9.4h-50.9V828.9z"/>
					<path fill="#2C2828" d="M531.6,192.1H469c-3.5,0-5.8-2.3-5.8-5.8v-21.1c0-3.5,2.3-5.8,5.8-5.8h62.6c3.5,0,5.8,2.3,5.8,5.8v21.1
						C537.4,189.8,535.1,192.1,531.6,192.1z M474.9,180.4h50.9v-9.4h-50.9V180.4z"/>
					<path fill="#A57F5F" d="M501.2,478.7c-11.1,0-21.6-5.3-29.8-15.2c-5.8-7.6-9.9-16.4-12.3-26.9c-4.7-1.8-7.6-6.4-7.6-11.1v-12.9
						c0-4.7,2.9-8.2,6.4-10.5v-1.8c0-6.4,5.3-12.3,12.3-12.3h37.4c2.3,0,4.1-1.2,5.8-2.9c1.2-1.8,2.9-2.9,4.7-2.9l0,0
						c1.8,0,3.5,1.2,4.7,2.3c1.2,1.8,3.5,2.9,5.8,2.9h4.1c6.4,0,12.3,5.3,12.3,12.3v1.8c3.5,1.8,5.8,5.8,6.4,9.9v12.9
						c0,5.3-3.5,9.4-7.6,11.1c-2.3,10.5-6.4,19.9-12.3,26.9C522.8,472.8,512.3,478.7,501.2,478.7z M464.3,424.9
						c2.9,0,5.3,2.3,5.8,5.3c1.2,9.9,5.3,18.7,10.5,25.7c5.8,7,12.9,11.1,20.5,11.1s14.6-4.1,20.5-11.1c5.3-6.4,9.4-15.8,10.5-25.7
						c0.6-2.9,3.5-5.3,6.4-4.7l0,0c0,0,0.6,0,0.6-0.6V412c0,0,0,0-0.6,0c-3.5,0-5.8-2.3-5.8-5.8v-6.4c0,0,0-0.6-0.6-0.6h-4.1
						c-4.1,0-7.6-1.2-10.5-3.5c-2.9,2.3-6.4,3.5-10.5,3.5h-37.4c0,0-0.6,0-0.6,0.6v6.4c0,3.5-2.3,5.8-5.8,5.8c0,0-0.6,0-0.6,0.6
						v12.3c0,0,0,0.6,0.6,0.6C463.7,425.4,463.7,424.9,464.3,424.9z"/>
				</g>
			</g>
		</g>
	</g>
</g>
</svg>
