<?xml version="1.0" encoding="UTF-8" standalone="no"?>
<svg width="1426px" height="1399px" viewBox="0 0 1426 1399" version="1.1" xmlns="http://www.w3.org/2000/svg" xmlns:xlink="http://www.w3.org/1999/xlink" xmlns:sketch="http://www.bohemiancoding.com/sketch/ns">
    <!-- Generator: Sketch 3.5.2 (25235) - http://www.bohemiancoding.com/sketch -->
    <title>Artboard 1</title>
    <desc>Created with Sketch.</desc>
    <defs></defs>
    <g id="Page-1" stroke="none" stroke-width="1" fill="none" fill-rule="evenodd" sketch:type="MSPage">
        <g id="Artboard-1" sketch:type="MSArtboardGroup">
            <g id="Group" sketch:type="MSLayerGroup" transform="translate(409.000000, 162.000000)">
                <path d="M481.675115,450.062272 C481.675115,547.076632 402.824885,626.797128 305,626.797128 C207.175115,626.797128 128.324885,547.920235 128.324885,450.062272 C128.324885,353.047911 207.175115,273.327415 305,273.327415 C402.824885,273.327415 481.675115,353.047911 481.675115,450.062272 L481.675115,450.062272 L481.675115,450.062272 Z" id="Fill-2" fill="#FFFFFF" sketch:type="MSShapeGroup"></path>
                <path d="M305,635.092559 C203.099078,635.092559 120.032258,551.99765 120.032258,450.062272 C120.032258,348.126893 203.099078,265.172585 305,265.172585 C406.900922,265.172585 489.967742,348.267493 489.967742,450.202872 C489.967742,552.138251 406.900922,635.092559 305,635.092559 L305,635.092559 Z M305,282.325849 C212.09447,282.325849 136.476959,357.96893 136.476959,450.905875 C136.476959,543.84282 212.09447,619.485901 305,619.485901 C397.90553,619.485901 473.523041,543.84282 473.523041,450.905875 C473.523041,357.96893 397.90553,282.325849 305,282.325849 L305,282.325849 Z" id="Shape" fill="#A57F5F" sketch:type="MSShapeGroup"></path>
                <path d="M368.248848,422.926371 C364.172811,422.926371 360.096774,419.692559 360.096774,414.77154 C360.096774,414.77154 360.096774,413.927937 359.253456,413.927937 C354.334101,413.927937 351.101382,410.694125 351.101382,405.773107 L351.101382,396.774674 C351.101382,396.774674 351.101382,395.93107 350.258065,395.93107 L344.495392,395.93107 C338.732719,395.93107 333.813364,394.243864 329.737327,391.010052 C325.66129,394.243864 320.741935,395.93107 314.979263,395.93107 L262.412442,395.93107 C262.412442,395.93107 261.569124,395.93107 261.569124,396.774674 L261.569124,405.773107 C261.569124,410.694125 258.336406,413.927937 253.417051,413.927937 C253.417051,413.927937 252.573733,413.927937 252.573733,414.77154 C252.573733,418.848956 248.497696,422.926371 244.421659,422.926371 C240.345622,422.926371 236.269585,418.848956 236.269585,414.77154 L236.269585,414.77154 L236.269585,414.77154 L236.269585,380.183812 C236.269585,346.439687 267.47235,319.303786 306.124424,319.303786 C344.776498,319.303786 375.979263,346.439687 375.979263,380.183812 L375.979263,415.474543 C376.541475,418.848956 372.465438,422.926371 368.248848,422.926371 L368.248848,422.926371 L368.248848,422.926371 Z M329.596774,372.872585 C332.126728,372.872585 334.516129,374.559791 336.202765,376.106397 C337.889401,378.637206 341.12212,380.183812 344.354839,380.183812 L350.117512,380.183812 C353.35023,380.183812 356.723502,381.027415 359.112903,382.714621 L359.112903,379.480809 C359.112903,354.875718 335.218894,335.051044 305.702765,335.051044 C276.186636,335.051044 252.292627,354.735117 252.292627,379.480809 L252.292627,382.714621 C254.822581,381.027415 258.0553,380.183812 261.288018,380.183812 L313.854839,380.183812 C317.087558,380.183812 319.617512,378.496606 322.006912,376.106397 C324.677419,373.575587 327.207373,372.872585 329.596774,372.872585 L329.596774,372.872585 L329.596774,372.872585 Z" id="Shape" fill="#A57F5F" sketch:type="MSShapeGroup"></path>
                <path d="M179.205069,581.66436 L176.675115,581.66436 C172.599078,579.977154 170.069124,575.899739 170.912442,571.822324 L180.751152,536.531593 C182.437788,529.079765 188.903226,522.612141 195.509217,519.237728 C267.894009,487.180809 267.894009,487.180809 268.596774,487.180809 C271.126728,486.337206 273.516129,487.180809 275.202765,488.024413 C276.889401,489.711619 278.435484,491.258225 278.435484,493.789034 C280.12212,507.005483 291.647465,517.691123 305.562212,517.691123 C318.774194,517.691123 331.002304,507.849086 332.68894,493.789034 C332.68894,491.258225 334.375576,488.868016 336.764977,488.024413 C339.294931,486.337206 341.684332,486.337206 344.214286,488.024413 L415.75576,519.237728 C422.361751,522.47154 428.967742,529.923368 430.513825,536.531593 L439.509217,570.275718 C440.352535,574.353133 437.822581,579.274151 433.746544,580.117755 C429.670507,580.961358 424.751152,578.430548 423.907834,574.353133 L414.912442,540.609008 C414.069124,538.078198 410.836406,534.844386 409.14977,534.000783 L345.900922,506.021279 C339.294931,522.47154 322.85023,534.000783 304.859447,534.000783 C286.868664,534.000783 270.28341,522.47154 264.520737,506.021279 C248.919355,512.629504 216.029954,527.392559 201.271889,534.000783 C198.741935,534.844386 196.352535,538.078198 195.509217,540.609008 L185.670507,575.899739 C185.81106,579.133551 182.578341,581.66436 179.205069,581.66436 L179.205069,581.66436 Z" id="Shape" fill="#A57F5F" sketch:type="MSShapeGroup"></path>
                <path d="M601.835705,164.783812 L8.16429473,164.783812 C4.02350171,164.783812 1.30240915,161.55 1.30240915,156.628982 L1.30240915,9.42023499 C1.30240915,4.49921671 4.02350171,1.2654047 8.16429473,1.2654047 L601.835705,1.2654047 C605.976498,1.2654047 608.697591,4.49921671 608.697591,9.42023499 L608.697591,156.628982 C608.697591,160.706397 605.266648,164.783812 601.835705,164.783812 L601.835705,164.783812 Z M15.1444887,148.333551 L594.855511,148.333551 L594.855511,17.5750653 L15.1444887,17.5750653 L15.1444887,148.333551 L15.1444887,148.333551 L15.1444887,148.333551 Z" id="Shape" fill="#2C2828" sketch:type="MSShapeGroup"></path>
                <path d="M601.835705,928.666449 L8.16429473,928.666449 C4.02350171,928.666449 1.30240915,925.432637 1.30240915,920.511619 L1.30240915,155.785379 C1.30240915,150.86436 4.02350171,147.630548 8.16429473,147.630548 L601.835705,147.630548 C605.976498,147.630548 608.697591,150.86436 608.697591,155.785379 L608.697591,920.511619 C608.697591,925.292037 605.266648,928.666449 601.835705,928.666449 L601.835705,928.666449 Z M15.1444887,912.216188 L594.855511,912.216188 L594.855511,163.940209 L15.1444887,163.940209 L15.1444887,912.216188 L15.1444887,912.216188 L15.1444887,912.216188 Z" id="Shape" fill="#2C2828" sketch:type="MSShapeGroup"></path>
                <path d="M601.835705,1075.8752 L8.16429473,1075.8752 C4.02350171,1075.8752 1.30240915,1072.64138 1.30240915,1067.72037 L1.30240915,920.371018 C1.30240915,915.45 4.02350171,912.216188 8.16429473,912.216188 L601.835705,912.216188 C605.976498,912.216188 608.697591,915.45 608.697591,920.371018 L608.697591,1067.57977 C608.697591,1072.50078 605.266648,1075.8752 601.835705,1075.8752 L601.835705,1075.8752 Z M15.1444887,1059.42493 L594.855511,1059.42493 L594.855511,928.666449 L15.1444887,928.666449 L15.1444887,1059.42493 L15.1444887,1059.42493 L15.1444887,1059.42493 Z" id="Shape" fill="#2C2828" sketch:type="MSShapeGroup"></path>
                <path d="M306.686636,508.552089 C291.085253,508.552089 276.327189,501.100261 264.801843,487.180809 C256.64977,476.49517 250.887097,464.122324 247.513825,449.359269 C240.907834,446.82846 236.831797,440.360836 236.831797,433.752611 L236.831797,415.615144 C236.831797,409.006919 240.907834,404.085901 245.827189,400.852089 L245.827189,398.321279 C245.827189,389.322846 253.276498,381.027415 263.115207,381.027415 L315.682028,381.027415 C318.914747,381.027415 321.4447,379.340209 323.834101,376.95 C325.520737,374.419191 327.910138,372.872585 330.440092,372.872585 L330.440092,372.872585 C332.970046,372.872585 335.359447,374.559791 337.046083,376.106397 C338.732719,378.637206 341.965438,380.183812 345.198157,380.183812 L350.960829,380.183812 C359.956221,380.183812 368.248848,387.63564 368.248848,397.477676 L368.248848,400.008486 C373.168203,402.539295 376.400922,408.163316 377.24424,413.927937 L377.24424,432.065405 C377.24424,439.517232 372.324885,445.281854 366.562212,447.672063 C363.329493,462.435117 357.56682,475.651567 349.274194,485.493603 C337.046083,500.256658 322.288018,508.552089 306.686636,508.552089 L306.686636,508.552089 Z M254.822581,432.909008 C258.898618,432.909008 262.271889,436.14282 262.974654,440.360836 C264.66129,454.280287 270.423963,466.653133 277.732719,476.49517 C285.884793,486.337206 295.864055,492.101828 306.546083,492.101828 C317.228111,492.101828 327.06682,486.337206 335.359447,476.49517 C342.808756,467.496736 348.571429,454.280287 350.117512,440.360836 C350.960829,436.28342 355.036866,432.909008 359.112903,433.752611 L359.112903,433.752611 C359.112903,433.752611 359.956221,433.752611 359.956221,432.909008 L359.956221,414.77154 C359.956221,414.77154 359.956221,414.77154 359.112903,414.77154 C354.193548,414.77154 350.960829,411.537728 350.960829,406.61671 L350.960829,397.618277 C350.960829,397.618277 350.960829,396.774674 350.117512,396.774674 L344.354839,396.774674 C338.592166,396.774674 333.672811,395.087467 329.596774,391.853655 C325.520737,395.087467 320.601382,396.774674 314.83871,396.774674 L262.271889,396.774674 C262.271889,396.774674 261.428571,396.774674 261.428571,397.618277 L261.428571,406.61671 C261.428571,411.537728 258.195853,414.77154 253.276498,414.77154 C253.276498,414.77154 252.43318,414.77154 252.43318,415.615144 L252.43318,432.909008 C252.43318,432.909008 252.43318,433.752611 253.276498,433.752611 C253.979263,433.61201 253.979263,432.909008 254.822581,432.909008 L254.822581,432.909008 Z" id="Shape" fill="#A57F5F" sketch:type="MSShapeGroup"></path>
                <ellipse id="Oval-1" stroke="#2C2828" stroke-width="9" sketch:type="MSShapeGroup" cx="318.352535" cy="994.748695" rx="41.4631336" ry="41.477154"></ellipse>
                <rect id="Rectangle-1" fill="#2C2828" sketch:type="MSShapeGroup" transform="translate(305.702765, 82.251305) scale(1, -1) translate(-305.702765, -82.251305) " x="264.239631" y="77.3302872" width="82.9262673" height="9.84203655" rx="52"></rect>
            </g>
        </g>
    </g>
</svg>