<?xml version="1.0" encoding="utf-8"?>
<!-- Generator: Adobe Illustrator 18.1.1, SVG Export Plug-In . SVG Version: 6.00 Build 0)  -->
<!DOCTYPE svg PUBLIC "-//W3C//DTD SVG 1.1//EN" "http://www.w3.org/Graphics/SVG/1.1/DTD/svg11.dtd">
<svg version="1.1" id="Layer_1" xmlns:sketch="http://www.bohemiancoding.com/sketch/ns"
	 xmlns="http://www.w3.org/2000/svg" xmlns:xlink="http://www.w3.org/1999/xlink" x="0px" y="0px" viewBox="0 0 1000 1000"
	 enable-background="new 0 0 1000 1000" xml:space="preserve">
<g id="approach" sketch:type="MSPage">
	<g id="Desktop-HD" transform="translate(-915.000000, -4190.000000)" sketch:type="MSArtboardGroup">
		<g id="section_x2F_approach_x2F_active" transform="translate(-26.000000, 416.000000)" sketch:type="MSLayerGroup">
			<g id="approach_x2F_4-active" transform="translate(26.000000, 3283.000000)" sketch:type="MSShapeGroup">
				<g id="icon_x2F_UX-IA" transform="translate(915.000000, 491.000000)">
					<path fill="#2C2828" d="M500,722.8c-122.8,0-222.2-99.4-222.2-222.2S377.2,278.4,500,278.4s222.2,99.4,222.2,222.2
						C722.2,622.8,622.8,722.8,500,722.8z M500,290.1c-116.4,0-210.5,94.7-210.5,210.5c0,116.4,94.7,210.5,210.5,210.5
						s210.5-94.7,210.5-210.5C710.5,384.2,616.4,290.1,500,290.1z"/>
					<path id="Fill-3" fill="#FFFFFF" d="M389.5,610.5l128.7-91.8l91.8-128.7l-128.7,91.8L389.5,610.5L389.5,610.5z"/>
					<path fill="#2C2828" d="M389.5,616.4c-1.8,0-2.9-0.6-4.1-1.8c-1.8-1.8-2.3-5.3-0.6-7.6l91.8-128.7c0.6-0.6,0.6-1.2,1.2-1.2
						l128.7-91.8c2.3-1.8,5.3-1.2,7.6,0.6c1.8,1.8,2.3,5.3,0.6,7.6l-91.8,128.7c-0.6,0.6-0.6,1.2-1.2,1.2L393,615.2
						C391.8,616.4,390.6,616.4,389.5,616.4z M486,486l-71.3,99.4L514,514l71.3-99.4L486,486z"/>
					<path id="Fill-5" fill="#FFFFFF" d="M389.5,390.1l91.8,128.7l128.7,91.8l-91.8-128.7L389.5,390.1L389.5,390.1z"/>
					<path fill="#2C2828" d="M610.5,616.4c-1.2,0-2.3-0.6-3.5-1.2l-128.7-91.8c-0.6-0.6-1.2-0.6-1.2-1.2l-91.8-128.7
						c-1.8-2.3-1.2-5.3,0.6-7.6c1.8-1.8,5.3-2.3,7.6-0.6l128.7,91.8c0.6,0.6,1.2,0.6,1.2,1.2L615.2,607c1.8,2.3,1.2,5.3-0.6,7.6
						C613.5,615.8,612.3,616.4,610.5,616.4z M486,514.6l99.4,71.3L514,486.5l-99.4-71.3L486,514.6z"/>
					<path id="Fill-7" fill="#FFFFFF" d="M531,531l185.4-31L531,469l-31-185.4L469,469l-185.4,31L469,531l31,185.4L531,531L531,531z
						"/>
					<path fill="#2C2828" d="M500,722.8c-2.9,0-5.3-2.3-5.8-4.7l-30.4-181.3l-181.3-30.4c-2.9-0.6-4.7-2.9-4.7-5.8s2.3-5.3,4.7-5.8
						l181.3-30.4L494.2,283c0.6-2.9,2.9-4.7,5.8-4.7s5.3,2.3,5.8,4.7l30.4,181.3l181.3,30.4c2.9,0.6,4.7,2.9,4.7,5.8
						s-2.3,5.3-4.7,5.8l-181.3,30.4l-30.4,181.3C505.3,720.5,502.9,722.8,500,722.8z M319.3,500.6l150.9,25.1
						c2.3,0.6,4.7,2.3,4.7,4.7L500,681.3l25.1-150.9c0.6-2.3,2.3-4.7,4.7-4.7l150.9-25.1l-150.9-25.1c-2.3-0.6-4.7-2.3-4.7-4.7
						L500,319.9l-25.1,150.9c-0.6,2.3-2.3,4.7-4.7,4.7L319.3,500.6z"/>
					<g>
						<path id="Stroke-9_1_" fill="#A57F5F" d="M500,202.9l-26.9-54.4h54.4L500,202.9L500,202.9z M500,797.7l26.9,54.4h-54.4
							L500,797.7L500,797.7z M797.7,500.6l54.4-26.9v54.4L797.7,500.6L797.7,500.6z M202.3,500.6L148,527.5v-54.4L202.3,500.6
							L202.3,500.6z"/>
						<path fill="#2C2828" d="M527.5,857.9L527.5,857.9h-54.4c-1.8,0-4.1-1.2-5.3-2.9c-1.2-1.8-1.2-4.1,0-5.8l26.9-53.8
							c1.8-4.1,8.8-4.1,10.5,0l26.3,53.2c0.6,1.2,1.2,2.3,1.2,3.5C533.3,855,530.4,857.9,527.5,857.9z M482.5,846.2h35.1L500,811.1
							L482.5,846.2z M852,533.3c-1.2,0-1.8,0-2.3-0.6l-53.8-26.9c-1.8-1.2-3.5-2.9-3.5-5.3s1.2-4.1,3.5-5.3l53.8-26.9
							c1.8-1.2,4.1-0.6,5.8,0c1.8,1.2,2.9,2.9,2.9,5.3v54.4c0,1.8-1.2,4.1-2.9,5.3C853.8,532.7,852.6,533.3,852,533.3z M810.5,500.6
							l35.1,17.5V483L810.5,500.6z M148.5,533.3c-1.2,0-2.3,0-2.9-0.6c-1.8-1.2-2.9-2.9-2.9-5.3v-54.4c0-1.8,1.2-4.1,2.9-5.3
							c1.8-1.2,4.1-1.2,5.8,0l53.8,26.9c1.8,1.2,3.5,2.9,3.5,5.3s-1.2,4.1-3.5,5.3l-53.8,26.9C150.3,532.7,149.1,533.3,148.5,533.3z
							 M154.4,482.5v35.1l35.1-17.5L154.4,482.5z M500,208.8c-2.3,0-4.1-1.2-5.3-3.5l-26.9-54.4c-1.2-1.8-0.6-4.1,0-5.8
							c1.2-1.8,2.9-2.9,5.3-2.9h54.4c1.8,0,4.1,1.2,5.3,2.9c1.2,1.8,1.2,4.1,0,5.8l-26.9,54.4C504.7,207.6,502.3,208.8,500,208.8z
							 M482.5,154.4l17.5,35.1l17.5-35.1H482.5z"/>
					</g>
					<path id="Fill-10" fill="#FFFFFF" d="M500,121.6c-209.4,0-378.9,169.6-378.9,378.9S290.6,879.5,500,879.5
						s378.9-169.6,378.9-378.9S709.4,121.6,500,121.6L500,121.6z M500,825.1c-179.5,0-324.6-145-324.6-324.6S321.1,176,500,176
						c179.5,0,324.6,145.6,324.6,324.6S679.5,825.1,500,825.1L500,825.1z"/>
					<path fill="#2C2828" d="M500,884.8c-212.3,0-384.8-172.5-384.8-384.8S287.7,115.2,500,115.2s384.8,173.1,384.8,385.4
						C884.8,712.3,712.3,884.8,500,884.8z M500,127.5c-205.8,0-373.1,167.3-373.1,373.1S294.2,873.7,500,873.7
						s373.1-167.3,373.1-373.1S705.8,127.5,500,127.5z M500,831c-182.5,0-330.4-148-330.4-330.4s148-330.4,330.4-330.4
						s330.4,148,330.4,330.4S682.5,831,500,831z M500,181.9c-176,0-318.7,143.3-318.7,318.7S324.6,819.3,500,819.3
						c176,0,318.7-143.3,318.7-318.7S676,181.9,500,181.9z"/>
					<g>
						<path id="Fill-12_1_" fill="#FFFFFF" d="M485.4,463.2l-207,126.9l236.8-52.6L485.4,463.2L485.4,463.2"/>
						<path fill="#2C2828" d="M277.8,595.9c-2.3,0-4.7-1.2-5.3-3.5c-1.2-2.9,0-5.8,2.3-7l207-126.9c0.6-0.6,1.2-0.6,1.8-0.6
							c2.9-0.6,5.8,0.6,7,3.5l29.8,74.3c0.6,1.8,0.6,3.5,0,4.7c-0.6,1.8-2.3,2.3-4.1,2.9l-236.8,52.6
							C278.9,595.9,278.4,595.9,277.8,595.9z M482.5,471.9L311.1,577.2L507,533.3L482.5,471.9z"/>
					</g>
					<g>
						<path id="Fill-13_1_" fill="#FFFFFF" d="M485.4,463.2l29.8,74.3l207-126.9L485.4,463.2"/>
						<path fill="#A57F5F" d="M515.2,543.3c-0.6,0-1.2,0-1.8-0.6c-1.8-0.6-2.9-1.8-3.5-3.5l-29.8-74.3c-0.6-1.8-0.6-3.5,0-4.7
							c0.6-1.8,2.3-2.3,4.1-2.9l236.8-52.6c2.9-0.6,5.8,0.6,6.4,3.5c1.2,2.9,0,5.8-2.3,7l-207,126.9
							C517,542.7,516.4,543.3,515.2,543.3z M493.6,467.3l24.6,61.4L689.5,424L493.6,467.3z"/>
					</g>
				</g>
			</g>
		</g>
	</g>
</g>
</svg>
