<?xml version="1.0" encoding="UTF-8" standalone="no"?>
<svg width="890px" height="244px" viewBox="0 0 890 244" version="1.1" xmlns="http://www.w3.org/2000/svg" xmlns:xlink="http://www.w3.org/1999/xlink" xmlns:sketch="http://www.bohemiancoding.com/sketch/ns">
    <!-- Generator: Sketch 3.4.2 (15855) - http://www.bohemiancoding.com/sketch -->
    <title>color/lockup/horizontal/flush/logo</title>
    <desc>Created with Sketch.</desc>
    <defs></defs>
    <g id="lockup" stroke="none" stroke-width="1" fill="none" fill-rule="evenodd" sketch:type="MSPage">
        <g id="color/lockup/horizontal/flush/logo" sketch:type="MSArtboardGroup">
            <g id="Mark" sketch:type="MSLayerGroup">
                <path d="M186.031001,158.025151 L116.982648,198.424035 C118.09543,182.25398 118.828816,161.758135 105.556736,142.842541 C117.605942,142.176905 118.757679,143.938385 128.068121,145.337408 C138.018794,146.270654 145.444113,146.053856 151.041895,140.334125 C157.393389,134.95314 161.959689,128.598259 167.120489,122.343309 C175.031909,112.731382 166.033113,111.442453 163.700845,106.581443 C168.058816,107.182718 174.728731,108.165082 175.060702,105.929357 C175.824575,96.4038105 176.900095,90.4554254 160.780852,91.0025007 C148.880694,89.0547094 133.401682,85.1608207 123.127506,71.5296694 C116.72012,61.0234528 105.675297,53.2712437 93.1806394,49.3214618 C75.9045779,31.1104605 35.2821212,49.4942224 20.4264021,63.0948865 C13.1755375,69.734314 11.7324782,74.2870643 15.9769694,83.6923554 C21.7305754,96.4410726 25.7582689,103.590313 41.9486485,118.461276 C27.3656201,112.235119 21.2258434,104.528641 15.1572033,93.7734454 C9.95067266,103.431103 5.6536758,112.341824 1.03656369,122.238297 C1.04333861,96.2649245 1.0585822,70.4389063 1.10600668,44.443515 C-0.560625132,2.53043489 26.5865036,-8.21967905 57.2007008,10.2250572 C119.518164,48.2882855 126.762254,52.8630544 186.054713,87.921603 C221.453702,108.852737 221.848342,136.989005 186.031001,158.025151" id="Fill-1" fill="#ffffff" sketch:type="MSShapeGroup"></path>
                <path d="M112.612821,200.979876 C107.026895,196.611742 103.376903,189.565819 102.233634,185.594018 C106.786385,163.087714 85.9179186,143.7724 77.0105846,129.353663 C70.4422938,118.70348 67.7966851,115.134787 67.6069872,129.707653 C67.4562451,140.784657 67.0717681,134.45857 61.8398314,128.933618 C53.2339816,119.845055 64.1145128,138.360928 58.6793284,141.90252 C50.4969114,144.908894 35.5768305,149.592061 31.0952169,160.640272 C28.5055014,163.956598 26.1308898,167.171301 24.149224,168.23327 C19.3559638,170.81113 18.4633673,174.198593 21.5070028,177.369258 C21.0835699,180.539924 22.6028471,185.284066 25.7159256,185.360283 C24.1407553,192.587436 32.028463,196.593111 38.5154547,195.603972 C48.7438993,198.36306 48.7540617,209.233429 38.3477753,211.836695 C24.7657422,215.232626 10.4012052,211.645303 1.18561206,208.630461 C3.44674364,240.337115 25.3128175,249.388416 50.9711563,237.029257 C71.2840783,224.96142 92.1389945,212.959639 112.612821,200.979876" id="Fill-2" fill="#ffffff" sketch:type="MSShapeGroup"></path>
            </g>
            <path d="M889.627398,154.154974 C889.627398,156.637984 887.696544,158.568838 885.215227,158.568838 C882.732217,158.568838 880.662477,156.77687 880.662477,154.29386 C876.800769,158.431646 871.971941,159.259881 867.420884,159.259881 C845.766527,159.259881 845.21437,149.465031 845.21437,137.051673 L845.21437,124.914393 C845.21437,112.501035 845.21437,102.707879 866.179379,102.707879 C868.110233,102.707879 876.11142,102.707879 879.420972,107.6739 L880.662477,107.6739 L880.662477,89.051322 C880.662477,86.5700053 882.732217,84.6374576 885.215227,84.6374576 C887.696544,84.6374576 889.627398,86.5700053 889.627398,89.051322 L889.627398,154.154974 L889.627398,154.154974 Z M854.179291,136.914481 C854.179291,143.120313 854.179291,151.258693 867.420884,151.258693 C880.662477,151.258693 880.662477,143.120313 880.662477,136.914481 L880.662477,122.707461 C880.662477,116.914899 877.490118,110.707373 865.903301,110.707373 C854.179291,110.707373 854.179291,118.845753 854.179291,125.051585 L854.179291,136.914481 L854.179291,136.914481 Z M801.356886,107.6739 C805.218594,102.707879 811.287234,102.707879 816.803718,102.707879 C830.321389,102.707879 835.563488,111.6728 835.563488,123.672888 L835.563488,154.154974 C835.563488,156.637984 833.493748,158.568838 831.012431,158.568838 C828.529421,158.568838 826.596873,156.637984 826.596873,154.154974 L826.596873,126.155898 C826.596873,118.706867 826.596873,110.707373 814.046323,110.707373 C803.426626,110.707373 799.976495,114.293003 799.976495,122.29419 L799.976495,154.154974 C799.976495,156.637984 797.908449,158.568838 795.425438,158.568838 C792.942428,158.568838 791.00988,156.637984 791.00988,154.154974 L791.00988,107.811092 C791.00988,105.328082 792.942428,103.397228 795.425438,103.397228 C797.908449,103.397228 799.976495,105.19089 799.976495,107.6739 L801.356886,107.6739 M744.395002,111.948878 C742.188069,111.948878 740.670486,110.294103 740.670486,108.08717 C740.670486,106.293509 741.773105,104.775925 743.568461,104.362655 C747.704553,103.397228 752.533382,102.707879 756.532282,102.707879 C770.740995,102.707879 779.981994,107.396128 779.981994,122.846347 L779.981994,154.154974 C779.981994,156.637984 777.912255,158.568838 775.429244,158.568838 C772.946234,158.568838 771.01538,156.637984 771.01538,154.154974 L771.01538,151.673657 C767.292558,156.77687 761.774381,159.259881 755.153584,159.259881 C741.635913,159.259881 735.843351,154.846016 735.843351,141.741616 C735.843351,129.052179 746.74082,124.638315 757.497709,124.638315 C762.187651,124.638315 766.049359,125.603742 769.773875,127.260211 L771.01538,127.260211 L771.01538,122.707461 C771.01538,113.879732 763.842427,110.707373 755.429662,110.707373 C751.979531,110.707373 748.66998,110.983451 745.497621,111.809992 C744.945464,111.948878 744.67108,111.948878 744.395002,111.948878 L744.395002,111.948878 Z M771.01538,143.120313 L771.01538,132.500617 C769.773875,132.363424 764.94674,132.363424 762.877,132.363424 C753.22273,132.363424 744.808272,133.328851 744.808272,141.465537 C744.808272,147.810256 748.66998,151.397579 755.429662,151.534771 C762.463729,151.534771 767.292558,147.535871 771.01538,143.120313 L771.01538,143.120313 Z M660.53666,107.811092 C660.53666,105.328082 662.469208,103.397228 664.952219,103.397228 C667.435229,103.397228 669.503275,105.19089 669.503275,107.6739 L670.883666,107.6739 C674.745374,102.707879 680.261858,102.707879 682.053826,102.707879 C688.124159,102.707879 693.640643,104.501541 696.123653,107.6739 C699.985361,102.707879 709.365246,102.707879 711.158908,102.707879 C724.674886,102.707879 728.262209,111.6728 728.262209,123.672888 L728.262209,154.154974 C728.262209,156.637984 726.192469,158.568838 723.709459,158.568838 C721.226448,158.568838 719.297288,156.637984 719.297288,154.154974 L719.297288,126.155898 C719.297288,118.706867 718.330167,110.707373 710.469559,110.707373 C707.2972,110.707373 703.570991,110.707373 698.74555,114.431889 C699.848169,117.74144 699.848169,119.535102 699.848169,123.672888 L699.848169,154.154974 C699.848169,156.637984 697.778429,158.568838 695.297112,158.568838 C692.814102,158.568838 690.881554,156.637984 690.881554,154.154974 L690.881554,126.155898 C690.881554,118.706867 689.228472,110.707373 681.364477,110.707373 C671.710207,110.707373 669.503275,114.293003 669.503275,122.29419 L669.503275,154.154974 C669.503275,156.637984 667.435229,158.568838 664.952219,158.568838 C662.469208,158.568838 660.53666,156.637984 660.53666,154.154974 L660.53666,107.811092 M629.233115,159.259881 C615.026095,159.259881 605.095747,154.154974 605.095747,138.708143 L605.095747,127.260211 C605.095747,109.604754 609.094647,102.707879 627.576645,102.707879 C646.75138,102.707879 649.507081,110.018024 649.507081,124.501123 L649.507081,130.293684 C649.507081,132.776695 647.439035,134.707549 644.956024,134.707549 L614.060668,134.707549 L614.060668,139.534684 C614.060668,148.362412 620.681464,151.258693 629.095922,151.258693 C633.232015,151.258693 640.404968,150.982615 644.956024,149.879996 C646.75138,150.293266 647.853999,152.086928 647.853999,153.878896 C647.853999,156.085828 646.473608,157.742297 644.129483,158.018376 C639.300655,158.844917 633.094822,159.259881 629.233115,159.259881 L629.233115,159.259881 Z M614.060668,126.708055 L640.543854,126.708055 L640.543854,121.879226 C640.543854,115.260123 639.02627,110.707373 627.576645,110.707373 C619.026688,110.707373 614.473938,111.535608 614.060668,126.708055 L614.060668,126.708055 Z M543.44392,94.0173428 C543.44392,91.5343324 545.511966,89.6034784 547.994976,89.6034784 L566.753053,89.6034784 C584.40851,89.6034784 596.134213,95.9481967 596.134213,115.121237 L596.134213,133.051079 C596.134213,152.22412 584.40851,158.568838 566.753053,158.568838 L547.994976,158.568838 C545.511966,158.568838 543.44392,156.637984 543.44392,154.154974 L543.44392,94.0173428 L543.44392,94.0173428 Z M552.40884,97.6046661 L552.40884,150.569344 L567.029131,150.569344 C577.376137,150.569344 587.167599,145.051167 587.167599,134.0182 L587.167599,114.15581 C587.167599,103.12115 577.376137,97.6046661 567.029131,97.6046661 L552.40884,97.6046661 L552.40884,97.6046661 Z M493.241717,108.08717 L493.931066,108.08717 C498.206044,102.707879 505.655076,102.707879 511.173253,102.707879 C527.311127,102.707879 531.723297,111.535608 531.723297,123.120731 L531.723297,156.085828 C531.723297,157.466219 530.759564,158.568838 529.380867,158.568838 C528.000476,158.568838 526.897856,157.466219 526.897856,156.085828 L526.897856,125.742628 C526.897856,116.223857 526.897856,106.982858 510.621096,106.982858 C497.103425,106.982858 492.828447,111.6728 492.828447,122.155304 L492.828447,156.085828 C492.828447,157.466219 491.861326,158.568838 490.482629,158.568838 C489.103931,158.568838 487.999618,157.466219 487.999618,156.085828 L487.999618,105.880238 C487.999618,104.501541 489.103931,103.397228 490.482629,103.397228 C491.861326,103.397228 492.828447,104.501541 492.828447,105.880238 L493.241717,108.08717 M476.282384,114.707967 L476.282384,134.43147 C476.282384,150.293266 475.040878,159.259881 449.660312,159.259881 C423.730976,159.259881 422.489471,150.293266 422.489471,134.43147 L422.489471,114.707967 C422.489471,98.7072853 423.868168,88.9141297 449.660312,88.9141297 C474.903686,88.9141297 476.282384,98.7072853 476.282384,114.707967 L476.282384,114.707967 Z M471.453555,134.0182 L471.453555,114.15581 C471.453555,98.2940148 469.385509,93.1908018 449.660312,93.1908018 C429.386345,93.1908018 427.316606,98.2940148 427.316606,114.15581 L427.316606,134.0182 C427.316606,149.879996 429.386345,154.983209 449.660312,154.983209 C469.385509,154.983209 471.453555,149.879996 471.453555,134.0182 L471.453555,134.0182 Z M409.801728,158.568838 C397.112291,158.568838 393.111698,154.983209 393.111698,141.878808 L393.111698,111.396722 L385.938745,111.396722 C383.731812,111.396722 381.939844,109.465868 381.939844,107.396128 C381.939844,105.19089 383.731812,103.397228 385.938745,103.397228 L393.111698,103.397228 L393.111698,91.3971401 C393.111698,88.9141297 395.042551,86.9832758 397.525562,86.9832758 C400.008572,86.9832758 402.078312,88.9141297 402.078312,91.3971401 L402.078312,103.397228 L411.871468,103.397228 C414.0784,103.397228 415.870368,105.19089 415.870368,107.396128 C415.870368,109.465868 414.0784,111.396722 411.871468,111.396722 L402.078312,111.396722 L402.078312,141.878808 C402.078312,147.949142 402.628775,150.569344 409.662842,150.569344 L412.00866,150.569344 C414.215592,150.569344 416.00756,152.363006 416.00756,154.568244 C416.00756,156.637984 414.215592,158.568838 412.00866,158.568838 L409.801728,158.568838 M356.842131,159.259881 C342.635111,159.259881 332.704763,154.154974 332.704763,138.708143 L332.704763,127.260211 C332.704763,109.604754 336.703663,102.707879 355.185661,102.707879 C374.358702,102.707879 377.116097,110.018024 377.116097,124.501123 L377.116097,130.293684 C377.116097,132.776695 375.049745,134.707549 372.565041,134.707549 L341.669684,134.707549 L341.669684,139.534684 C341.669684,148.362412 348.29048,151.258693 356.703245,151.258693 C360.841031,151.258693 368.013984,150.982615 372.565041,149.879996 C374.358702,150.293266 375.463015,152.086928 375.463015,153.878896 C375.463015,156.085828 374.082624,157.742297 371.736806,158.018376 C366.909671,158.844917 360.703839,159.259881 356.842131,159.259881 L356.842131,159.259881 Z M341.669684,126.708055 L368.151176,126.708055 L368.151176,121.879226 C368.151176,115.260123 366.635286,110.707373 355.185661,110.707373 C346.634011,110.707373 342.082954,111.535608 341.669684,126.708055 L341.669684,126.708055 Z M295.464688,152.086928 L276.98269,94.0173428 C276.98269,91.5343324 279.189622,89.6034784 281.53544,89.6034784 C283.4646,89.6034784 285.12107,90.8449836 285.810419,92.6386453 L304.844573,151.258693 L323.880422,92.6386453 C324.569771,90.8449836 326.222853,89.6034784 328.1554,89.6034784 C330.499525,89.6034784 332.70815,91.5343324 332.70815,94.0173428 L314.222765,152.086928 C312.982953,155.80975 309.121245,158.568838 304.844573,158.568838 C300.569595,158.568838 296.707887,155.80975 295.464688,152.086928" id="VetOnDemand" fill="#ffffff" sketch:type="MSShapeGroup"></path>
        </g>
    </g>
</svg>
