<?xml version="1.0" encoding="UTF-8" standalone="no"?>
<svg width="892px" height="528px" viewBox="0 0 892 528" version="1.1" xmlns="http://www.w3.org/2000/svg" xmlns:xlink="http://www.w3.org/1999/xlink" xmlns:sketch="http://www.bohemiancoding.com/sketch/ns">
    <!-- Generator: Sketch 3.4.2 (15855) - http://www.bohemiancoding.com/sketch -->
    <title>color/lockup/vertical/flush/logo</title>
    <desc>Created with Sketch.</desc>
    <defs></defs>
    <g id="lockup" stroke="none" stroke-width="1" fill="none" fill-rule="evenodd" sketch:type="MSPage">
        <g id="color/lockup/vertical/flush/logo" sketch:type="MSArtboardGroup">
            <g id="Mark" sketch:type="MSLayerGroup" transform="translate(290.488287, 0.000000)">
                <path d="M270.444923,228.517025 L169.964375,287.306292 C171.586182,263.775304 172.653419,233.949339 153.337157,206.422988 C170.873868,205.45434 172.547435,208.017682 186.098642,210.053568 C200.576596,211.411646 211.384534,211.096158 219.528075,202.77269 C228.770895,194.942172 235.418331,185.694423 242.925966,176.592093 C254.438823,162.604625 241.343595,160.728949 237.949632,153.65511 C244.291439,154.530097 253.997633,155.959653 254.480724,152.706181 C255.592327,138.844415 257.157445,130.188205 233.700399,130.98432 C216.383051,128.149856 193.857682,122.48339 178.906495,102.647066 C169.584803,87.3582084 153.512155,76.0770381 135.327214,70.3292362 C110.186742,43.8282217 51.0745928,70.5806409 29.4537875,90.3750649 C18.9021838,100.034428 16.802215,106.659682 22.9788838,120.34645 C31.3516466,138.898639 37.2128271,149.302358 60.7758571,170.942881 C39.5518768,161.882453 30.6171505,150.667831 21.7859437,135.016655 C14.2092958,149.070671 7.95621975,162.037732 1.2397703,176.439278 C1.24962931,138.642305 1.26934733,101.059765 1.33836039,63.2307502 C-1.08449092,2.2379949 38.4205556,-13.4033219 82.9684849,13.4378284 C173.656573,68.8257374 184.198318,75.4830328 270.481895,126.500936 C321.992749,156.960343 322.567036,197.904804 270.444923,228.517025" id="Fill-1" fill="#F29C24" sketch:type="MSShapeGroup"></path>
                <path d="M163.605314,291.025603 C155.479027,284.669008 150.165021,274.415639 148.503778,268.635795 C155.126567,235.884169 124.758357,207.776137 111.79869,186.793702 C102.237917,171.295341 98.3904387,166.102108 98.1119218,187.308835 C97.8925588,203.428314 97.3330601,194.222465 89.7219056,186.182443 C77.1985003,172.956584 93.0320677,199.901254 85.1202135,205.05505 C73.2154609,209.429985 51.500995,216.245025 44.9792609,232.322603 C41.210655,237.148587 37.7575373,241.826687 34.8737773,243.372086 C27.8960642,247.123439 26.5996046,252.052943 31.0262993,256.666959 C30.4125761,261.280975 32.6234587,268.184746 37.1512083,268.295659 C34.8589888,278.812757 46.3398041,284.641895 55.7798046,283.20248 C70.6619777,287.217561 70.679231,303.03634 55.5333294,306.824664 C35.7684824,311.766492 14.8673846,306.546147 1.45666849,302.158888 C4.74464778,348.299048 36.5645973,361.470683 73.9031267,343.485387 C103.465363,325.924028 133.811391,308.458795 163.605314,291.025603" id="Fill-2" fill="#49237A" sketch:type="MSShapeGroup"></path>
            </g>
            <path d="M891.535338,521.07324 C891.535338,524.686566 888.725521,527.496384 885.112194,527.496384 C881.498868,527.496384 878.489405,524.886211 878.489405,521.272885 C872.867306,527.296739 865.842762,528.499538 859.219973,528.499538 C827.705653,528.499538 826.902144,514.248341 826.902144,496.184173 L826.902144,478.52176 C826.902144,460.455127 826.902144,446.20393 857.41331,446.20393 C860.223128,446.20393 871.864152,446.20393 876.682742,453.430583 L878.489405,453.430583 L878.489405,426.333099 C878.489405,422.719772 881.498868,419.909955 885.112194,419.909955 C888.725521,419.909955 891.535338,422.719772 891.535338,426.333099 L891.535338,521.07324 L891.535338,521.07324 Z M839.950542,495.982063 C839.950542,505.01538 839.950542,516.856049 859.219973,516.856049 C878.489405,516.856049 878.489405,505.01538 878.489405,495.982063 L878.489405,475.307723 C878.489405,466.878271 873.87046,457.844954 857.011556,457.844954 C839.950542,457.844954 839.950542,469.690553 839.950542,478.721405 L839.950542,495.982063 L839.950542,495.982063 Z M763.077389,453.430583 C768.699488,446.20393 777.530695,446.20393 785.558392,446.20393 C805.229579,446.20393 812.855522,459.249863 812.855522,476.712632 L812.855522,521.07324 C812.855522,524.686566 809.84606,527.496384 806.232733,527.496384 C802.619406,527.496384 799.809589,524.686566 799.809589,521.07324 L799.809589,480.325958 C799.809589,469.488443 799.809589,457.844954 781.543311,457.844954 C766.089316,457.844954 761.07108,463.065299 761.07108,474.706323 L761.07108,521.07324 C761.07108,524.686566 758.061618,527.496384 754.448291,527.496384 C750.834965,527.496384 748.025148,524.686566 748.025148,521.07324 L748.025148,453.630228 C748.025148,450.016902 750.834965,447.207084 754.448291,447.207084 C758.061618,447.207084 761.07108,449.817257 761.07108,453.430583 L763.077389,453.430583 M680.187776,459.651618 C676.976204,459.651618 674.767786,457.243555 674.767786,454.031983 C674.767786,451.42181 676.372339,449.215857 678.982512,448.611993 C685.006366,447.207084 692.03091,446.20393 697.850189,446.20393 C718.52453,446.20393 731.972217,453.028829 731.972217,475.509833 L731.972217,521.07324 C731.972217,524.686566 728.962755,527.496384 725.349428,527.496384 C721.736102,527.496384 718.926284,524.686566 718.926284,521.07324 L718.926284,517.457448 C713.506294,524.886211 705.478597,528.499538 695.843881,528.499538 C676.172695,528.499538 667.743242,522.073929 667.743242,503.006607 C667.743242,484.540684 683.598993,478.11754 699.255098,478.11754 C706.079996,478.11754 711.699631,479.524914 717.119621,481.930512 L718.926284,481.930512 L718.926284,475.307723 C718.926284,462.461435 708.488059,457.844954 696.245636,457.844954 C691.2274,457.844954 686.40881,458.246709 681.792329,459.451973 C680.991285,459.651618 680.58953,459.651618 680.187776,459.651618 L680.187776,459.651618 Z M718.926284,505.01538 L718.926284,489.558919 C717.119621,489.359275 710.095078,489.359275 707.083151,489.359275 C693.034064,489.359275 680.789175,490.764183 680.789175,502.607317 C680.789175,511.840278 686.40881,517.058159 696.245636,517.257803 C706.481751,517.257803 713.506294,511.438524 718.926284,505.01538 L718.926284,505.01538 Z M558.1579,453.630228 C558.1579,450.016902 560.967717,447.207084 564.581044,447.207084 C568.19437,447.207084 571.206297,449.817257 571.206297,453.430583 L573.212605,453.430583 C578.83224,446.20393 586.862403,446.20393 589.47011,446.20393 C598.301317,446.20393 606.331479,448.814103 609.942341,453.430583 C615.564441,446.20393 629.211773,446.20393 631.821945,446.20393 C651.493132,446.20393 656.711012,459.249863 656.711012,476.712632 L656.711012,521.07324 C656.711012,524.686566 653.70155,527.496384 650.088223,527.496384 C646.474897,527.496384 643.665079,524.686566 643.665079,521.07324 L643.665079,480.325958 C643.665079,469.488443 642.260171,457.844954 630.818791,457.844954 C626.202311,457.844954 620.782321,457.844954 613.757777,463.264944 C615.364796,468.08107 615.364796,470.691242 615.364796,476.712632 L615.364796,521.07324 C615.364796,524.686566 612.352869,527.496384 608.739542,527.496384 C605.126216,527.496384 602.316398,524.686566 602.316398,521.07324 L602.316398,480.325958 C602.316398,469.488443 599.908335,457.844954 588.466956,457.844954 C574.415404,457.844954 571.206297,463.065299 571.206297,474.706323 L571.206297,521.07324 C571.206297,524.686566 568.19437,527.496384 564.581044,527.496384 C560.967717,527.496384 558.1579,524.686566 558.1579,521.07324 L558.1579,453.630228 M512.601887,528.499538 C491.927546,528.499538 477.476705,521.07324 477.476705,498.592236 L477.476705,481.930512 C477.476705,456.237936 483.298449,446.20393 510.193824,446.20393 C538.094818,446.20393 542.107434,456.8418 542.107434,477.917895 L542.107434,486.347347 C542.107434,489.960674 539.097972,492.770491 535.484645,492.770491 L490.522638,492.770491 L490.522638,499.795035 C490.522638,512.641323 500.157353,516.856049 512.402242,516.856049 C518.423631,516.856049 528.859392,516.456759 535.484645,514.849741 C538.094818,515.453605 539.699371,518.063777 539.699371,520.671485 C539.699371,523.883057 537.693063,526.29112 534.279381,526.692874 C527.254838,527.898138 518.223986,528.499538 512.601887,528.499538 L512.601887,528.499538 Z M490.522638,481.129467 L529.061501,481.129467 L529.061501,474.102459 C529.061501,464.467743 526.853083,457.844954 510.193824,457.844954 C497.749291,457.844954 491.124037,459.050218 490.522638,481.129467 L490.522638,481.129467 Z M387.759729,433.557287 C387.759729,429.946425 390.769191,427.136608 394.382517,427.136608 L421.682112,427.136608 C447.372223,427.136608 464.433237,436.369569 464.433237,464.268098 L464.433237,490.362429 C464.433237,518.260958 447.372223,527.496384 421.682112,527.496384 L394.382517,527.496384 C390.769191,527.496384 387.759729,524.686566 387.759729,521.07324 L387.759729,433.557287 L387.759729,433.557287 Z M400.805661,438.777632 L400.805661,515.852895 L422.081401,515.852895 C437.136107,515.852895 451.387304,507.825197 451.387304,491.767337 L451.387304,462.86319 C451.387304,446.80533 437.136107,438.777632 422.081401,438.777632 L400.805661,438.777632 L400.805661,438.777632 Z M314.706941,454.031983 L315.707631,454.031983 C321.93113,446.20393 332.771109,446.20393 340.798807,446.20393 C364.282965,446.20393 370.706109,459.050218 370.706109,475.911587 L370.706109,523.883057 C370.706109,525.889365 369.3012,527.496384 367.294892,527.496384 C365.286119,527.496384 363.681565,525.889365 363.681565,523.883057 L363.681565,479.724559 C363.681565,465.875117 363.681565,452.427429 339.995298,452.427429 C320.326576,452.427429 314.103077,459.249863 314.103077,474.506678 L314.103077,523.883057 C314.103077,525.889365 312.698168,527.496384 310.69186,527.496384 C308.683087,527.496384 307.078534,525.889365 307.078534,523.883057 L307.078534,450.820411 C307.078534,448.814103 308.683087,447.207084 310.69186,447.207084 C312.698168,447.207084 314.103077,448.814103 314.103077,450.820411 L314.706941,454.031983 M290.024914,463.666699 L290.024914,492.371202 C290.024914,515.453605 288.218251,528.499538 251.286405,528.499538 C213.551051,528.499538 211.744387,515.453605 211.744387,492.371202 L211.744387,463.666699 C211.744387,440.382186 213.750696,426.133454 251.286405,426.133454 C288.018606,426.133454 290.024914,440.382186 290.024914,463.666699 L290.024914,463.666699 Z M282.997906,491.767337 L282.997906,462.86319 C282.997906,439.780786 279.988443,432.354488 251.286405,432.354488 C221.780858,432.354488 218.768931,439.780786 218.768931,462.86319 L218.768931,491.767337 C218.768931,514.849741 221.780858,522.276039 251.286405,522.276039 C279.988443,522.276039 282.997906,514.849741 282.997906,491.767337 L282.997906,491.767337 Z M193.28093,527.496384 C174.815007,527.496384 168.993262,522.276039 168.993262,503.208717 L168.993262,458.848108 L158.555037,458.848108 C155.343465,458.848108 152.735758,456.038291 152.735758,453.028829 C152.735758,449.817257 155.343465,447.207084 158.555037,447.207084 L168.993262,447.207084 L168.993262,429.744316 C168.993262,426.133454 171.80308,423.321172 175.416406,423.321172 C179.029733,423.321172 182.04166,426.133454 182.04166,429.744316 L182.04166,447.207084 L196.290392,447.207084 C199.501964,447.207084 202.112136,449.817257 202.112136,453.028829 C202.112136,456.038291 199.501964,458.848108 196.290392,458.848108 L182.04166,458.848108 L182.04166,503.208717 C182.04166,512.039923 182.842704,515.852895 193.081285,515.852895 L196.492501,515.852895 C199.704073,515.852895 202.314246,518.463067 202.314246,521.674639 C202.314246,524.686566 199.704073,527.496384 196.492501,527.496384 L193.28093,527.496384 M116.213061,528.499538 C95.5362558,528.499538 81.0854143,521.07324 81.0854143,498.592236 L81.0854143,481.930512 C81.0854143,456.237936 86.9071588,446.20393 113.802534,446.20393 C141.703527,446.20393 145.718608,456.8418 145.718608,477.917895 L145.718608,486.347347 C145.718608,489.960674 142.706681,492.770491 139.093355,492.770491 L94.1338119,492.770491 L94.1338119,499.795035 C94.1338119,512.641323 103.766063,516.856049 116.010951,516.856049 C122.032341,516.856049 132.470566,516.456759 139.093355,514.849741 C141.703527,515.453605 143.308081,518.063777 143.308081,520.671485 C143.308081,523.883057 141.301773,526.29112 137.888091,526.692874 C130.863548,527.898138 121.832696,528.499538 116.213061,528.499538 L116.213061,528.499538 Z M94.1338119,481.129467 L132.670211,481.129467 L132.670211,474.102459 C132.670211,464.467743 130.461793,457.844954 113.802534,457.844954 C101.358,457.844954 94.7352114,459.050218 94.1338119,481.129467 L94.1338119,481.129467 Z M26.8953748,518.063777 L0,433.557287 C0,429.946425 3.21157198,427.136608 6.62525362,427.136608 C9.43507101,427.136608 11.8431338,428.940807 12.8462879,431.550979 L40.5451719,516.856049 L68.2440559,431.550979 C69.24721,428.940807 71.6577376,427.136608 74.4675549,427.136608 C77.8787718,427.136608 81.0903438,429.946425 81.0903438,433.557287 L54.194969,518.063777 C52.3883057,523.481302 46.7686709,527.496384 40.5451719,527.496384 C34.3216729,527.496384 28.7045029,523.481302 26.8953748,518.063777" id="VetOnDemand" fill="#502F7A" sketch:type="MSShapeGroup"></path>
        </g>
    </g>
</svg>