<?xml version="1.0" encoding="UTF-8" standalone="no"?>
<svg width="670px" height="764px" viewBox="0 0 670 764" version="1.1" xmlns="http://www.w3.org/2000/svg" xmlns:xlink="http://www.w3.org/1999/xlink" xmlns:sketch="http://www.bohemiancoding.com/sketch/ns">
    <!-- Generator: Sketch 3.4.2 (15855) - http://www.bohemiancoding.com/sketch -->
    <title>white/mark/flush/logo</title>
    <desc>Created with Sketch.</desc>
    <defs></defs>
    <g id="mark" stroke="none" stroke-width="1" fill="none" fill-rule="evenodd" sketch:type="MSPage">
        <g id="white/mark/flush/logo" sketch:type="MSArtboardGroup" fill="#FFFFFF">
            <path d="M585.510769,495.586883 L367.056238,623.400494 C370.582204,572.241826 372.902483,507.397264 330.907042,447.552286 C369.033566,445.446352 372.672063,451.019308 402.133711,455.445521 C433.610198,458.398117 457.107711,457.712214 474.812565,439.616182 C494.907359,422.591872 509.359535,402.48636 525.681867,382.697006 C550.711944,352.286884 522.241638,348.20898 514.86283,332.829764 C528.650538,334.732071 549.752752,337.840066 550.80304,330.766698 C553.219774,300.629865 556.622492,281.81042 505.624583,283.541251 C467.974976,277.378848 419.002622,265.059399 386.497282,221.93329 C366.231011,188.693821 331.287503,164.167454 291.751665,151.671171 C237.093823,94.0553759 108.578234,152.217749 61.5724902,195.252762 C38.6322727,216.253162 34.0667353,230.657111 47.4954168,260.413482 C65.6986214,300.747754 78.4414005,323.366455 129.66973,370.415068 C83.5267232,350.71681 64.1017551,326.335126 44.9018486,292.307941 C28.4294756,322.862746 14.8346772,351.054403 0.232459761,382.364772 C0.253894209,300.190459 0.296763104,218.482344 0.446804237,136.238369 C-4.82071127,3.6341586 81.0671203,-30.3715926 177.918672,27.9836911 C375.083438,148.402418 398.002221,162.876029 585.591148,273.793936 C697.580779,340.015662 698.829335,429.032923 585.510769,495.586883" id="Fill-1" sketch:type="MSShapeGroup"></path>
            <path d="M353.231019,631.48664 C335.563676,617.66678 324.010508,595.374954 320.398804,582.809009 C334.797394,511.603774 268.773937,450.494164 240.598355,404.876301 C219.8123,371.181349 211.447507,359.890754 210.841983,405.996251 C210.365067,441.041573 209.148662,421.027157 192.601269,403.547365 C165.374161,374.793054 199.797884,433.373399 182.59674,444.578256 C156.714645,454.089793 109.505274,468.906354 95.3263866,503.86058 C87.133069,514.352742 79.6256537,524.523387 73.3560778,527.883237 C58.1858475,536.039044 55.3672177,546.756268 64.9912846,556.78759 C63.6569903,566.818911 68.4636651,581.828383 78.3074352,582.069521 C73.3239261,604.934718 98.2843404,617.607835 118.807824,614.478405 C151.163123,623.207584 151.200633,657.599155 118.271963,665.835342 C75.3012539,676.579359 29.860225,665.229819 0.704017609,655.69149 C7.85240589,756.004704 77.0320856,784.641127 158.209697,745.539335 C222.480889,707.359226 288.456118,669.388102 353.231019,631.48664" id="Fill-2" sketch:type="MSShapeGroup"></path>
        </g>
    </g>
</svg>