<svg xmlns="http://www.w3.org/2000/svg" viewBox="0 0 121 152">
    <path fill="#ffffff" fill-rule="evenodd" d="M31.47 106.01l-13.283 23.004c-1.145 1.983-.464 4.52 1.518 5.664 1.983 1.145 4.52.465 5.664-1.518l13.28-23.004c1.14-1.983.46-4.52-1.52-5.664-1.99-1.145-4.52-.465-5.67 1.517m13.32 7.69l-17.9 31.01c-1.15 1.98-.47 4.52 1.52 5.66 1.98 1.14 4.52.46 5.66-1.52l17.91-31.02c1.14-1.99.46-4.52-1.52-5.67-1.99-1.15-4.52-.47-5.67 1.52m13.33 7.69l-13.29 23c-1.15 1.98-.47 4.52 1.51 5.66 1.99 1.14 4.52.46 5.67-1.52l13.28-23c1.15-1.98.47-4.52-1.52-5.67-1.98-1.15-4.52-.47-5.66 1.52M32.94 88.53c-.62 2.2-2.91 3.482-5.114 2.86-2.21-.62-3.49-2.91-2.87-5.114 1.11-3.96 2.41-7.83 3.89-11.6-3.51 2.28-6.69 5.01-9.46 8.11-5.2 5.8-8.988 12.88-10.87 20.69-.536 2.22-2.773 3.58-4.99 3.04-2.216-.54-3.58-2.78-3.043-5C2.7 92.38 7.13 84.08 13.23 77.28c5.746-6.42 12.97-11.5 21.19-14.74 5.85-11.08 13.355-21.13 22.2-29.83 14.8-14.56 33.342-25.31 54.1-30.75l3.965-1.04 1.084 3.953c5.66 20.7 5.62 42.13.42 62.222-3.11 11.987-8.05 23.494-14.71 34.084 1.32 8.76.53 17.59-2.16 25.8-2.85 8.68-7.81 16.67-14.64 23.15-1.66 1.57-4.28 1.51-5.85-.14-1.57-1.65-1.51-4.27.14-5.85 5.83-5.54 10.07-12.35 12.5-19.76 1.3-3.98 2.08-8.13 2.3-12.34-2.54 3.19-5.26 6.28-8.15 9.24-1.6 1.64-4.22 1.67-5.86.07-1.64-1.6-1.68-4.22-.08-5.86 13.99-14.31 23.66-31.78 28.51-50.49 4.51-17.41 4.85-35.906.63-53.935C91.11 16.455 75.26 26 62.44 38.61 48.66 52.16 38.36 69.27 32.96 88.542"/>
</svg>
