<?xml version="1.0" encoding="UTF-8" standalone="no"?>
<svg width="45px" height="63px" viewBox="0 0 45 63" version="1.1" xmlns="http://www.w3.org/2000/svg" xmlns:xlink="http://www.w3.org/1999/xlink" xmlns:sketch="http://www.bohemiancoding.com/sketch/ns">
    <!-- Generator: Sketch 3.5.2 (25235) - http://www.bohemiancoding.com/sketch -->
    <title>Group 4</title>
    <desc>Created with Sketch.</desc>
    <defs></defs>
    <g id="Page-1" stroke="none" stroke-width="1" fill="none" fill-rule="evenodd" sketch:type="MSPage">
        <g id="Artboard-2" sketch:type="MSArtboardGroup" transform="translate(-1130.000000, -419.000000)" fill="#333333">
            <g id="Group-4" sketch:type="MSLayerGroup" transform="translate(1130.000000, 419.000000)">
                <path d="M39.5767,53.854 C39.4797,53.854 39.3837,53.81 39.3207,53.726 L3.0817,5.424 C2.9727,5.282 3.0037,5.081 3.1437,4.975 C3.2877,4.868 3.4877,4.896 3.5937,5.039 L39.8327,53.34 C39.9387,53.482 39.9107,53.683 39.7667,53.79 C39.7117,53.833 39.6417,53.854 39.5767,53.854" id="Fill-146" sketch:type="MSShapeGroup"></path>
                <path d="M2.5171,8.5078 L3.1541,8.5758 L3.4841,5.4278 L6.5991,5.9888 L6.7081,5.3558 L2.9191,4.6748 L2.5171,8.5078 Z" id="Fill-147" sketch:type="MSShapeGroup"></path>
                <path d="M39.6734,53.1333 L42.7634,52.7593 L43.2034,53.3433 L40.1104,53.7183 L40.5504,54.3023 L43.6434,53.9273 L44.0804,54.5113 L40.9874,54.8863 L41.4274,55.4693 L44.5214,55.0953 L44.9574,55.6793 L41.8644,56.0533 L42.3144,56.6513 L41.8054,57.0333 L41.3564,56.4363 L40.1354,59.3033 L39.6954,58.7193 L40.9154,55.8523 L40.4824,55.2683 L39.2584,58.1353 L38.8174,57.5503 L40.0414,54.6833 L39.6054,54.1003 L38.3814,56.9673 L37.9444,56.3833 L39.1644,53.5163 L39.6734,53.1333 Z" id="Fill-148" sketch:type="MSShapeGroup"></path>
                <path d="M6.0591,53.854 C5.9911,53.854 5.9251,53.833 5.8691,53.79 C5.7251,53.683 5.6971,53.482 5.8031,53.34 L42.0421,5.039 C42.1491,4.896 42.3481,4.868 42.4891,4.975 C42.6321,5.081 42.6611,5.282 42.5541,5.424 L6.3151,53.726 C6.2521,53.81 6.1561,53.854 6.0591,53.854" id="Fill-149" sketch:type="MSShapeGroup"></path>
                <path d="M38.9243,5.3555 L39.0363,5.9885 L42.1523,5.4275 L42.4793,8.5755 L43.1193,8.5075 L42.7163,4.6735 L38.9243,5.3555 Z" id="Fill-150" sketch:type="MSShapeGroup"></path>
                <path d="M6.4712,53.5152 L7.6922,56.3822 L7.2542,56.9672 L6.0312,54.1002 L5.5942,54.6832 L6.8152,57.5502 L6.3772,58.1352 L5.1542,55.2672 L4.7172,55.8512 L5.9382,58.7192 L5.5002,59.3042 L4.2802,56.4342 L3.8302,57.0332 L3.3222,56.6512 L3.7722,56.0542 L0.6782,55.6792 L1.1152,55.0962 L4.2082,55.4692 L4.6452,54.8862 L1.5552,54.5122 L1.9922,53.9272 L5.0852,54.3022 L5.5222,53.7172 L2.4322,53.3432 L2.8692,52.7582 L5.9592,53.1332 L6.4712,53.5152 Z" id="Fill-151" sketch:type="MSShapeGroup"></path>
                <path d="M1.0063,38.4522 C0.9413,38.4522 0.8713,38.4322 0.8163,38.3882 C0.6723,38.2822 0.6443,38.0812 0.7503,37.9392 L28.9303,0.3802 C29.0363,0.2382 29.2393,0.2102 29.3803,0.3162 C29.5243,0.4212 29.5483,0.6232 29.4433,0.7652 L1.2623,38.3242 C1.1993,38.4082 1.1063,38.4522 1.0063,38.4522" id="Fill-152" sketch:type="MSShapeGroup"></path>
                <path d="M44.6294,38.4522 C44.5294,38.4522 44.4334,38.4082 44.3704,38.3242 L16.1934,0.7652 C16.0844,0.6232 16.1124,0.4212 16.2564,0.3162 C16.3964,0.2102 16.5994,0.2382 16.7054,0.3802 L44.8854,37.9392 C44.9914,38.0812 44.9634,38.2822 44.8194,38.3882 C44.7644,38.4322 44.6954,38.4522 44.6294,38.4522" id="Fill-153" sketch:type="MSShapeGroup"></path>
                <path d="M29.187,62.1411 C29.09,62.1411 28.993,62.0961 28.93,62.0121 L0.751,24.4521 C0.644,24.3111 0.672,24.1091 0.816,24.0021 C0.957,23.8971 1.156,23.9251 1.262,24.0671 L29.443,61.6261 C29.548,61.7691 29.524,61.9701 29.38,62.0761 C29.324,62.1201 29.255,62.1411 29.187,62.1411" id="Fill-154" sketch:type="MSShapeGroup"></path>
                <path d="M16.4458,62.1411 C16.3808,62.1411 16.3118,62.1201 16.2568,62.0761 C16.1128,61.9701 16.0848,61.7691 16.1938,61.6261 L44.3708,24.0671 C44.4798,23.9251 44.6798,23.8971 44.8198,24.0021 C44.9638,24.1091 44.9918,24.3111 44.8848,24.4521 L16.7058,62.0121 C16.6428,62.0961 16.5468,62.1411 16.4458,62.1411" id="Fill-155" sketch:type="MSShapeGroup"></path>
                <path d="M22.9037,26.0757 C20.1417,26.0757 17.9007,28.3227 17.9007,31.0827 C17.9007,33.8437 20.1417,36.0907 22.9037,36.0907 C25.6597,36.0907 27.9067,33.8437 27.9067,31.0827 C27.9067,28.3227 25.6597,26.0757 22.9037,26.0757 M22.9037,36.7317 C19.7887,36.7317 17.2577,34.1977 17.2577,31.0827 C17.2577,27.9687 19.7887,25.4327 22.9037,25.4327 C26.0147,25.4327 28.5467,27.9687 28.5467,31.0827 C28.5467,34.1977 26.0147,36.7317 22.9037,36.7317" id="Fill-156" sketch:type="MSShapeGroup"></path>
            </g>
        </g>
    </g>
</svg>