<?xml version="1.0" encoding="UTF-8" standalone="no"?>
<svg width="70px" height="70px" viewBox="0 0 70 70" version="1.1" xmlns="http://www.w3.org/2000/svg" xmlns:xlink="http://www.w3.org/1999/xlink" xmlns:sketch="http://www.bohemiancoding.com/sketch/ns">
    <!-- Generator: Sketch 3.5.2 (25235) - http://www.bohemiancoding.com/sketch -->
    <title>Group 3</title>
    <desc>Created with Sketch.</desc>
    <defs></defs>
    <g id="Page-1" stroke="none" stroke-width="1" fill="none" fill-rule="evenodd" sketch:type="MSPage">
        <g id="Artboard-2" sketch:type="MSArtboardGroup" transform="translate(-1013.000000, -418.000000)" fill="#333333">
            <g id="Group-3" sketch:type="MSLayerGroup" transform="translate(1013.000000, 418.000000)">
                <path d="M38.312,27.8057 C38.815,28.0137 39.295,28.2527 39.739,28.5117 C39.745,28.4197 39.751,28.3277 39.751,28.2337 C39.751,28.1117 39.745,27.9927 39.732,27.8747 C39.308,27.6397 38.855,27.4237 38.38,27.2377 C38.369,27.4307 38.346,27.6197 38.312,27.8057" id="Fill-157" sketch:type="MSShapeGroup"></path>
                <path d="M31.9986,27.2373 C31.5236,27.4233 31.0706,27.6403 30.6466,27.8743 C30.6376,27.9933 30.6246,28.1123 30.6246,28.2343 C30.6246,28.3273 30.6346,28.4183 30.6406,28.5103 C31.0836,28.2513 31.5616,28.0123 32.0636,27.8053 C32.0326,27.6203 32.0106,27.4313 31.9986,27.2373" id="Fill-158" sketch:type="MSShapeGroup"></path>
                <path d="M43.4995,30.8418 C43.4115,30.7418 42.1795,29.3598 40.2905,28.1988 L40.2905,28.2338 C40.2905,28.4348 40.2745,28.6308 40.2505,28.8258 C41.5895,29.6878 42.5575,30.6338 42.9285,31.0178 C42.1765,31.8028 38.9675,34.8978 35.1905,34.8978 C31.4145,34.8978 28.2025,31.8028 27.4505,31.0178 C27.8215,30.6328 28.7895,29.6858 30.1255,28.8238 C30.1035,28.6308 30.0885,28.4338 30.0885,28.2338 L30.0885,28.1988 C28.1965,29.3598 26.9675,30.7418 26.8795,30.8418 L26.7235,31.0178 L26.8795,31.1958 C27.0325,31.3698 30.6435,35.4378 35.1905,35.4378 C39.7345,35.4378 43.3465,31.3698 43.4995,31.1958 L43.6555,31.0178 L43.4995,30.8418 Z" id="Fill-159" sketch:type="MSShapeGroup"></path>
                <path d="M35.1909,27.1407 C36.1019,27.1407 36.9789,27.3237 37.7999,27.6087 C37.8289,27.4277 37.8399,27.2427 37.8469,27.0517 C37.0129,26.7787 36.1249,26.5997 35.1909,26.5997 C34.2539,26.5997 33.3619,26.7787 32.5319,27.0517 C32.5379,27.2427 32.5499,27.4277 32.5789,27.6087 C33.3959,27.3237 34.2769,27.1407 35.1909,27.1407" id="Fill-160" sketch:type="MSShapeGroup"></path>
                <path d="M35.1909,32.6392 C32.7689,32.6392 30.7909,30.8102 30.6399,28.5102 C30.4619,28.6132 30.2909,28.7182 30.1259,28.8242 C30.4279,31.2742 32.5819,33.1792 35.1909,33.1792 C37.7969,33.1792 39.9479,31.2742 40.2509,28.8252 C40.0849,28.7192 39.9139,28.6132 39.7389,28.5112 C39.5879,30.8122 37.6069,32.6392 35.1909,32.6392" id="Fill-161" sketch:type="MSShapeGroup"></path>
                <path d="M39.7505,28.2339 C39.7505,28.3279 39.7445,28.4199 39.7385,28.5119 C39.9135,28.6129 40.0845,28.7189 40.2505,28.8259 C40.2745,28.6299 40.2905,28.4349 40.2905,28.2339 L40.2905,28.1989 C40.1095,28.0879 39.9255,27.9789 39.7315,27.8749 C39.7445,27.9929 39.7505,28.1119 39.7505,28.2339" id="Fill-162" sketch:type="MSShapeGroup"></path>
                <path d="M30.1255,28.8242 C30.2905,28.7182 30.4625,28.6132 30.6405,28.5102 C30.6345,28.4182 30.6245,28.3272 30.6245,28.2342 C30.6245,28.1122 30.6375,27.9932 30.6465,27.8742 C30.4525,27.9792 30.2695,28.0882 30.0885,28.1992 L30.0885,28.2342 C30.0885,28.4332 30.1035,28.6302 30.1255,28.8242" id="Fill-163" sketch:type="MSShapeGroup"></path>
                <path d="M35.1909,30.5684 C33.9019,30.5684 32.8249,29.2954 32.5789,27.6084 C32.4039,27.6704 32.2319,27.7354 32.0639,27.8054 C32.3879,29.6934 33.6649,31.1084 35.1909,31.1084 C36.7139,31.1084 37.9909,29.6934 38.3119,27.8054 C38.1429,27.7374 37.9749,27.6704 37.7999,27.6084 C37.5529,29.2954 36.4769,30.5684 35.1909,30.5684" id="Fill-164" sketch:type="MSShapeGroup"></path>
                <path d="M32.5318,27.0518 C32.3508,27.1108 32.1698,27.1708 31.9988,27.2368 C32.0108,27.4308 32.0328,27.6198 32.0638,27.8058 C32.2318,27.7358 32.4038,27.6698 32.5788,27.6088 C32.5498,27.4278 32.5378,27.2418 32.5318,27.0518" id="Fill-165" sketch:type="MSShapeGroup"></path>
                <path d="M37.8472,27.0518 C37.8402,27.2418 37.8282,27.4278 37.8002,27.6088 C37.9752,27.6698 38.1432,27.7368 38.3122,27.8058 C38.3462,27.6198 38.3692,27.4308 38.3802,27.2368 C38.2052,27.1708 38.0282,27.1108 37.8472,27.0518" id="Fill-166" sketch:type="MSShapeGroup"></path>
                <path d="M59.3578,10.8174 L59.3578,24.1854 L59.8978,24.7264 L59.8978,10.5494 C59.8978,10.3994 59.7758,10.2784 59.6298,10.2784 L45.4628,10.2784 L45.9998,10.8174 L59.3578,10.8174 Z" id="Fill-167" sketch:type="MSShapeGroup"></path>
                <path d="M11.146,59.0684 L11.146,45.7004 L10.606,45.1594 L10.606,59.3384 C10.606,59.4864 10.728,59.6074 10.875,59.6074 L25.044,59.6074 L24.504,59.0684 L11.146,59.0684 Z" id="Fill-168" sketch:type="MSShapeGroup"></path>
                <path d="M59.3578,59.0684 L45.9998,59.0684 L45.4628,59.6074 L59.6298,59.6074 C59.7758,59.6074 59.8978,59.4864 59.8978,59.3384 L59.8978,45.1594 L59.3578,45.7004 L59.3578,59.0684 Z" id="Fill-169" sketch:type="MSShapeGroup"></path>
                <path d="M11.146,10.8174 L24.504,10.8174 L25.044,10.2784 L10.875,10.2784 C10.728,10.2784 10.606,10.3994 10.606,10.5494 L10.606,24.7264 L11.146,24.1854 L11.146,10.8174 Z" id="Fill-170" sketch:type="MSShapeGroup"></path>
                <path d="M24.5044,10.8174 L11.1464,24.1854 L11.1464,24.9494 L25.2664,10.8174 L24.5044,10.8174 Z" id="Fill-171" sketch:type="MSShapeGroup"></path>
                <path d="M1.1587,34.9429 L10.6057,25.4899 L10.6057,24.7259 L0.5877,34.7529 C0.5377,34.8019 0.5097,34.8709 0.5097,34.9429 C0.5097,35.0149 0.5377,35.0839 0.5877,35.1329 L10.6057,45.1599 L10.6057,44.3959 L1.1587,34.9429 Z" id="Fill-172" sketch:type="MSShapeGroup"></path>
                <path d="M35.2505,69.0601 L25.8065,59.6071 L25.0445,59.6071 L35.0605,69.6331 C35.1125,69.6871 35.1815,69.7131 35.2505,69.7131 C35.3215,69.7131 35.3915,69.6871 35.4435,69.6331 L45.4625,59.6071 L44.6975,59.6071 L35.2505,69.0601 Z" id="Fill-173" sketch:type="MSShapeGroup"></path>
                <path d="M69.9947,34.9429 C69.9947,34.8709 69.9667,34.8019 69.9167,34.7529 L59.8977,24.7259 L59.8977,25.4899 L69.3447,34.9429 L59.8977,44.3959 L59.8977,45.1599 L69.9167,35.1329 C69.9667,35.0839 69.9947,35.0149 69.9947,34.9429" id="Fill-174" sketch:type="MSShapeGroup"></path>
                <path d="M45.9995,59.0684 L59.3575,45.7004 L59.3575,44.9364 L45.2375,59.0684 L45.9995,59.0684 Z" id="Fill-175" sketch:type="MSShapeGroup"></path>
                <path d="M11.146,45.7002 L24.504,59.0682 L25.266,59.0682 L11.146,44.9362 L11.146,45.7002 Z" id="Fill-176" sketch:type="MSShapeGroup"></path>
                <path d="M59.3578,24.1856 L45.9998,10.8176 L45.2378,10.8176 L59.3578,24.9496 L59.3578,24.1856 Z" id="Fill-177" sketch:type="MSShapeGroup"></path>
                <path d="M35.2505,0.8257 L44.6975,10.2787 L45.4625,10.2787 L35.4435,0.2527 C35.3375,0.1477 35.1655,0.1477 35.0605,0.2527 L25.0445,10.2787 L25.8065,10.2787 L35.2505,0.8257 Z" id="Fill-178" sketch:type="MSShapeGroup"></path>
                <path d="M59.3578,44.9366 L59.3578,45.7006 L59.8978,45.1596 L59.8978,44.3956 L59.3578,44.9366 Z" id="Fill-179" sketch:type="MSShapeGroup"></path>
                <path d="M25.2661,10.8174 L25.8061,10.2784 L25.0441,10.2784 L24.5041,10.8174 L25.2661,10.8174 Z" id="Fill-180" sketch:type="MSShapeGroup"></path>
                <path d="M11.146,24.9497 L11.146,24.1857 L10.606,24.7257 L10.606,25.4897 L11.146,24.9497 Z" id="Fill-181" sketch:type="MSShapeGroup"></path>
                <path d="M45.2378,10.8174 L45.9998,10.8174 L45.4628,10.2784 L44.6978,10.2784 L45.2378,10.8174 Z" id="Fill-182" sketch:type="MSShapeGroup"></path>
                <path d="M11.146,44.9366 L10.606,44.3956 L10.606,45.1596 L11.146,45.7006 L11.146,44.9366 Z" id="Fill-183" sketch:type="MSShapeGroup"></path>
                <path d="M45.2378,59.0684 L44.6978,59.6074 L45.4628,59.6074 L45.9998,59.0684 L45.2378,59.0684 Z" id="Fill-184" sketch:type="MSShapeGroup"></path>
                <path d="M25.2661,59.0684 L24.5041,59.0684 L25.0441,59.6074 L25.8061,59.6074 L25.2661,59.0684 Z" id="Fill-185" sketch:type="MSShapeGroup"></path>
                <path d="M59.3578,24.9497 L59.8978,25.4897 L59.8978,24.7257 L59.3578,24.1857 L59.3578,24.9497 Z" id="Fill-186" sketch:type="MSShapeGroup"></path>
                <path d="M13.2027,47.271 C13.1557,47.271 13.1097,47.259 13.0657,47.233 C12.9377,47.157 12.8937,46.99 12.9717,46.862 L38.5277,4.101 C38.6017,3.971 38.7677,3.93 38.8957,4.007 C39.0237,4.083 39.0667,4.249 38.9897,4.377 L13.4337,47.14 C13.3837,47.224 13.2967,47.271 13.2027,47.271" id="Fill-187" sketch:type="MSShapeGroup"></path>
                <path d="M57.3013,47.2725 C57.2103,47.2725 57.1193,47.2255 57.0693,47.1415 L31.5143,4.6205 C31.4393,4.4925 31.4803,4.3255 31.6083,4.2495 C31.7363,4.1725 31.9013,4.2125 31.9763,4.3405 L57.5313,46.8635 C57.6103,46.9915 57.5663,47.1575 57.4383,47.2335 C57.3943,47.2605 57.3473,47.2725 57.3013,47.2725" id="Fill-188" sketch:type="MSShapeGroup"></path>
                <path d="M35.188,26.7207 C35.041,26.7207 34.919,26.5987 34.919,26.4497 L34.919,10.2097 C34.919,10.0597 35.041,9.9397 35.188,9.9397 C35.337,9.9397 35.459,10.0597 35.459,10.2097 L35.459,26.4497 C35.459,26.5987 35.337,26.7207 35.188,26.7207" id="Fill-189" sketch:type="MSShapeGroup"></path>
                <path d="M21.2368,55.3047 C21.1678,55.3047 21.0988,55.2777 21.0468,55.2247 C20.9398,55.1197 20.9398,54.9487 21.0468,54.8437 L28.1028,47.7787 C28.2058,47.6787 28.3838,47.6787 28.4838,47.7787 L31.7548,51.0507 L35.0068,48.0757 C35.1198,47.9757 35.2878,47.9837 35.3868,48.0927 C35.4908,48.2017 35.4808,48.3737 35.3718,48.4737 L31.9288,51.6237 C31.8198,51.7207 31.6578,51.7187 31.5548,51.6157 L28.2938,48.3517 L21.4268,55.2247 C21.3738,55.2777 21.3048,55.3047 21.2368,55.3047" id="Fill-190" sketch:type="MSShapeGroup"></path>
                <path d="M49.1421,55.3047 C49.0741,55.3047 49.0051,55.2777 48.9521,55.2247 L42.0851,48.3517 L38.8241,51.6157 C38.7211,51.7187 38.5591,51.7207 38.4531,51.6237 L35.0061,48.4737 C34.8981,48.3737 34.8911,48.2017 34.9911,48.0927 C35.0911,47.9817 35.2631,47.9757 35.3711,48.0757 L38.6241,51.0507 L41.8951,47.7787 C41.9951,47.6787 42.1721,47.6787 42.2761,47.7787 L49.3321,54.8437 C49.4391,54.9487 49.4391,55.1197 49.3321,55.2247 C49.2801,55.2777 49.2101,55.3047 49.1421,55.3047" id="Fill-191" sketch:type="MSShapeGroup"></path>
                <path d="M35.1909,48.544 C35.0419,48.544 34.9199,48.424 34.9199,48.274 L34.9199,35.438 C34.9199,35.29 35.0419,35.168 35.1909,35.168 C35.3369,35.168 35.4599,35.29 35.4599,35.438 L35.4599,48.274 C35.4599,48.424 35.3369,48.544 35.1909,48.544" id="Fill-192" sketch:type="MSShapeGroup"></path>
                <path d="M35.2505,69.3306 C35.1255,69.3306 35.0135,69.2416 34.9875,69.1136 L31.4795,51.4776 C31.4515,51.3316 31.5485,51.1896 31.6915,51.1596 C31.8355,51.1286 31.9825,51.2256 32.0105,51.3716 L35.5155,69.0076 C35.5465,69.1536 35.4495,69.2956 35.3035,69.3256 C35.2875,69.3286 35.2695,69.3306 35.2505,69.3306" id="Fill-193" sketch:type="MSShapeGroup"></path>
                <path d="M35.2534,69.3306 C35.2344,69.3306 35.2194,69.3286 35.2004,69.3256 C35.0534,69.2976 34.9594,69.1556 34.9874,69.0106 L38.3684,51.3736 C38.3964,51.2276 38.5394,51.1316 38.6834,51.1596 C38.8304,51.1876 38.9274,51.3296 38.8994,51.4756 L35.5154,69.1116 C35.4904,69.2416 35.3784,69.3306 35.2534,69.3306" id="Fill-194" sketch:type="MSShapeGroup"></path>
            </g>
        </g>
    </g>
</svg>