<?xml version="1.0" encoding="UTF-8" standalone="no"?>
<svg width="52px" height="43px" viewBox="0 0 52 43" version="1.1" xmlns="http://www.w3.org/2000/svg" xmlns:xlink="http://www.w3.org/1999/xlink" xmlns:sketch="http://www.bohemiancoding.com/sketch/ns">
    <!-- Generator: Sketch 3.5.2 (25235) - http://www.bohemiancoding.com/sketch -->
    <title>Fill 1</title>
    <desc>Created with Sketch.</desc>
    <defs></defs>
    <g id="Page-1" stroke="none" stroke-width="1" fill="none" fill-rule="evenodd" sketch:type="MSPage">
        <g id="Artboard-2" sketch:type="MSArtboardGroup" transform="translate(-689.000000, -710.000000)" fill="#333333">
            <path d="M716.0386,750.4698 L727.8496,717.7388 L739.4956,717.7388 L716.0386,750.4698 Z M702.0406,717.7388 L713.8506,750.4698 L690.3926,717.7388 L702.0406,717.7388 Z M735.0836,711.3328 L739.4726,717.0928 L728.4846,717.0928 L735.0836,711.3328 Z M715.2676,717.7388 L727.1626,717.7388 L715.2676,750.7068 L715.2676,717.7388 Z M714.6216,717.7388 L714.6216,750.7068 L702.7256,717.7388 L714.6216,717.7388 Z M702.2526,716.9778 L695.6196,711.1868 L708.1336,711.1868 L702.2526,716.9778 Z M714.2096,717.0928 L703.0556,717.0928 L708.9106,711.3268 L714.2096,717.0928 Z M714.9446,716.9398 L709.6576,711.1868 L720.2316,711.1868 L714.9446,716.9398 Z M726.8326,717.0928 L715.6796,717.0928 L720.9796,711.3268 L726.8326,717.0928 Z M721.7566,711.1868 L734.2706,711.1868 L727.6356,716.9778 L721.7566,711.1868 Z M694.8046,711.3328 L701.4056,717.0928 L690.4176,717.0928 L694.8046,711.3328 Z M740.4116,717.2678 C740.4026,717.2518 740.3846,717.2388 740.3726,717.2268 L740.3806,717.2178 L735.2916,710.5398 L694.5966,710.5398 L689.5076,717.2178 L689.5176,717.2268 C689.5066,717.2388 689.4876,717.2518 689.4776,717.2678 C689.4216,717.3738 689.4336,717.5048 689.5036,717.6048 L714.6826,752.7398 C714.6826,752.7398 714.6856,752.7398 714.6856,752.7428 C714.6936,752.7528 714.6996,752.7588 714.7076,752.7658 C714.7126,752.7718 714.7166,752.7788 714.7236,752.7838 C714.7276,752.7898 714.7346,752.7938 714.7386,752.7968 C714.7546,752.8098 714.7696,752.8188 714.7866,752.8278 C714.7936,752.8338 714.7996,752.8368 714.8076,752.8408 C714.8136,752.8438 714.8216,752.8468 714.8296,752.8498 C714.8326,752.8528 714.8326,752.8528 714.8356,752.8568 L714.8406,752.8568 C714.8746,752.8678 714.9096,752.8748 714.9446,752.8748 C714.9806,752.8748 715.0166,752.8678 715.0496,752.8568 L715.0546,752.8568 C715.0576,752.8528 715.0586,752.8528 715.0606,752.8498 C715.0686,752.8468 715.0746,752.8438 715.0816,752.8408 C715.0896,752.8368 715.0946,752.8338 715.1016,752.8308 C715.1186,752.8218 715.1356,752.8098 715.1506,752.7968 C715.1556,752.7938 715.1616,752.7898 715.1676,752.7838 C715.1726,752.7788 715.1776,752.7718 715.1826,752.7658 C715.1886,752.7588 715.1976,752.7528 715.2036,752.7398 L715.2066,752.7398 L740.3846,717.6048 C740.4566,717.5048 740.4666,717.3738 740.4116,717.2678 L740.4116,717.2678 Z" id="Fill-1" sketch:type="MSShapeGroup"></path>
        </g>
    </g>
</svg>