<?xml version="1.0" encoding="UTF-8" standalone="no"?>
<svg width="52px" height="74px" viewBox="0 0 52 74" version="1.1" xmlns="http://www.w3.org/2000/svg" xmlns:xlink="http://www.w3.org/1999/xlink" xmlns:sketch="http://www.bohemiancoding.com/sketch/ns">
    <!-- Generator: Sketch 3.5.2 (25235) - http://www.bohemiancoding.com/sketch -->
    <title>Fill 394</title>
    <desc>Created with Sketch.</desc>
    <defs></defs>
    <g id="Page-1" stroke="none" stroke-width="1" fill="none" fill-rule="evenodd" sketch:type="MSPage">
        <g id="Artboard-2" sketch:type="MSArtboardGroup" transform="translate(-803.000000, -325.000000)" fill="#333333">
            <path d="M829.0283,397.7056 L829.0283,377.9966 C831.1643,377.8376 832.8543,376.0506 832.8543,373.8756 C832.8543,371.6986 831.1643,369.9116 829.0283,369.7526 L829.0283,362.7746 L841.1713,362.7746 C841.3413,362.7746 841.4813,362.6356 841.4813,362.4656 C841.4813,362.2936 841.3413,362.1546 841.1713,362.1546 L829.0283,362.1546 L829.0283,355.5896 L830.8003,357.4976 L831.2553,357.0746 L828.7193,354.3436 L826.1813,357.0746 L826.6353,357.4976 L828.4083,355.5896 L828.4083,362.1546 L816.2663,362.1546 C816.0943,362.1546 815.9553,362.2936 815.9553,362.4656 C815.9553,362.6356 816.0943,362.7746 816.2663,362.7746 L828.4083,362.7746 L828.4083,369.7526 C826.2743,369.9116 824.5823,371.6986 824.5823,373.8756 C824.5823,376.0506 826.2743,377.8376 828.4083,377.9966 L828.4083,397.7056 L804.0533,362.4656 L813.9033,348.2116 C814.2483,349.2236 815.2263,349.9606 816.3903,349.9606 C817.5253,349.9606 818.4853,349.2626 818.8533,348.2916 C819.2213,349.2626 820.1813,349.9606 821.3163,349.9606 C822.4503,349.9606 823.4103,349.2626 823.7783,348.2916 C824.1463,349.2626 825.1063,349.9606 826.2403,349.9606 C827.3753,349.9606 828.3333,349.2626 828.7033,348.2916 C829.0703,349.2626 830.0313,349.9606 831.1663,349.9606 C832.3003,349.9606 833.2583,349.2626 833.6273,348.2916 C833.9953,349.2626 834.9553,349.9606 836.0893,349.9606 C837.2243,349.9606 838.1833,349.2626 838.5523,348.2916 C838.9203,349.2626 839.8803,349.9606 841.0143,349.9606 C842.1913,349.9606 843.1783,349.2076 843.5133,348.1806 L853.3833,362.4656 L829.0283,397.7056 Z M828.7193,370.3636 C828.7273,370.3636 828.7353,370.3596 828.7423,370.3586 C830.6703,370.3726 832.2333,371.9436 832.2333,373.8756 C832.2333,375.8136 830.6563,377.3926 828.7193,377.3926 C826.7813,377.3926 825.2033,375.8136 825.2033,373.8756 C825.2033,371.9436 826.7663,370.3726 828.6943,370.3586 C828.7033,370.3596 828.7103,370.3636 828.7193,370.3636 L828.7193,370.3636 Z M819.4933,340.1216 L837.9423,340.1216 L842.9993,347.4366 C842.9953,348.4886 842.1053,349.3396 841.0143,349.3396 C839.9213,349.3396 839.0293,348.4816 839.0293,347.4296 L838.3853,347.4296 L838.0743,347.4296 C838.0743,348.4816 837.1853,349.3396 836.0893,349.3396 C834.9953,349.3396 834.1043,348.4816 834.1043,347.4296 L833.4603,347.4296 L833.1493,347.4296 C833.1493,348.4816 832.2603,349.3396 831.1663,349.3396 C830.0703,349.3396 829.1813,348.4816 829.1813,347.4296 L828.5353,347.4296 L828.2263,347.4296 C828.2263,348.4816 827.3353,349.3396 826.2403,349.3396 C825.1453,349.3396 824.2563,348.4816 824.2563,347.4296 L823.6103,347.4296 L823.3003,347.4296 C823.3003,348.4816 822.4113,349.3396 821.3163,349.3396 C820.2203,349.3396 819.3313,348.4816 819.3313,347.4296 L818.6863,347.4296 L818.3773,347.4296 C818.3773,348.4816 817.4863,349.3396 816.3903,349.3396 C815.3143,349.3396 814.4373,348.5066 814.4103,347.4756 L819.4933,340.1216 Z M821.6463,337.0076 L835.7913,337.0076 L837.5143,339.5006 L819.9243,339.5006 L821.6463,337.0076 Z M854.0153,362.2886 L828.9733,326.0526 C828.9343,325.9976 828.8783,325.9686 828.8173,325.9496 C828.8043,325.9446 828.7943,325.9436 828.7813,325.9396 C828.6633,325.9186 828.5353,325.9496 828.4633,326.0526 L803.4193,362.2886 C803.3463,362.3936 803.3463,362.5356 803.4193,362.6406 L828.4633,398.8766 C828.5223,398.9596 828.6163,399.0096 828.7193,399.0096 C828.8203,399.0096 828.9153,398.9596 828.9733,398.8766 L854.0153,362.6406 C854.0903,362.5356 854.0903,362.3936 854.0153,362.2886 L854.0153,362.2886 Z" id="Fill-394" sketch:type="MSShapeGroup"></path>
        </g>
    </g>
</svg>