<?xml version="1.0" encoding="UTF-8" standalone="no"?>
<svg width="60px" height="60px" viewBox="0 0 60 60" version="1.1" xmlns="http://www.w3.org/2000/svg" xmlns:xlink="http://www.w3.org/1999/xlink" xmlns:sketch="http://www.bohemiancoding.com/sketch/ns">
    <!-- Generator: Sketch 3.5.2 (25235) - http://www.bohemiancoding.com/sketch -->
    <title>Group 11</title>
    <desc>Created with Sketch.</desc>
    <defs></defs>
    <g id="Page-1" stroke="none" stroke-width="1" fill="none" fill-rule="evenodd" sketch:type="MSPage">
        <g id="Artboard-2" sketch:type="MSArtboardGroup" transform="translate(-685.000000, -619.000000)" fill="#333333">
            <g id="Group-11" sketch:type="MSLayerGroup" transform="translate(685.000000, 619.000000)">
                <path d="M29.9439,59.1211 C13.8799,59.1211 0.8119,46.0441 0.8119,29.9681 C0.8119,13.8951 13.8799,0.8151 29.9439,0.8151 C46.0069,0.8151 59.0749,13.8951 59.0749,29.9681 C59.0749,46.0441 46.0069,59.1211 29.9439,59.1211 M29.9439,0.2301 C13.5579,0.2301 0.2279,13.5741 0.2279,29.9681 C0.2279,46.3651 13.5579,59.7061 29.9439,59.7061 C46.3279,59.7061 59.6599,46.3651 59.6599,29.9681 C59.6599,13.5741 46.3279,0.2301 29.9439,0.2301" id="Fill-47" sketch:type="MSShapeGroup"></path>
                <path d="M29.9439,51.8125 C17.9079,51.8125 8.1169,42.0145 8.1169,29.9685 C8.1169,17.9245 17.9079,8.1275 29.9439,8.1275 C41.9789,8.1275 51.7699,17.9245 51.7699,29.9685 C51.7699,42.0145 41.9789,51.8125 29.9439,51.8125 M29.9439,7.5425 C17.5859,7.5425 7.5329,17.6035 7.5329,29.9685 C7.5329,42.3355 17.5859,52.3965 29.9439,52.3965 C42.2999,52.3965 52.3549,42.3355 52.3549,29.9685 C52.3549,17.6035 42.2999,7.5425 29.9439,7.5425" id="Fill-48" sketch:type="MSShapeGroup"></path>
                <path d="M29.9439,44.501 C21.9369,44.501 15.4219,37.983 15.4219,29.968 C15.4219,21.957 21.9369,15.436 29.9439,15.436 C37.9509,15.436 44.4649,21.957 44.4649,29.968 C44.4649,37.983 37.9509,44.501 29.9439,44.501 M29.9439,14.852 C21.6139,14.852 14.8369,21.632 14.8369,29.968 C14.8369,38.305 21.6139,45.088 29.9439,45.088 C38.2749,45.088 45.0499,38.305 45.0499,29.968 C45.0499,21.632 38.2749,14.852 29.9439,14.852" id="Fill-49" sketch:type="MSShapeGroup"></path>
                <path d="M29.9439,37.1929 C25.9629,37.1929 22.7269,33.9539 22.7269,29.9679 C22.7269,25.9859 25.9629,22.7479 29.9439,22.7479 C33.9239,22.7479 37.1619,25.9859 37.1619,29.9679 C37.1619,33.9539 33.9239,37.1929 29.9439,37.1929 M29.9439,22.1599 C25.6419,22.1599 22.1409,25.6649 22.1409,29.9679 C22.1409,34.2749 25.6419,37.7769 29.9439,37.7769 C34.2449,37.7769 37.7449,34.2749 37.7449,29.9679 C37.7449,25.6649 34.2449,22.1599 29.9439,22.1599" id="Fill-50" sketch:type="MSShapeGroup"></path>
            </g>
        </g>
    </g>
</svg>