<?xml version="1.0" encoding="UTF-8" standalone="no"?>
<svg width="64px" height="70px" viewBox="0 0 64 70" version="1.1" xmlns="http://www.w3.org/2000/svg" xmlns:xlink="http://www.w3.org/1999/xlink" xmlns:sketch="http://www.bohemiancoding.com/sketch/ns">
    <!-- Generator: Sketch 3.5.2 (25235) - http://www.bohemiancoding.com/sketch -->
    <title>Group 31</title>
    <desc>Created with Sketch.</desc>
    <defs></defs>
    <g id="Page-1" stroke="none" stroke-width="1" fill="none" fill-rule="evenodd" sketch:type="MSPage">
        <g id="Artboard-2" sketch:type="MSArtboardGroup" transform="translate(-567.000000, -430.000000)" fill="#333333">
            <g id="Group-31" sketch:type="MSLayerGroup" transform="translate(567.000000, 430.000000)">
                <path d="M32.0489,23.7993 C31.4409,23.7993 30.9459,23.3383 30.9459,22.7723 C30.9459,22.2053 31.4409,21.7433 32.0489,21.7433 C32.6559,21.7433 33.1509,22.2053 33.1509,22.7723 C33.1509,23.3383 32.6559,23.7993 32.0489,23.7993 M32.0489,21.0353 C31.0499,21.0353 30.2389,21.8143 30.2389,22.7723 C30.2389,23.7293 31.0499,24.5073 32.0489,24.5073 C33.0479,24.5073 33.8579,23.7293 33.8579,22.7723 C33.8579,21.8143 33.0479,21.0353 32.0489,21.0353" id="Fill-345" sketch:type="MSShapeGroup"></path>
                <path d="M25.5137,47.1114 L31.6947,47.1114 L31.6947,58.7084 L25.5137,47.1114 Z M31.6947,44.7914 L31.6947,46.4034 L25.1377,46.4034 L24.2777,44.7914 L31.6947,44.7914 Z M31.6947,42.3194 L31.6947,44.0844 L23.8997,44.0844 L22.9607,42.3194 L31.6947,42.3194 Z M31.6947,39.8464 L31.6947,41.6114 L22.5827,41.6114 L21.6417,39.8464 L31.6947,39.8464 Z M31.6947,37.3744 L31.6947,39.1374 L21.2647,39.1374 L20.3237,37.3744 L31.6947,37.3744 Z M31.6947,34.9004 L31.6947,36.6654 L19.9467,36.6654 L19.0057,34.9004 L31.6947,34.9004 Z M8.5117,1.6164 L55.5837,1.6164 L55.5837,15.2094 L45.4687,34.1924 L32.4017,34.1924 L32.4017,27.7124 C37.9537,27.5304 42.3207,23.2094 42.5077,23.0214 L42.5117,23.0164 L42.5147,23.0154 L42.7557,22.7724 L42.7517,22.7674 L45.8807,19.4984 C46.0127,19.3574 46.0097,19.1334 45.8677,18.9984 C45.7257,18.8624 45.5027,18.8664 45.3667,19.0084 L42.2457,22.2704 C41.9837,22.0284 41.5277,21.6324 40.9257,21.1744 L43.8687,17.5834 C43.9907,17.4324 43.9697,17.2094 43.8187,17.0854 C43.6677,16.9614 43.4447,16.9824 43.3207,17.1344 L40.3497,20.7574 C39.8987,20.4394 39.3867,20.1104 38.8207,19.7864 L41.3607,15.9044 C41.4667,15.7414 41.4217,15.5214 41.2577,15.4144 C41.0957,15.3084 40.8757,15.3524 40.7697,15.5174 L38.1967,19.4484 C37.7127,19.1954 37.1947,18.9594 36.6497,18.7444 L38.6827,14.3104 C38.7627,14.1334 38.6857,13.9234 38.5087,13.8414 C38.3297,13.7594 38.1197,13.8364 38.0397,14.0164 L35.9847,18.4964 C35.5277,18.3414 35.0487,18.2134 34.5587,18.1044 L35.4777,13.2964 C35.5147,13.1044 35.3887,12.9194 35.1967,12.8824 C35.0067,12.8464 34.8187,12.9714 34.7837,13.1644 L33.8677,17.9714 C33.3877,17.8934 32.8977,17.8474 32.3967,17.8304 L32.4067,12.7644 C32.4067,12.5684 32.2487,12.4094 32.0527,12.4084 C31.8587,12.4084 31.6997,12.5674 31.6997,12.7624 L31.6917,17.8304 L31.6917,17.8314 C31.1927,17.8474 30.7067,17.8944 30.2297,17.9714 L29.3147,13.1644 C29.2777,12.9714 29.0867,12.8464 28.8997,12.8824 C28.7077,12.9194 28.5817,13.1044 28.6177,13.2964 L29.5347,18.1054 C29.0467,18.2134 28.5687,18.3414 28.1107,18.4964 L26.0567,14.0164 C25.9757,13.8364 25.7647,13.7594 25.5887,13.8414 C25.4107,13.9234 25.3337,14.1334 25.4147,14.3104 L27.4467,18.7444 C26.9027,18.9594 26.3847,19.1954 25.8987,19.4484 L23.3257,15.5174 C23.2217,15.3524 22.9977,15.3084 22.8367,15.4144 C22.6737,15.5214 22.6277,15.7414 22.7337,15.9044 L25.2747,19.7864 C24.7077,20.1104 24.1977,20.4394 23.7457,20.7584 L20.7737,17.1344 C20.6507,16.9824 20.4307,16.9614 20.2777,17.0854 C20.1267,17.2094 20.1047,17.4324 20.2277,17.5834 L23.1727,21.1744 C22.5687,21.6324 22.1127,22.0284 21.8487,22.2724 L18.7277,19.0084 C18.5947,18.8664 18.3687,18.8624 18.2287,18.9984 C18.0857,19.1334 18.0817,19.3574 18.2167,19.4984 L21.3437,22.7674 L21.3407,22.7724 L21.5827,23.0154 L21.5827,23.0164 L21.5867,23.0214 C21.7747,23.2094 26.1437,27.5304 31.6947,27.7124 L31.6947,34.1924 L18.6287,34.1924 L8.5117,15.2094 L8.5117,1.6164 Z M7.8037,1.6164 L7.8037,13.8814 L1.2667,1.6164 L7.8037,1.6164 Z M56.2917,13.8824 L56.2917,1.6164 L62.8277,1.6164 L56.2917,13.8824 Z M32.0487,26.4874 C29.8787,26.4874 28.1147,24.8204 28.1147,22.7724 C28.1147,20.7224 29.8787,19.0544 32.0487,19.0544 C34.2187,19.0544 35.9837,20.7224 35.9837,22.7724 C35.9837,24.8204 34.2187,26.4874 32.0487,26.4874 L32.0487,26.4874 Z M41.7387,22.7724 C40.8287,23.5974 37.6777,26.2214 33.7827,26.8734 C35.4857,26.2164 36.6917,24.6274 36.6917,22.7724 C36.6917,20.9164 35.4857,19.3264 33.7827,18.6704 C37.6777,19.3204 40.8287,21.9454 41.7387,22.7724 L41.7387,22.7724 Z M30.3157,18.6704 C28.6117,19.3264 27.4067,20.9164 27.4067,22.7724 C27.4067,24.6274 28.6117,26.2164 30.3157,26.8734 C26.4197,26.2214 23.2657,23.5974 22.3547,22.7724 C23.2657,21.9454 26.4197,19.3214 30.3157,18.6704 L30.3157,18.6704 Z M44.1477,36.6654 L32.4017,36.6654 L32.4017,34.9004 L45.0907,34.9004 L44.1477,36.6654 Z M42.7947,39.2094 L42.7947,39.1374 L32.4017,39.1374 L32.4017,37.3744 L43.7717,37.3744 L42.7947,39.2094 Z M41.5127,41.6114 L32.4017,41.6114 L32.4017,39.8464 L42.4547,39.8464 L41.5127,41.6114 Z M40.1957,44.0844 L32.4017,44.0844 L32.4017,42.3194 L41.1367,42.3194 L40.1957,44.0844 Z M38.9587,46.4034 L32.4017,46.4034 L32.4017,44.7914 L39.8177,44.7914 L38.9587,46.4034 Z M32.4017,58.7084 L32.4017,47.1114 L38.5827,47.1114 L32.4017,58.7084 Z M63.7317,1.4284 C63.7877,1.3184 63.7867,1.1864 63.7197,1.0794 C63.6587,0.9734 63.5427,0.9084 63.4177,0.9084 L55.9377,0.9084 L8.1577,0.9084 L0.6777,0.9084 C0.5537,0.9084 0.4367,0.9734 0.3757,1.0794 C0.3087,1.1864 0.3077,1.3184 0.3657,1.4284 L31.6947,60.2134 L31.6947,68.3834 L29.6737,66.2074 L29.1547,66.6904 L32.0487,69.8044 L34.9437,66.6904 L34.4247,66.2074 L32.4017,68.3844 L32.4017,60.2134 L63.7317,1.4284 Z" id="Fill-346" sketch:type="MSShapeGroup"></path>
                <path d="M46.6743,18.7574 C46.9613,18.7574 47.1953,18.5044 47.1953,18.1924 C47.1953,17.8794 46.9613,17.6264 46.6743,17.6264 C46.3863,17.6264 46.1523,17.8794 46.1523,18.1924 C46.1523,18.5044 46.3863,18.7574 46.6743,18.7574" id="Fill-347" sketch:type="MSShapeGroup"></path>
                <path d="M44.4634,16.8423 C44.7494,16.8423 44.9844,16.5893 44.9844,16.2773 C44.9844,15.9633 44.7494,15.7103 44.4634,15.7103 C44.1744,15.7103 43.9394,15.9633 43.9394,16.2773 C43.9394,16.5893 44.1744,16.8423 44.4634,16.8423" id="Fill-348" sketch:type="MSShapeGroup"></path>
                <path d="M41.7354,15.0142 C42.0244,15.0142 42.2564,14.7612 42.2564,14.4492 C42.2564,14.1362 42.0244,13.8832 41.7354,13.8832 C41.4464,13.8832 41.2144,14.1362 41.2144,14.4492 C41.2144,14.7612 41.4464,15.0142 41.7354,15.0142" id="Fill-349" sketch:type="MSShapeGroup"></path>
                <path d="M39.0152,13.4571 C39.3042,13.4571 39.5362,13.2041 39.5362,12.8921 C39.5362,12.5791 39.3042,12.3261 39.0152,12.3261 C38.7262,12.3261 38.4942,12.5791 38.4942,12.8921 C38.4942,13.2041 38.7262,13.4571 39.0152,13.4571" id="Fill-350" sketch:type="MSShapeGroup"></path>
                <path d="M35.4341,12.3257 C35.7211,12.3257 35.9551,12.0727 35.9551,11.7607 C35.9551,11.4477 35.7211,11.1947 35.4341,11.1947 C35.1451,11.1947 34.9111,11.4477 34.9111,11.7607 C34.9111,12.0727 35.1451,12.3257 35.4341,12.3257" id="Fill-351" sketch:type="MSShapeGroup"></path>
                <path d="M17.419,17.626 C17.13,17.626 16.896,17.879 16.896,18.192 C16.896,18.504 17.13,18.757 17.419,18.757 C17.709,18.757 17.942,18.504 17.942,18.192 C17.942,17.879 17.709,17.626 17.419,17.626" id="Fill-352" sketch:type="MSShapeGroup"></path>
                <path d="M19.6284,16.8423 C19.9194,16.8423 20.1534,16.5893 20.1534,16.2773 C20.1534,15.9633 19.9194,15.7103 19.6284,15.7103 C19.3434,15.7103 19.1084,15.9633 19.1084,16.2773 C19.1084,16.5893 19.3434,16.8423 19.6284,16.8423" id="Fill-353" sketch:type="MSShapeGroup"></path>
                <path d="M22.3565,15.0142 C22.6445,15.0142 22.8805,14.7612 22.8805,14.4492 C22.8805,14.1362 22.6445,13.8832 22.3565,13.8832 C22.0705,13.8832 21.8365,14.1362 21.8365,14.4492 C21.8365,14.7612 22.0705,15.0142 22.3565,15.0142" id="Fill-354" sketch:type="MSShapeGroup"></path>
                <path d="M25.6007,12.8921 C25.6007,12.5791 25.3657,12.3261 25.0767,12.3261 C24.7907,12.3261 24.5557,12.5791 24.5557,12.8921 C24.5557,13.2041 24.7907,13.4571 25.0767,13.4571 C25.3657,13.4571 25.6007,13.2041 25.6007,12.8921 Z" id="Fill-355" sketch:type="MSShapeGroup"></path>
                <path d="M28.6597,12.3257 C28.9487,12.3257 29.1827,12.0727 29.1827,11.7607 C29.1827,11.4477 28.9487,11.1947 28.6597,11.1947 C28.3727,11.1947 28.1397,11.4477 28.1397,11.7607 C28.1397,12.0727 28.3727,12.3257 28.6597,12.3257" id="Fill-356" sketch:type="MSShapeGroup"></path>
                <path d="M32.0489,11.8946 C32.3349,11.8946 32.5699,11.6416 32.5699,11.3296 C32.5699,11.0166 32.3349,10.7636 32.0489,10.7636 C31.7599,10.7636 31.5249,11.0166 31.5249,11.3296 C31.5249,11.6416 31.7599,11.8946 32.0489,11.8946" id="Fill-357" sketch:type="MSShapeGroup"></path>
            </g>
        </g>
    </g>
</svg>