<?xml version="1.0" encoding="UTF-8" standalone="no"?>
<svg width="26px" height="50px" viewBox="0 0 26 50" version="1.1" xmlns="http://www.w3.org/2000/svg" xmlns:xlink="http://www.w3.org/1999/xlink" xmlns:sketch="http://www.bohemiancoding.com/sketch/ns">
    <!-- Generator: Sketch 3.5.2 (25235) - http://www.bohemiancoding.com/sketch -->
    <title>Group 24</title>
    <desc>Created with Sketch.</desc>
    <defs></defs>
    <g id="Page-1" stroke="none" stroke-width="1" fill="none" fill-rule="evenodd" sketch:type="MSPage">
        <g id="Artboard-2" sketch:type="MSArtboardGroup" transform="translate(-786.000000, -871.000000)" fill="#333333">
            <g id="Group-24" sketch:type="MSLayerGroup" transform="translate(786.000000, 871.000000)">
                <path d="M13.2051,11.5274 C7.7021,11.5274 3.0871,7.2304 2.6961,1.7414 C2.6831,1.5534 2.8241,1.3944 3.0091,1.3794 C3.2041,1.3664 3.3581,1.5084 3.3691,1.6944 C3.7371,6.8284 8.0561,10.8494 13.2051,10.8494 C18.3561,10.8494 22.6791,6.8284 23.0411,1.6944 C23.0541,1.5114 23.2091,1.3664 23.4051,1.3794 C23.5911,1.3944 23.7291,1.5534 23.7191,1.7444 C23.3291,7.2304 18.7111,11.5274 13.2051,11.5274" id="Fill-304" sketch:type="MSShapeGroup"></path>
                <path d="M0.6309,4.2871 L1.1829,4.6851 L3.1319,1.9711 L5.6929,4.1151 L6.1289,3.5941 L3.0079,0.9831 L0.6309,4.2871 Z" id="Fill-305" sketch:type="MSShapeGroup"></path>
                <path d="M25.7803,4.2871 L25.2313,4.6851 L23.2823,1.9711 L20.7203,4.1151 L20.2853,3.5941 L23.4063,0.9831 L25.7803,4.2871 Z" id="Fill-306" sketch:type="MSShapeGroup"></path>
                <path d="M13.2051,48.9141 C13.0221,48.9141 12.8671,48.7671 12.8671,48.5771 L12.8671,0.7531 C12.8671,0.5661 13.0221,0.4141 13.2051,0.4141 C13.3951,0.4141 13.5441,0.5661 13.5441,0.7531 L13.5441,48.5771 C13.5441,48.7671 13.3951,48.9141 13.2051,48.9141" id="Fill-307" sketch:type="MSShapeGroup"></path>
                <path d="M10.437,2.9981 L10.933,3.4611 L13.205,1.0141 L15.481,3.4611 L15.976,2.9981 L13.205,0.0181 L10.437,2.9981 Z" id="Fill-308" sketch:type="MSShapeGroup"></path>
                <path d="M8.1436,48.3428 L18.2706,48.3428 L13.2046,39.5648 L8.1436,48.3428 Z M18.8726,49.0208 L18.8576,49.0208 L7.5576,49.0208 C7.4356,49.0208 7.3256,48.9568 7.2626,48.8518 C7.2046,48.7488 7.2046,48.6158 7.2626,48.5118 L12.9136,38.7208 C13.0336,38.5088 13.3766,38.5088 13.5006,38.7208 L19.1106,48.4388 C19.1706,48.5018 19.2086,48.5878 19.2086,48.6808 C19.2086,48.8668 19.0546,49.0208 18.8726,49.0208 L18.8726,49.0208 Z" id="Fill-309" sketch:type="MSShapeGroup"></path>
                <path d="M18.8574,24.6358 L7.5584,24.6358 C7.3694,24.6358 7.2194,24.4868 7.2194,24.2988 C7.2194,24.1118 7.3694,23.9578 7.5584,23.9578 L18.8574,23.9578 C19.0444,23.9578 19.1944,24.1118 19.1944,24.2988 C19.1944,24.4868 19.0444,24.6358 18.8574,24.6358" id="Fill-310" sketch:type="MSShapeGroup"></path>
            </g>
        </g>
    </g>
</svg>