<?xml version="1.0" encoding="UTF-8" standalone="no"?>
<svg width="70px" height="73px" viewBox="0 0 70 73" version="1.1" xmlns="http://www.w3.org/2000/svg" xmlns:xlink="http://www.w3.org/1999/xlink" xmlns:sketch="http://www.bohemiancoding.com/sketch/ns">
    <!-- Generator: Sketch 3.5.2 (25235) - http://www.bohemiancoding.com/sketch -->
    <title>Group 15</title>
    <desc>Created with Sketch.</desc>
    <defs></defs>
    <g id="Page-1" stroke="none" stroke-width="1" fill="none" fill-rule="evenodd" sketch:type="MSPage">
        <g id="Artboard-2" sketch:type="MSArtboardGroup" transform="translate(-899.000000, -519.000000)" fill="#333333">
            <g id="Group-15" sketch:type="MSLayerGroup" transform="translate(899.000000, 519.000000)">
                <path d="M33.0298,1.4117 C31.9778,2.0517 31.2828,3.1257 31.2828,4.3447 C31.2828,5.5597 31.9748,6.6357 33.0298,7.2757 C30.2648,6.6297 28.0608,5.0007 27.2558,4.3447 C28.0608,3.6867 30.2678,2.0577 33.0298,1.4117 M43.3108,4.3447 C42.5088,5.0017 40.3018,6.6307 37.5368,7.2777 C38.5888,6.6357 39.2808,5.5607 39.2808,4.3447 C39.2808,3.1257 38.5888,2.0517 37.5368,1.4117 C40.2988,2.0577 42.5058,3.6867 43.3108,4.3447 M32.0468,4.3447 C32.0468,2.8047 33.4978,1.5527 35.2828,1.5527 C37.0688,1.5527 38.5198,2.8047 38.5198,4.3447 C38.5198,5.8847 37.0688,7.1367 35.2828,7.1367 C33.4978,7.1367 32.0468,5.8847 32.0468,4.3447 M35.2828,8.3127 C40.1328,8.3127 43.9938,4.7737 44.1568,4.6237 L44.4558,4.3447 L44.1568,4.0637 C43.9938,3.9127 40.1328,0.3747 35.2828,0.3747 C30.4328,0.3747 26.5718,3.9127 26.4068,4.0637 L26.1108,4.3447 L26.4068,4.6237 C26.5718,4.7737 30.4328,8.3127 35.2828,8.3127" id="Fill-341" sketch:type="MSShapeGroup"></path>
                <path d="M35.2832,5.0396 C34.8152,5.0396 34.4372,4.7276 34.4372,4.3446 C34.4372,3.9596 34.8152,3.6476 35.2832,3.6476 C35.7512,3.6476 36.1292,3.9596 36.1292,4.3446 C36.1292,4.7276 35.7512,5.0396 35.2832,5.0396 M35.2832,2.8856 C34.3972,2.8856 33.6762,3.5396 33.6762,4.3446 C33.6762,5.1466 34.3972,5.8016 35.2832,5.8016 C36.1692,5.8016 36.8932,5.1466 36.8932,4.3446 C36.8932,3.5396 36.1692,2.8856 35.2832,2.8856" id="Fill-342" sketch:type="MSShapeGroup"></path>
                <path d="M35.8262,71.8028 L37.6612,69.4558 L67.5182,69.4558 L68.8702,71.8028 L35.8262,71.8028 Z M29.5872,63.9928 C31.1632,65.2108 33.1332,65.9448 35.2742,65.9448 C37.4182,65.9448 39.3882,65.2108 40.9642,63.9928 L35.2742,71.2688 L29.5872,63.9928 Z M1.6822,71.8028 L3.0332,69.4558 L32.8892,69.4558 L34.7242,71.8028 L1.6822,71.8028 Z M4.7932,66.4038 L30.5052,66.4038 L32.2932,68.6938 L3.4732,68.6938 L4.7932,66.4038 Z M6.5542,63.3508 L28.1172,63.3508 L29.9092,65.6398 L5.2332,65.6398 L6.5542,63.3508 Z M8.3142,60.2988 L25.7292,60.2988 L27.5212,62.5888 L6.9962,62.5888 L8.3142,60.2988 Z M10.0772,57.2478 L23.2922,57.2478 C23.3072,57.2478 23.3232,57.2398 23.3392,57.2388 L25.1332,59.5358 L8.7572,59.5358 L10.0772,57.2478 Z M11.8372,54.1948 L20.9572,54.1948 L22.7492,56.4838 L10.5172,56.4838 L11.8372,54.1948 Z M13.5982,51.1428 L18.4702,51.1428 C18.5012,51.1428 18.5292,51.1318 18.5572,51.1258 L20.3612,53.4318 L12.2782,53.4318 L13.5982,51.1428 Z M15.7262,47.4538 C15.7392,47.4898 15.7452,47.5278 15.7702,47.5588 L17.9762,50.3788 L14.0382,50.3788 L15.7262,47.4538 Z M25.6952,30.1718 L34.8962,46.8188 L34.8962,46.9418 L16.0702,46.9418 C16.0512,46.9418 16.0322,46.9538 16.0102,46.9578 L25.6952,30.1718 Z M30.4552,21.9248 L34.5222,29.2828 L26.2102,29.2828 L30.4552,21.9248 Z M34.8962,14.2298 L34.8962,28.3838 L30.8982,21.1538 L34.8962,14.2298 Z M34.8962,45.2428 L26.4972,30.0468 L34.8962,30.0468 L34.8962,45.2428 Z M26.7132,60.3178 L16.8532,47.7038 L32.4112,47.7038 C28.6602,48.9178 25.9352,52.4438 25.9352,56.5958 C25.9352,57.9188 26.2162,59.1748 26.7132,60.3178 L26.7132,60.3178 Z M35.2742,48.0148 C40.0052,48.0148 43.8542,51.8638 43.8542,56.5958 C43.8542,61.3298 40.0052,65.1808 35.2742,65.1808 C30.5452,65.1808 26.7002,61.3298 26.7002,56.5958 C26.7002,51.8638 30.5452,48.0148 35.2742,48.0148 L35.2742,48.0148 Z M35.6582,46.8188 L44.8552,30.1718 L54.5372,46.9578 C54.5182,46.9538 54.5032,46.9418 54.4812,46.9418 L35.6582,46.9418 L35.6582,46.8188 Z M35.6582,30.0468 L44.0542,30.0468 L35.6582,45.2428 L35.6582,30.0468 Z M35.6582,14.2298 L39.6532,21.1538 L35.6582,28.3838 L35.6582,14.2298 Z M40.0962,21.9248 L44.3412,29.2828 L36.0292,29.2828 L40.0962,21.9248 Z M54.8252,47.4538 L56.5132,50.3788 L52.5772,50.3788 L54.7812,47.5588 C54.8062,47.5278 54.8092,47.4898 54.8252,47.4538 L54.8252,47.4538 Z M58.2732,53.4318 L50.1892,53.4318 L51.9942,51.1258 C52.0222,51.1318 52.0502,51.1428 52.0812,51.1428 L56.9532,51.1428 L58.2732,53.4318 Z M60.0342,56.4838 L47.8052,56.4838 L49.5942,54.1948 L58.7132,54.1948 L60.0342,56.4838 Z M61.7942,59.5358 L45.4172,59.5358 L47.2152,57.2388 C47.2272,57.2398 47.2432,57.2478 47.2592,57.2478 L60.4742,57.2478 L61.7942,59.5358 Z M43.8382,60.3178 C44.3372,59.1748 44.6152,57.9188 44.6152,56.5958 C44.6152,52.4438 41.8902,48.9178 38.1392,47.7038 L53.7012,47.7038 L43.8382,60.3178 Z M63.5542,62.5888 L43.0332,62.5888 L44.8212,60.2988 L62.2372,60.2988 L63.5542,62.5888 Z M65.3172,65.6398 L40.6452,65.6398 L42.4372,63.3508 L63.9972,63.3508 L65.3172,65.6398 Z M67.0782,68.6938 L38.2582,68.6938 L40.0492,66.4038 L65.7542,66.4038 L67.0782,68.6938 Z M69.8152,71.9138 L66.4262,66.0388 C66.4262,66.0318 66.4322,66.0278 66.4322,66.0218 C66.4322,65.8758 66.3482,65.7528 66.2262,65.6868 L64.6872,63.0228 C64.6902,63.0058 64.7002,62.9888 64.7002,62.9698 C64.7002,62.8068 64.5972,62.6698 64.4502,62.6148 L40.5272,21.1458 L40.0802,20.3738 L35.9352,13.1868 L35.6082,12.6138 C35.6012,12.6058 35.5922,12.6028 35.5862,12.5968 C35.5172,12.4948 35.4082,12.4238 35.2742,12.4238 C35.1432,12.4238 35.0342,12.4948 34.9652,12.5968 C34.9582,12.6028 34.9492,12.6058 34.9462,12.6138 L34.6152,13.1868 L30.4712,20.3738 L30.0242,21.1458 L6.0982,62.6148 C5.9572,62.6698 5.8512,62.8068 5.8512,62.9698 C5.8512,62.9888 5.8612,63.0058 5.8642,63.0228 L4.3252,65.6868 C4.2062,65.7528 4.1192,65.8758 4.1192,66.0218 C4.1192,66.0278 4.1252,66.0318 4.1252,66.0388 L0.6892,71.9928 C0.6202,72.1108 0.6202,72.2578 0.6892,72.3748 C0.7582,72.4928 0.8822,72.5668 1.0202,72.5668 L69.5342,72.5668 L69.5472,72.5668 C69.7592,72.5668 69.9312,72.3958 69.9312,72.1838 C69.9312,72.0788 69.8872,71.9838 69.8152,71.9138 L69.8152,71.9138 Z" id="Fill-343" sketch:type="MSShapeGroup"></path>
                <path d="M35.274,55.5078 C35.876,55.5078 36.363,55.9968 36.363,56.5958 C36.363,57.1988 35.876,57.6878 35.274,57.6878 C34.675,57.6878 34.188,57.1988 34.188,56.5958 C34.188,55.9968 34.675,55.5078 35.274,55.5078 M35.274,58.4498 C36.298,58.4498 37.128,57.6188 37.128,56.5958 C37.128,55.5768 36.298,54.7438 35.274,54.7438 C34.253,54.7438 33.423,55.5768 33.423,56.5958 C33.423,57.6188 34.253,58.4498 35.274,58.4498" id="Fill-344" sketch:type="MSShapeGroup"></path>
            </g>
        </g>
    </g>
</svg>