<?xml version="1.0" encoding="UTF-8" standalone="no"?>
<svg width="63px" height="80px" viewBox="0 0 63 80" version="1.1" xmlns="http://www.w3.org/2000/svg" xmlns:xlink="http://www.w3.org/1999/xlink" xmlns:sketch="http://www.bohemiancoding.com/sketch/ns">
    <!-- Generator: Sketch 3.5.2 (25235) - http://www.bohemiancoding.com/sketch -->
    <title>Group 2</title>
    <desc>Created with Sketch.</desc>
    <defs></defs>
    <g id="Page-1" stroke="none" stroke-width="1" fill="none" fill-rule="evenodd" sketch:type="MSPage">
        <g id="Artboard-2" sketch:type="MSArtboardGroup" transform="translate(-903.000000, -421.000000)" fill="#333333">
            <g id="Group-2" sketch:type="MSLayerGroup" transform="translate(903.000000, 421.000000)">
                <path d="M34.8037,32.8159 C35.3717,33.0489 35.9087,33.3189 36.4077,33.6099 C36.4147,33.5059 36.4267,33.4019 36.4267,33.2979 C36.4267,33.1609 36.4147,33.0269 36.4047,32.8929 C35.9277,32.6289 35.4157,32.3849 34.8787,32.1749 C34.8637,32.3939 34.8417,32.6079 34.8037,32.8159" id="Fill-123" sketch:type="MSShapeGroup"></path>
                <path d="M27.688,32.1748 C27.151,32.3848 26.642,32.6298 26.165,32.8928 C26.152,33.0268 26.143,33.1608 26.143,33.2978 C26.143,33.4028 26.152,33.5048 26.158,33.6088 C26.658,33.3178 27.198,33.0478 27.763,32.8148 C27.728,32.6068 27.704,32.3928 27.688,32.1748" id="Fill-124" sketch:type="MSShapeGroup"></path>
                <path d="M40.6465,36.2359 C40.5495,36.1239 39.1645,34.5659 37.0325,33.2589 C37.0325,33.2719 37.0355,33.2839 37.0355,33.2979 C37.0355,33.5239 37.0165,33.7459 36.9885,33.9649 C38.4965,34.9349 39.5885,36.0019 40.0035,36.4369 C39.1575,37.3189 35.5435,40.8069 31.2835,40.8069 C27.0295,40.8069 23.4115,37.3189 22.5635,36.4369 C22.9815,36.0009 24.0735,34.9349 25.5785,33.9629 C25.5495,33.7439 25.5345,33.5239 25.5345,33.2979 C25.5345,33.2839 25.5375,33.2719 25.5375,33.2589 C23.4055,34.5659 22.0165,36.1239 21.9195,36.2359 L21.7455,36.4369 L21.9195,36.6369 C22.0915,36.8319 26.1585,41.4169 31.2835,41.4169 C36.4085,41.4169 40.4755,36.8319 40.6465,36.6369 L40.8215,36.4369 L40.6465,36.2359 Z" id="Fill-125" sketch:type="MSShapeGroup"></path>
                <path d="M31.2832,32.0655 C32.3132,32.0655 33.3032,32.2735 34.2262,32.5945 C34.2582,32.3895 34.2732,32.1795 34.2792,31.9655 C33.3432,31.6575 32.3382,31.4575 31.2832,31.4575 C30.2312,31.4575 29.2262,31.6575 28.2872,31.9655 C28.2932,32.1795 28.3092,32.3895 28.3402,32.5945 C29.2642,32.2715 30.2562,32.0655 31.2832,32.0655" id="Fill-126" sketch:type="MSShapeGroup"></path>
                <path d="M31.2832,38.2622 C28.5582,38.2622 26.3272,36.2022 26.1582,33.6082 C25.9582,33.7242 25.7652,33.8432 25.5782,33.9632 C25.9212,36.7232 28.3462,38.8712 31.2832,38.8712 C34.2202,38.8712 36.6452,36.7242 36.9892,33.9652 C36.8012,33.8442 36.6082,33.7262 36.4082,33.6102 C36.2402,36.2022 34.0112,38.2622 31.2832,38.2622" id="Fill-127" sketch:type="MSShapeGroup"></path>
                <path d="M36.4268,33.2979 C36.4268,33.4019 36.4148,33.5059 36.4078,33.6099 C36.6078,33.7269 36.8008,33.8439 36.9888,33.9649 C37.0168,33.7459 37.0358,33.5239 37.0358,33.2979 C37.0358,33.2839 37.0318,33.2719 37.0318,33.2589 C36.8298,33.1339 36.6198,33.0109 36.4048,32.8929 C36.4148,33.0269 36.4268,33.1609 36.4268,33.2979" id="Fill-128" sketch:type="MSShapeGroup"></path>
                <path d="M25.5781,33.9629 C25.7651,33.8429 25.9581,33.7249 26.1581,33.6089 C26.1521,33.5049 26.1431,33.4029 26.1431,33.2979 C26.1431,33.1609 26.1521,33.0269 26.1651,32.8929 C25.9461,33.0109 25.7401,33.1339 25.5371,33.2589 C25.5371,33.2719 25.5341,33.2839 25.5341,33.2979 C25.5341,33.5239 25.5501,33.7439 25.5781,33.9629" id="Fill-129" sketch:type="MSShapeGroup"></path>
                <path d="M31.2832,35.9302 C29.8322,35.9302 28.6212,34.4952 28.3402,32.5942 C28.1462,32.6622 27.9532,32.7362 27.7632,32.8152 C28.1282,34.9432 29.5672,36.5382 31.2832,36.5382 C33.0002,36.5382 34.4422,34.9442 34.8042,32.8162 C34.6132,32.7382 34.4232,32.6632 34.2262,32.5942 C33.9492,34.4952 32.7342,35.9302 31.2832,35.9302" id="Fill-130" sketch:type="MSShapeGroup"></path>
                <path d="M28.2871,31.9654 C28.0871,32.0324 27.8841,32.0984 27.6881,32.1744 C27.7041,32.3924 27.7281,32.6064 27.7631,32.8154 C27.9531,32.7364 28.1461,32.6624 28.3401,32.5944 C28.3091,32.3894 28.2931,32.1794 28.2871,31.9654" id="Fill-131" sketch:type="MSShapeGroup"></path>
                <path d="M34.2793,31.9654 C34.2733,32.1794 34.2583,32.3894 34.2263,32.5944 C34.4233,32.6634 34.6133,32.7374 34.8033,32.8164 C34.8413,32.6074 34.8633,32.3934 34.8793,32.1744 C34.6853,32.0984 34.4823,32.0324 34.2793,31.9654" id="Fill-132" sketch:type="MSShapeGroup"></path>
                <path d="M31.2832,29.3101 C31.1182,29.3101 30.9802,29.1741 30.9802,29.0051 L30.9802,0.6811 C30.9802,0.5131 31.1182,0.3761 31.2832,0.3761 C31.4522,0.3761 31.5892,0.5131 31.5892,0.6811 L31.5892,29.0051 C31.5892,29.1741 31.4522,29.3101 31.2832,29.3101" id="Fill-133" sketch:type="MSShapeGroup"></path>
                <path d="M28.7989,2.6973 L29.2419,3.1113 L31.2829,0.9143 L33.3249,3.1113 L33.7709,2.6973 L31.2829,0.0213 L28.7989,2.6973 Z" id="Fill-134" sketch:type="MSShapeGroup"></path>
                <path d="M31.2832,48.9624 C31.1182,48.9624 30.9802,48.8264 30.9802,48.6584 L30.9802,42.4214 C30.9802,42.2534 31.1182,42.1164 31.2832,42.1164 C31.4522,42.1164 31.5892,42.2534 31.5892,42.4214 L31.5892,48.6584 C31.5892,48.8264 31.4522,48.9624 31.2832,48.9624" id="Fill-135" sketch:type="MSShapeGroup"></path>
                <path d="M31.2832,10.92 C17.4412,10.92 6.1832,22.188 6.1832,36.04 C6.1832,49.891 17.4412,61.16 31.2832,61.16 C45.1252,61.16 56.3862,49.891 56.3862,36.04 C56.3862,22.188 45.1252,10.92 31.2832,10.92 M31.2832,61.769 C17.1072,61.769 5.5752,50.228 5.5752,36.04 C5.5752,21.854 17.1072,10.313 31.2832,10.313 C45.4592,10.313 56.9922,21.854 56.9922,36.04 C56.9922,50.228 45.4592,61.769 31.2832,61.769" id="Fill-136" sketch:type="MSShapeGroup"></path>
                <path d="M31.2832,20.0279 C22.4602,20.0279 15.2852,27.2109 15.2852,36.0399 C15.2852,44.8689 22.4602,52.0519 31.2832,52.0519 C40.1062,52.0519 47.2852,44.8689 47.2852,36.0399 C47.2852,27.2109 40.1062,20.0279 31.2832,20.0279 M31.2832,52.6619 C22.1262,52.6619 14.6762,45.2049 14.6762,36.0399 C14.6762,26.8749 22.1262,19.4199 31.2832,19.4199 C40.4402,19.4199 47.8902,26.8749 47.8902,36.0399 C47.8902,45.2049 40.4402,52.6619 31.2832,52.6619" id="Fill-137" sketch:type="MSShapeGroup"></path>
                <path d="M37.9126,32.3858 C37.8506,32.3858 37.7876,32.3668 37.7316,32.3268 C37.5976,32.2278 37.5696,32.0378 37.6656,31.9028 L51.0706,13.5198 C51.1706,13.3858 51.3616,13.3558 51.4986,13.4538 C51.6326,13.5528 51.6616,13.7428 51.5636,13.8798 L38.1596,32.2608 C38.0996,32.3428 38.0066,32.3858 37.9126,32.3858" id="Fill-138" sketch:type="MSShapeGroup"></path>
                <path d="M24.6573,32.3858 C24.5633,32.3858 24.4703,32.3428 24.4103,32.2608 L11.0053,13.8798 C10.9083,13.7428 10.9373,13.5528 11.0743,13.4538 C11.2083,13.3558 11.3993,13.3858 11.4953,13.5198 L24.9033,31.9028 C25.0003,32.0378 24.9723,32.2278 24.8353,32.3268 C24.7823,32.3668 24.7193,32.3858 24.6573,32.3858" id="Fill-139" sketch:type="MSShapeGroup"></path>
                <path d="M31.2832,74.4444 C31.2022,74.4444 31.1182,74.4104 31.0562,74.3414 L14.2112,55.2724 C14.1012,55.1474 14.1112,54.9544 14.2392,54.8434 C14.3642,54.7334 14.5542,54.7444 14.6662,54.8704 L31.5142,73.9384 C31.6232,74.0644 31.6112,74.2574 31.4862,74.3674 C31.4272,74.4184 31.3552,74.4444 31.2832,74.4444" id="Fill-140" sketch:type="MSShapeGroup"></path>
                <path d="M31.2832,74.4444 C31.2142,74.4444 31.1432,74.4184 31.0832,74.3674 C30.9552,74.2574 30.9462,74.0644 31.0562,73.9384 L47.9002,54.8704 C48.0122,54.7444 48.2062,54.7334 48.3302,54.8434 C48.4552,54.9544 48.4682,55.1474 48.3552,55.2724 L31.5142,74.3414 C31.4522,74.4104 31.3682,74.4444 31.2832,74.4444" id="Fill-141" sketch:type="MSShapeGroup"></path>
                <path d="M31.2832,79.7173 C31.1152,79.7173 30.9802,79.5823 30.9802,79.4133 L30.9802,52.3573 C30.9802,52.1883 31.1152,52.0523 31.2832,52.0523 C31.4522,52.0523 31.5862,52.1883 31.5862,52.3573 L31.5862,79.4133 C31.5862,79.5823 31.4522,79.7173 31.2832,79.7173" id="Fill-142" sketch:type="MSShapeGroup"></path>
                <path d="M37.0357,74.4444 L25.5347,74.4444 C25.3657,74.4444 25.2317,74.3084 25.2317,74.1404 C25.2317,73.9714 25.3657,73.8364 25.5347,73.8364 L37.0357,73.8364 C37.2007,73.8364 37.3387,73.9714 37.3387,74.1404 C37.3387,74.3084 37.2007,74.4444 37.0357,74.4444" id="Fill-143" sketch:type="MSShapeGroup"></path>
                <path d="M20.0288,36.5401 L0.7398,36.5401 C0.5718,36.5401 0.4338,36.4041 0.4338,36.2361 C0.4338,36.0681 0.5718,35.9321 0.7398,35.9321 L20.0288,35.9321 C20.1938,35.9321 20.3318,36.0681 20.3318,36.2361 C20.3318,36.4041 20.1938,36.5401 20.0288,36.5401" id="Fill-144" sketch:type="MSShapeGroup"></path>
                <path d="M61.8262,36.5401 L42.5412,36.5401 C42.3722,36.5401 42.2382,36.4041 42.2382,36.2361 C42.2382,36.0681 42.3722,35.9321 42.5412,35.9321 L61.8262,35.9321 C61.9952,35.9321 62.1322,36.0681 62.1322,36.2361 C62.1322,36.4041 61.9952,36.5401 61.8262,36.5401" id="Fill-145" sketch:type="MSShapeGroup"></path>
            </g>
        </g>
    </g>
</svg>