<?xml version="1.0" encoding="UTF-8" standalone="no"?>
<svg width="20px" height="45px" viewBox="0 0 20 45" version="1.1" xmlns="http://www.w3.org/2000/svg" xmlns:xlink="http://www.w3.org/1999/xlink" xmlns:sketch="http://www.bohemiancoding.com/sketch/ns">
    <!-- Generator: Sketch 3.5.2 (25235) - http://www.bohemiancoding.com/sketch -->
    <title>Group 27</title>
    <desc>Created with Sketch.</desc>
    <defs></defs>
    <g id="Page-1" stroke="none" stroke-width="1" fill="none" fill-rule="evenodd" sketch:type="MSPage">
        <g id="Artboard-2" sketch:type="MSArtboardGroup" transform="translate(-996.000000, -873.000000)" fill="#333333">
            <g id="Group-27" sketch:type="MSLayerGroup" transform="translate(996.000000, 873.000000)">
                <path d="M9.9141,44.7764 C9.7281,44.7764 9.5771,44.6274 9.5771,44.4364 L9.5771,0.5964 C9.5771,0.4134 9.7281,0.2594 9.9141,0.2594 C10.1031,0.2594 10.2541,0.4134 10.2541,0.5964 L10.2541,44.4364 C10.2541,44.6274 10.1031,44.7764 9.9141,44.7764" id="Fill-324" sketch:type="MSShapeGroup"></path>
                <path d="M9.9141,7.8985 C5.8931,7.8985 2.6201,4.6255 2.6201,0.5965 C2.6201,0.4135 2.7731,0.2595 2.9601,0.2595 C3.1471,0.2595 3.2971,0.4135 3.2971,0.5965 C3.2971,4.2485 6.2671,7.2205 9.9141,7.2205 C13.5641,7.2205 16.5341,4.2485 16.5341,0.5965 C16.5341,0.4135 16.6851,0.2595 16.8731,0.2595 C17.0581,0.2595 17.2091,0.4135 17.2091,0.5965 C17.2091,4.6255 13.9371,7.8985 9.9141,7.8985" id="Fill-325" sketch:type="MSShapeGroup"></path>
                <path d="M5.4932,40.6768 L14.3402,40.6768 L9.9142,33.0078 L5.4932,40.6768 Z M14.9402,41.3548 L14.9282,41.3548 L4.9052,41.3548 C4.7812,41.3548 4.6722,41.2888 4.6102,41.1868 C4.5542,41.0808 4.5542,40.9518 4.6102,40.8488 L9.6242,32.1608 C9.7422,31.9518 10.0892,31.9518 10.2072,32.1608 L15.1792,40.7778 C15.2402,40.8358 15.2782,40.9218 15.2782,41.0178 C15.2782,41.2028 15.1242,41.3548 14.9402,41.3548 L14.9402,41.3548 Z" id="Fill-326" sketch:type="MSShapeGroup"></path>
                <path d="M17.0489,16.8028 L2.7809,16.8028 C2.5919,16.8028 2.4419,16.6568 2.4419,16.4658 C2.4419,16.2788 2.5919,16.1278 2.7809,16.1278 L17.0489,16.1278 C17.2359,16.1278 17.3879,16.2788 17.3879,16.4658 C17.3879,16.6568 17.2359,16.8028 17.0489,16.8028" id="Fill-327" sketch:type="MSShapeGroup"></path>
                <path d="M16.9053,18.6739 C15.6893,18.6739 14.6993,17.6869 14.6993,16.4659 C14.6993,15.2489 15.6893,14.2579 16.9053,14.2579 C18.1243,14.2579 19.1153,15.2489 19.1153,16.4659 C19.1153,17.6869 18.1243,18.6739 16.9053,18.6739 C15.6893,18.6739 18.1243,18.6739 16.9053,18.6739 M16.9053,13.5759 C15.3153,13.5759 14.0203,14.8739 14.0203,16.4659 C14.0203,18.0569 15.3153,19.3519 16.9053,19.3519 C18.4973,19.3519 19.7913,18.0569 19.7913,16.4659 C19.7913,14.8739 18.4973,13.5759 16.9053,13.5759 C15.3153,13.5759 18.4973,13.5759 16.9053,13.5759" id="Fill-328" sketch:type="MSShapeGroup"></path>
                <path d="M2.9243,18.6739 C4.1433,18.6739 5.1323,17.6869 5.1323,16.4659 C5.1323,15.2489 4.1433,14.2579 2.9243,14.2579 C1.7073,14.2579 0.7153,15.2489 0.7153,16.4659 C0.7153,17.6869 1.7073,18.6739 2.9243,18.6739 C4.1433,18.6739 1.7073,18.6739 2.9243,18.6739 M2.9243,13.5759 C4.5133,13.5759 5.8103,14.8739 5.8103,16.4659 C5.8103,18.0569 4.5133,19.3519 2.9243,19.3519 C1.3363,19.3519 0.0423,18.0569 0.0423,16.4659 C0.0423,14.8739 1.3363,13.5759 2.9243,13.5759 C4.5133,13.5759 1.3363,13.5759 2.9243,13.5759" id="Fill-329" sketch:type="MSShapeGroup"></path>
            </g>
        </g>
    </g>
</svg>