<?xml version="1.0" encoding="UTF-8" standalone="no"?>
<svg width="59px" height="60px" viewBox="0 0 59 60" version="1.1" xmlns="http://www.w3.org/2000/svg" xmlns:xlink="http://www.w3.org/1999/xlink" xmlns:sketch="http://www.bohemiancoding.com/sketch/ns">
    <!-- Generator: Sketch 3.5.2 (25235) - http://www.bohemiancoding.com/sketch -->
    <title>Group 8</title>
    <desc>Created with Sketch.</desc>
    <defs></defs>
    <g id="Page-1" stroke="none" stroke-width="1" fill="none" fill-rule="evenodd" sketch:type="MSPage">
        <g id="Artboard-2" sketch:type="MSArtboardGroup" transform="translate(-905.000000, -785.000000)" fill="#333333">
            <g id="Group-8" sketch:type="MSLayerGroup" transform="translate(905.000000, 785.000000)">
                <path d="M17.9942,13.5147 L29.2832,25.5647 L40.5722,13.5147 L29.2832,1.4607 L17.9942,13.5147 Z M29.2832,26.8607 L16.7832,13.5147 L29.2832,0.1707 L41.7832,13.5147 L29.2832,26.8607 Z" id="Fill-23" sketch:type="MSShapeGroup"></path>
                <path d="M1.5552,29.9659 L12.8442,42.0189 L24.1302,29.9659 L12.8442,17.9149 L1.5552,29.9659 Z M12.8442,43.3119 L0.3412,29.9659 L12.8442,16.6219 L25.3442,29.9659 L12.8442,43.3119 Z" id="Fill-24" sketch:type="MSShapeGroup"></path>
                <path d="M34.4331,29.9659 L45.7221,42.0189 L57.0081,29.9659 L45.7221,17.9149 L34.4331,29.9659 Z M45.7221,43.3119 L33.2221,29.9659 L45.7221,16.6219 L58.2251,29.9659 L45.7221,43.3119 Z" id="Fill-25" sketch:type="MSShapeGroup"></path>
                <path d="M17.9942,46.42 L29.2832,58.473 L40.5722,46.42 L29.2832,34.366 L17.9942,46.42 Z M29.2832,59.763 L16.7832,46.42 L29.2832,33.073 L41.7832,46.42 L29.2832,59.763 Z" id="Fill-26" sketch:type="MSShapeGroup"></path>
            </g>
        </g>
    </g>
</svg>