<?xml version="1.0" encoding="UTF-8" standalone="no"?>
<svg width="264px" height="28px" viewBox="0 0 264 28" version="1.1" xmlns="http://www.w3.org/2000/svg" xmlns:xlink="http://www.w3.org/1999/xlink" xmlns:sketch="http://www.bohemiancoding.com/sketch/ns">
    <!-- Generator: Sketch 3.5.2 (25235) - http://www.bohemiancoding.com/sketch -->
    <title>Group 18</title>
    <desc>Created with Sketch.</desc>
    <defs></defs>
    <g id="Page-1" stroke="none" stroke-width="1" fill="none" fill-rule="evenodd" sketch:type="MSPage">
        <g id="Artboard-2" sketch:type="MSArtboardGroup" transform="translate(-564.000000, -963.000000)" fill="#333333">
            <g id="Group-18" sketch:type="MSLayerGroup" transform="translate(564.000000, 963.000000)">
                <path d="M98.6978,13.8438 C98.6978,14.8468 99.5108,15.6608 100.5158,15.6608 C101.5208,15.6608 102.3338,14.8468 102.3338,13.8438 C102.3338,12.8378 101.5208,12.0228 100.5158,12.0228 C99.5108,12.0228 98.6978,12.8378 98.6978,13.8438" id="Fill-250" sketch:type="MSShapeGroup"></path>
                <path d="M111.0449,13.8438 C111.0449,14.8468 111.8589,15.6608 112.8629,15.6608 C113.8679,15.6608 114.6809,14.8468 114.6809,13.8438 C114.6809,12.8378 113.8679,12.0228 112.8629,12.0228 C111.8589,12.0228 111.0449,12.8378 111.0449,13.8438" id="Fill-251" sketch:type="MSShapeGroup"></path>
                <path d="M78.0752,24.0889 C78.0132,24.0889 77.9502,24.0699 77.8982,24.0269 C77.7862,23.9269 77.7722,23.7579 77.8702,23.6459 L86.3042,13.8409 L77.8702,4.0419 C77.7742,3.9299 77.7862,3.7579 77.8982,3.6609 C78.0112,3.5649 78.1812,3.5769 78.2792,3.6899 L86.8642,13.6659 C86.9492,13.7659 86.9492,13.9159 86.8642,14.0189 L78.2792,23.9949 C78.2262,24.0579 78.1512,24.0889 78.0752,24.0889" id="Fill-252" sketch:type="MSShapeGroup"></path>
                <path d="M71.4507,24.0889 C71.3867,24.0889 71.3257,24.0699 71.2737,24.0269 C71.1617,23.9269 71.1477,23.7579 71.2457,23.6459 L79.6777,13.8409 L71.2457,4.0419 C71.1497,3.9299 71.1617,3.7579 71.2737,3.6609 C71.3867,3.5649 71.5577,3.5769 71.6547,3.6899 L80.2397,13.6659 C80.3247,13.7659 80.3247,13.9159 80.2397,14.0189 L71.6547,23.9949 C71.6017,24.0579 71.5267,24.0889 71.4507,24.0889" id="Fill-253" sketch:type="MSShapeGroup"></path>
                <path d="M64.8242,24.0889 C64.7622,24.0889 64.7002,24.0699 64.6482,24.0269 C64.5362,23.9269 64.5232,23.7579 64.6202,23.6459 L73.0532,13.8409 L64.6202,4.0419 C64.5232,3.9299 64.5362,3.7579 64.6482,3.6609 C64.7622,3.5649 64.9312,3.5769 65.0292,3.6899 L73.6132,13.6659 C73.7012,13.7659 73.7012,13.9159 73.6132,14.0189 L65.0292,23.9949 C64.9752,24.0579 64.9012,24.0889 64.8242,24.0889" id="Fill-254" sketch:type="MSShapeGroup"></path>
                <path d="M160.8028,5.042 L160.8028,22.646 L176.0368,13.841 L160.8028,5.042 Z M160.5328,23.383 C160.4878,23.383 160.4398,23.37 160.3988,23.346 C160.3158,23.299 160.2628,23.208 160.2628,23.111 L160.2628,4.573 C160.2628,4.477 160.3158,4.386 160.3988,4.339 C160.4818,4.292 160.5848,4.292 160.6688,4.339 L176.7108,13.609 C176.7938,13.656 176.8448,13.747 176.8448,13.841 C176.8448,13.938 176.7938,14.028 176.7108,14.075 L160.6688,23.346 C160.6268,23.37 160.5798,23.383 160.5328,23.383 L160.5328,23.383 Z" id="Fill-255" sketch:type="MSShapeGroup"></path>
                <path d="M195.5845,8.6553 L204.5605,13.8433 L195.5845,19.0283 L195.5845,8.6553 Z" id="Fill-256" sketch:type="MSShapeGroup"></path>
                <path d="M239.7915,0.7784 L239.7915,26.9094 L262.4025,13.8414 L239.7915,0.7784 Z M239.5215,27.6464 C239.4755,27.6464 239.4285,27.6334 239.3875,27.6084 C239.3035,27.5614 239.2515,27.4714 239.2515,27.3744 L239.2515,0.3094 C239.2515,0.2124 239.3035,0.1264 239.3875,0.0754 C239.4705,0.0294 239.5735,0.0294 239.6575,0.0754 L263.0765,13.6094 C263.1595,13.6564 263.2105,13.7474 263.2105,13.8414 C263.2105,13.9374 263.1595,14.0284 263.0765,14.0754 L239.6575,27.6084 C239.6155,27.6334 239.5685,27.6464 239.5215,27.6464 L239.5215,27.6464 Z" id="Fill-257" sketch:type="MSShapeGroup"></path>
                <path d="M34.9756,5.0733 L34.9756,22.6113 C39.6856,22.4703 43.4736,18.5913 43.4736,13.8413 C43.4736,9.0963 39.6856,5.2163 34.9756,5.0733 M34.7056,23.1583 C34.5566,23.1583 34.4356,23.0363 34.4356,22.8853 L34.4356,4.7983 C34.4356,4.6483 34.5566,4.5293 34.7056,4.5293 C39.8366,4.5293 44.0126,8.7063 44.0126,13.8413 C44.0126,18.9783 39.8366,23.1583 34.7056,23.1583" id="Fill-258" sketch:type="MSShapeGroup"></path>
                <path d="M262.3384,14.1123 L4.2154,14.1123 C4.0674,14.1123 3.9454,13.9903 3.9454,13.8433 C3.9454,13.6943 4.0674,13.5723 4.2154,13.5723 L262.3384,13.5723 C262.4864,13.5723 262.6074,13.6943 262.6074,13.8433 C262.6074,13.9903 262.4864,14.1123 262.3384,14.1123" id="Fill-259" sketch:type="MSShapeGroup"></path>
                <path d="M0.1831,16.5205 L4.7011,13.8285 L0.1831,11.1355 L0.1831,16.5205 Z" id="Fill-260" sketch:type="MSShapeGroup"></path>
                <path d="M248.1079,14.1123 C248.0189,14.1123 247.9319,14.0683 247.8799,13.9873 L239.2939,0.4543 C239.2149,0.3293 239.2519,0.1633 239.3769,0.0823 C239.5019,0.0013 239.6699,0.0383 239.7499,0.1663 L248.3359,13.6973 C248.4149,13.8253 248.3779,13.9903 248.2519,14.0713 C248.2059,14.0993 248.1559,14.1123 248.1079,14.1123" id="Fill-261" sketch:type="MSShapeGroup"></path>
                <path d="M248.1079,14.1123 C248.0379,14.1123 247.9689,14.0873 247.9159,14.0343 C247.8119,13.9273 247.8119,13.7573 247.9159,13.6533 L253.0309,8.5343 C253.1379,8.4273 253.3079,8.4273 253.4139,8.5343 C253.5179,8.6363 253.5179,8.8083 253.4139,8.9153 L248.2989,14.0343 C248.2449,14.0873 248.1759,14.1123 248.1079,14.1123" id="Fill-262" sketch:type="MSShapeGroup"></path>
                <path d="M239.5215,27.6465 C239.4715,27.6465 239.4215,27.6305 239.3765,27.6025 C239.2515,27.5245 239.2145,27.3555 239.2935,27.2305 L247.8795,13.6975 C247.9595,13.5725 248.1255,13.5345 248.2515,13.6165 C248.3775,13.6945 248.4155,13.8625 248.3355,13.9875 L239.7495,27.5215 C239.6985,27.6025 239.6105,27.6465 239.5215,27.6465" id="Fill-263" sketch:type="MSShapeGroup"></path>
                <path d="M253.2217,19.2315 C253.1527,19.2315 253.0847,19.2075 253.0317,19.1535 L247.9157,14.0345 C247.8117,13.9275 247.8117,13.7565 247.9157,13.6535 C248.0217,13.5465 248.1917,13.5465 248.2987,13.6535 L253.4137,18.7695 C253.5177,18.8765 253.5177,19.0475 253.4137,19.1535 C253.3607,19.2075 253.2917,19.2315 253.2217,19.2315" id="Fill-264" sketch:type="MSShapeGroup"></path>
                <path d="M248.1079,22.6826 C247.9579,22.6826 247.8379,22.5646 247.8379,22.4136 L247.8379,5.2696 C247.8379,5.1206 247.9579,5.0006 248.1079,5.0006 C248.2559,5.0006 248.3779,5.1206 248.3779,5.2696 L248.3779,22.4136 C248.3779,22.5646 248.2559,22.6826 248.1079,22.6826" id="Fill-265" sketch:type="MSShapeGroup"></path>
                <path d="M224.5684,8.9932 C221.8974,8.9932 219.7234,11.1672 219.7234,13.8442 C219.7234,16.5172 221.8974,18.6912 224.5684,18.6912 C227.2414,18.6912 229.4144,16.5172 229.4144,13.8442 C229.4144,11.1672 227.2414,8.9932 224.5684,8.9932 M224.5684,19.2312 C221.5984,19.2312 219.1834,16.8142 219.1834,13.8442 C219.1834,10.8702 221.5984,8.4532 224.5684,8.4532 C227.5384,8.4532 229.9544,10.8702 229.9544,13.8442 C229.9544,16.8142 227.5384,19.2312 224.5684,19.2312" id="Fill-266" sketch:type="MSShapeGroup"></path>
                <path d="M185.8887,14.1123 C185.7907,14.1123 185.6957,14.0593 185.6467,13.9663 C185.5797,13.8313 185.6347,13.6693 185.7667,13.6033 L195.4627,8.7023 C195.5947,8.6363 195.7577,8.6903 195.8247,8.8243 C195.8917,8.9563 195.8387,9.1183 195.7057,9.1863 L186.0107,14.0843 C185.9707,14.1023 185.9287,14.1123 185.8887,14.1123" id="Fill-267" sketch:type="MSShapeGroup"></path>
                <path d="M195.5845,19.0098 C195.5435,19.0098 195.5015,19.0008 195.4625,18.9818 L185.7675,14.0838 C185.6345,14.0158 185.5795,13.8538 185.6465,13.7218 C185.7155,13.5878 185.8775,13.5338 186.0105,13.6038 L195.7065,18.5008 C195.8385,18.5668 195.8915,18.7288 195.8245,18.8638 C195.7775,18.9568 195.6825,19.0098 195.5845,19.0098" id="Fill-268" sketch:type="MSShapeGroup"></path>
                <path d="M122.1045,23.6045 C121.9545,23.6045 121.8345,23.4825 121.8345,23.3335 L121.8345,4.3515 C121.8345,4.2025 121.9545,4.0835 122.1045,4.0835 C122.2535,4.0835 122.3745,4.2025 122.3745,4.3515 L122.3745,23.3335 C122.3745,23.4825 122.2535,23.6045 122.1045,23.6045" id="Fill-269" sketch:type="MSShapeGroup"></path>
                <path d="M141.0103,14.1875 C140.9683,14.1875 140.9273,14.1775 140.8883,14.1565 L121.9823,4.5915 C121.8503,4.5265 121.7953,4.3645 121.8643,4.2295 C121.9313,4.0955 122.0933,4.0415 122.2263,4.1115 L141.1323,13.6745 C141.2643,13.7415 141.3183,13.9065 141.2503,14.0375 C141.2023,14.1305 141.1093,14.1875 141.0103,14.1875" id="Fill-270" sketch:type="MSShapeGroup"></path>
                <path d="M122.1045,23.6045 C122.0055,23.6045 121.9105,23.5475 121.8635,23.4545 C121.7955,23.3235 121.8505,23.1615 121.9825,23.0925 L140.8885,13.5285 C141.0195,13.4595 141.1835,13.5125 141.2505,13.6475 C141.3175,13.7815 141.2645,13.9435 141.1325,14.0095 L122.2265,23.5735 C122.1865,23.5945 122.1445,23.6045 122.1045,23.6045" id="Fill-271" sketch:type="MSShapeGroup"></path>
                <path d="M129.8697,19.6592 C129.7217,19.6592 129.6007,19.5382 129.6007,19.3882 L129.6007,8.2812 C129.6007,8.1312 129.7217,8.0132 129.8697,8.0132 C130.0197,8.0132 130.1397,8.1312 130.1397,8.2812 L130.1397,19.3882 C130.1397,19.5382 130.0197,19.6592 129.8697,19.6592" id="Fill-272" sketch:type="MSShapeGroup"></path>
                <path d="M34.7056,5.0703 L21.0676,5.0703 C20.9186,5.0703 20.7986,4.9483 20.7986,4.7983 C20.7986,4.6483 20.9186,4.5293 21.0676,4.5293 L34.7056,4.5293 C34.8556,4.5293 34.9756,4.6483 34.9756,4.7983 C34.9756,4.9483 34.8556,5.0703 34.7056,5.0703" id="Fill-273" sketch:type="MSShapeGroup"></path>
                <path d="M34.7056,23.1582 L21.0676,23.1582 C20.9186,23.1582 20.7986,23.0362 20.7986,22.8862 C20.7986,22.7362 20.9186,22.6172 21.0676,22.6172 L34.7056,22.6172 C34.8556,22.6172 34.9756,22.7362 34.9756,22.8862 C34.9756,23.0362 34.8556,23.1582 34.7056,23.1582" id="Fill-274" sketch:type="MSShapeGroup"></path>
                <path d="M19.4688,3.4678 C18.7348,3.4678 18.1388,4.0648 18.1388,4.7978 C18.1388,5.5318 18.7348,6.1288 19.4688,6.1288 C20.2018,6.1288 20.7988,5.5318 20.7988,4.7978 C20.7988,4.0648 20.2018,3.4678 19.4688,3.4678 M19.4688,6.6688 C18.4368,6.6688 17.6008,5.8288 17.6008,4.7978 C17.6008,3.7678 18.4368,2.9278 19.4688,2.9278 C20.4998,2.9278 21.3378,3.7678 21.3378,4.7978 C21.3378,5.8288 20.4998,6.6688 19.4688,6.6688" id="Fill-275" sketch:type="MSShapeGroup"></path>
                <path d="M19.4688,21.5557 C18.7348,21.5557 18.1388,22.1527 18.1388,22.8857 C18.1388,23.6197 18.7348,24.2167 19.4688,24.2167 C20.2018,24.2167 20.7988,23.6197 20.7988,22.8857 C20.7988,22.1527 20.2018,21.5557 19.4688,21.5557 M19.4688,24.7567 C18.4368,24.7567 17.6008,23.9167 17.6008,22.8857 C17.6008,21.8557 18.4368,21.0157 19.4688,21.0157 C20.4998,21.0157 21.3378,21.8557 21.3378,22.8857 C21.3378,23.9167 20.4998,24.7567 19.4688,24.7567" id="Fill-276" sketch:type="MSShapeGroup"></path>
            </g>
        </g>
    </g>
</svg>