<?xml version="1.0" encoding="UTF-8" standalone="no"?>
<svg width="57px" height="72px" viewBox="0 0 57 72" version="1.1" xmlns="http://www.w3.org/2000/svg" xmlns:xlink="http://www.w3.org/1999/xlink" xmlns:sketch="http://www.bohemiancoding.com/sketch/ns">
    <!-- Generator: Sketch 3.5.2 (25235) - http://www.bohemiancoding.com/sketch -->
    <title>Group 7</title>
    <desc>Created with Sketch.</desc>
    <defs></defs>
    <g id="Page-1" stroke="none" stroke-width="1" fill="none" fill-rule="evenodd" sketch:type="MSPage">
        <g id="Artboard-2" sketch:type="MSArtboardGroup" transform="translate(-1020.000000, -613.000000)" fill="#333333">
            <g id="Group-7" sketch:type="MSLayerGroup" transform="translate(1020.000000, 612.000000)">
                <path d="M28.2974,72.2871 L55.3664,45.1981 L28.2084,18.0191 L1.1374,45.1081 L28.2974,72.2871 Z M55.9864,45.4051 L28.5034,72.9051 C28.3894,73.0211 28.2044,73.0211 28.0894,72.9051 L0.5194,45.3141 C0.4034,45.2021 0.4034,45.0171 0.5194,44.9021 L28.0004,17.3991 C28.1144,17.2851 28.3004,17.2851 28.4144,17.3991 L55.9864,44.9921 C56.1004,45.1041 56.1004,45.2891 55.9864,45.4051 L55.9864,45.4051 Z" id="Fill-42" sketch:type="MSShapeGroup"></path>
                <path d="M28.4146,17.813 C28.3606,17.864 28.2896,17.898 28.2086,17.898 C28.0456,17.898 27.9146,17.768 27.9146,17.605 L27.9146,1.943 L1.0186,28.86 L1.0176,45.108 C1.0176,45.271 0.8866,45.401 0.7236,45.401 C0.5646,45.401 0.4336,45.271 0.4336,45.108 L0.4336,28.742 C0.4336,28.664 0.4646,28.59 0.5186,28.534 L28.0006,1.032 C28.0836,0.948 28.2096,0.923 28.3206,0.968 C28.4286,1.014 28.4986,1.12 28.4986,1.238 L28.4986,17.605 C28.4986,17.687 28.4656,17.758 28.4146,17.813" id="Fill-43" sketch:type="MSShapeGroup"></path>
                <path d="M55.9859,45.4048 C55.9329,45.4578 55.8599,45.4888 55.7799,45.4888 C55.6179,45.4888 55.4869,45.3578 55.4869,45.1988 L55.4869,29.5368 L28.5879,56.4538 L28.5879,72.6988 C28.5879,72.8628 28.4579,72.9928 28.2969,72.9928 C28.1349,72.9928 28.0049,72.8628 28.0049,72.6988 L28.0049,56.3328 C28.0049,56.2548 28.0369,56.1828 28.0889,56.1268 L55.5729,28.6248 C55.6569,28.5408 55.7829,28.5148 55.8909,28.5608 C56.0019,28.6048 56.0719,28.7118 56.0719,28.8308 L56.0719,45.1988 C56.0719,45.2798 56.0389,45.3518 55.9859,45.4048" id="Fill-44" sketch:type="MSShapeGroup"></path>
                <path d="M55.9859,45.4048 C55.9329,45.4578 55.8599,45.4888 55.7799,45.4888 C55.6179,45.4888 55.4869,45.3578 55.4869,45.1988 L55.4869,28.9508 L28.0009,1.4448 C27.8859,1.3308 27.8859,1.1448 28.0009,1.0328 C28.1149,0.9168 28.2999,0.9168 28.4149,1.0328 L55.9859,28.6248 C56.0409,28.6788 56.0719,28.7528 56.0719,28.8308 L56.0719,45.1988 C56.0719,45.2798 56.0389,45.3518 55.9859,45.4048" id="Fill-45" sketch:type="MSShapeGroup"></path>
                <path d="M28.5034,56.5391 C28.3894,56.6541 28.2044,56.6541 28.0894,56.5391 L0.5194,28.9481 C0.4034,28.8341 0.4034,28.6481 0.5194,28.5341 C0.6334,28.4221 0.8174,28.4221 0.9314,28.5341 L28.5034,56.1271 C28.6164,56.2391 28.6164,56.4231 28.5034,56.5391" id="Fill-46" sketch:type="MSShapeGroup"></path>
            </g>
        </g>
    </g>
</svg>