<?xml version="1.0" encoding="UTF-8" standalone="no"?>
<svg width="31px" height="49px" viewBox="0 0 31 49" version="1.1" xmlns="http://www.w3.org/2000/svg" xmlns:xlink="http://www.w3.org/1999/xlink" xmlns:sketch="http://www.bohemiancoding.com/sketch/ns">
    <!-- Generator: Sketch 3.5.2 (25235) - http://www.bohemiancoding.com/sketch -->
    <title>Group 28</title>
    <desc>Created with Sketch.</desc>
    <defs></defs>
    <g id="Page-1" stroke="none" stroke-width="1" fill="none" fill-rule="evenodd" sketch:type="MSPage">
        <g id="Artboard-2" sketch:type="MSArtboardGroup" transform="translate(-1062.000000, -871.000000)" fill="#333333">
            <g id="Group-28" sketch:type="MSLayerGroup" transform="translate(1062.000000, 871.000000)">
                <path d="M15.8677,48.9444 C15.6837,48.9444 15.5307,48.7944 15.5307,48.6064 L15.5307,0.4274 C15.5307,0.2424 15.6837,0.0934 15.8677,0.0934 C16.0577,0.0934 16.2067,0.2424 16.2067,0.4274 L16.2067,48.6064 C16.2067,48.7944 16.0577,48.9444 15.8677,48.9444" id="Fill-330" sketch:type="MSShapeGroup"></path>
                <path d="M15.8677,26.0616 C15.7547,26.0616 15.6387,26.0006 15.5757,25.8936 L0.9057,0.5996 C0.8117,0.4376 0.8647,0.2326 1.0257,0.1376 C1.1877,0.0446 1.3967,0.0936 1.4907,0.2586 L16.1617,25.5496 C16.2567,25.7146 16.2007,25.9206 16.0397,26.0136 C15.9847,26.0456 15.9257,26.0616 15.8677,26.0616" id="Fill-331" sketch:type="MSShapeGroup"></path>
                <path d="M15.8677,0.7686 L1.1957,0.7686 C1.0117,0.7686 0.8567,0.6186 0.8567,0.4276 C0.8567,0.2426 1.0117,0.0936 1.1957,0.0936 L15.8677,0.0936 C16.0577,0.0936 16.2067,0.2426 16.2067,0.4276 C16.2067,0.6186 16.0577,0.7686 15.8677,0.7686" id="Fill-332" sketch:type="MSShapeGroup"></path>
                <path d="M21.5113,31.9336 L10.2263,31.9336 C10.0373,31.9336 9.8883,31.7816 9.8883,31.5966 C9.8883,31.4096 10.0373,31.2556 10.2263,31.2556 L21.5113,31.2556 C21.6973,31.2556 21.8493,31.4096 21.8493,31.5966 C21.8493,31.7816 21.6973,31.9336 21.5113,31.9336" id="Fill-333" sketch:type="MSShapeGroup"></path>
                <path d="M15.8677,48.9444 C15.7837,48.9444 15.6977,48.9114 15.6297,48.8454 L12.3207,45.5384 C12.1907,45.4024 12.1907,45.1914 12.3207,45.0554 C12.4547,44.9274 12.6687,44.9274 12.8027,45.0554 L16.1077,48.3654 C16.2407,48.5014 16.2407,48.7144 16.1077,48.8454 C16.0427,48.9114 15.9537,48.9444 15.8677,48.9444" id="Fill-334" sketch:type="MSShapeGroup"></path>
                <path d="M15.8677,26.0616 C15.8097,26.0616 15.7547,26.0456 15.6997,26.0136 C15.5367,25.9206 15.4827,25.7146 15.5757,25.5496 L30.2467,0.2586 C30.3407,0.0936 30.5517,0.0446 30.7117,0.1376 C30.8747,0.2326 30.9277,0.4376 30.8327,0.5996 L16.1617,25.8936 C16.0987,26.0006 15.9847,26.0616 15.8677,26.0616" id="Fill-335" sketch:type="MSShapeGroup"></path>
                <path d="M30.5415,0.7686 L15.8675,0.7686 C15.6845,0.7686 15.5305,0.6186 15.5305,0.4276 C15.5305,0.2426 15.6845,0.0936 15.8675,0.0936 L30.5415,0.0936 C30.7265,0.0936 30.8785,0.2426 30.8785,0.4276 C30.8785,0.6186 30.7265,0.7686 30.5415,0.7686" id="Fill-336" sketch:type="MSShapeGroup"></path>
                <path d="M15.8677,48.9444 C15.7837,48.9444 15.6977,48.9114 15.6297,48.8454 C15.4987,48.7144 15.4987,48.5014 15.6297,48.3654 L18.9377,45.0554 C19.0667,44.9274 19.2827,44.9274 19.4167,45.0554 C19.5477,45.1914 19.5477,45.4024 19.4167,45.5384 L16.1077,48.8454 C16.0427,48.9114 15.9537,48.9444 15.8677,48.9444" id="Fill-337" sketch:type="MSShapeGroup"></path>
                <path d="M15.8677,36.4268 C14.6177,36.4268 13.5987,37.4448 13.5987,38.6988 C13.5987,39.9498 14.6177,40.9688 15.8677,40.9688 C17.1207,40.9688 18.1367,39.9498 18.1367,38.6988 C18.1367,37.4448 17.1207,36.4268 15.8677,36.4268 M15.8677,41.6468 C14.2447,41.6468 12.9217,40.3248 12.9217,38.6988 C12.9217,37.0698 14.2447,35.7488 15.8677,35.7488 C17.4937,35.7488 18.8157,37.0698 18.8157,38.6988 C18.8157,40.3248 17.4937,41.6468 15.8677,41.6468" id="Fill-338" sketch:type="MSShapeGroup"></path>
                <path d="M7.564,11.7442 C7.493,11.7442 7.42,11.7232 7.362,11.6772 C7.212,11.5622 7.182,11.3522 7.294,11.2002 L15.599,0.2262 C15.712,0.0762 15.924,0.0482 16.074,0.1592 C16.222,0.2712 16.252,0.4842 16.138,0.6342 L7.835,11.6092 C7.769,11.6992 7.668,11.7442 7.564,11.7442" id="Fill-339" sketch:type="MSShapeGroup"></path>
                <path d="M24.1714,11.7442 C24.0734,11.7442 23.9684,11.6992 23.9034,11.6092 L15.5994,0.6342 C15.4864,0.4842 15.5154,0.2712 15.6634,0.1592 C15.8124,0.0482 16.0264,0.0762 16.1384,0.2262 L24.4424,11.2002 C24.5554,11.3522 24.5254,11.5622 24.3774,11.6772 C24.3174,11.7232 24.2444,11.7442 24.1714,11.7442" id="Fill-340" sketch:type="MSShapeGroup"></path>
            </g>
        </g>
    </g>
</svg>