<?xml version="1.0" encoding="UTF-8" standalone="no"?>
<svg width="52px" height="74px" viewBox="0 0 52 74" version="1.1" xmlns="http://www.w3.org/2000/svg" xmlns:xlink="http://www.w3.org/1999/xlink" xmlns:sketch="http://www.bohemiancoding.com/sketch/ns">
    <!-- Generator: Sketch 3.5.2 (25235) - http://www.bohemiancoding.com/sketch -->
    <title>Group 16</title>
    <desc>Created with Sketch.</desc>
    <defs></defs>
    <g id="Page-1" stroke="none" stroke-width="1" fill="none" fill-rule="evenodd" sketch:type="MSPage">
        <g id="Artboard-2" sketch:type="MSArtboardGroup" transform="translate(-803.000000, -518.000000)" fill="#333333">
            <g id="Group-16" sketch:type="MSLayerGroup" transform="translate(803.000000, 518.000000)">
                <path d="M25.7173,38.1031 C25.2933,38.1031 24.9483,37.8171 24.9483,37.4661 C24.9483,37.1141 25.2933,36.8291 25.7173,36.8291 C26.1433,36.8291 26.4883,37.1141 26.4883,37.4661 C26.4883,37.8171 26.1433,38.1031 25.7173,38.1031 M25.7173,36.2081 C24.9513,36.2081 24.3273,36.7711 24.3273,37.4661 C24.3273,38.1601 24.9513,38.7241 25.7173,38.7241 C26.4853,38.7241 27.1093,38.1601 27.1093,37.4661 C27.1093,36.7711 26.4853,36.2081 25.7173,36.2081" id="Fill-358" sketch:type="MSShapeGroup"></path>
                <path d="M33.0039,62.6123 L18.4309,62.6123 L1.0529,37.4663 L18.9039,11.6343 L25.4089,11.6343 L25.4089,27.7743 C24.4649,27.8043 23.5529,27.9653 22.6949,28.2473 L21.1889,24.1043 C21.1299,23.9433 20.9529,23.8613 20.7909,23.9183 C20.6299,23.9773 20.5479,24.1553 20.6049,24.3163 L22.1129,28.4613 C21.2519,28.8083 20.4509,29.2763 19.7299,29.8443 L16.8939,26.4603 C16.7849,26.3283 16.5889,26.3123 16.4589,26.4223 C16.3259,26.5323 16.3089,26.7283 16.4199,26.8593 L19.2579,30.2453 C18.5729,30.8603 17.9769,31.5683 17.4889,32.3523 L13.6659,30.1443 C13.5169,30.0593 13.3269,30.1093 13.2429,30.2583 C13.1569,30.4063 13.2069,30.5953 13.3549,30.6813 L17.1709,32.8853 C16.7379,33.6893 16.4169,34.5583 16.2249,35.4763 L11.8899,34.7113 C11.7239,34.6793 11.5599,34.7933 11.5309,34.9623 C11.5009,35.1313 11.6149,35.2923 11.7819,35.3223 L16.1279,36.0893 C16.0629,36.5393 16.0189,36.9973 16.0189,37.4663 C16.0189,37.9353 16.0629,38.3923 16.1279,38.8433 L11.7819,39.6103 C11.6149,39.6393 11.5009,39.8013 11.5309,39.9693 C11.5569,40.1203 11.6879,40.2263 11.8369,40.2263 C11.8539,40.2263 11.8709,40.2243 11.8899,40.2203 L16.2249,39.4563 C16.4169,40.3733 16.7399,41.2433 17.1709,42.0463 L13.3549,44.2503 C13.2069,44.3363 13.1569,44.5253 13.2429,44.6743 C13.2989,44.7743 13.4029,44.8293 13.5109,44.8293 C13.5629,44.8293 13.6149,44.8163 13.6659,44.7883 L17.4889,42.5793 C17.9769,43.3643 18.5729,44.0733 19.2579,44.6873 L16.4199,48.0723 C16.3089,48.2043 16.3259,48.4003 16.4589,48.5093 C16.5169,48.5583 16.5869,48.5823 16.6569,48.5823 C16.7459,48.5823 16.8339,48.5443 16.8939,48.4713 L19.7319,45.0883 C20.4509,45.6553 21.2519,46.1243 22.1129,46.4703 L20.6049,50.6153 C20.5479,50.7763 20.6299,50.9543 20.7909,51.0133 C20.8249,51.0263 20.8629,51.0313 20.8969,51.0313 C21.0239,51.0313 21.1419,50.9533 21.1889,50.8273 L22.6949,46.6843 C23.5529,46.9673 24.4649,47.1273 25.4089,47.1573 L25.4089,51.5733 C25.4089,51.7433 25.5459,51.8833 25.7169,51.8833 C25.8889,51.8833 26.0279,51.7433 26.0279,51.5733 L26.0279,47.1573 C26.9719,47.1273 27.8839,46.9673 28.7399,46.6843 L30.2479,50.8273 C30.2929,50.9533 30.4129,51.0313 30.5399,51.0313 C30.5739,51.0313 30.6099,51.0263 30.6459,51.0133 C30.8069,50.9543 30.8889,50.7763 30.8319,50.6153 L29.3219,46.4703 C30.1859,46.1243 30.9839,45.6553 31.7059,45.0883 L34.5409,48.4713 C34.6039,48.5443 34.6909,48.5823 34.7799,48.5823 C34.8479,48.5823 34.9199,48.5583 34.9779,48.5093 C35.1109,48.4003 35.1259,48.2043 35.0169,48.0723 L32.1779,44.6873 C32.8629,44.0733 33.4599,43.3643 33.9479,42.5793 L37.7709,44.7883 C37.8199,44.8163 37.8729,44.8293 37.9259,44.8293 C38.0319,44.8293 38.1379,44.7743 38.1939,44.6743 C38.2799,44.5253 38.2289,44.3363 38.0819,44.2503 L34.2659,42.0463 C34.6969,41.2433 35.0199,40.3733 35.2109,39.4563 L39.5459,40.2203 C39.5649,40.2243 39.5829,40.2263 39.5999,40.2263 C39.7489,40.2263 39.8799,40.1203 39.9059,39.9693 C39.9359,39.8013 39.8219,39.6393 39.6549,39.6103 L35.3089,38.8433 C35.3729,38.3923 35.4179,37.9353 35.4179,37.4663 C35.4179,36.9973 35.3729,36.5393 35.3089,36.0893 L39.6549,35.3223 C39.8219,35.2923 39.9359,35.1313 39.9059,34.9623 C39.8749,34.7933 39.7109,34.6793 39.5459,34.7113 L35.2109,35.4763 C35.0199,34.5583 34.6969,33.6893 34.2659,32.8853 L38.0819,30.6813 C38.2289,30.5953 38.2799,30.4063 38.1939,30.2583 C38.1099,30.1093 37.9199,30.0593 37.7709,30.1443 L33.9479,32.3523 C33.4599,31.5683 32.8629,30.8603 32.1779,30.2453 L35.0169,26.8593 C35.1259,26.7283 35.1109,26.5323 34.9779,26.4223 C34.8469,26.3123 34.6519,26.3283 34.5409,26.4603 L31.7059,29.8443 C30.9859,29.2763 30.1859,28.8083 29.3219,28.4613 L30.8319,24.3163 C30.8889,24.1553 30.8069,23.9773 30.6459,23.9183 C30.4849,23.8613 30.3069,23.9433 30.2479,24.1043 L28.7399,28.2473 C27.8839,27.9653 26.9719,27.8043 26.0279,27.7743 L26.0279,11.6343 L32.5319,11.6343 L50.3839,37.4663 L33.0039,62.6123 Z M34.7979,37.4663 C34.7979,42.4753 30.7249,46.5523 25.7169,46.5523 C20.7119,46.5523 16.6379,42.4753 16.6379,37.4663 C16.6379,32.4553 20.7119,28.3793 25.7169,28.3793 C30.7249,28.3793 34.7979,32.4553 34.7979,37.4663 L34.7979,37.4663 Z M25.4089,2.2243 L25.4089,11.0133 L19.3339,11.0133 L25.4089,2.2243 Z M26.0279,2.2243 L32.1019,11.0133 L26.0279,11.0133 L26.0279,2.2243 Z M51.0159,37.2893 L33.0519,11.2983 C33.0429,11.1843 32.9759,11.0893 32.8779,11.0443 L25.9739,1.0543 C25.8569,0.8863 25.5789,0.8863 25.4639,1.0543 L0.4199,37.2893 C0.3479,37.3953 0.3479,37.5363 0.4199,37.6423 L25.4639,73.8773 C25.5209,73.9613 25.6159,74.0113 25.7169,74.0113 C25.8189,74.0113 25.9159,73.9613 25.9739,73.8773 L51.0159,37.6423 C51.0889,37.5363 51.0889,37.3953 51.0159,37.2893 L51.0159,37.2893 Z" id="Fill-359" sketch:type="MSShapeGroup"></path>
                <path d="M33.5127,37.2442 C33.5107,37.2432 33.5097,37.2402 33.5077,37.2392 C33.3657,37.1062 29.9757,33.9982 25.7177,33.9982 C21.4587,33.9982 18.0707,37.1062 17.9287,37.2392 C17.9257,37.2402 17.9257,37.2432 17.9247,37.2442 C18.0427,33.0402 21.4887,29.6552 25.7177,29.6552 C29.9467,29.6552 33.3917,33.0402 33.5127,37.2442 M22.2247,37.4662 C22.2247,38.5872 22.9007,39.5692 23.9077,40.1132 C21.3587,39.5672 19.3207,38.0452 18.6157,37.4662 C19.3197,36.8862 21.3577,35.3632 23.9077,34.8182 C22.9007,35.3632 22.2247,36.3442 22.2247,37.4662 M29.2117,37.4662 C29.2117,36.3442 28.5357,35.3642 27.5297,34.8192 C30.0757,35.3642 32.1157,36.8872 32.8217,37.4672 C32.1157,38.0462 30.0777,39.5692 27.5277,40.1142 C28.5357,39.5692 29.2117,38.5872 29.2117,37.4662 M22.8447,37.4662 C22.8447,36.0972 24.1337,34.9842 25.7177,34.9842 C27.3017,34.9842 28.5907,36.0972 28.5907,37.4662 C28.5907,38.8342 27.3017,39.9472 25.7177,39.9472 C24.1337,39.9472 22.8447,38.8342 22.8447,37.4662 M25.7177,45.2772 C21.4887,45.2772 18.0427,41.8912 17.9247,37.6872 C17.9257,37.6892 17.9257,37.6912 17.9287,37.6932 C18.0707,37.8252 21.4587,40.9322 25.7177,40.9322 C29.9757,40.9322 33.3657,37.8252 33.5077,37.6932 C33.5097,37.6912 33.5107,37.6892 33.5127,37.6872 C33.3917,41.8912 29.9467,45.2772 25.7177,45.2772 M17.2917,37.4662 C17.2917,42.1152 21.0717,45.8972 25.7177,45.8972 C30.3637,45.8972 34.1427,42.1152 34.1427,37.4662 C34.1427,32.8162 30.3637,29.0342 25.7177,29.0342 C21.0717,29.0342 17.2917,32.8162 17.2917,37.4662" id="Fill-360" sketch:type="MSShapeGroup"></path>
            </g>
        </g>
    </g>
</svg>