<?xml version="1.0" encoding="UTF-8" standalone="no"?>
<svg width="76px" height="51px" viewBox="0 0 76 51" version="1.1" xmlns="http://www.w3.org/2000/svg" xmlns:xlink="http://www.w3.org/1999/xlink" xmlns:sketch="http://www.bohemiancoding.com/sketch/ns">
    <!-- Generator: Sketch 3.5.2 (25235) - http://www.bohemiancoding.com/sketch -->
    <title>Fill 34</title>
    <desc>Created with Sketch.</desc>
    <defs></defs>
    <g id="Page-1" stroke="none" stroke-width="1" fill="none" fill-rule="evenodd" sketch:type="MSPage">
        <g id="Artboard-2" sketch:type="MSArtboardGroup" transform="translate(-561.000000, -706.000000)" fill="#333333">
            <path d="M609.3379,743.3018 L599.4619,731.6228 L609.3549,719.9628 L619.0939,731.5508 L609.3379,743.3018 Z M599.0479,755.4738 L589.1699,743.7918 L599.0479,732.1138 L608.9259,743.7918 L599.0479,755.4738 Z M588.7559,719.9418 L598.6319,731.6228 L588.7569,743.3018 L578.9989,731.5508 L588.7559,719.9418 Z M598.5589,707.5978 L588.7669,718.9568 L579.1729,707.5978 L598.5589,707.5978 Z M609.3579,718.9798 L609.3409,718.9598 L609.3369,718.9668 L599.5359,707.5978 L619.0159,707.5978 L609.3579,718.9798 Z M599.0479,731.1328 L589.1799,719.4468 L599.0479,707.9998 L608.9229,719.4538 L599.0479,731.1328 Z M619.9199,731.5478 L636.2159,711.9268 L635.7279,711.5238 L619.5069,731.0578 L609.7719,719.4728 L620.3849,706.9628 L577.8099,706.9628 L588.3479,719.4448 L578.5889,731.0578 L562.3669,711.5238 L561.8799,711.9268 L578.1749,731.5478 L561.1529,751.8038 L561.6359,752.2128 L578.5859,732.0448 L588.7529,744.2848 L588.7559,744.2818 L599.0479,756.4538 L609.3389,744.2818 L609.3419,744.2848 L619.5089,732.0448 L636.4589,752.2128 L636.9439,751.8038 L619.9199,731.5478 Z" id="Fill-34" sketch:type="MSShapeGroup"></path>
        </g>
    </g>
</svg>