<?xml version="1.0" encoding="UTF-8" standalone="no"?>
<svg width="55px" height="62px" viewBox="0 0 55 62" version="1.1" xmlns="http://www.w3.org/2000/svg" xmlns:xlink="http://www.w3.org/1999/xlink" xmlns:sketch="http://www.bohemiancoding.com/sketch/ns">
    <!-- Generator: Sketch 3.5.2 (25235) - http://www.bohemiancoding.com/sketch -->
    <title>Fill 41</title>
    <desc>Created with Sketch.</desc>
    <defs></defs>
    <g id="Page-1" stroke="none" stroke-width="1" fill="none" fill-rule="evenodd" sketch:type="MSPage">
        <g id="Artboard-2" sketch:type="MSArtboardGroup" transform="translate(-1021.000000, -784.000000)" fill="#333333">
            <path d="M1074.7017,806.0078 L1063.7967,814.6038 L1048.5437,802.5808 L1048.5437,785.3928 L1074.7017,806.0078 Z M1064.2707,814.9748 L1074.8797,806.6108 L1074.8797,823.3398 L1064.2707,814.9748 Z M1048.5437,827.3678 L1063.7967,815.3468 L1074.7017,823.9428 L1048.5437,844.5568 L1048.5437,827.3678 Z M1021.8027,823.9428 L1032.7077,815.3468 L1047.9597,827.3678 L1047.9597,844.5568 L1021.8027,823.9428 Z M1032.2327,814.9748 L1021.6237,823.3398 L1021.6237,806.6108 L1032.2327,814.9748 Z M1047.9597,802.5808 L1032.7077,814.6038 L1021.8027,806.0078 L1047.9597,785.3928 L1047.9597,802.5808 Z M1047.9597,826.6248 L1033.1787,814.9748 L1047.9597,803.3238 L1047.9597,826.6248 Z M1048.5437,803.3238 L1063.3217,814.9748 L1048.5437,826.6248 L1048.5437,803.3238 Z M1048.2507,784.4878 C1048.1597,784.4878 1048.0787,784.5308 1048.0257,784.5998 L1021.1497,805.7788 C1021.1467,805.7828 1021.1437,805.7858 1021.1407,805.7918 C1021.0777,805.8448 1021.0407,805.9198 1021.0407,806.0078 L1021.0407,823.9428 C1021.0407,824.0288 1021.0777,824.1048 1021.1407,824.1578 C1021.1437,824.1608 1021.1467,824.1668 1021.1497,824.1698 L1048.0727,845.3878 C1048.0787,845.3938 1048.0917,845.3938 1048.0997,845.4008 C1048.1097,845.4058 1048.1127,845.4188 1048.1227,845.4218 C1048.1387,845.4288 1048.1567,845.4248 1048.1727,845.4318 C1048.2007,845.4378 1048.2247,845.4448 1048.2507,845.4448 C1048.2777,845.4448 1048.3037,845.4378 1048.3287,845.4318 C1048.3477,845.4248 1048.3627,845.4288 1048.3787,845.4218 C1048.3907,845.4188 1048.3937,845.4058 1048.4027,845.4008 C1048.4127,845.3938 1048.4257,845.3938 1048.4317,845.3878 L1075.3537,824.1698 C1075.3567,824.1668 1075.3597,824.1608 1075.3627,824.1578 C1075.3857,824.1388 1075.4007,824.1168 1075.4167,824.0918 C1075.4227,824.0828 1075.4327,824.0738 1075.4377,824.0608 C1075.4537,824.0238 1075.4637,823.9828 1075.4637,823.9428 L1075.4637,806.0078 C1075.4637,805.9668 1075.4537,805.9268 1075.4377,805.8888 C1075.4327,805.8758 1075.4227,805.8668 1075.4167,805.8578 C1075.4007,805.8328 1075.3857,805.8108 1075.3627,805.7918 C1075.3597,805.7858 1075.3567,805.7828 1075.3537,805.7788 L1048.4687,784.5898 C1048.4157,784.5278 1048.3407,784.4878 1048.2507,784.4878 L1048.2507,784.4878 Z" id="Fill-41" sketch:type="MSShapeGroup"></path>
        </g>
    </g>
</svg>