<?xml version="1.0" encoding="UTF-8" standalone="no"?>
<svg width="79px" height="75px" viewBox="0 0 79 75" version="1.1" xmlns="http://www.w3.org/2000/svg" xmlns:xlink="http://www.w3.org/1999/xlink" xmlns:sketch="http://www.bohemiancoding.com/sketch/ns">
    <!-- Generator: Sketch 3.5.2 (25235) - http://www.bohemiancoding.com/sketch -->
    <title>Fill 51</title>
    <desc>Created with Sketch.</desc>
    <defs></defs>
    <g id="Page-1" stroke="none" stroke-width="1" fill="none" fill-rule="evenodd" sketch:type="MSPage">
        <g id="Artboard-2" sketch:type="MSArtboardGroup" transform="translate(-560.000000, -325.000000)" fill="#333333">
            <path d="M606.9986,399.0786 C606.9296,399.0786 606.8596,399.0516 606.8066,398.9966 L560.0776,351.6306 C559.9726,351.5236 559.9746,351.3526 560.0806,351.2486 C560.1866,351.1436 560.3566,351.1446 560.4616,351.2506 L607.1906,398.6186 C607.2946,398.7246 607.2946,398.8946 607.1886,399.0006 C607.1356,399.0526 607.0676,399.0786 606.9986,399.0786 M560.2695,373.774 C560.2005,373.774 560.1315,373.748 560.0805,373.696 C559.9745,373.591 559.9725,373.421 560.0775,373.315 L606.8065,325.947 C606.9125,325.84 607.0825,325.839 607.1885,325.944 C607.2945,326.049 607.2945,326.22 607.1905,326.326 L560.4615,373.693 C560.4085,373.748 560.3395,373.774 560.2695,373.774 M578.7183,383.4497 C578.6493,383.4497 578.5813,383.4237 578.5283,383.3717 C578.4223,383.2667 578.4203,383.0957 578.5253,382.9897 L621.9653,338.9557 C622.0723,338.8487 622.2413,338.8487 622.3483,338.9527 C622.4543,339.0577 622.4543,339.2287 622.3493,339.3347 L578.9103,383.3687 C578.8573,383.4227 578.7863,383.4497 578.7183,383.4497 M617.7959,339.7002 C617.7339,339.7632 617.7019,339.8572 617.7239,339.9512 C617.7569,340.0962 617.9019,340.1872 618.0479,340.1532 L622.0719,339.2322 L621.2029,343.2722 C621.1719,343.4172 621.2649,343.5612 621.4099,343.5922 C621.5549,343.6232 621.6989,343.5302 621.7319,343.3852 L622.6889,338.9322 C622.7069,338.8422 622.6789,338.7482 622.6129,338.6832 C622.5479,338.6182 622.4539,338.5922 622.3639,338.6122 L617.9269,339.6272 C617.8759,339.6402 617.8299,339.6652 617.7959,339.7002 C617.7339,339.7632 617.8299,339.6652 617.7959,339.7002 M573.9805,384.1695 L579.0695,382.8445 L577.8105,387.9525 L573.9805,384.1695 Z M637.8257,373.774 C637.7557,373.774 637.6867,373.748 637.6337,373.693 L590.9047,326.326 C590.7997,326.22 590.8017,326.049 590.9077,325.944 C591.0117,325.839 591.1837,325.84 591.2887,325.947 L638.0177,373.315 C638.1217,373.421 638.1217,373.591 638.0147,373.696 C637.9627,373.748 637.8937,373.774 637.8257,373.774 M619.3784,383.4497 C619.3094,383.4497 619.2394,383.4227 619.1864,383.3687 L575.7454,339.3337 C575.6404,339.2287 575.6424,339.0577 575.7484,338.9527 C575.8544,338.8477 576.0244,338.8487 576.1294,338.9557 L619.5704,382.9897 C619.6744,383.0957 619.6744,383.2667 619.5694,383.3717 C619.5154,383.4227 619.4464,383.4497 619.3784,383.4497 M576.4365,343.5171 C576.4985,343.5811 576.5925,343.6121 576.6865,343.5921 C576.8315,343.5611 576.9235,343.4161 576.8925,343.2711 L576.0245,339.2321 L580.0495,340.1531 C580.1945,340.1861 580.3395,340.0961 580.3725,339.9501 C580.4055,339.8051 580.3125,339.6601 580.1695,339.6271 L575.7315,338.6121 C575.6425,338.5911 575.5475,338.6181 575.4835,338.6831 C575.4155,338.7481 575.3885,338.8411 575.4085,338.9321 L576.3645,343.3851 C576.3755,343.4371 576.4025,343.4821 576.4365,343.5171 C576.4985,343.5811 576.4025,343.4821 576.4365,343.5171 M620.3067,387.9317 L619.0487,382.8237 L624.1367,384.1487 L620.3067,387.9317 Z M591.0967,399.0786 C591.0277,399.0786 590.9587,399.0526 590.9077,399.0006 C590.8017,398.8946 590.7997,398.7246 590.9047,398.6186 L637.6337,351.2506 C637.7387,351.1446 637.9097,351.1436 638.0147,351.2486 C638.1217,351.3526 638.1217,351.5236 638.0177,351.6306 L591.2887,398.9966 C591.2357,399.0516 591.1667,399.0786 591.0967,399.0786 M587.4322,362.5288 L599.0472,373.5928 L610.6622,362.5288 L599.0472,351.4648 L587.4322,362.5288 Z M599.0472,374.2358 C598.9802,374.2358 598.9132,374.2108 598.8622,374.1608 L586.8552,362.7248 C586.8022,362.6738 586.7722,362.6028 586.7722,362.5288 C586.7722,362.4558 586.8022,362.3838 586.8552,362.3328 L598.8622,350.8968 C598.9662,350.7978 599.1302,350.7978 599.2332,350.8968 L611.2402,362.3328 C611.2952,362.3838 611.3242,362.4558 611.3242,362.5288 C611.3242,362.6028 611.2952,362.6738 611.2402,362.7248 L599.2332,374.1608 C599.1812,374.2108 599.1152,374.2358 599.0472,374.2358 L599.0472,374.2358 Z M572.9409,362.5288 C572.9409,363.2598 572.2029,363.8528 571.2929,363.8528 C570.3829,363.8528 569.6449,363.2598 569.6449,362.5288 C569.6449,361.7978 570.3829,361.2048 571.2929,361.2048 C572.2029,361.2048 572.9409,361.7978 572.9409,362.5288 M625.1553,362.5288 C625.1553,363.2598 625.8933,363.8528 626.8033,363.8528 C627.7133,363.8528 628.4513,363.2598 628.4513,362.5288 C628.4513,361.7978 627.7133,361.2048 626.8033,361.2048 C625.8933,361.2048 625.1553,361.7978 625.1553,362.5288" id="Fill-51" sketch:type="MSShapeGroup"></path>
        </g>
    </g>
</svg>