<?xml version="1.0" encoding="UTF-8" standalone="no"?>
<svg width="143px" height="18px" viewBox="0 0 143 18" version="1.1" xmlns="http://www.w3.org/2000/svg" xmlns:xlink="http://www.w3.org/1999/xlink" xmlns:sketch="http://www.bohemiancoding.com/sketch/ns">
    <!-- Generator: Sketch 3.5.2 (25235) - http://www.bohemiancoding.com/sketch -->
    <title>Group 20</title>
    <desc>Created with Sketch.</desc>
    <defs></defs>
    <g id="Page-1" stroke="none" stroke-width="1" fill="none" fill-rule="evenodd" sketch:type="MSPage">
        <g id="Artboard-2" sketch:type="MSArtboardGroup" transform="translate(-1052.000000, -968.000000)" fill="#333333">
            <g id="Group-20" sketch:type="MSLayerGroup" transform="translate(1052.000000, 968.000000)">
                <path d="M55.5445,7.5381 C54.6355,7.5381 53.8985,8.2751 53.8985,9.1871 C53.8985,10.0971 54.6355,10.8371 55.5445,10.8371 C56.4565,10.8371 57.1925,10.0971 57.1925,9.1871 C57.1925,8.2751 56.4565,7.5381 55.5445,7.5381" id="Fill-107" sketch:type="MSShapeGroup"></path>
                <path d="M134.2486,2.9688 L134.2486,15.4088 L141.8486,15.4088 L139.0516,12.6198 C138.9486,12.5168 138.9486,12.3258 139.0516,12.2238 L142.1016,9.1808 L139.0516,6.1358 C138.9486,6.0358 138.9486,5.8418 139.0516,5.7418 L141.8326,2.9688 L134.2486,2.9688 Z M133.7086,15.6778 L133.7086,2.6978 C133.7086,2.5468 133.8286,2.4288 133.9776,2.4288 L142.4846,2.4288 C142.5946,2.4288 142.6916,2.4938 142.7346,2.5938 C142.7766,2.6938 142.7536,2.8128 142.6756,2.8878 L139.6176,5.9398 L142.6756,8.9898 C142.7766,9.0908 142.7766,9.2688 142.6756,9.3718 L139.6166,12.4198 L142.6756,15.4718 C142.7796,15.5748 142.7806,15.7468 142.6766,15.8528 C142.6266,15.9028 142.5406,15.9488 142.4696,15.9488 L133.9776,15.9488 C133.8286,15.9488 133.7086,15.8278 133.7086,15.6778 L133.7086,15.6778 Z" id="Fill-108" sketch:type="MSShapeGroup"></path>
                <path d="M0.7652,9.1875 C0.7652,9.0375 0.8852,8.9165 1.0352,8.9165 L133.4822,8.9195 C133.6302,8.9195 133.7512,9.0375 133.7512,9.1875 C133.7512,9.3365 133.6302,9.4585 133.4822,9.4585 L1.0352,9.4565 C0.8852,9.4565 0.7652,9.3335 0.7652,9.1875" id="Fill-109" sketch:type="MSShapeGroup"></path>
                <path d="M133.8052,3.2998 L127.2892,9.1878 L133.8052,15.0778 L133.8052,3.2998 Z M126.6192,9.1878 C126.6192,9.1118 126.6502,9.0368 126.7072,8.9868 L133.8942,2.4908 C133.9732,2.4188 134.0872,2.4008 134.1842,2.4448 C134.2832,2.4878 134.3452,2.5838 134.3452,2.6908 L134.3452,15.6848 C134.3452,15.7938 134.2832,15.8868 134.1842,15.9338 C134.0872,15.9748 133.9732,15.9558 133.8942,15.8868 L126.7072,9.3878 C126.6502,9.3368 126.6192,9.2658 126.6192,9.1878 L126.6192,9.1878 Z" id="Fill-110" sketch:type="MSShapeGroup"></path>
                <path d="M120.9839,6.9287 L117.0759,9.1877 L120.9839,11.4457 L120.9839,6.9287 Z M116.2669,9.1877 C116.2669,9.0907 116.3189,9.0027 116.4019,8.9537 L121.1199,6.2297 C121.2019,6.1797 121.3049,6.1797 121.3869,6.2297 C121.4719,6.2767 121.5229,6.3677 121.5229,6.4637 L121.5229,11.9137 C121.5229,12.0077 121.4719,12.0987 121.3869,12.1487 C121.3049,12.1957 121.2019,12.1957 121.1199,12.1487 L116.4019,9.4217 C116.3189,9.3747 116.2669,9.2837 116.2669,9.1877 L116.2669,9.1877 Z" id="Fill-111" sketch:type="MSShapeGroup"></path>
                <path d="M32.1363,9.1875 C32.1363,9.1125 32.1673,9.0415 32.2213,8.9905 L36.4963,4.9705 C36.6063,4.8715 36.7763,4.8745 36.8773,4.9835 C36.9813,5.0925 36.9743,5.2645 36.8663,5.3645 L32.8003,9.1875 L36.8663,13.0065 C36.9743,13.1075 36.9813,13.2795 36.8793,13.3885 C36.7763,13.4985 36.6063,13.5015 36.4963,13.4015 L32.2213,9.3835 C32.1673,9.3315 32.1363,9.2625 32.1363,9.1875" id="Fill-112" sketch:type="MSShapeGroup"></path>
                <path d="M35.4361,9.1875 C35.4361,9.1125 35.4671,9.0415 35.5221,8.9905 L39.7971,4.9705 C39.9051,4.8715 40.0771,4.8745 40.1781,4.9835 C40.2801,5.0925 40.2751,5.2645 40.1651,5.3645 L36.1001,9.1875 L40.1651,13.0065 C40.2751,13.1075 40.2801,13.2795 40.1781,13.3885 C40.0771,13.4985 39.9051,13.5015 39.7971,13.4015 L35.5221,9.3835 C35.4671,9.3315 35.4361,9.2625 35.4361,9.1875" id="Fill-113" sketch:type="MSShapeGroup"></path>
                <path d="M38.7359,9.1875 C38.7359,9.1125 38.7659,9.0415 38.8209,8.9905 L43.0959,4.9705 C43.2059,4.8715 43.3759,4.8745 43.4769,4.9835 C43.5809,5.0925 43.5739,5.2645 43.4659,5.3645 L39.3999,9.1875 L43.4659,13.0065 C43.5739,13.1075 43.5809,13.2795 43.4789,13.3885 C43.3759,13.4985 43.2059,13.5015 43.0959,13.4015 L38.8209,9.3835 C38.7659,9.3315 38.7359,9.2625 38.7359,9.1875" id="Fill-114" sketch:type="MSShapeGroup"></path>
                <path d="M18.8657,14.1035 L18.8657,4.2675 C18.8657,4.1185 18.9857,3.9995 19.1357,3.9995 C19.2857,3.9995 19.4057,4.1185 19.4057,4.2675 L19.4057,14.1035 C19.4057,14.2535 19.2857,14.3745 19.1357,14.3745 C18.9857,14.3745 18.8657,14.2535 18.8657,14.1035" id="Fill-115" sketch:type="MSShapeGroup"></path>
                <path d="M10.354,9.1875 L10.354,9.1875 C10.354,9.0905 10.406,9.0005 10.489,8.9535 L21.702,2.4565 C21.831,2.3815 21.997,2.4245 22.07,2.5565 C22.146,2.6845 22.101,2.8495 21.973,2.9245 L11.162,9.1875 L21.973,15.4845 C22.102,15.5595 22.144,15.7245 22.07,15.8525 C21.995,15.9845 21.831,16.0245 21.702,15.9535 L10.489,9.4195 C10.406,9.3725 10.354,9.2815 10.354,9.1875" id="Fill-116" sketch:type="MSShapeGroup"></path>
                <path d="M15.1988,1.3135 L1.5738,9.1875 L15.1988,17.0585 L15.1988,1.3135 Z M0.7648,9.1875 C0.7648,9.0905 0.8168,9.0005 0.8988,8.9535 L15.3328,0.6105 C15.4168,0.5635 15.5198,0.5635 15.6028,0.6105 C15.6868,0.6605 15.7388,0.7485 15.7388,0.8445 L15.7388,17.5275 C15.7388,17.6245 15.6868,17.7115 15.6028,17.7605 C15.5198,17.8075 15.4168,17.8075 15.3328,17.7605 L0.8988,9.4215 C0.8168,9.3725 0.7648,9.2845 0.7648,9.1875 L0.7648,9.1875 Z" id="Fill-117" sketch:type="MSShapeGroup"></path>
                <path d="M99.8306,13.7285 L91.9716,9.1875 L99.8306,4.6455 L99.8306,13.7285 Z" id="Fill-118" sketch:type="MSShapeGroup"></path>
                <path d="M67.7222,4.8213 C65.4372,4.9583 63.6202,6.8633 63.6202,9.1873 C63.6202,11.5073 65.4372,13.4103 67.7222,13.5503 L67.7222,4.8213 Z M63.0822,9.1873 C63.0822,6.4763 65.2842,4.2713 67.9922,4.2713 C68.1422,4.2713 68.2622,4.3923 68.2622,4.5403 L68.2622,13.8293 C68.2622,13.9783 68.1422,14.1003 67.9922,14.1003 C65.2842,14.1003 63.0822,11.8953 63.0822,9.1873 L63.0822,9.1873 Z" id="Fill-119" sketch:type="MSShapeGroup"></path>
                <path d="M80.2046,1.3252 C75.9946,1.4662 72.6126,4.9392 72.6126,9.1872 C72.6126,13.4322 75.9946,16.9052 80.2046,17.0492 L80.2046,1.3252 Z M72.0746,9.1872 C72.0746,4.5492 75.8436,0.7792 80.4756,0.7792 C80.6246,0.7792 80.7446,0.9012 80.7446,1.0512 L80.7446,17.3242 C80.7446,17.4732 80.6246,17.5962 80.4756,17.5962 C75.8436,17.5932 72.0746,13.8222 72.0746,9.1872 L72.0746,9.1872 Z" id="Fill-120" sketch:type="MSShapeGroup"></path>
                <path d="M5.0689,6.6983 C5.0689,6.6673 5.0749,6.6323 5.0869,6.5973 C5.1439,6.4613 5.2999,6.3913 5.4389,6.4483 L11.0909,8.7253 C11.2299,8.7813 11.2969,8.9373 11.2409,9.0753 C11.1859,9.2123 11.0289,9.2813 10.8899,9.2243 L5.2379,6.9483 C5.1329,6.9073 5.0689,6.8033 5.0689,6.6983" id="Fill-121" sketch:type="MSShapeGroup"></path>
                <path d="M5.0689,11.6739 C5.0689,11.5669 5.1329,11.4639 5.2379,11.4239 L10.8899,9.1469 C11.0289,9.0939 11.1859,9.1589 11.2409,9.2969 C11.2969,9.4349 11.2299,9.5939 11.0909,9.6489 L5.4389,11.9239 C5.2999,11.9799 5.1439,11.9139 5.0869,11.7739 C5.0749,11.7419 5.0689,11.7079 5.0689,11.6739" id="Fill-122" sketch:type="MSShapeGroup"></path>
            </g>
        </g>
    </g>
</svg>