<?xml version="1.0" encoding="UTF-8" standalone="no"?>
<svg width="62px" height="65px" viewBox="0 0 62 65" version="1.1" xmlns="http://www.w3.org/2000/svg" xmlns:xlink="http://www.w3.org/1999/xlink" xmlns:sketch="http://www.bohemiancoding.com/sketch/ns">
    <!-- Generator: Sketch 3.5.2 (25235) - http://www.bohemiancoding.com/sketch -->
    <title>Fill 240</title>
    <desc>Created with Sketch.</desc>
    <defs></defs>
    <g id="Page-1" stroke="none" stroke-width="1" fill="none" fill-rule="evenodd" sketch:type="MSPage">
        <g id="Artboard-2" sketch:type="MSArtboardGroup" transform="translate(-1122.000000, -330.000000)" fill="#333333">
            <path d="M1152.8179,338.6875 C1137.7259,338.6875 1125.4479,350.9745 1125.4479,366.0775 C1125.4479,381.1795 1137.7259,393.4675 1152.8179,393.4675 C1167.9089,393.4675 1180.1869,381.1795 1180.1869,366.0775 C1180.1869,350.9745 1167.9089,338.6875 1152.8179,338.6875 M1152.8179,394.0065 C1137.4289,394.0065 1124.9089,381.4785 1124.9089,366.0775 C1124.9089,350.6765 1137.4289,338.1485 1152.8179,338.1485 C1168.2069,338.1485 1180.7269,350.6765 1180.7269,366.0775 C1180.7269,381.4785 1168.2069,394.0065 1152.8179,394.0065 M1183.0132,380.1778 L1122.6212,380.1778 C1122.4732,380.1778 1122.3532,380.0568 1122.3532,379.9078 C1122.3532,379.7588 1122.4732,379.6368 1122.6212,379.6368 L1183.0132,379.6368 C1183.1622,379.6368 1183.2832,379.7588 1183.2832,379.9078 C1183.2832,380.0568 1183.1622,380.1778 1183.0132,380.1778 M1176.7534,380.1778 C1176.6594,380.1778 1176.5694,380.1298 1176.5204,380.0428 L1152.8184,338.9568 L1129.1144,380.0428 C1129.0394,380.1718 1128.8744,380.2158 1128.7464,380.1418 C1128.6164,380.0668 1128.5734,379.9028 1128.6474,379.7728 L1152.5834,338.2818 C1152.6804,338.1148 1152.9554,338.1148 1153.0504,338.2818 L1176.9874,379.7728 C1177.0634,379.9028 1177.0174,380.0668 1176.8894,380.1418 C1176.8464,380.1658 1176.8004,380.1778 1176.7534,380.1778 M1129.3491,352.9375 L1152.8181,393.6185 L1176.2881,352.9375 L1129.3491,352.9375 Z M1152.8181,394.4275 C1152.7211,394.4275 1152.6321,394.3755 1152.5831,394.2925 L1128.6471,352.8025 C1128.6001,352.7185 1128.6001,352.6155 1128.6471,352.5325 C1128.6951,352.4485 1128.7841,352.3965 1128.8801,352.3965 L1176.7531,352.3965 C1176.8501,352.3965 1176.9391,352.4485 1176.9881,352.5325 C1177.0371,352.6155 1177.0371,352.7185 1176.9881,352.8025 L1153.0501,394.2925 C1153.0031,394.3755 1152.9141,394.4275 1152.8181,394.4275 L1152.8181,394.4275 Z M1152.8179,360.6846 C1149.8469,360.6846 1147.4279,363.1036 1147.4279,366.0776 C1147.4279,369.0516 1149.8469,371.4706 1152.8179,371.4706 C1155.7899,371.4706 1158.2069,369.0516 1158.2069,366.0776 C1158.2069,363.1036 1155.7899,360.6846 1152.8179,360.6846 M1152.8179,372.0106 C1149.5489,372.0106 1146.8889,369.3486 1146.8889,366.0776 C1146.8889,362.8066 1149.5489,360.1446 1152.8179,360.1446 C1156.0879,360.1446 1158.7469,362.8066 1158.7469,366.0776 C1158.7469,369.3486 1156.0879,372.0106 1152.8179,372.0106 M1152.8179,394.1499 C1152.6689,394.1499 1152.5489,394.0289 1152.5489,393.8789 L1152.5489,333.7599 C1152.5489,333.6109 1152.6689,333.4889 1152.8179,333.4889 C1152.9659,333.4889 1153.0889,333.6109 1153.0889,333.7599 L1153.0889,393.8789 C1153.0889,394.0289 1152.9659,394.1499 1152.8179,394.1499 M1152.8169,367.1758 C1152.7699,367.1758 1152.7229,367.1638 1152.6789,367.1378 L1128.7439,352.8998 C1128.6159,352.8228 1128.5739,352.6578 1128.6499,352.5298 C1128.7249,352.4008 1128.8899,352.3588 1129.0179,352.4358 L1152.9559,366.6738 C1153.0839,366.7498 1153.1259,366.9158 1153.0489,367.0438 C1152.9989,367.1288 1152.9099,367.1758 1152.8169,367.1758 M1152.8179,367.1758 C1152.7259,367.1758 1152.6349,367.1288 1152.5859,367.0438 C1152.5089,366.9158 1152.5509,366.7498 1152.6789,366.6738 L1176.6169,352.4358 C1176.7449,352.3588 1176.9099,352.4008 1176.9859,352.5298 C1177.0609,352.6578 1177.0189,352.8228 1176.8909,352.8998 L1152.9559,367.1378 C1152.9119,367.1638 1152.8649,367.1758 1152.8179,367.1758 M1152.8179,334.0298 C1152.7339,334.0298 1152.6529,333.9918 1152.5989,333.9188 L1150.4269,330.9468 C1150.3409,330.8258 1150.3669,330.6578 1150.4869,330.5688 C1150.6069,330.4808 1150.7749,330.5068 1150.8639,330.6278 L1153.0349,333.5998 C1153.1239,333.7208 1153.0969,333.8888 1152.9769,333.9778 C1152.9289,334.0128 1152.8729,334.0298 1152.8179,334.0298 M1152.8169,334.0298 C1152.7619,334.0298 1152.7059,334.0128 1152.6589,333.9778 C1152.5379,333.8888 1152.5119,333.7208 1152.5989,333.5998 L1154.7699,330.6278 C1154.8589,330.5068 1155.0279,330.4808 1155.1479,330.5688 C1155.2679,330.6578 1155.2949,330.8258 1155.2079,330.9468 L1153.0349,333.9188 C1152.9819,333.9918 1152.9009,334.0298 1152.8169,334.0298" id="Fill-240" sketch:type="MSShapeGroup"></path>
        </g>
    </g>
</svg>