<?xml version="1.0" encoding="UTF-8" standalone="no"?>
<svg width="58px" height="67px" viewBox="0 0 58 67" version="1.1" xmlns="http://www.w3.org/2000/svg" xmlns:xlink="http://www.w3.org/1999/xlink" xmlns:sketch="http://www.bohemiancoding.com/sketch/ns">
    <!-- Generator: Sketch 3.5.2 (25235) - http://www.bohemiancoding.com/sketch -->
    <title>Group 33</title>
    <desc>Created with Sketch.</desc>
    <defs></defs>
    <g id="Page-1" stroke="none" stroke-width="1" fill="none" fill-rule="evenodd" sketch:type="MSPage">
        <g id="Artboard-2" sketch:type="MSArtboardGroup" transform="translate(-686.000000, -522.000000)" fill="#333333">
            <g id="Group-33" sketch:type="MSLayerGroup" transform="translate(686.000000, 522.000000)">
                <g id="Group-32" sketch:type="MSShapeGroup">
                    <path d="M56.7119,49.5288 L28.9139,65.6008 L22.3089,61.7868 L56.7129,41.9278 L56.7119,49.5288 Z M1.1029,42.0998 L28.0939,57.5608 L21.5419,61.3428 L1.1039,49.5388 L1.1029,42.0998 Z M1.0989,17.4068 L28.8999,1.3408 L35.4689,5.1318 L14.0669,17.4868 C14.0429,17.4938 14.0219,17.5098 13.9999,17.5248 L1.1009,24.9718 L1.0989,17.4068 Z M56.7099,24.8888 L29.6419,9.3808 L36.2349,5.5748 L56.7089,17.3998 L56.7099,24.8888 Z M44.0499,34.1138 L56.3979,41.2218 L44.0699,48.3398 L44.0499,34.1138 Z M44.0489,32.7858 L44.0279,18.5058 L56.4259,25.6068 L44.0489,32.7858 Z M56.7129,40.5198 L44.4309,33.4488 L56.7099,26.3318 L56.7129,40.5198 Z M29.3359,38.2008 C29.5669,38.1928 29.7989,38.1878 30.0249,38.1648 L30.0289,41.6838 C30.0289,41.8958 30.2029,42.0698 30.4119,42.0688 C30.6249,42.0688 30.7949,41.8948 30.7949,41.6828 L30.7899,38.0678 C31.1109,38.0168 31.4239,37.9578 31.7349,37.8888 L31.7379,40.8288 C31.7389,41.0408 31.9099,41.2148 32.1229,41.2148 C32.3349,41.2148 32.5039,41.0398 32.5039,40.8288 L32.4999,37.6948 C32.8259,37.6008 33.1419,37.5048 33.4489,37.3958 L33.4529,40.0128 C33.4529,40.2238 33.6289,40.3948 33.8379,40.3938 C34.0499,40.3938 34.2199,40.2228 34.2199,40.0108 L34.2159,37.1058 C34.5839,36.9588 34.9329,36.7998 35.2729,36.6368 L35.2759,38.8248 C35.2759,39.0368 35.4479,39.2108 35.6599,39.2108 C35.8719,39.2098 36.0419,39.0358 36.0419,38.8238 L36.0379,36.2428 C36.3349,36.0838 36.6139,35.9208 36.8789,35.7628 L36.8809,37.5728 C36.8819,37.7818 37.0559,37.9538 37.2649,37.9538 C37.4779,37.9528 37.6489,37.7798 37.6479,37.5708 L37.6449,35.2748 C38.8449,34.4748 39.5749,33.8038 39.6509,33.7368 C39.7279,33.6628 39.7729,33.5588 39.7729,33.4548 C39.7729,33.3468 39.7279,33.2468 39.6499,33.1738 C39.5729,33.1048 38.8419,32.4338 37.6399,31.6358 L37.6369,29.3438 C37.6359,29.1328 37.4649,28.9598 37.2529,28.9608 C37.0439,28.9608 36.8689,29.1338 36.8689,29.3458 L36.8729,31.1558 C36.6069,30.9938 36.3269,30.8328 36.0299,30.6748 L36.0259,28.0928 C36.0259,27.8808 35.8569,27.7068 35.6449,27.7078 C35.4319,27.7078 35.2599,27.8828 35.2599,28.0938 L35.2639,30.2848 C34.9239,30.1208 34.5749,29.9668 34.2059,29.8158 L34.2019,26.9148 C34.2019,26.7028 34.0299,26.5298 33.8179,26.5298 C33.6079,26.5308 33.4349,26.7038 33.4349,26.9168 L33.4389,29.5328 C33.1309,29.4238 32.8149,29.3248 32.4869,29.2328 L32.4829,26.0998 C32.4829,25.8918 32.3139,25.7178 32.1009,25.7178 C31.8879,25.7188 31.7169,25.8918 31.7179,26.1008 L31.7219,29.0418 C31.4109,28.9748 31.0989,28.9138 30.7769,28.8688 L30.7719,25.2488 C30.7719,25.0368 30.5999,24.8678 30.3869,24.8678 C30.1779,24.8688 30.0059,25.0378 30.0059,25.2498 L30.0109,28.7698 C29.7849,28.7498 29.5529,28.7468 29.3219,28.7388 L29.2959,10.0678 L43.3049,18.0888 C43.2789,18.1438 43.2599,18.1978 43.2599,18.2588 L43.3029,48.5448 C43.3039,48.6178 43.3319,48.6878 43.3689,48.7458 L29.3619,56.8298 L29.3359,38.2008 Z M33.5959,34.3168 C33.6589,34.0418 33.6939,33.7568 33.6929,33.4638 C33.6919,33.1708 33.6579,32.8838 33.5929,32.6078 C33.2989,31.3418 32.3649,30.2828 31.1079,29.7008 C34.8369,30.4028 37.8379,32.6588 38.8039,33.4568 C37.8399,34.2528 34.8439,36.5178 31.1169,37.2308 C32.3739,36.6458 33.3049,35.5828 33.5959,34.3168 L33.5959,34.3168 Z M24.2139,32.6208 C24.1529,32.8978 24.1179,33.1848 24.1189,33.4778 C24.1199,33.7708 24.1549,34.0558 24.2169,34.3298 C24.5149,35.5948 25.4489,36.6548 26.7059,37.2368 C22.9769,36.5348 19.9749,34.2778 19.0099,33.4848 C19.9729,32.6838 22.9669,30.4228 26.6929,29.7078 C25.4389,30.2928 24.5079,31.3548 24.2139,32.6208 L24.2139,32.6208 Z M28.9029,29.9898 C30.8419,29.9878 32.4659,31.1818 32.8439,32.7628 C32.8959,32.9898 32.9259,33.2248 32.9259,33.4648 C32.9259,33.7048 32.8969,33.9398 32.8449,34.1638 C32.4729,35.7468 30.8519,36.9448 28.9129,36.9468 C26.9689,36.9498 25.3469,35.7568 24.9689,34.1748 C24.9149,33.9508 24.8859,33.7158 24.8859,33.4758 C24.8859,33.2368 24.9129,33.0008 24.9669,32.7738 C25.3409,31.1918 26.9599,29.9928 28.9029,29.9898 L28.9029,29.9898 Z M14.6299,48.9398 L14.5869,18.0718 L28.5279,10.0228 L28.5539,28.7368 C28.2999,28.7448 28.0429,28.7498 27.7919,28.7728 L27.7869,28.7728 L27.7819,25.2528 C27.7819,25.0408 27.6099,24.8718 27.3989,24.8728 C27.1869,24.8728 27.0169,25.0428 27.0169,25.2538 L27.0229,28.8738 L27.0149,28.8738 C26.7059,28.9208 26.4009,28.9788 26.0999,29.0448 C26.0929,29.0488 26.0829,29.0488 26.0759,29.0488 L26.0719,26.1088 C26.0709,25.8998 25.9019,25.7268 25.6889,25.7278 C25.4769,25.7278 25.3059,25.9018 25.3069,26.1098 L25.3109,29.2428 C25.3069,29.2468 25.2999,29.2468 25.2929,29.2508 C24.9809,29.3388 24.6739,29.4338 24.3749,29.5408 C24.3689,29.5408 24.3659,29.5408 24.3609,29.5448 L24.3569,26.9288 C24.3569,26.7168 24.1869,26.5448 23.9749,26.5448 C23.7619,26.5448 23.5909,26.7178 23.5909,26.9308 L23.5949,29.8318 C23.5879,29.8368 23.5809,29.8398 23.5739,29.8398 C23.2189,29.9868 22.8809,30.1378 22.5529,30.2968 C22.5489,30.2968 22.5459,30.2998 22.5369,30.3038 L22.5339,28.1128 C22.5339,27.9008 22.3649,27.7268 22.1519,27.7268 C21.9409,27.7268 21.7689,27.9018 21.7689,28.1138 L21.7729,30.6958 C21.7639,30.6978 21.7559,30.7058 21.7469,30.7098 C21.4669,30.8608 21.2009,31.0158 20.9489,31.1658 C20.9439,31.1708 20.9369,31.1748 20.9319,31.1788 L20.9289,29.3688 C20.9279,29.1568 20.7589,28.9838 20.5449,28.9838 C20.3349,28.9848 20.1609,29.1578 20.1619,29.3688 L20.1649,31.6608 C20.1609,31.6658 20.1529,31.6688 20.1479,31.6738 C20.0669,31.7268 19.9979,31.7778 19.9199,31.8278 C19.8319,31.8908 19.7459,31.9518 19.6589,32.0128 C19.5819,32.0678 19.5079,32.1208 19.4359,32.1758 C19.3649,32.2258 19.2989,32.2768 19.2329,32.3268 C19.1659,32.3778 19.0999,32.4268 19.0379,32.4738 C18.9579,32.5348 18.8899,32.5898 18.8199,32.6438 C18.7449,32.7048 18.6759,32.7598 18.6129,32.8138 C18.5669,32.8528 18.5189,32.8908 18.4779,32.9258 C18.4409,32.9578 18.4139,32.9798 18.3839,33.0078 C18.3419,33.0418 18.3099,33.0698 18.2819,33.0958 C18.2609,33.1118 18.2459,33.1268 18.2329,33.1378 C18.1989,33.1698 18.1719,33.1938 18.1599,33.2038 C18.0839,33.2778 18.0409,33.3788 18.0409,33.4868 C18.0409,33.5898 18.0839,33.6948 18.1599,33.7678 C18.1719,33.7758 18.2009,33.7978 18.2349,33.8328 C18.2469,33.8448 18.2629,33.8558 18.2779,33.8668 C18.3099,33.8948 18.3419,33.9258 18.3849,33.9638 C18.4149,33.9868 18.4419,34.0108 18.4789,34.0418 C18.5219,34.0758 18.5699,34.1188 18.6189,34.1568 C18.6739,34.2028 18.7299,34.2498 18.7939,34.2988 C18.8719,34.3608 18.9539,34.4258 19.0469,34.4948 C19.1029,34.5418 19.1639,34.5878 19.2259,34.6348 C19.2949,34.6848 19.3679,34.7368 19.4439,34.7958 C19.5149,34.8458 19.5849,34.8958 19.6589,34.9498 C19.7499,35.0118 19.8449,35.0818 19.9439,35.1458 C20.0119,35.1928 20.0749,35.2388 20.1439,35.2838 C20.1539,35.2918 20.1609,35.2968 20.1699,35.2998 L20.1729,37.5968 C20.1739,37.8048 20.3469,37.9788 20.5579,37.9778 C20.7719,37.9778 20.9409,37.8038 20.9399,37.5958 L20.9379,35.7858 C20.9459,35.7888 20.9569,35.7968 20.9689,35.7998 C21.2199,35.9548 21.4869,36.1048 21.7659,36.2548 C21.7719,36.2578 21.7759,36.2578 21.7799,36.2628 L21.7839,38.8438 C21.7839,39.0558 21.9569,39.2298 22.1679,39.2298 C22.3809,39.2298 22.5499,39.0548 22.5499,38.8438 L22.5469,36.6558 C22.5549,36.6558 22.5579,36.6598 22.5639,36.6598 C22.8899,36.8178 23.2289,36.9658 23.5809,37.1138 C23.5909,37.1138 23.5989,37.1168 23.6069,37.1208 L23.6099,40.0268 C23.6099,40.2388 23.7819,40.4078 23.9949,40.4078 C24.2069,40.4078 24.3759,40.2368 24.3759,40.0248 L24.3719,37.4078 C24.3789,37.4118 24.3869,37.4118 24.3939,37.4158 C24.6949,37.5198 25.0029,37.6118 25.3169,37.7008 C25.3189,37.7008 25.3209,37.7048 25.3229,37.7048 L25.3269,40.8388 C25.3279,41.0498 25.4989,41.2238 25.7109,41.2238 C25.9239,41.2238 26.0929,41.0488 26.0919,40.8368 L26.0879,37.8968 L26.1019,37.8968 C26.4039,37.9658 26.7129,38.0228 27.0259,38.0688 C27.0279,38.0688 27.0329,38.0718 27.0349,38.0718 L27.0399,41.6878 C27.0399,41.8998 27.2119,42.0728 27.4239,42.0728 C27.6359,42.0718 27.8059,41.8988 27.8059,41.6868 L27.8009,38.1678 C28.0199,38.1878 28.2429,38.1898 28.4699,38.1978 C28.5029,38.2028 28.5349,38.2028 28.5679,38.2058 L28.5949,56.9658 L14.6259,48.9638 C14.6259,48.9558 14.6299,48.9478 14.6299,48.9398 L14.6299,48.9398 Z M13.8409,34.1548 L13.8619,48.5238 L1.3819,41.3768 L13.8409,34.1548 Z M13.4569,33.4918 L1.1199,40.6438 L1.0999,26.3768 L13.4569,33.4918 Z M1.4149,25.6728 L13.8189,18.5118 L13.8399,32.8278 L1.4149,25.6728 Z M57.4739,25.4318 L57.4749,17.1738 C57.4749,17.0378 57.3999,16.9118 57.2829,16.8428 L29.0899,0.5648 C28.9709,0.4958 28.8269,0.4958 28.7059,0.5648 L0.5239,16.8578 C0.4049,16.9238 0.3319,17.0508 0.3319,17.1898 L0.3319,25.7138 L0.3319,25.7948 L0.3369,49.7588 C0.3369,49.8978 0.4119,50.0258 0.5289,50.0958 L21.1919,62.0268 C21.2589,62.1228 21.3589,62.1768 21.4669,62.1888 L28.7219,66.3768 C28.7809,66.4108 28.8469,66.4268 28.9119,66.4268 C28.9789,66.4268 29.0449,66.4108 29.1059,66.3768 L57.2899,50.0798 C57.4079,50.0098 57.4809,49.8858 57.4809,49.7478 L57.4779,41.4438 C57.5249,41.3828 57.5559,41.3098 57.5559,41.2288 L57.5339,25.6328 C57.5339,25.5578 57.5129,25.4918 57.4739,25.4318 L57.4739,25.4318 Z" id="Fill-391"></path>
                </g>
                <path d="M28.9068,32.5406 C29.5168,32.5396 30.0168,32.9556 30.0178,33.4686 C30.0188,33.9776 29.5198,34.3956 28.9098,34.3966 C28.2948,34.3976 27.7948,33.9806 27.7938,33.4726 C27.7928,32.9586 28.2918,32.5406 28.9068,32.5406 M30.6388,34.1276 C30.7328,33.9246 30.7828,33.7006 30.7828,33.4686 C30.7828,33.2326 30.7308,33.0126 30.6368,32.8086 C30.3478,32.1996 29.6798,31.7756 28.9058,31.7766 C28.1268,31.7786 27.4608,32.2046 27.1748,32.8126 C27.0798,33.0176 27.0288,33.2386 27.0288,33.4726 C27.0288,33.7056 27.0818,33.9286 27.1758,34.1326 C27.4638,34.7386 28.1318,35.1656 28.9108,35.1646 C29.6848,35.1636 30.3508,34.7336 30.6388,34.1276 Z" id="Fill-392" sketch:type="MSShapeGroup"></path>
            </g>
        </g>
    </g>
</svg>