<?xml version="1.0" encoding="UTF-8" standalone="no"?>
<svg width="64px" height="55px" viewBox="0 0 64 55" version="1.1" xmlns="http://www.w3.org/2000/svg" xmlns:xlink="http://www.w3.org/1999/xlink" xmlns:sketch="http://www.bohemiancoding.com/sketch/ns">
    <!-- Generator: Sketch 3.5.2 (25235) - http://www.bohemiancoding.com/sketch -->
    <title>Fill 393</title>
    <desc>Created with Sketch.</desc>
    <defs></defs>
    <g id="Page-1" stroke="none" stroke-width="1" fill="none" fill-rule="evenodd" sketch:type="MSPage">
        <g id="Artboard-2" sketch:type="MSArtboardGroup" transform="translate(-1016.000000, -335.000000)" fill="#333333">
            <path d="M1072.6646,378.3765 L1061.5466,367.6705 L1072.6646,367.6705 L1072.6646,378.3765 Z M1061.1166,383.4405 L1061.1166,368.2705 L1072.3636,379.0985 L1061.1166,383.4405 Z M1048.6166,388.2665 L1048.6166,380.2995 C1051.4966,380.1105 1053.7826,377.7125 1053.7826,374.7835 C1053.7826,371.8535 1051.4966,369.4565 1048.6166,369.2665 L1048.6166,367.6705 L1060.3886,367.6705 L1060.3886,383.6955 C1060.3886,383.7035 1060.3936,383.7105 1060.3936,383.7205 L1048.6166,388.2665 Z M1036.1156,383.6955 L1036.1156,367.6705 L1047.8886,367.6705 L1047.8886,369.2665 C1045.0096,369.4565 1042.7216,371.8535 1042.7216,374.7835 C1042.7216,377.7125 1045.0096,380.1105 1047.8886,380.2995 L1047.8886,388.2665 L1036.1106,383.7205 C1036.1106,383.7105 1036.1156,383.7035 1036.1156,383.6955 L1036.1156,383.6955 Z M1035.3866,368.2715 L1035.3866,383.4405 L1024.1396,379.0985 L1035.3866,368.2715 Z M1034.9596,367.6705 L1023.8386,378.3765 L1023.8386,367.6705 L1034.9596,367.6705 Z M1023.8386,346.3475 L1035.3866,350.8055 L1035.3866,366.9405 L1023.8386,366.9405 L1023.8386,346.3475 Z M1047.8806,336.6995 L1047.8806,343.0875 L1043.9886,349.6265 L1052.5386,349.6265 L1048.6076,343.0195 L1048.6076,336.6935 L1072.1296,345.7725 L1060.6116,350.2175 L1060.6096,350.2175 L1048.2516,354.9885 L1035.8946,350.2175 L1035.8926,350.2175 L1024.3736,345.7725 L1047.8806,336.6995 Z M1051.2596,348.8965 L1045.2696,348.8965 L1048.2636,343.8685 L1051.2596,348.8965 Z M1061.1166,350.8055 L1072.6646,346.3475 L1072.6646,366.9405 L1061.1166,366.9405 L1061.1166,350.8055 Z M1058.0926,365.3595 L1059.7356,366.9405 L1058.0926,366.9405 L1058.0926,365.3595 Z M1048.9166,355.5135 L1057.3656,352.2535 L1057.3656,363.6455 L1048.9166,355.5135 Z M1048.6166,356.2365 L1057.3656,364.6585 L1057.3656,366.9405 L1048.6166,366.9405 L1048.6166,356.2365 Z M1039.1386,364.6585 L1047.8886,356.2365 L1047.8886,366.9405 L1039.1386,366.9405 L1039.1386,364.6585 Z M1038.4106,365.3605 L1038.4106,366.9405 L1036.7696,366.9405 L1038.4106,365.3605 Z M1038.4106,351.9725 L1038.4106,364.3485 L1036.1156,366.5575 L1036.1156,351.0855 L1038.4106,351.9725 Z M1047.5876,355.5135 L1039.1386,363.6455 L1039.1386,352.2535 L1047.5876,355.5135 Z M1060.3886,366.5575 L1058.0926,364.3475 L1058.0926,351.9725 L1060.3886,351.0855 L1060.3886,366.5575 Z M1048.6166,369.9975 C1051.0926,370.1855 1053.0536,372.2575 1053.0536,374.7835 C1053.0536,377.3095 1051.0926,379.3815 1048.6166,379.5695 L1048.6166,369.9975 Z M1047.8886,379.5695 C1045.4116,379.3825 1043.4496,377.3095 1043.4496,374.7835 C1043.4496,372.2575 1045.4116,370.1845 1047.8886,369.9975 L1047.8886,379.5695 Z M1079.5346,366.9405 L1073.3946,366.9405 L1073.3946,345.8165 C1073.3946,345.8025 1073.3866,345.7895 1073.3846,345.7765 C1073.4066,345.6125 1073.3206,345.4495 1073.1596,345.3895 L1048.4376,335.8465 C1048.3836,335.8085 1048.3166,335.7825 1048.2426,335.7825 C1048.1616,335.7825 1048.0886,335.8135 1048.0236,335.8615 L1023.3436,345.3895 C1023.1836,345.4495 1023.0976,345.6125 1023.1196,345.7765 C1023.1176,345.7895 1023.1096,345.8025 1023.1096,345.8165 L1023.1096,366.9405 L1016.9706,366.9405 C1016.7676,366.9405 1016.6056,367.1035 1016.6056,367.3065 C1016.6056,367.5085 1016.7676,367.6705 1016.9706,367.6705 L1023.1096,367.6705 L1023.1096,379.2265 L1023.1096,379.2335 C1023.1096,379.2365 1023.1126,379.2395 1023.1126,379.2435 C1023.1126,379.3025 1023.1336,379.3605 1023.1656,379.4145 C1023.1736,379.4265 1023.1816,379.4395 1023.1896,379.4525 C1023.1986,379.4635 1023.2036,379.4755 1023.2126,379.4855 C1023.2486,379.5245 1023.2926,379.5535 1023.3396,379.5715 C1023.3406,379.5715 1023.3406,379.5735 1023.3436,379.5735 L1048.1206,389.1375 C1048.1626,389.1525 1048.2086,389.1625 1048.2516,389.1625 C1048.2956,389.1625 1048.3406,389.1525 1048.3846,389.1375 L1073.1596,379.5735 C1073.1626,379.5735 1073.1626,379.5715 1073.1646,379.5715 C1073.2096,379.5535 1073.2536,379.5245 1073.2906,379.4855 C1073.3036,379.4755 1073.3056,379.4635 1073.3136,379.4525 C1073.3216,379.4395 1073.3316,379.4265 1073.3376,379.4145 C1073.3686,379.3605 1073.3896,379.3025 1073.3916,379.2435 C1073.3916,379.2395 1073.3946,379.2365 1073.3946,379.2335 L1073.3946,379.2265 L1073.3946,367.6705 L1079.5346,367.6705 C1079.7356,367.6705 1079.8976,367.5085 1079.8976,367.3065 C1079.8976,367.1035 1079.7356,366.9405 1079.5346,366.9405 L1079.5346,366.9405 Z" id="Fill-393" sketch:type="MSShapeGroup"></path>
        </g>
    </g>
</svg>