<?xml version="1.0" encoding="UTF-8" standalone="no"?>
<svg width="169px" height="39px" viewBox="0 0 169 39" version="1.1" xmlns="http://www.w3.org/2000/svg" xmlns:xlink="http://www.w3.org/1999/xlink" xmlns:sketch="http://www.bohemiancoding.com/sketch/ns">
    <!-- Generator: Sketch 3.5.2 (25235) - http://www.bohemiancoding.com/sketch -->
    <title>Group 19</title>
    <desc>Created with Sketch.</desc>
    <defs></defs>
    <g id="Page-1" stroke="none" stroke-width="1" fill="none" fill-rule="evenodd" sketch:type="MSPage">
        <g id="Artboard-2" sketch:type="MSArtboardGroup" transform="translate(-857.000000, -957.000000)" fill="#333333">
            <g id="Group-19" sketch:type="MSLayerGroup" transform="translate(857.000000, 957.000000)">
                <path d="M150.1406,19.5537 L18.5876,19.5537 C18.4146,19.5537 18.2746,19.4127 18.2746,19.2417 C18.2746,19.0667 18.4146,18.9257 18.5876,18.9257 L150.1406,18.9257 C150.3136,18.9257 150.4546,19.0667 150.4546,19.2417 C150.4546,19.4127 150.3136,19.5537 150.1406,19.5537" id="Fill-195" sketch:type="MSShapeGroup"></path>
                <path d="M22.6016,22.3926 C22.7056,22.3926 22.8066,22.3396 22.8666,22.2496 C22.9606,22.1026 22.9146,21.9086 22.7696,21.8116 L18.7316,19.2416 L22.7696,16.6636 C22.9146,16.5736 22.9606,16.3766 22.8666,16.2336 C22.7746,16.0856 22.5786,16.0426 22.4326,16.1366 L17.9786,18.9756 C17.8906,19.0356 17.8356,19.1316 17.8356,19.2416 C17.8356,19.3466 17.8906,19.4476 17.9786,19.5026 L22.4326,22.3426 C22.4866,22.3746 22.5436,22.3926 22.6016,22.3926 C22.7056,22.3926 22.5436,22.3926 22.6016,22.3926" id="Fill-196" sketch:type="MSShapeGroup"></path>
                <path d="M146.127,22.3926 C146.024,22.3926 145.921,22.3396 145.862,22.2496 C145.768,22.1026 145.811,21.9086 145.958,21.8116 L149.999,19.2416 L145.958,16.6636 C145.811,16.5736 145.768,16.3766 145.862,16.2336 C145.955,16.0856 146.149,16.0426 146.295,16.1366 L150.749,18.9756 C150.838,19.0356 150.893,19.1316 150.893,19.2416 C150.893,19.3466 150.838,19.4476 150.749,19.5026 L146.295,22.3426 C146.241,22.3746 146.183,22.3926 146.127,22.3926 C146.024,22.3926 146.183,22.3926 146.127,22.3926" id="Fill-197" sketch:type="MSShapeGroup"></path>
                <path d="M6.2613,19.2412 L11.8493,22.6332 L17.4363,19.2412 L11.8493,15.8482 L6.2613,19.2412 Z M11.8493,23.0922 C11.7663,23.0922 11.6853,23.0702 11.6283,23.0332 L5.5973,19.3752 C5.4763,19.3002 5.4763,19.1792 5.5973,19.1062 L11.6283,15.4422 C11.7493,15.3712 11.9493,15.3712 12.0693,15.4422 L18.1013,19.1062 C18.2223,19.1792 18.2223,19.3002 18.1013,19.3752 L12.0693,23.0332 C12.0113,23.0702 11.9323,23.0922 11.8493,23.0922 L11.8493,23.0922 Z" id="Fill-198" sketch:type="MSShapeGroup"></path>
                <path d="M6.2613,19.5537 L4.7753,19.5537 C4.6023,19.5537 4.4623,19.4127 4.4623,19.2417 C4.4623,19.0667 4.6023,18.9257 4.7753,18.9257 L6.2613,18.9257 C6.4363,18.9257 6.5743,19.0667 6.5743,19.2417 C6.5743,19.4127 6.4363,19.5537 6.2613,19.5537" id="Fill-199" sketch:type="MSShapeGroup"></path>
                <path d="M0.0967,16.1328 L5.3377,19.2568 L0.0967,22.3798 L0.0967,16.1328 Z" id="Fill-200" sketch:type="MSShapeGroup"></path>
                <path d="M156.3672,15.8487 L150.7802,19.2417 L156.3672,22.6327 L161.9552,19.2417 L156.3672,15.8487 Z M156.1472,23.0337 L150.1162,19.3747 C149.9942,19.2997 149.9942,19.1787 150.1162,19.1067 L156.1472,15.4427 C156.2672,15.3707 156.4672,15.3707 156.5892,15.4427 L162.6182,19.1067 C162.7412,19.1787 162.7412,19.2997 162.6182,19.3747 L156.5892,23.0337 C156.5312,23.0707 156.4522,23.0917 156.3672,23.0917 C156.2852,23.0917 156.2052,23.0707 156.1472,23.0337 L156.1472,23.0337 Z" id="Fill-201" sketch:type="MSShapeGroup"></path>
                <path d="M163.4414,19.5537 L161.9554,19.5537 C161.7804,19.5537 161.6424,19.4127 161.6424,19.2417 C161.6424,19.0667 161.7804,18.9257 161.9554,18.9257 L163.4414,18.9257 C163.6164,18.9257 163.7554,19.0667 163.7554,19.2417 C163.7554,19.4127 163.6164,19.5537 163.4414,19.5537" id="Fill-202" sketch:type="MSShapeGroup"></path>
                <path d="M168.1197,22.3457 L162.8807,19.2227 L168.1197,16.0987 L168.1197,22.3457 Z" id="Fill-203" sketch:type="MSShapeGroup"></path>
                <path d="M61.6309,12.9688 L61.6309,25.5098 C64.9459,25.3478 67.5909,22.5958 67.5909,19.2408 C67.5909,15.8838 64.9459,13.1318 61.6309,12.9688 M61.3169,26.1438 C61.1459,26.1438 61.0029,26.0028 61.0029,25.8308 L61.0029,12.6478 C61.0029,12.4758 61.1459,12.3348 61.3169,12.3348 C65.1219,12.3348 68.2179,15.4308 68.2179,19.2408 C68.2179,23.0488 65.1219,26.1438 61.3169,26.1438" id="Fill-204" sketch:type="MSShapeGroup"></path>
                <path d="M35.1953,19.5655 C35.1123,19.5655 35.0323,19.5345 34.9723,19.4755 C34.8503,19.3535 34.8503,19.1535 34.9723,19.0285 L39.5503,14.4495 C39.6723,14.3285 39.8703,14.3285 39.9923,14.4495 C40.1153,14.5715 40.1153,14.7715 39.9923,14.8935 L35.4153,19.4755 C35.3543,19.5345 35.2753,19.5655 35.1953,19.5655" id="Fill-205" sketch:type="MSShapeGroup"></path>
                <path d="M41.0381,19.5655 C40.9581,19.5655 40.8751,19.5345 40.8161,19.4755 C40.6931,19.3535 40.6931,19.1535 40.8161,19.0285 L45.3931,14.4495 C45.5161,14.3285 45.7131,14.3285 45.8351,14.4495 C45.9581,14.5715 45.9581,14.7715 45.8351,14.8935 L41.2581,19.4755 C41.1971,19.5345 41.1181,19.5655 41.0381,19.5655" id="Fill-206" sketch:type="MSShapeGroup"></path>
                <path d="M46.8789,19.5655 C46.7989,19.5655 46.7179,19.5345 46.6579,19.4755 C46.5359,19.3535 46.5359,19.1535 46.6579,19.0285 L51.2369,14.4495 C51.3579,14.3285 51.5559,14.3285 51.6789,14.4495 C51.8009,14.5715 51.8009,14.7715 51.6789,14.8935 L47.1009,19.4755 C47.0419,19.5345 46.9609,19.5655 46.8789,19.5655" id="Fill-207" sketch:type="MSShapeGroup"></path>
                <path d="M39.7725,24.1475 C39.6915,24.1475 39.6115,24.1165 39.5505,24.0575 L34.9725,19.4755 C34.8505,19.3535 34.8505,19.1535 34.9725,19.0285 C35.0955,18.9105 35.2925,18.9105 35.4155,19.0285 L39.9925,23.6145 C40.1155,23.7325 40.1155,23.9325 39.9925,24.0575 C39.9335,24.1165 39.8535,24.1475 39.7725,24.1475" id="Fill-208" sketch:type="MSShapeGroup"></path>
                <path d="M45.6153,24.1475 C45.5333,24.1475 45.4543,24.1165 45.3933,24.0575 L40.8163,19.4755 C40.6933,19.3535 40.6933,19.1535 40.8163,19.0285 C40.9383,18.9105 41.1353,18.9105 41.2583,19.0285 L45.8353,23.6145 C45.9583,23.7325 45.9583,23.9325 45.8353,24.0575 C45.7763,24.1165 45.6953,24.1475 45.6153,24.1475" id="Fill-209" sketch:type="MSShapeGroup"></path>
                <path d="M51.4575,24.1475 C51.3765,24.1475 51.2965,24.1165 51.2365,24.0575 L46.6575,19.4755 C46.5355,19.3535 46.5355,19.1535 46.6575,19.0285 C46.7805,18.9105 46.9785,18.9105 47.1005,19.0285 L51.6795,23.6145 C51.8015,23.7325 51.8015,23.9325 51.6795,24.0575 C51.6185,24.1165 51.5395,24.1475 51.4575,24.1475" id="Fill-210" sketch:type="MSShapeGroup"></path>
                <path d="M107.0977,12.9688 C103.7827,13.1318 101.1367,15.8838 101.1367,19.2408 C101.1367,22.5958 103.7827,25.3478 107.0977,25.5098 L107.0977,12.9688 Z M107.4097,26.1438 C103.6067,26.1438 100.5107,23.0488 100.5107,19.2408 C100.5107,15.4308 103.6067,12.3348 107.4097,12.3348 C107.5847,12.3348 107.7227,12.4758 107.7227,12.6478 L107.7227,25.8308 C107.7227,26.0028 107.5847,26.1438 107.4097,26.1438 L107.4097,26.1438 Z" id="Fill-211" sketch:type="MSShapeGroup"></path>
                <path d="M133.5347,19.5655 C133.4537,19.5655 133.3737,19.5345 133.3117,19.4755 L128.7347,14.8935 C128.6117,14.7715 128.6117,14.5715 128.7347,14.4495 C128.8567,14.3285 129.0557,14.3285 129.1767,14.4495 L133.7547,19.0285 C133.8767,19.1535 133.8767,19.3535 133.7547,19.4755 C133.6937,19.5345 133.6147,19.5655 133.5347,19.5655" id="Fill-212" sketch:type="MSShapeGroup"></path>
                <path d="M127.6905,19.5655 C127.6105,19.5655 127.5315,19.5345 127.4725,19.4755 L122.8925,14.8935 C122.7715,14.7715 122.7715,14.5715 122.8925,14.4495 C123.0155,14.3285 123.2135,14.3285 123.3335,14.4495 L127.9125,19.0285 C128.0335,19.1535 128.0335,19.3535 127.9125,19.4755 C127.8515,19.5345 127.7715,19.5655 127.6905,19.5655" id="Fill-213" sketch:type="MSShapeGroup"></path>
                <path d="M121.8482,19.5655 C121.7682,19.5655 121.6892,19.5345 121.6262,19.4755 L117.0492,14.8935 C116.9292,14.7715 116.9292,14.5715 117.0492,14.4495 C117.1712,14.3285 117.3702,14.3285 117.4912,14.4495 L122.0692,19.0285 C122.1912,19.1535 122.1912,19.3535 122.0692,19.4755 C122.0092,19.5345 121.9292,19.5655 121.8482,19.5655" id="Fill-214" sketch:type="MSShapeGroup"></path>
                <path d="M128.9561,24.1475 C128.8761,24.1475 128.7971,24.1165 128.7341,24.0575 C128.6111,23.9325 128.6111,23.7325 128.7341,23.6145 L133.3111,19.0285 C133.4351,18.9105 133.6331,18.9105 133.7551,19.0285 C133.8761,19.1535 133.8761,19.3535 133.7551,19.4755 L129.1761,24.0575 C129.1171,24.1165 129.0371,24.1475 128.9561,24.1475" id="Fill-215" sketch:type="MSShapeGroup"></path>
                <path d="M123.1133,24.1475 C123.0333,24.1475 122.9543,24.1165 122.8923,24.0575 C122.7723,23.9325 122.7723,23.7325 122.8923,23.6145 L127.4723,19.0285 C127.5923,18.9105 127.7903,18.9105 127.9123,19.0285 C128.0333,19.1535 128.0333,19.3535 127.9123,19.4755 L123.3333,24.0575 C123.2743,24.1165 123.1943,24.1475 123.1133,24.1475" id="Fill-216" sketch:type="MSShapeGroup"></path>
                <path d="M117.271,24.1475 C117.191,24.1475 117.112,24.1165 117.049,24.0575 C116.929,23.9325 116.929,23.7325 117.049,23.6145 L121.626,19.0285 C121.75,18.9105 121.948,18.9105 122.069,19.0285 C122.191,19.1535 122.191,19.3535 122.069,19.4755 L117.491,24.0575 C117.432,24.1165 117.352,24.1475 117.271,24.1475" id="Fill-217" sketch:type="MSShapeGroup"></path>
                <path d="M75.5996,18.9258 L93.1306,18.9258 L84.3636,12.7288 L75.5996,18.9258 Z M94.1276,19.5538 L94.1156,19.5538 L74.6116,19.5538 C74.4756,19.5538 74.3576,19.4658 74.3146,19.3348 C74.2726,19.2028 74.3216,19.0628 74.4326,18.9818 L84.1826,12.0918 C84.2916,12.0138 84.4366,12.0138 84.5446,12.0918 L94.2496,18.9498 C94.3616,18.9968 94.4416,19.1098 94.4416,19.2408 C94.4416,19.4128 94.2996,19.5538 94.1276,19.5538 L94.1276,19.5538 Z" id="Fill-218" sketch:type="MSShapeGroup"></path>
                <path d="M75.5996,19.5537 L84.3636,25.7497 L93.1306,19.5537 L75.5996,19.5537 Z M84.3636,26.4467 C84.3016,26.4467 84.2376,26.4277 84.1826,26.3907 L74.4326,19.4967 C74.3216,19.4187 74.2726,19.2757 74.3146,19.1477 C74.3576,19.0167 74.4756,18.9257 74.6116,18.9257 L94.1156,18.9257 C94.2526,18.9257 94.3726,19.0167 94.4136,19.1477 C94.4556,19.2757 94.4076,19.4187 94.2966,19.4967 L84.5446,26.3907 C84.4896,26.4277 84.4276,26.4467 84.3636,26.4467 L84.3636,26.4467 Z" id="Fill-219" sketch:type="MSShapeGroup"></path>
                <path d="M84.3633,35.9112 C84.1903,35.9112 84.0523,35.7662 84.0523,35.5962 L84.0523,2.2372 C84.0523,2.0652 84.1903,1.9252 84.3633,1.9252 C84.5383,1.9252 84.6773,2.0652 84.6773,2.2372 L84.6773,35.5962 C84.6773,35.7662 84.5383,35.9112 84.3633,35.9112" id="Fill-220" sketch:type="MSShapeGroup"></path>
                <path d="M86.7168,2.3555 C86.7168,1.0565 85.6638,0.0005 84.3638,0.0005 C83.0638,0.0005 82.0108,1.0565 82.0108,2.3555 C82.0108,3.6585 83.0638,4.7105 84.3638,4.7105 C85.6638,4.7105 86.7168,3.6585 86.7168,2.3555" id="Fill-221" sketch:type="MSShapeGroup"></path>
                <path d="M84.3633,12.6602 C84.2813,12.6602 84.1943,12.6222 84.1343,12.5562 L78.4603,6.3852 C78.3423,6.2572 78.3503,6.0592 78.4803,5.9412 C78.6063,5.8262 78.8033,5.8322 78.9223,5.9602 L84.5963,12.1352 C84.7113,12.2602 84.7033,12.4602 84.5753,12.5752 C84.5163,12.6322 84.4403,12.6602 84.3633,12.6602" id="Fill-222" sketch:type="MSShapeGroup"></path>
                <path d="M84.3633,12.6602 C84.2873,12.6602 84.2123,12.6322 84.1513,12.5752 C84.0253,12.4602 84.0153,12.2602 84.1343,12.1352 L89.8063,5.9602 C89.9243,5.8322 90.1223,5.8262 90.2503,5.9412 C90.3763,6.0592 90.3843,6.2572 90.2683,6.3852 L84.5963,12.5562 C84.5333,12.6222 84.4493,12.6602 84.3633,12.6602" id="Fill-223" sketch:type="MSShapeGroup"></path>
                <path d="M81.9307,39 C81.8637,39 81.7947,38.978 81.7387,38.931 C81.6027,38.828 81.5797,38.628 81.6857,38.494 L84.1167,35.401 C84.2257,35.268 84.4217,35.242 84.5567,35.352 C84.6927,35.458 84.7167,35.654 84.6097,35.789 L82.1777,38.881 C82.1147,38.959 82.0247,39 81.9307,39" id="Fill-224" sketch:type="MSShapeGroup"></path>
                <path d="M86.7979,39 C86.7039,39 86.6119,38.959 86.5509,38.881 L84.1169,35.789 C84.0109,35.654 84.0339,35.458 84.1699,35.352 C84.3059,35.242 84.5009,35.268 84.6099,35.401 L87.0429,38.494 C87.1509,38.628 87.1279,38.828 86.9919,38.931 C86.9319,38.978 86.8629,39 86.7979,39" id="Fill-225" sketch:type="MSShapeGroup"></path>
            </g>
        </g>
    </g>
</svg>