<?xml version="1.0" encoding="UTF-8" standalone="no"?>
<svg width="67px" height="67px" viewBox="0 0 67 67" version="1.1" xmlns="http://www.w3.org/2000/svg" xmlns:xlink="http://www.w3.org/1999/xlink" xmlns:sketch="http://www.bohemiancoding.com/sketch/ns">
    <!-- Generator: Sketch 3.5.2 (25235) - http://www.bohemiancoding.com/sketch -->
    <title>Fill 390</title>
    <desc>Created with Sketch.</desc>
    <defs></defs>
    <g id="Page-1" stroke="none" stroke-width="1" fill="none" fill-rule="evenodd" sketch:type="MSPage">
        <g id="Artboard-2" sketch:type="MSArtboardGroup" transform="translate(-901.000000, -329.000000)" fill="#333333">
            <path d="M961.9048,379.6328 C961.8818,379.6298 961.8618,379.6198 961.8398,379.6198 L958.4658,379.6198 C958.4558,379.5768 958.4418,379.5328 958.4158,379.4908 L950.4368,366.7218 L966.5228,366.7218 C965.9078,371.4108 964.2978,375.7888 961.9048,379.6328 L961.9048,379.6328 Z M934.2828,395.0218 C917.7898,395.0218 904.1348,382.6668 902.0438,366.7218 L919.2738,366.7218 L911.1028,379.7998 C911.0288,379.9158 911.0248,380.0638 911.0938,380.1858 C911.1588,380.3058 911.2888,380.3798 911.4258,380.3798 L945.5678,380.3798 L945.5828,380.3798 L961.4248,380.3798 C955.5988,389.1928 945.6098,395.0218 934.2828,395.0218 L934.2828,395.0218 Z M927.0558,330.7428 L940.5288,352.3028 L928.4968,352.3028 C928.3698,352.3028 928.2628,352.3688 928.1938,352.4628 C928.1878,352.4708 928.1798,352.4728 928.1738,352.4818 L919.7498,365.9618 L901.9488,365.9618 C901.8268,364.8138 901.7598,363.6498 901.7598,362.4718 C901.7598,347.0118 912.5898,334.0428 927.0558,330.7428 L927.0558,330.7428 Z M934.2828,329.9228 C948.6698,329.9228 960.8968,339.3218 965.1728,352.3028 L941.4258,352.3028 L927.8408,330.5668 C929.9258,330.1458 932.0798,329.9228 934.2828,329.9228 L934.2828,329.9228 Z M947.3508,366.7218 L949.5388,366.7218 L957.5998,379.6198 L955.4118,379.6198 L947.3508,366.7218 Z M944.1528,366.7218 L946.4538,366.7218 L954.5138,379.6198 L952.2108,379.6198 L944.1528,366.7218 Z M940.9498,366.7218 L943.2548,366.7218 L951.3138,379.6198 L949.0118,379.6198 L940.9498,366.7218 Z M935.4078,373.4248 C935.4078,370.1898 933.1738,367.4738 930.1698,366.7218 L936.8208,366.7218 L944.8808,379.6198 L931.5518,379.6198 C933.8328,378.4878 935.4078,376.1398 935.4078,373.4248 L935.4078,373.4248 Z M926.8208,366.7218 C923.8188,367.4738 921.5848,370.1898 921.5848,373.4248 C921.5848,376.1398 923.1608,378.4878 925.4428,379.6198 L912.1118,379.6198 L920.1718,366.7218 L926.8208,366.7218 Z M934.6488,373.4248 C934.6488,376.8198 931.8878,379.5808 928.4968,379.5808 C925.1038,379.5808 922.3448,376.8198 922.3448,373.4248 C922.3448,370.0308 925.1038,367.2698 928.4968,367.2698 C931.8878,367.2698 934.6488,370.0308 934.6488,373.4248 L934.6488,373.4248 Z M928.4968,353.3988 L936.3448,365.9618 L920.6468,365.9618 L928.4968,353.3988 Z M939.5778,365.9618 L937.2418,365.9618 L929.1818,353.0638 L931.5198,353.0638 L939.5778,365.9618 Z M942.7778,365.9618 L940.4758,365.9618 L932.4158,353.0638 L934.7188,353.0638 L942.7778,365.9618 Z M938.8188,353.0638 L941.0048,353.0638 L949.0648,365.9618 L946.8768,365.9618 L938.8188,353.0638 Z M945.9798,365.9618 L943.6758,365.9618 L935.6158,353.0638 L937.9178,353.0638 L945.9798,365.9618 Z M937.7188,366.7218 L940.0538,366.7218 L948.1148,379.6198 L945.7788,379.6198 L937.7188,366.7218 Z M966.6198,365.9618 L949.9618,365.9618 L941.9008,353.0638 L965.4198,353.0638 C966.3188,356.0438 966.8098,359.2008 966.8098,362.4718 C966.8098,363.6498 966.7408,364.8138 966.6198,365.9618 L966.6198,365.9618 Z M967.5688,362.4718 C967.5688,359.0258 967.0438,355.7008 966.0688,352.5728 C966.0638,352.5538 966.0578,352.5358 966.0498,352.5198 C961.8118,338.9988 949.1738,329.1618 934.2828,329.1618 C915.9298,329.1618 900.9988,344.1058 900.9988,362.4718 C900.9988,380.8408 915.9298,395.7818 934.2828,395.7818 C951.2828,395.7818 965.3388,382.9598 967.3198,366.4758 C967.3338,366.4328 967.3468,366.3888 967.3468,366.3418 C967.3468,366.3308 967.3418,366.3228 967.3418,366.3118 C967.4868,365.0498 967.5688,363.7708 967.5688,362.4718 L967.5688,362.4718 Z" id="Fill-390" sketch:type="MSShapeGroup"></path>
        </g>
    </g>
</svg>