<?xml version="1.0" encoding="UTF-8" standalone="no"?>
<svg width="59px" height="52px" viewBox="0 0 59 52" version="1.1" xmlns="http://www.w3.org/2000/svg" xmlns:xlink="http://www.w3.org/1999/xlink" xmlns:sketch="http://www.bohemiancoding.com/sketch/ns">
    <!-- Generator: Sketch 3.5.2 (25235) - http://www.bohemiancoding.com/sketch -->
    <title>Fill 32</title>
    <desc>Created with Sketch.</desc>
    <defs></defs>
    <g id="Page-1" stroke="none" stroke-width="1" fill="none" fill-rule="evenodd" sketch:type="MSPage">
        <g id="Artboard-2" sketch:type="MSArtboardGroup" transform="translate(-1019.000000, -706.000000)" fill="#333333">
            <path d="M1048.812,731.3858 L1062.71,707.2938 L1076.609,731.3858 L1048.812,731.3858 Z M1048.812,732.0318 L1076.609,732.0318 L1062.71,756.1228 L1048.812,732.0318 Z M1048.251,732.3538 L1062.15,756.4448 L1034.352,756.4448 L1048.251,732.3538 Z M1047.693,732.0318 L1033.794,756.1228 L1019.895,732.0318 L1047.693,732.0318 Z M1034.352,706.9698 L1062.15,706.9698 L1048.251,731.0608 L1034.352,706.9698 Z M1047.693,731.3858 L1019.895,731.3858 L1033.794,707.2938 L1047.693,731.3858 Z M1062.896,706.3238 L1033.606,706.3238 L1019.056,731.5448 L1018.963,731.7068 L1033.606,757.0918 L1062.896,757.0918 L1077.447,731.8688 L1077.541,731.7068 L1062.896,706.3238 Z" id="Fill-32" sketch:type="MSShapeGroup"></path>
        </g>
    </g>
</svg>