<?xml version="1.0" encoding="UTF-8" standalone="no"?>
<svg width="58px" height="58px" viewBox="0 0 58 58" version="1.1" xmlns="http://www.w3.org/2000/svg" xmlns:xlink="http://www.w3.org/1999/xlink" xmlns:sketch="http://www.bohemiancoding.com/sketch/ns">
    <!-- Generator: Sketch 3.5.2 (25235) - http://www.bohemiancoding.com/sketch -->
    <title>Fill 3</title>
    <desc>Created with Sketch.</desc>
    <defs></defs>
    <g id="Page-1" stroke="none" stroke-width="1" fill="none" fill-rule="evenodd" sketch:type="MSPage">
        <g id="Artboard-2" sketch:type="MSArtboardGroup" transform="translate(-570.000000, -786.000000)" fill="#333333">
            <path d="M599.0474,842.92 C588.9534,842.92 580.1014,837.507 575.2324,829.43 L599.0024,829.43 L599.0474,829.505 L599.0924,829.43 L622.8624,829.43 C617.9944,837.507 609.1414,842.92 599.0474,842.92 L599.0474,842.92 Z M571.2534,815.107 C571.2534,799.933 583.4614,787.564 598.5604,787.305 L574.7464,828.584 C572.5244,824.586 571.2534,819.991 571.2534,815.107 L571.2534,815.107 Z M611.1454,808.537 L622.8774,828.874 L599.4114,828.874 L611.1454,808.537 Z M586.9504,808.537 L598.6844,828.874 L575.2164,828.874 L586.9504,808.537 Z M610.4654,808.607 L599.0474,828.399 L587.6284,808.607 L610.4654,808.607 Z M610.8654,808.054 L587.2294,808.054 L599.0474,787.566 L610.8654,808.054 Z M626.8404,815.107 C626.8404,819.991 625.5704,824.589 623.3484,828.584 L599.5344,787.305 C614.6344,787.564 626.8404,799.933 626.8404,815.107 L626.8404,815.107 Z M623.6684,829.14 C626.0344,824.995 627.3954,820.207 627.3954,815.107 C627.3954,799.517 614.7654,786.829 599.2104,786.742 L599.0474,786.461 L598.8854,786.742 C583.3294,786.829 570.7004,799.517 570.7004,815.107 C570.7004,820.207 572.0614,824.995 574.4264,829.137 L574.2584,829.43 L574.5934,829.43 C579.5234,837.823 588.6354,843.473 599.0474,843.473 C609.4594,843.473 618.5734,837.823 623.5014,829.43 L623.8354,829.43 L623.6684,829.14 Z" id="Fill-3" sketch:type="MSShapeGroup"></path>
        </g>
    </g>
</svg>