<?xml version="1.0" encoding="UTF-8" standalone="no"?>
<svg width="77px" height="59px" viewBox="0 0 77 59" version="1.1" xmlns="http://www.w3.org/2000/svg" xmlns:xlink="http://www.w3.org/1999/xlink" xmlns:sketch="http://www.bohemiancoding.com/sketch/ns">
    <!-- Generator: Sketch 3.5.2 (25235) - http://www.bohemiancoding.com/sketch -->
    <title>Group</title>
    <desc>Created with Sketch.</desc>
    <defs></defs>
    <g id="Page-1" stroke="none" stroke-width="1" fill="none" fill-rule="evenodd" sketch:type="MSPage">
        <g id="Artboard-2" sketch:type="MSArtboardGroup" transform="translate(-790.000000, -428.000000)" fill="#333333">
            <g id="Group" sketch:type="MSLayerGroup" transform="translate(790.000000, 428.000000)">
                <path d="M38.3687,1.4034 L38.3017,1.4034 L27.5637,20.0194 L28.3677,20.0194 L38.3687,2.6804 L38.3687,1.4034 Z" id="Fill-395" sketch:type="MSShapeGroup"></path>
                <path d="M14.416,44.4341 L32.627,44.4341 C32.601,44.2051 32.584,43.9731 32.584,43.7371 L14.683,43.7371 L27.66,21.2411 L27.33,20.7151 L27.161,20.7151 L13.946,43.6201 C14.099,43.8941 14.253,44.1671 14.416,44.4341" id="Fill-396" sketch:type="MSShapeGroup"></path>
                <path d="M39.0664,1.4034 L39.0664,2.6804 L49.0664,20.0194 L49.8714,20.0194 L39.1334,1.4034 L39.0664,1.4034" id="Fill-397" sketch:type="MSShapeGroup"></path>
                <path d="M39.0664,44.4341 L44.1054,44.4341 C44.1344,44.2051 44.1534,43.9741 44.1534,43.7371 L39.0664,43.7371 L39.0664,44.4341 Z" id="Fill-398" sketch:type="MSShapeGroup"></path>
                <path d="M62.751,43.7368 L44.851,43.7368 C44.851,43.9728 44.836,44.2048 44.808,44.4338 L63.021,44.4338 C63.182,44.1668 63.336,43.8938 63.489,43.6198 L50.274,20.7158 L50.105,20.7158 L49.773,21.2408 L62.751,43.7368 Z" id="Fill-399" sketch:type="MSShapeGroup"></path>
                <path d="M38.3687,43.7368 L33.2797,43.7368 C33.2797,43.9738 33.3017,44.2048 33.3297,44.4338 L38.3687,44.4338 L38.3687,43.7368 Z" id="Fill-400" sketch:type="MSShapeGroup"></path>
                <path d="M38.3018,1.4038 L38.3688,1.4038 L38.3688,1.3798 C38.3688,1.1868 38.5248,1.0318 38.7188,1.0318 C38.9088,1.0318 39.0668,1.1868 39.0668,1.3798 L39.0668,1.4038 L39.1328,1.4038 C51.1698,1.5788 61.4178,9.2838 65.3618,20.0188 L66.0978,20.0188 C62.0768,8.7688 51.3238,0.6978 38.7188,0.6978 C26.1118,0.6978 15.3588,8.7688 11.3368,20.0188 L12.0728,20.0188 C16.0168,9.2838 26.2638,1.5788 38.3018,1.4038" id="Fill-401" sketch:type="MSShapeGroup"></path>
                <path d="M67.0938,29.7906 C67.0938,34.8106 65.7798,39.5246 63.4888,43.6206 C63.3358,43.8936 63.1818,44.1666 63.0208,44.4336 C58.1038,52.5766 49.2158,58.0566 39.0668,58.1796 L39.0668,58.5376 C39.0668,58.7286 38.9088,58.8846 38.7188,58.8846 C54.7478,58.8846 67.7898,45.8326 67.7898,29.7906 C67.7898,26.6226 67.2738,23.5746 66.3338,20.7156 L65.5988,20.7156 C66.5628,23.5676 67.0938,26.6176 67.0938,29.7906" id="Fill-402" sketch:type="MSShapeGroup"></path>
                <path d="M38.3687,58.5371 L38.3687,58.1791 C28.2177,58.0561 19.3317,52.5771 14.4157,44.4341 C14.2537,44.1671 14.0987,43.8941 13.9467,43.6201 C11.6537,39.5251 10.3417,34.8101 10.3417,29.7901 C10.3417,26.6171 10.8717,23.5681 11.8367,20.7151 L11.0997,20.7151 C10.1607,23.5741 9.6447,26.6231 9.6447,29.7901 C9.6447,45.8331 22.6867,58.8841 38.7187,58.8841 C38.5247,58.8841 38.3687,58.7291 38.3687,58.5371" id="Fill-403" sketch:type="MSShapeGroup"></path>
                <path d="M38.369,29.634 L39.067,29.634 L39.067,28.368 L38.369,28.368 L38.369,29.634 Z" id="Fill-404" sketch:type="MSShapeGroup"></path>
                <path d="M38.369,23.744 L39.067,23.744 L39.067,22.476 L38.369,22.476 L38.369,23.744 Z" id="Fill-405" sketch:type="MSShapeGroup"></path>
                <path d="M39.0664,34.2588 L38.3684,34.2588 L38.3684,36.8148 L38.7184,37.3628 L39.0664,36.8148 L39.0664,34.2588 Z" id="Fill-406" sketch:type="MSShapeGroup"></path>
                <path d="M38.369,31.598 L39.067,31.598 L39.067,30.331 L38.369,30.331 L38.369,31.598 Z" id="Fill-407" sketch:type="MSShapeGroup"></path>
                <path d="M39.066,20.715 L38.368,20.715 L38.368,21.778 L39.066,21.778 L39.066,20.715 Z" id="Fill-408" sketch:type="MSShapeGroup"></path>
                <path d="M38.369,33.561 L39.067,33.561 L39.067,32.295 L38.369,32.295 L38.369,33.561 Z" id="Fill-409" sketch:type="MSShapeGroup"></path>
                <path d="M38.369,25.707 L39.067,25.707 L39.067,24.44 L38.369,24.44 L38.369,25.707 Z" id="Fill-410" sketch:type="MSShapeGroup"></path>
                <path d="M38.369,27.671 L39.067,27.671 L39.067,26.403 L38.369,26.403 L38.369,27.671 Z" id="Fill-411" sketch:type="MSShapeGroup"></path>
                <path d="M39.0664,43.7368 L39.0664,38.3128 C38.9504,38.3058 38.8354,38.2958 38.7184,38.2958 C38.6014,38.2958 38.4844,38.3058 38.3684,38.3128 L38.3684,43.7368 L38.3684,44.4338 L38.3684,49.1588 C38.4844,49.1668 38.6014,49.1768 38.7184,49.1768 C38.8354,49.1768 38.9504,49.1668 39.0664,49.1588 L39.0664,44.4338 L39.0664,43.7368 Z" id="Fill-412" sketch:type="MSShapeGroup"></path>
                <path d="M39.0664,1.4034 L39.0664,1.3804 C39.0664,1.1874 38.9084,1.0314 38.7184,1.0314 C38.5244,1.0314 38.3684,1.1874 38.3684,1.3804 L38.3684,1.4034 L38.3684,2.6804 L38.3684,20.0194 L39.0664,20.0194 L39.0664,2.6804 L39.0664,1.4034 Z" id="Fill-413" sketch:type="MSShapeGroup"></path>
                <path d="M39.0664,58.5371 L39.0664,58.1791 L39.0664,49.8561 C38.9504,49.8631 38.8354,49.8731 38.7184,49.8731 C38.6014,49.8731 38.4844,49.8631 38.3684,49.8561 L38.3684,58.1791 L38.3684,58.5371 C38.3684,58.7291 38.5244,58.8841 38.7184,58.8841 C38.9084,58.8841 39.0664,58.7291 39.0664,58.5371" id="Fill-414" sketch:type="MSShapeGroup"></path>
                <path d="M39.0664,49.1587 C38.9504,49.1667 38.8354,49.1767 38.7184,49.1767 C38.6014,49.1767 38.4844,49.1667 38.3684,49.1587 C35.7674,48.9937 33.6594,46.9917 33.3294,44.4337 C33.3014,44.2047 33.2794,43.9737 33.2794,43.7367 C33.2794,40.8537 35.5344,38.4947 38.3684,38.3127 C38.4844,38.3057 38.6014,38.2957 38.7184,38.2957 C38.8354,38.2957 38.9504,38.3057 39.0664,38.3127 C41.9004,38.4947 44.1534,40.8537 44.1534,43.7367 C44.1534,43.9737 44.1344,44.2047 44.1054,44.4337 C43.7744,46.9917 41.6684,48.9937 39.0664,49.1587 M44.8074,44.4337 C44.8354,44.2047 44.8514,43.9727 44.8514,43.7367 C44.8514,40.5727 42.4464,37.9617 39.3694,37.6337 L39.0104,38.1987 L38.7184,38.0127 L38.4234,38.1987 L38.0644,37.6337 C34.9884,37.9617 32.5844,40.5727 32.5844,43.7367 C32.5844,43.9727 32.6014,44.2047 32.6274,44.4337 C32.9614,47.3757 35.3814,49.6877 38.3684,49.8567 C38.4844,49.8637 38.6014,49.8737 38.7184,49.8737 C38.8354,49.8737 38.9504,49.8637 39.0664,49.8567 C42.0534,49.6877 44.4734,47.3757 44.8074,44.4337" id="Fill-415" sketch:type="MSShapeGroup"></path>
                <path d="M48.8745,21.7788 L48.8745,22.4758 L48.1645,22.4758 L47.3605,23.7438 L47.5505,23.7438 L47.5505,24.4398 L46.9175,24.4398 L46.1135,25.7068 L46.4805,25.7068 L46.4805,26.4038 L45.6705,26.4038 L44.8685,27.6718 L45.1795,27.6718 L45.1795,28.3688 L44.4255,28.3688 L43.6235,29.6338 L43.6945,29.6338 L43.6945,30.3318 L43.1795,30.3318 L42.3745,31.5978 L42.6505,31.5978 L42.6505,32.2958 L41.9335,32.2958 L41.1295,33.5608 L41.3865,33.5608 L41.3865,34.2588 L40.6875,34.2588 L39.0665,36.8148 L38.7185,37.3628 L39.0105,37.8258 L38.7185,38.0118 L39.0105,38.1988 L39.3695,37.6328 L49.7735,21.2408 L50.1055,20.7158 L49.2805,20.7158 L48.6065,21.7788 L48.8745,21.7788 Z" id="Fill-416" sketch:type="MSShapeGroup"></path>
                <path d="M38.0645,37.6333 L38.4235,38.1983 L38.7185,38.0123 L39.0105,37.8253 L38.7185,37.3633 L38.3685,36.8143 L36.7475,34.2583 L36.1265,34.2583 L36.1265,33.5613 L36.3055,33.5613 L35.5015,32.2953 L34.8625,32.2953 L34.8625,31.5983 L35.0585,31.5983 L34.2555,30.3313 L33.8185,30.3313 L33.8185,29.6423 L33.0085,28.3683 L32.3325,28.3683 L32.3325,27.6713 L32.5665,27.6713 L31.7635,26.4033 L31.0325,26.4033 L31.0325,25.7063 L31.3215,25.7063 L30.5175,24.4403 L29.9615,24.4403 L29.9615,23.7443 L30.0745,23.7443 L29.2705,22.4763 L28.6375,22.4763 L28.6375,21.7793 L28.8275,21.7793 L28.1535,20.7153 L27.3295,20.7153 L27.6605,21.2403 L38.0645,37.6333 Z" id="Fill-417" sketch:type="MSShapeGroup"></path>
                <path d="M70.8955,20.0191 L66.0985,20.0191 L65.3615,20.0191 L49.8715,20.0191 L49.0665,20.0191 L39.0665,20.0191 L38.3685,20.0191 L28.3675,20.0191 L27.5635,20.0191 L12.0735,20.0191 L11.3365,20.0191 L6.5395,20.0191 C6.5535,20.1351 6.5755,20.2481 6.5755,20.3671 C6.5755,20.4861 6.5535,20.6001 6.5395,20.7151 L11.0995,20.7151 L11.8365,20.7151 L27.1605,20.7151 L27.3295,20.7151 L28.1535,20.7151 L38.3685,20.7151 L39.0665,20.7151 L49.2805,20.7151 L50.1055,20.7151 L50.2745,20.7151 L65.5985,20.7151 L66.3345,20.7151 L70.8955,20.7151 C70.8795,20.6001 70.8595,20.4861 70.8595,20.3671 C70.8595,20.2481 70.8795,20.1351 70.8955,20.0191" id="Fill-418" sketch:type="MSShapeGroup"></path>
                <path d="M73.8277,22.6392 C72.5737,22.6392 71.5547,21.6202 71.5547,20.3672 C71.5547,19.1142 72.5737,18.0952 73.8277,18.0952 C75.0777,18.0952 76.0967,19.1142 76.0967,20.3672 C76.0967,21.6202 75.0777,22.6392 73.8277,22.6392 M73.8277,17.3982 C72.3087,17.3982 71.0687,18.5472 70.8957,20.0192 C70.8797,20.1352 70.8597,20.2482 70.8597,20.3672 C70.8597,20.4862 70.8797,20.6002 70.8957,20.7152 C71.0687,22.1862 72.3087,23.3372 73.8277,23.3372 C75.4617,23.3372 76.7937,22.0042 76.7937,20.3672 C76.7937,18.7292 75.4617,17.3982 73.8277,17.3982" id="Fill-419" sketch:type="MSShapeGroup"></path>
                <path d="M3.6089,22.6392 C2.3559,22.6392 1.3379,21.6202 1.3379,20.3672 C1.3379,19.1142 2.3559,18.0952 3.6089,18.0952 C4.8609,18.0952 5.8779,19.1142 5.8779,20.3672 C5.8779,21.6202 4.8609,22.6392 3.6089,22.6392 M6.5399,20.0192 C6.3649,18.5472 5.1249,17.3982 3.6089,17.3982 C1.9719,17.3982 0.6429,18.7292 0.6429,20.3672 C0.6429,22.0042 1.9719,23.3372 3.6089,23.3372 C5.1249,23.3372 6.3649,22.1862 6.5399,20.7152 C6.5539,20.6002 6.5759,20.4862 6.5759,20.3672 C6.5759,20.2482 6.5539,20.1352 6.5399,20.0192" id="Fill-420" sketch:type="MSShapeGroup"></path>
                <path d="M39.0664,22.4761 L48.1644,22.4761 L48.8744,22.4761 L48.8744,21.7791 L48.6064,21.7791 L39.0664,21.7791 L38.3684,21.7791 L28.8274,21.7791 L28.6374,21.7791 L28.6374,22.4761 L29.2704,22.4761 L38.3684,22.4761 L39.0664,22.4761 Z" id="Fill-421" sketch:type="MSShapeGroup"></path>
                <path d="M39.0664,24.44 L46.9174,24.44 L47.5504,24.44 L47.5504,23.744 L47.3604,23.744 L39.0664,23.744 L38.3684,23.744 L30.0744,23.744 L29.9624,23.744 L29.9624,24.44 L30.5174,24.44 L38.3684,24.44 L39.0664,24.44 Z" id="Fill-422" sketch:type="MSShapeGroup"></path>
                <path d="M39.0664,26.4034 L45.6704,26.4034 L46.4804,26.4034 L46.4804,25.7064 L46.1134,25.7064 L39.0664,25.7064 L38.3684,25.7064 L31.3214,25.7064 L31.0324,25.7064 L31.0324,26.4034 L31.7634,26.4034 L38.3684,26.4034 L39.0664,26.4034 Z" id="Fill-423" sketch:type="MSShapeGroup"></path>
                <path d="M39.0664,28.3687 L44.4254,28.3687 L45.1794,28.3687 L45.1794,27.6717 L44.8684,27.6717 L39.0664,27.6717 L38.3684,27.6717 L32.5664,27.6717 L32.3324,27.6717 L32.3324,28.3687 L33.0084,28.3687 L38.3684,28.3687 L39.0664,28.3687 Z" id="Fill-424" sketch:type="MSShapeGroup"></path>
                <path d="M39.0664,30.3316 L43.1794,30.3316 L43.6944,30.3316 L43.6944,29.6346 L43.6234,29.6346 L39.0664,29.6346 L38.3684,29.6346 L33.8184,29.6346 L33.8184,29.6416 L33.8184,30.3316 L34.2554,30.3316 L38.3684,30.3316 L39.0664,30.3316 Z" id="Fill-425" sketch:type="MSShapeGroup"></path>
                <path d="M39.0664,32.2954 L41.9334,32.2954 L42.6514,32.2954 L42.6514,31.5984 L42.3744,31.5984 L39.0664,31.5984 L38.3684,31.5984 L35.0584,31.5984 L34.8624,31.5984 L34.8624,32.2954 L35.5024,32.2954 L38.3684,32.2954 L39.0664,32.2954 Z" id="Fill-426" sketch:type="MSShapeGroup"></path>
                <path d="M39.0664,34.2588 L40.6874,34.2588 L41.3864,34.2588 L41.3864,33.5608 L41.1294,33.5608 L39.0664,33.5608 L38.3684,33.5608 L36.3054,33.5608 L36.1264,33.5608 L36.1264,34.2588 L36.7474,34.2588 L38.3684,34.2588 L39.0664,34.2588 Z" id="Fill-427" sketch:type="MSShapeGroup"></path>
            </g>
        </g>
    </g>
</svg>