<?xml version="1.0" encoding="UTF-8" standalone="no"?>
<svg width="56px" height="59px" viewBox="0 0 56 59" version="1.1" xmlns="http://www.w3.org/2000/svg" xmlns:xlink="http://www.w3.org/1999/xlink" xmlns:sketch="http://www.bohemiancoding.com/sketch/ns">
    <!-- Generator: Sketch 3.5.2 (25235) - http://www.bohemiancoding.com/sketch -->
    <title>Group 17</title>
    <desc>Created with Sketch.</desc>
    <defs></defs>
    <g id="Page-1" stroke="none" stroke-width="1" fill="none" fill-rule="evenodd" sketch:type="MSPage">
        <g id="Artboard-2" sketch:type="MSArtboardGroup" transform="translate(-571.000000, -526.000000)" fill="#333333">
            <g id="Group-17" sketch:type="MSLayerGroup" transform="translate(571.000000, 526.000000)">
                <path d="M28.0474,54.5235 C27.8974,54.5235 27.7774,54.4025 27.7774,54.2535 L27.7774,2.5635 C27.7774,2.4145 27.8974,2.2935 28.0474,2.2935 C28.1974,2.2935 28.3174,2.4145 28.3174,2.5635 L28.3174,54.2535 C28.3174,54.4025 28.1974,54.5235 28.0474,54.5235" id="Fill-226" sketch:type="MSShapeGroup"></path>
                <path d="M29.8062,2.6783 C29.8062,3.6493 29.0182,4.4383 28.0472,4.4383 C27.0782,4.4383 26.2882,3.6493 26.2882,2.6783 C26.2882,1.7083 27.0782,0.9183 28.0472,0.9183 C29.0182,0.9183 29.8062,1.7083 29.8062,2.6783 C29.8062,3.6493 29.8062,1.7083 29.8062,2.6783 M25.7492,2.6783 C25.7492,3.9463 26.7802,4.9793 28.0472,4.9793 C29.3142,4.9793 30.3462,3.9463 30.3462,2.6783 C30.3462,1.4103 29.3142,0.3783 28.0472,0.3783 C26.7802,0.3783 25.7492,1.4103 25.7492,2.6783 C25.7492,3.9463 25.7492,1.4103 25.7492,2.6783" id="Fill-227" sketch:type="MSShapeGroup"></path>
                <path d="M25.3726,58.2881 L28.0626,53.7681 L30.7536,58.2881 L25.3726,58.2881 Z" id="Fill-228" sketch:type="MSShapeGroup"></path>
                <path d="M55.6865,44.9688 C55.6245,44.9688 55.5625,44.9478 55.5115,44.9048 L10.7535,6.7578 C10.6395,6.6618 10.6255,6.4908 10.7225,6.3778 C10.8185,6.2638 10.9895,6.2508 11.1035,6.3468 L55.8615,44.4928 C55.9735,44.5908 55.9875,44.7608 55.8905,44.8748 C55.8375,44.9368 55.7625,44.9688 55.6865,44.9688" id="Fill-229" sketch:type="MSShapeGroup"></path>
                <path d="M12.1548,5.2871 C12.8948,5.9161 12.9838,7.0291 12.3548,7.7691 C11.7258,8.5071 10.6128,8.5971 9.8748,7.9671 C9.1368,7.3381 9.0468,6.2251 9.6768,5.4851 C10.3058,4.7471 11.4168,4.6571 12.1548,5.2871 C12.8948,5.9161 11.4168,4.6571 12.1548,5.2871 M9.5258,8.3791 C10.4898,9.2011 11.9428,9.0841 12.7648,8.1191 C13.5878,7.1531 13.4698,5.6981 12.5058,4.8761 C11.5398,4.0541 10.0868,4.1701 9.2648,5.1361 C8.4438,6.1011 8.5598,7.5571 9.5258,8.3791 C10.4898,9.2011 8.5598,7.5571 9.5258,8.3791" id="Fill-230" sketch:type="MSShapeGroup"></path>
                <path d="M0.4087,44.9688 C0.3317,44.9688 0.2577,44.9368 0.2037,44.8748 C0.1077,44.7608 0.1217,44.5908 0.2337,44.4928 L44.9917,6.3468 C45.1057,6.2508 45.2757,6.2638 45.3727,6.3778 C45.4697,6.4908 45.4557,6.6618 45.3437,6.7578 L0.5837,44.9048 C0.5327,44.9478 0.4707,44.9688 0.4087,44.9688" id="Fill-231" sketch:type="MSShapeGroup"></path>
                <path d="M46.2202,7.9673 C45.4822,8.5963 44.3692,8.5073 43.7402,7.7693 C43.1112,7.0293 43.2002,5.9163 43.9402,5.2873 C44.6782,4.6573 45.7912,4.7473 46.4202,5.4853 C47.0492,6.2253 46.9602,7.3383 46.2202,7.9673 C45.4822,8.5963 46.9602,7.3383 46.2202,7.9673 M43.5902,4.8763 C42.6242,5.6983 42.5092,7.1533 43.3302,8.1183 C44.1522,9.0843 45.6052,9.2013 46.5712,8.3793 C47.5362,7.5563 47.6512,6.1013 46.8302,5.1363 C46.0082,4.1703 44.5552,4.0533 43.5902,4.8763 C42.6242,5.6983 44.5552,4.0533 43.5902,4.8763" id="Fill-232" sketch:type="MSShapeGroup"></path>
                <path d="M55.6865,44.9688 L0.4085,44.9688 C0.2605,44.9688 0.1405,44.8478 0.1405,44.6988 C0.1405,44.5498 0.2605,44.4288 0.4085,44.4288 L55.6865,44.4288 C55.8345,44.4288 55.9565,44.5498 55.9565,44.6988 C55.9565,44.8478 55.8345,44.9688 55.6865,44.9688" id="Fill-233" sketch:type="MSShapeGroup"></path>
                <path d="M36.958,58.562 C36.81,58.562 36.688,58.442 36.688,58.293 L36.688,50.463 L19.405,50.463 L19.405,58.293 C19.405,58.442 19.285,58.562 19.137,58.562 C18.987,58.562 18.865,58.442 18.865,58.293 L18.865,50.193 C18.865,50.044 18.987,49.923 19.137,49.923 L36.958,49.923 C37.108,49.923 37.228,50.044 37.228,50.193 L37.228,58.293 C37.228,58.442 37.108,58.562 36.958,58.562" id="Fill-234" sketch:type="MSShapeGroup"></path>
                <path d="M28.0474,44.9688 C27.9774,44.9688 27.9074,44.9418 27.8544,44.8868 L15.3414,31.9948 C15.2384,31.8878 15.2414,31.7168 15.3474,31.6138 C15.4554,31.5088 15.6254,31.5118 15.7304,31.6188 L28.2414,44.5108 C28.3454,44.6178 28.3424,44.7898 28.2344,44.8928 C28.1834,44.9438 28.1144,44.9688 28.0474,44.9688" id="Fill-235" sketch:type="MSShapeGroup"></path>
                <path d="M28.0474,44.9688 C27.9794,44.9688 27.9114,44.9438 27.8604,44.8928 C27.7524,44.7898 27.7494,44.6178 27.8544,44.5108 L40.3644,31.6188 C40.4694,31.5118 40.6394,31.5088 40.7454,31.6138 C40.8534,31.7168 40.8564,31.8878 40.7524,31.9948 L28.2414,44.8868 C28.1884,44.9418 28.1174,44.9688 28.0474,44.9688" id="Fill-236" sketch:type="MSShapeGroup"></path>
                <path d="M40.5586,32.0772 L15.5366,32.0772 C15.3866,32.0772 15.2666,31.9562 15.2666,31.8062 C15.2666,31.6582 15.3866,31.5372 15.5366,31.5372 L40.5586,31.5372 C40.7076,31.5372 40.8286,31.6582 40.8286,31.8062 C40.8286,31.9562 40.7076,32.0772 40.5586,32.0772" id="Fill-237" sketch:type="MSShapeGroup"></path>
                <path d="M15.5366,44.8096 C15.3866,44.8096 15.2666,44.6896 15.2666,44.5396 L15.2666,10.6396 C15.2666,10.4906 15.3866,10.3696 15.5366,10.3696 C15.6846,10.3696 15.8066,10.4906 15.8066,10.6396 L15.8066,44.5396 C15.8066,44.6896 15.6846,44.8096 15.5366,44.8096" id="Fill-238" sketch:type="MSShapeGroup"></path>
                <path d="M40.5586,44.8096 C40.4106,44.8096 40.2886,44.6896 40.2886,44.5396 L40.2886,10.6406 C40.2886,10.4906 40.4106,10.3706 40.5586,10.3706 C40.7076,10.3706 40.8286,10.4906 40.8286,10.6406 L40.8286,44.5396 C40.8286,44.6896 40.7076,44.8096 40.5586,44.8096" id="Fill-239" sketch:type="MSShapeGroup"></path>
            </g>
        </g>
    </g>
</svg>