<?xml version="1.0" encoding="UTF-8" standalone="no"?>
<svg width="61px" height="62px" viewBox="0 0 61 62" version="1.1" xmlns="http://www.w3.org/2000/svg" xmlns:xlink="http://www.w3.org/1999/xlink" xmlns:sketch="http://www.bohemiancoding.com/sketch/ns">
    <!-- Generator: Sketch 3.5.2 (25235) - http://www.bohemiancoding.com/sketch -->
    <title>Fill 33</title>
    <desc>Created with Sketch.</desc>
    <defs></defs>
    <g id="Page-1" stroke="none" stroke-width="1" fill="none" fill-rule="evenodd" sketch:type="MSPage">
        <g id="Artboard-2" sketch:type="MSArtboardGroup" transform="translate(-904.000000, -618.000000)" fill="#333333">
            <path d="M944.4204,648.6529 L935.0044,620.2209 L963.4154,648.6529 L944.4204,648.6529 Z M949.3054,663.4039 L944.6304,649.2839 L963.4154,649.2839 L949.3054,663.4039 Z M934.5984,664.3069 L948.4034,664.3069 L934.5984,678.1179 L934.5984,664.3069 Z M933.9684,664.3069 L933.9684,678.1179 L920.1634,664.3069 L933.9684,664.3069 Z M923.9374,649.2839 L919.2614,663.4039 L905.1504,649.2839 L923.9374,649.2839 Z M924.1464,648.6529 L905.1504,648.6529 L933.5624,620.2209 L924.1464,648.6529 Z M934.5984,648.6529 L934.5984,621.0139 L943.7524,648.6529 L934.5984,648.6529 Z M934.5984,649.2839 L943.9644,649.2839 L948.7314,663.6729 L934.5984,663.6729 L934.5984,649.2839 Z M924.8144,648.6529 L933.9684,621.0139 L933.9684,648.6529 L924.8144,648.6529 Z M933.9684,649.2839 L933.9684,663.6729 L919.8354,663.6729 L924.6054,649.2839 L933.9684,649.2839 Z M964.4704,649.0899 C964.5024,649.0119 964.5024,648.9239 964.4704,648.8459 C964.4554,648.8089 964.4304,648.7749 964.4024,648.7429 L934.5074,618.8279 C934.5054,618.8249 934.5024,618.8229 934.4984,618.8219 C934.4864,618.8109 934.4734,618.8029 934.4614,618.7949 C934.4424,618.7829 934.4264,618.7719 934.4084,618.7619 C934.4044,618.7609 934.4024,618.7609 934.3994,618.7589 C934.3924,618.7559 934.3894,618.7519 934.3834,618.7499 C934.3704,618.7469 934.3584,618.7479 934.3484,618.7469 C934.3274,618.7419 934.3054,618.7369 934.2834,618.7369 C934.2614,618.7369 934.2394,618.7419 934.2174,618.7469 C934.2084,618.7479 934.1954,618.7469 934.1834,618.7499 C934.1774,618.7519 934.1744,618.7559 934.1684,618.7589 C934.1644,618.7609 934.1644,618.7609 934.1584,618.7619 C934.1394,618.7719 934.1244,618.7829 934.1084,618.7949 C934.0924,618.8029 934.0804,618.8109 934.0674,618.8219 C934.0654,618.8229 934.0614,618.8249 934.0584,618.8279 L904.1644,648.7429 C904.1364,648.7749 904.1114,648.8089 904.0964,648.8459 C904.0804,648.8839 904.0704,648.9239 904.0704,648.9679 C904.0704,649.0119 904.0804,649.0529 904.0964,649.0899 C904.1114,649.1279 904.1364,649.1619 904.1644,649.1929 L919.1774,664.2129 L934.0584,679.1089 C934.0864,679.1399 934.1244,679.1609 934.1614,679.1769 C934.1994,679.1929 934.2394,679.2019 934.2834,679.2019 C934.3234,679.2019 934.3674,679.1929 934.4044,679.1769 C934.4454,679.1609 934.4804,679.1399 934.5074,679.1089 L949.3894,664.2159 C949.3924,664.2159 949.3924,664.2129 949.3924,664.2129 L964.4024,649.1929 C964.4304,649.1619 964.4554,649.1279 964.4704,649.0899 L964.4704,649.0899 Z" id="Fill-33" sketch:type="MSShapeGroup"></path>
        </g>
    </g>
</svg>