<?xml version="1.0" encoding="UTF-8" standalone="no"?>
<svg width="48px" height="48px" viewBox="0 0 48 48" version="1.1" xmlns="http://www.w3.org/2000/svg" xmlns:xlink="http://www.w3.org/1999/xlink" xmlns:sketch="http://www.bohemiancoding.com/sketch/ns">
    <!-- Generator: Sketch 3.5.2 (25235) - http://www.bohemiancoding.com/sketch -->
    <title>Fill 31</title>
    <desc>Created with Sketch.</desc>
    <defs></defs>
    <g id="Page-1" stroke="none" stroke-width="1" fill="none" fill-rule="evenodd" sketch:type="MSPage">
        <g id="Artboard-2" sketch:type="MSArtboardGroup" transform="translate(-691.000000, -791.000000)" fill="#333333">
            <path d="M728.5513,828.128 L728.5513,801.807 L738.2233,792.127 L738.2233,837.808 L728.5513,828.128 Z M701.7943,828.584 L728.0953,828.584 L737.7663,838.264 L692.1213,838.264 L701.7943,828.584 Z M701.3383,801.807 L701.3383,828.128 L691.6663,837.808 L691.6663,792.127 L701.3383,801.807 Z M714.9443,814.51 L702.4373,801.994 L727.4513,801.994 L714.9443,814.51 Z M715.3993,814.969 L727.9063,802.45 L727.9063,827.484 L715.3993,814.969 Z M714.9443,815.422 L727.4513,827.937 L702.4373,827.937 L714.9443,815.422 Z M714.4893,814.969 L701.9833,827.484 L701.9833,802.45 L714.4893,814.969 Z M728.0953,801.351 L701.7943,801.351 L692.1213,791.671 L737.7663,791.671 L728.0953,801.351 Z M691.0213,838.906 L738.8663,838.906 L738.8663,791.027 L691.0213,791.027 L691.0213,838.906 Z" id="Fill-31" sketch:type="MSShapeGroup"></path>
        </g>
    </g>
</svg>