<?xml version="1.0" encoding="UTF-8" standalone="no"?>
<svg width="68px" height="81px" viewBox="0 0 68 81" version="1.1" xmlns="http://www.w3.org/2000/svg" xmlns:xlink="http://www.w3.org/1999/xlink" xmlns:sketch="http://www.bohemiancoding.com/sketch/ns">
    <!-- Generator: Sketch 3.5.2 (25235) - http://www.bohemiancoding.com/sketch -->
    <title>Group 5</title>
    <desc>Created with Sketch.</desc>
    <defs></defs>
    <g id="Page-1" stroke="none" stroke-width="1" fill="none" fill-rule="evenodd" sketch:type="MSPage">
        <g id="Artboard-2" sketch:type="MSArtboardGroup" transform="translate(-1119.000000, -515.000000)" fill="#333333">
            <g id="Group-5" sketch:type="MSLayerGroup" transform="translate(1119.000000, 515.000000)">
                <path d="M67.2075,66.1958 C67.1135,66.1958 67.0225,66.1478 66.9735,66.0608 L33.8175,8.5898 L0.6605,66.0608 C0.5875,66.1898 0.4225,66.2338 0.2925,66.1598 C0.1635,66.0848 0.1195,65.9208 0.1945,65.7908 L33.5835,7.9148 C33.6795,7.7478 33.9555,7.7478 34.0505,7.9148 L67.4415,65.7908 C67.5155,65.9208 67.4715,66.0848 67.3415,66.1598 C67.2995,66.1838 67.2525,66.1958 67.2075,66.1958" id="Fill-277" sketch:type="MSShapeGroup"></path>
                <path d="M33.8179,75.9776 C33.6689,75.9776 33.5489,75.8566 33.5489,75.7076 L33.5489,1.5136 C33.5489,1.3646 33.6689,1.2436 33.8179,1.2436 C33.9659,1.2436 34.0889,1.3646 34.0889,1.5136 L34.0889,75.7076 C34.0889,75.8566 33.9659,75.9776 33.8179,75.9776" id="Fill-278" sketch:type="MSShapeGroup"></path>
                <path d="M31.6099,3.3023 L32.0059,3.6713 L33.8169,1.7203 L35.6279,3.6713 L36.0229,3.3023 L33.8169,0.9273 L31.6099,3.3023 Z" id="Fill-279" sketch:type="MSShapeGroup"></path>
                <path d="M33.8325,75.7505 L31.6155,79.4725 L36.0485,79.4725 L33.8325,75.7505 Z M30.6675,80.0125 L33.8325,74.6945 L36.9965,80.0125 L30.6675,80.0125 Z" id="Fill-280" sketch:type="MSShapeGroup"></path>
                <path d="M33.8179,70.5625 C33.7339,70.5625 33.6509,70.5235 33.5979,70.4505 L2.3059,26.7095 C2.2179,26.5885 2.2469,26.4205 2.3689,26.3335 C2.4869,26.2475 2.6569,26.2735 2.7449,26.3955 L34.0369,70.1355 C34.1239,70.2575 34.0959,70.4245 33.9739,70.5125 C33.9269,70.5455 33.8729,70.5625 33.8179,70.5625" id="Fill-281" sketch:type="MSShapeGroup"></path>
                <path d="M33.8179,70.5625 C33.7619,70.5625 33.7079,70.5455 33.6609,70.5125 C33.5389,70.4245 33.5099,70.2575 33.5979,70.1355 L64.8899,26.3955 C64.9769,26.2735 65.1479,26.2475 65.2679,26.3335 C65.3879,26.4205 65.4169,26.5885 65.3309,26.7095 L34.0369,70.4505 C33.9839,70.5235 33.9009,70.5625 33.8179,70.5625" id="Fill-282" sketch:type="MSShapeGroup"></path>
                <path d="M65.1099,26.8228 L2.5239,26.8228 C2.3769,26.8228 2.2549,26.7018 2.2549,26.5528 C2.2549,26.4038 2.3769,26.2828 2.5239,26.2828 L65.1099,26.2828 C65.2599,26.2828 65.3809,26.4038 65.3809,26.5528 C65.3809,26.7018 65.2599,26.8228 65.1099,26.8228" id="Fill-283" sketch:type="MSShapeGroup"></path>
                <path d="M33.8179,35.9048 C30.1799,35.9048 27.2209,38.8668 27.2209,42.5068 C27.2209,46.1468 30.1799,49.1088 33.8179,49.1088 C37.4559,49.1088 40.4149,46.1468 40.4149,42.5068 C40.4149,38.8668 37.4559,35.9048 33.8179,35.9048 M33.8179,49.6488 C29.8819,49.6488 26.6809,46.4438 26.6809,42.5068 C26.6809,38.5688 29.8819,35.3658 33.8179,35.3658 C37.7529,35.3658 40.9549,38.5688 40.9549,42.5068 C40.9549,46.4438 37.7529,49.6488 33.8179,49.6488" id="Fill-284" sketch:type="MSShapeGroup"></path>
                <path d="M53.7787,42.7764 L13.9377,42.7764 C13.7887,42.7764 13.6697,42.6564 13.6697,42.5064 C13.6697,42.3574 13.7887,42.2364 13.9377,42.2364 L53.7787,42.2364 C53.9267,42.2364 54.0497,42.3574 54.0497,42.5064 C54.0497,42.6564 53.9267,42.7764 53.7787,42.7764" id="Fill-285" sketch:type="MSShapeGroup"></path>
                <path d="M22.7427,55.4131 L6.6487,55.4131 C6.4987,55.4131 6.3787,55.2931 6.3787,55.1431 C6.3787,54.9941 6.4987,54.8741 6.6487,54.8741 L22.7427,54.8741 C22.8927,54.8741 23.0137,54.9941 23.0137,55.1431 C23.0137,55.2931 22.8927,55.4131 22.7427,55.4131" id="Fill-286" sketch:type="MSShapeGroup"></path>
                <path d="M60.7466,55.4131 L44.6526,55.4131 C44.5036,55.4131 44.3836,55.2931 44.3836,55.1431 C44.3836,54.9941 44.5036,54.8741 44.6526,54.8741 L60.7466,54.8741 C60.8946,54.8741 61.0176,54.9941 61.0176,55.1431 C61.0176,55.2931 60.8946,55.4131 60.7466,55.4131" id="Fill-287" sketch:type="MSShapeGroup"></path>
            </g>
        </g>
    </g>
</svg>