<?xml version="1.0" encoding="UTF-8" standalone="no"?>
<svg width="52px" height="39px" viewBox="0 0 52 39" version="1.1" xmlns="http://www.w3.org/2000/svg" xmlns:xlink="http://www.w3.org/1999/xlink" xmlns:sketch="http://www.bohemiancoding.com/sketch/ns">
    <!-- Generator: Sketch 3.5.2 (25235) - http://www.bohemiancoding.com/sketch -->
    <title>Fill 36</title>
    <desc>Created with Sketch.</desc>
    <defs></defs>
    <g id="Page-1" stroke="none" stroke-width="1" fill="none" fill-rule="evenodd" sketch:type="MSPage">
        <g id="Artboard-2" sketch:type="MSArtboardGroup" transform="translate(-908.000000, -712.000000)" fill="#333333">
            <path d="M958.9868,750.0821 L940.4758,750.0821 L934.6548,742.9611 L947.0328,727.8151 L958.9868,714.2411 L958.9868,750.0821 Z M934.2148,743.5011 L939.5948,750.0821 L928.8368,750.0821 L934.2148,743.5011 Z M909.5768,714.3971 L921.3968,727.8181 L933.7748,742.9611 L927.9538,750.0821 L909.5768,750.0821 L909.5768,714.3971 Z M946.2528,727.6961 L934.2148,742.4241 L922.1798,727.6961 L934.2148,714.0281 L946.2528,727.6961 Z M959.0298,713.2171 L946.6958,727.2251 L934.2148,713.0511 L921.7368,727.2251 L908.9338,712.6861 L908.9338,750.7281 L959.6328,750.7281 L959.6328,713.2171 L959.0298,713.2171 Z" id="Fill-36" sketch:type="MSShapeGroup"></path>
        </g>
    </g>
</svg>