<?xml version="1.0" encoding="UTF-8" standalone="no"?>
<svg width="25px" height="53px" viewBox="0 0 25 53" version="1.1" xmlns="http://www.w3.org/2000/svg" xmlns:xlink="http://www.w3.org/1999/xlink" xmlns:sketch="http://www.bohemiancoding.com/sketch/ns">
    <!-- Generator: Sketch 3.5.2 (25235) - http://www.bohemiancoding.com/sketch -->
    <title>Group 21</title>
    <desc>Created with Sketch.</desc>
    <defs></defs>
    <g id="Page-1" stroke="none" stroke-width="1" fill="none" fill-rule="evenodd" sketch:type="MSPage">
        <g id="Artboard-2" sketch:type="MSArtboardGroup" transform="translate(-588.000000, -869.000000)" fill="#333333">
            <g id="Group-21" sketch:type="MSLayerGroup" transform="translate(588.000000, 869.000000)">
                <path d="M12.416,47.376 C12.23,47.376 12.076,47.221 12.076,47.038 L12.076,1.33 C12.076,1.145 12.23,0.989 12.416,0.989 C12.603,0.989 12.755,1.145 12.755,1.33 L12.755,47.038 C12.755,47.221 12.603,47.376 12.416,47.376" id="Fill-288" sketch:type="MSShapeGroup"></path>
                <path d="M9.646,3.5791 L10.143,4.0381 L12.415,1.5911 L14.69,4.0381 L15.185,3.5791 L12.415,0.5951 L9.646,3.5791 Z" id="Fill-289" sketch:type="MSShapeGroup"></path>
                <path d="M12.4351,47.0899 L9.6541,51.7599 L15.2161,51.7599 L12.4351,47.0899 Z M8.4611,52.4409 L12.4351,45.7629 L16.4071,52.4409 L8.4611,52.4409 Z" id="Fill-290" sketch:type="MSShapeGroup"></path>
                <path d="M21.5586,20.9268 C21.4776,20.9268 21.3946,20.8988 21.3286,20.8368 L3.0476,4.2348 C2.9076,4.1088 2.8986,3.8948 3.0246,3.7568 C3.1506,3.6178 3.3656,3.6088 3.5006,3.7358 L21.7856,20.3378 C21.9246,20.4588 21.9346,20.6778 21.8076,20.8158 C21.7446,20.8888 21.6526,20.9268 21.5586,20.9268" id="Fill-291" sketch:type="MSShapeGroup"></path>
                <path d="M3.2744,20.9268 C3.1824,20.9268 3.0904,20.8888 3.0254,20.8158 C2.8984,20.6778 2.9074,20.4588 3.0474,20.3378 L21.3284,3.7358 C21.4694,3.6088 21.6824,3.6178 21.8084,3.7568 C21.9344,3.8948 21.9244,4.1088 21.7854,4.2348 L3.5004,20.8368 C3.4354,20.8988 3.3544,20.9268 3.2744,20.9268" id="Fill-292" sketch:type="MSShapeGroup"></path>
                <path d="M24.4361,31.6006 L0.3951,31.6006 C0.2091,31.6006 0.0581,31.4476 0.0581,31.2606 C0.0581,31.0736 0.2091,30.9226 0.3951,30.9226 L24.4361,30.9226 C24.6241,30.9226 24.7761,31.0736 24.7761,31.2606 C24.7761,31.4476 24.6241,31.6006 24.4361,31.6006" id="Fill-293" sketch:type="MSShapeGroup"></path>
            </g>
        </g>
    </g>
</svg>