<?xml version="1.0" encoding="UTF-8" standalone="no"?>
<svg width="60px" height="52px" viewBox="0 0 60 52" version="1.1" xmlns="http://www.w3.org/2000/svg" xmlns:xlink="http://www.w3.org/1999/xlink" xmlns:sketch="http://www.bohemiancoding.com/sketch/ns">
    <!-- Generator: Sketch 3.5.2 (25235) - http://www.bohemiancoding.com/sketch -->
    <title>Group 12</title>
    <desc>Created with Sketch.</desc>
    <defs></defs>
    <g id="Page-1" stroke="none" stroke-width="1" fill="none" fill-rule="evenodd" sketch:type="MSPage">
        <g id="Artboard-2" sketch:type="MSArtboardGroup" transform="translate(-799.000000, -623.000000)" fill="#333333">
            <g id="Group-12" sketch:type="MSLayerGroup" transform="translate(798.000000, 623.000000)">
                <path d="M16.274,51.0049 L45.158,51.0049 L59.603,25.9679 L45.158,0.9359 L16.274,0.9359 L1.833,25.9679 L16.274,51.0049 Z M45.589,51.7449 L15.845,51.7449 L0.978,25.9679 L15.845,0.1939 L45.589,0.1939 L60.458,25.9679 L45.589,51.7449 Z" id="Fill-29" sketch:type="MSShapeGroup"></path>
                <path d="M23.6055,38.2959 L37.8285,38.2959 L44.9405,25.9679 L37.8285,13.6419 L23.6055,13.6419 L16.4935,25.9679 L23.6055,38.2959 Z M38.2545,39.0359 L23.1775,39.0359 L15.6385,25.9679 L23.1775,12.8999 L38.2545,12.8999 L45.7945,25.9679 L38.2545,39.0359 Z" id="Fill-30" sketch:type="MSShapeGroup"></path>
            </g>
        </g>
    </g>
</svg>