<?xml version="1.0" encoding="UTF-8" standalone="no"?>
<svg width="23px" height="53px" viewBox="0 0 23 53" version="1.1" xmlns="http://www.w3.org/2000/svg" xmlns:xlink="http://www.w3.org/1999/xlink" xmlns:sketch="http://www.bohemiancoding.com/sketch/ns">
    <!-- Generator: Sketch 3.5.2 (25235) - http://www.bohemiancoding.com/sketch -->
    <title>Group 26</title>
    <desc>Created with Sketch.</desc>
    <defs></defs>
    <g id="Page-1" stroke="none" stroke-width="1" fill="none" fill-rule="evenodd" sketch:type="MSPage">
        <g id="Artboard-2" sketch:type="MSArtboardGroup" transform="translate(-926.000000, -869.000000)" fill="#333333">
            <g id="Group-26" sketch:type="MSLayerGroup" transform="translate(926.000000, 869.000000)">
                <path d="M7.7373,7.6973 L15.7713,7.6973 L11.7553,1.1613 L7.7373,7.6973 Z M16.3923,8.3723 L16.3783,8.3723 L7.1303,8.3723 C7.0093,8.3723 6.8963,8.3043 6.8383,8.2003 C6.7763,8.0923 6.7793,7.9613 6.8423,7.8563 L11.4663,0.3373 C11.5283,0.2383 11.6363,0.1773 11.7553,0.1773 C11.8713,0.1773 11.9823,0.2383 12.0423,0.3373 L16.6233,7.7893 C16.6883,7.8503 16.7293,7.9363 16.7293,8.0343 C16.7293,8.2213 16.5793,8.3723 16.3923,8.3723 L16.3923,8.3723 Z" id="Fill-316" sketch:type="MSShapeGroup"></path>
                <path d="M7.7373,8.3721 L11.7553,14.9061 L15.7713,8.3721 L7.7373,8.3721 Z M11.7553,15.8901 C11.6363,15.8901 11.5283,15.8321 11.4663,15.7301 L6.8423,8.2131 C6.7793,8.1071 6.7763,7.9741 6.8383,7.8721 C6.8963,7.7611 7.0093,7.6971 7.1303,7.6971 L16.3783,7.6971 C16.5013,7.6971 16.6133,7.7611 16.6733,7.8721 C16.7343,7.9741 16.7293,8.1071 16.6663,8.2131 L12.0423,15.7301 C11.9823,15.8321 11.8713,15.8901 11.7553,15.8901 L11.7553,15.8901 Z" id="Fill-317" sketch:type="MSShapeGroup"></path>
                <path d="M11.7554,52.8584 C11.5664,52.8584 11.4154,52.7074 11.4154,52.5214 L11.4154,15.7954 C11.4154,15.6084 11.5664,15.4594 11.7554,15.4594 C11.9414,15.4594 12.0924,15.6084 12.0924,15.7954 L12.0924,52.5214 C12.0924,52.7074 11.9414,52.8584 11.7554,52.8584" id="Fill-318" sketch:type="MSShapeGroup"></path>
                <path d="M9.552,52.181 L13.956,52.181 L13.956,52.859 L9.552,52.859 L9.552,52.181 Z" id="Fill-319" sketch:type="MSShapeGroup"></path>
                <path d="M11.7554,29.1924 C7.4294,29.1924 3.9134,32.7134 3.9134,37.0374 C3.9134,41.3644 7.4294,44.8844 11.7554,44.8844 C16.0764,44.8844 19.5954,41.3644 19.5954,37.0374 C19.5954,32.7134 16.0764,29.1924 11.7554,29.1924 M11.7554,45.5654 C7.0564,45.5654 3.2364,41.7424 3.2364,37.0374 C3.2364,32.3394 7.0564,28.5164 11.7554,28.5164 C16.4494,28.5164 20.2714,32.3394 20.2714,37.0374 C20.2714,41.7424 16.4494,45.5654 11.7554,45.5654" id="Fill-320" sketch:type="MSShapeGroup"></path>
                <path d="M22.6358,37.378 L0.8738,37.378 C0.6848,37.378 0.5348,37.225 0.5348,37.037 C0.5348,36.852 0.6848,36.7 0.8738,36.7 L22.6358,36.7 C22.8228,36.7 22.9738,36.852 22.9738,37.037 C22.9738,37.225 22.8228,37.378 22.6358,37.378" id="Fill-321" sketch:type="MSShapeGroup"></path>
                <path d="M5.4839,50.5879 C5.4339,50.5879 5.3869,50.5799 5.3379,50.5559 C5.1699,50.4759 5.0969,50.2729 5.1779,50.1039 L11.4479,36.8419 C11.5289,36.6769 11.7289,36.6029 11.9009,36.6829 C12.0689,36.7629 12.1429,36.9639 12.0629,37.1319 L5.7909,50.3959 C5.7349,50.5149 5.6119,50.5879 5.4839,50.5879" id="Fill-322" sketch:type="MSShapeGroup"></path>
                <path d="M18.0244,50.5879 C17.8984,50.5879 17.7784,50.5149 17.7164,50.3959 L11.4484,37.1319 C11.3704,36.9639 11.4414,36.7629 11.6104,36.6829 C11.7774,36.6029 11.9804,36.6769 12.0634,36.8419 L18.3304,50.1039 C18.4094,50.2729 18.3384,50.4759 18.1704,50.5559 C18.1244,50.5799 18.0724,50.5879 18.0244,50.5879" id="Fill-323" sketch:type="MSShapeGroup"></path>
            </g>
        </g>
    </g>
</svg>