<?xml version="1.0" encoding="UTF-8" standalone="no"?>
<svg width="60px" height="52px" viewBox="0 0 60 52" version="1.1" xmlns="http://www.w3.org/2000/svg" xmlns:xlink="http://www.w3.org/1999/xlink" xmlns:sketch="http://www.bohemiancoding.com/sketch/ns">
    <!-- Generator: Sketch 3.5.2 (25235) - http://www.bohemiancoding.com/sketch -->
    <title>Fill 35</title>
    <desc>Created with Sketch.</desc>
    <defs></defs>
    <g id="Page-1" stroke="none" stroke-width="1" fill="none" fill-rule="evenodd" sketch:type="MSPage">
        <g id="Artboard-2" sketch:type="MSArtboardGroup" transform="translate(-1123.000000, -623.000000)" fill="#333333">
            <path d="M1167.7289,673.083 L1167.7289,624.856 L1181.6399,648.968 L1167.7289,673.083 Z M1123.9969,648.968 L1137.9069,624.856 L1137.9069,673.083 L1123.9969,648.968 Z M1152.5019,623.991 L1152.5019,641.454 L1141.7709,641.454 L1152.4229,659.916 L1138.5409,673.512 L1138.5409,623.991 L1152.5019,623.991 Z M1167.0949,673.512 L1153.2159,659.916 L1163.8689,641.454 L1153.1349,641.454 L1153.1349,623.991 L1167.0949,623.991 L1167.0949,673.512 Z M1153.1349,660.724 L1166.6359,673.948 L1153.1349,673.948 L1153.1349,660.724 Z M1152.5019,673.948 L1138.9999,673.948 L1152.5019,660.724 L1152.5019,673.948 Z M1152.5019,658.788 L1142.8669,642.088 L1152.5019,642.088 L1152.5019,658.788 Z M1153.1349,642.088 L1162.7699,642.088 L1153.1349,658.788 L1153.1349,642.088 Z M1182.3709,648.968 L1167.7289,623.591 L1167.7289,623.357 L1167.5949,623.357 L1138.0419,623.357 L1137.9069,623.357 L1137.9069,623.591 L1123.3559,648.809 L1123.2659,648.968 L1137.9069,674.349 L1137.9069,674.579 L1138.0419,674.579 L1167.5949,674.579 L1167.7289,674.579 L1167.7289,674.349 L1182.2799,649.127 L1182.3709,648.968 Z" id="Fill-35" sketch:type="MSShapeGroup"></path>
        </g>
    </g>
</svg>