<?xml version="1.0" encoding="UTF-8" standalone="no"?>
<svg width="76px" height="64px" viewBox="0 0 76 64" version="1.1" xmlns="http://www.w3.org/2000/svg" xmlns:xlink="http://www.w3.org/1999/xlink" xmlns:sketch="http://www.bohemiancoding.com/sketch/ns">
    <!-- Generator: Sketch 3.5.2 (25235) - http://www.bohemiancoding.com/sketch -->
    <title>Fill 96</title>
    <desc>Created with Sketch.</desc>
    <defs></defs>
    <g id="Page-1" stroke="none" stroke-width="1" fill="none" fill-rule="evenodd" sketch:type="MSPage">
        <g id="Artboard-2" sketch:type="MSArtboardGroup" transform="translate(-677.000000, -421.000000)" fill="#333333">
            <path d="M752.6065,477.1841 L677.2815,477.1841 C677.1315,477.1841 677.0115,477.0631 677.0115,476.9131 C677.0115,476.7651 677.1315,476.6441 677.2815,476.6441 L752.6065,476.6441 C752.7545,476.6441 752.8765,476.7651 752.8765,476.9131 C752.8765,477.0631 752.7545,477.1841 752.6065,477.1841 M688.9737,477.1841 C688.9307,477.1841 688.8877,477.1741 688.8487,477.1531 C688.7157,477.0821 688.6657,476.9201 688.7367,476.7871 L717.9437,421.6991 C718.0137,421.5661 718.1757,421.5171 718.3067,421.5871 C718.4397,421.6571 718.4897,421.8191 718.4197,421.9521 L689.2127,477.0401 C689.1637,477.1321 689.0707,477.1841 688.9737,477.1841 M740.9131,477.1841 C740.8161,477.1841 740.7231,477.1321 740.6741,477.0401 L711.4671,421.9521 C711.3981,421.8191 711.4481,421.6571 711.5801,421.5871 C711.7121,421.5171 711.8741,421.5661 711.9451,421.6991 L741.1521,476.7871 C741.2221,476.9201 741.1711,477.0821 741.0391,477.1531 C740.9991,477.1741 740.9551,477.1841 740.9131,477.1841 M703.0401,483.7915 L726.8461,483.7915 L714.9441,463.1585 L703.0401,483.7915 Z M727.3261,484.3325 C727.3211,484.3305 727.3181,484.3325 727.3141,484.3325 L702.5721,484.3325 C702.4771,484.3325 702.3861,484.2805 702.3391,484.1955 C702.2911,484.1135 702.2911,484.0105 702.3391,483.9255 L714.7101,462.4835 C714.8071,462.3165 715.0821,462.3165 715.1771,462.4835 L727.5151,483.8695 C727.5641,483.9195 727.5951,483.9865 727.5951,484.0615 C727.5951,484.2095 727.4741,484.3325 727.3261,484.3325 L727.3261,484.3325 Z M714.9439,484.3272 C714.7949,484.3272 714.6739,484.2072 714.6739,484.0582 L714.6739,428.0962 C714.6739,427.9462 714.7949,427.8252 714.9439,427.8252 C715.0919,427.8252 715.2139,427.9462 715.2139,428.0962 L715.2139,484.0582 C715.2139,484.2072 715.0919,484.3272 714.9439,484.3272 M714.9439,462.8877 C714.8739,462.8877 714.8049,462.8627 714.7539,462.8097 L702.8949,450.9427 C702.7889,450.8377 702.7889,450.6677 702.8949,450.5617 C703.0009,450.4547 703.1719,450.4547 703.2759,450.5617 L715.1339,462.4277 C715.2389,462.5337 715.2389,462.7037 715.1339,462.8097 C715.0819,462.8627 715.0129,462.8877 714.9439,462.8877 M714.9439,462.8877 L696.5529,462.8877 C696.4049,462.8877 696.2829,462.7677 696.2829,462.6197 C696.2829,462.4697 696.4049,462.3487 696.5529,462.3487 L714.9439,462.3487 C715.0919,462.3487 715.2139,462.4697 715.2139,462.6197 C715.2139,462.7677 715.0919,462.8877 714.9439,462.8877 M714.9439,462.8877 C714.8739,462.8877 714.8049,462.8627 714.7539,462.8097 C714.6479,462.7037 714.6479,462.5337 714.7539,462.4277 L726.6109,450.5617 C726.7169,450.4547 726.8869,450.4547 726.9919,450.5617 C727.0979,450.6677 727.0979,450.8377 726.9919,450.9427 L715.1339,462.8097 C715.0819,462.8627 715.0129,462.8877 714.9439,462.8877 M733.3335,462.8877 L714.9435,462.8877 C714.7945,462.8877 714.6745,462.7677 714.6745,462.6197 C714.6745,462.4697 714.7945,462.3487 714.9435,462.3487 L733.3335,462.3487 C733.4835,462.3487 733.6035,462.4697 733.6035,462.6197 C733.6035,462.7677 733.4835,462.8877 733.3335,462.8877 M714.9439,484.3321 C714.8799,484.3321 714.8179,484.3101 714.7679,484.2661 L706.5199,477.1181 C706.4059,477.0211 706.3959,476.8501 706.4919,476.7371 C706.5899,476.6251 706.7609,476.6121 706.8729,476.7101 L715.1209,483.8571 C715.2329,483.9561 715.2449,484.1251 715.1489,484.2381 C715.0939,484.3011 715.0189,484.3321 714.9439,484.3321 M714.9439,484.3321 C714.8679,484.3321 714.7929,484.3011 714.7399,484.2381 C714.6429,484.1251 714.6539,483.9561 714.7679,483.8571 L723.0149,476.7101 C723.1259,476.6121 723.2979,476.6251 723.3949,476.7371 C723.4929,476.8501 723.4809,477.0211 723.3679,477.1181 L715.1209,484.2661 C715.0689,484.3101 715.0059,484.3321 714.9439,484.3321" id="Fill-96" sketch:type="MSShapeGroup"></path>
        </g>
    </g>
</svg>