<?xml version="1.0" encoding="UTF-8" standalone="no"?>
<svg width="65px" height="56px" viewBox="0 0 65 56" version="1.1" xmlns="http://www.w3.org/2000/svg" xmlns:xlink="http://www.w3.org/1999/xlink" xmlns:sketch="http://www.bohemiancoding.com/sketch/ns">
    <!-- Generator: Sketch 3.5.2 (25235) - http://www.bohemiancoding.com/sketch -->
    <title>Group 13</title>
    <desc>Created with Sketch.</desc>
    <defs></defs>
    <g id="Page-1" stroke="none" stroke-width="1" fill="none" fill-rule="evenodd" sketch:type="MSPage">
        <g id="Artboard-2" sketch:type="MSArtboardGroup" transform="translate(-796.000000, -704.000000)" fill="#333333">
            <g id="Group-13" sketch:type="MSLayerGroup" transform="translate(796.000000, 703.000000)">
                <path d="M1.7818,55.8028 L63.6538,55.8028 L32.7188,2.1828 L1.7818,55.8028 Z M64.7238,56.4218 L0.7118,56.4218 L32.7188,0.9438 L64.7238,56.4218 Z" id="Fill-5" sketch:type="MSShapeGroup"></path>
                <path d="M17.8511,29.4659 L32.7181,55.2339 L47.5841,29.4659 L17.8511,29.4659 Z M32.7181,56.4719 L16.7791,28.8479 L48.6551,28.8479 L32.7181,56.4719 Z" id="Fill-7" sketch:type="MSShapeGroup"></path>
                <path d="M33.026,55.853 L32.408,55.853 L32.408,1.562 L33.026,1.562 L33.026,55.853 Z" id="Fill-9" sketch:type="MSShapeGroup"></path>
                <path d="M1.4483,56.3467 L1.0453,55.8747 L32.5153,28.9197 L32.9183,29.3917 L1.4483,56.3467 Z" id="Fill-11" sketch:type="MSShapeGroup"></path>
                <path d="M63.9868,56.3467 L32.5158,29.3917 L32.9178,28.9197 L64.3878,55.8747 L63.9868,56.3467 Z" id="Fill-12" sketch:type="MSShapeGroup"></path>
            </g>
        </g>
    </g>
</svg>