<?xml version="1.0" encoding="UTF-8" standalone="no"?>
<svg width="26px" height="60px" viewBox="0 0 26 60" version="1.1" xmlns="http://www.w3.org/2000/svg" xmlns:xlink="http://www.w3.org/1999/xlink" xmlns:sketch="http://www.bohemiancoding.com/sketch/ns">
    <!-- Generator: Sketch 3.5.2 (25235) - http://www.bohemiancoding.com/sketch -->
    <title>Group 29</title>
    <desc>Created with Sketch.</desc>
    <defs></defs>
    <g id="Page-1" stroke="none" stroke-width="1" fill="none" fill-rule="evenodd" sketch:type="MSPage">
        <g id="Artboard-2" sketch:type="MSArtboardGroup" transform="translate(-1139.000000, -866.000000)" fill="#333333">
            <g id="Group-29" sketch:type="MSLayerGroup" transform="translate(1139.000000, 865.000000)">
                <path d="M13.2173,1.2647 L7.4153,9.6607 L19.0213,9.6607 L13.2173,1.2647 Z" id="Fill-428" sketch:type="MSShapeGroup"></path>
                <path d="M13.2847,0.5625 L13.2687,0.5815 C13.2777,0.5815 13.2907,0.5835 13.3007,0.5865 L13.2847,0.5625 Z" id="Fill-429" sketch:type="MSShapeGroup"></path>
                <path d="M3.105,20.2862 C4.037,20.2862 4.823,19.7142 5.124,18.9192 C5.041,18.6952 4.985,18.4592 4.985,18.2092 L4.731,18.2092 C4.731,19.0742 4.003,19.7772 3.105,19.7772 C2.218,19.7772 1.503,19.0972 1.48,18.2472 C1.48,18.2342 1.474,18.2242 1.474,18.2092 L0.947,18.2092 C0.947,18.4342 0.994,18.6482 1.064,18.8512 C1.346,19.6822 2.148,20.2862 3.105,20.2862" id="Fill-430" sketch:type="MSShapeGroup"></path>
                <path d="M8.7729,18.209 C8.7729,19.074 8.0449,19.777 7.1469,19.777 C6.2449,19.777 5.5159,19.074 5.5159,18.209 L4.9849,18.209 C4.9849,18.459 5.0409,18.695 5.1249,18.919 C5.4269,19.714 6.2149,20.286 7.1469,20.286 C8.0749,20.286 8.8619,19.714 9.1659,18.919 C9.0809,18.695 9.0269,18.459 9.0269,18.209 L8.7729,18.209 Z" id="Fill-431" sketch:type="MSShapeGroup"></path>
                <path d="M12.815,18.209 C12.815,19.074 12.082,19.777 11.185,19.777 C10.287,19.777 9.554,19.074 9.554,18.209 L9.027,18.209 C9.027,18.459 9.081,18.695 9.166,18.919 C9.465,19.714 10.253,20.286 11.185,20.286 C12.117,20.286 12.901,19.714 13.205,18.919 C13.122,18.695 13.066,18.459 13.066,18.209 L12.815,18.209 Z" id="Fill-432" sketch:type="MSShapeGroup"></path>
                <path d="M16.8531,18.209 C16.8531,19.074 16.1211,19.777 15.2241,19.777 C14.3281,19.777 13.5961,19.074 13.5961,18.209 L13.0661,18.209 C13.0661,18.459 13.1211,18.695 13.2051,18.919 C13.5071,19.714 14.2951,20.286 15.2241,20.286 C16.1561,20.286 16.9421,19.714 17.2461,18.919 C17.1611,18.695 17.1081,18.459 17.1081,18.209 L16.8531,18.209 Z" id="Fill-433" sketch:type="MSShapeGroup"></path>
                <path d="M20.895,18.209 C20.895,19.074 20.164,19.777 19.266,19.777 C18.367,19.777 17.638,19.074 17.638,18.209 L17.108,18.209 C17.108,18.459 17.161,18.695 17.247,18.919 C17.546,19.714 18.335,20.286 19.266,20.286 C20.198,20.286 20.984,19.714 21.286,18.919 C21.203,18.695 21.146,18.459 21.146,18.209 L20.895,18.209 Z" id="Fill-434" sketch:type="MSShapeGroup"></path>
                <path d="M23.308,19.7774 C22.406,19.7774 21.677,19.0744 21.677,18.2094 L21.146,18.2094 C21.146,18.4594 21.203,18.6954 21.286,18.9194 C21.588,19.7144 22.376,20.2864 23.308,20.2864 C24.272,20.2864 25.079,19.6704 25.354,18.8264 C25.419,18.6304 25.464,18.4274 25.464,18.2094 L24.934,18.2094 L24.934,18.2164 C24.931,19.0784 24.202,19.7774 23.308,19.7774" id="Fill-435" sketch:type="MSShapeGroup"></path>
                <path d="M13.2339,37.0205 L13.2199,37.0205 L13.1989,37.0205 C13.2079,37.0235 13.2119,37.0265 13.2169,37.0265 C13.2229,37.0265 13.2279,37.0235 13.2339,37.0205" id="Fill-436" sketch:type="MSShapeGroup"></path>
                <path d="M13.4712,36.5235 L13.4712,30.8015 L12.9622,30.8015 L12.9622,36.5235 C13.0482,36.5175 13.1312,36.5105 13.2202,36.5105 C13.3032,36.5105 13.3892,36.5175 13.4712,36.5235" id="Fill-437" sketch:type="MSShapeGroup"></path>
                <path d="M13.4712,24.9043 L13.2172,24.6313 L12.9622,24.9043 L12.9622,30.2923 L13.4712,30.2923 L13.4712,24.9043 Z" id="Fill-438" sketch:type="MSShapeGroup"></path>
                <path d="M13.4712,24.9043 L14.9262,26.4703 L15.2972,26.1213 L13.2172,23.8833 L11.1352,26.1213 L11.5062,26.4703 L12.9622,24.9043 L13.2172,24.6313 L13.4712,24.9043 Z" id="Fill-439" sketch:type="MSShapeGroup"></path>
                <path d="M10.3335,39.9063 C10.3335,38.3243 11.6175,37.0333 13.1985,37.0203 L13.2205,37.0203 L13.2335,37.0203 C14.8175,37.0293 16.0995,38.3243 16.0995,39.9063 C16.0995,41.4983 14.8075,42.7923 13.2205,42.7923 C11.6255,42.7923 10.3335,41.4983 10.3335,39.9063 M13.2205,42.8503 C13.3575,42.8503 13.4715,42.9633 13.4715,43.1043 L13.4715,43.2893 C15.2245,43.1563 16.6115,41.6913 16.6115,39.9063 C16.6115,38.1213 15.2245,36.6553 13.4715,36.5233 C13.3895,36.5173 13.3035,36.5113 13.2205,36.5113 C13.1315,36.5113 13.0485,36.5173 12.9625,36.5233 C11.2115,36.6553 9.8245,38.1213 9.8245,39.9063 C9.8245,41.6913 11.2115,43.1563 12.9665,43.2893 L12.9665,43.1043 C12.9665,42.9633 13.0745,42.8503 13.2205,42.8503" id="Fill-440" sketch:type="MSShapeGroup"></path>
                <path d="M13.4712,43.1045 C13.4712,42.9625 13.3582,42.8505 13.2202,42.8505 C13.0752,42.8505 12.9662,42.9625 12.9662,43.1045 L12.9662,43.2895 L12.9662,59.4595 L12.9662,60.2165 C12.9662,60.3575 13.0752,60.4745 13.2202,60.4745 C13.3582,60.4745 13.4712,60.3575 13.4712,60.2165 L13.4712,59.4595 L13.4712,43.2895 L13.4712,43.1045 Z" id="Fill-441" sketch:type="MSShapeGroup"></path>
                <path d="M23.4322,30.8018 C23.5732,30.8018 23.6872,30.6848 23.6872,30.5438 C23.6872,30.4058 23.5732,30.2918 23.4322,30.2918 L13.4712,30.2918 L12.9622,30.2918 L3.0002,30.2918 C2.8602,30.2918 2.7452,30.4058 2.7452,30.5438 C2.7452,30.6848 2.8602,30.8018 3.0002,30.8018 L12.9622,30.8018 L13.4712,30.8018 L23.4322,30.8018 Z" id="Fill-442" sketch:type="MSShapeGroup"></path>
                <path d="M20.895,12.2159 C21.038,12.2159 21.15,12.1019 21.15,11.9609 C21.15,11.8199 21.038,11.7059 20.895,11.7059 L20.433,11.7059 L5.999,11.7059 L5.516,11.7059 C5.376,11.7059 5.261,11.8199 5.261,11.9609 C5.261,12.1019 5.376,12.2159 5.516,12.2159 L5.65,12.2159 L20.786,12.2159 L20.895,12.2159 Z" id="Fill-443" sketch:type="MSShapeGroup"></path>
            </g>
        </g>
    </g>
</svg>