<?xml version="1.0" encoding="UTF-8" standalone="no"?>
<svg width="122px" height="55px" viewBox="0 0 122 55" version="1.1" xmlns="http://www.w3.org/2000/svg" xmlns:xlink="http://www.w3.org/1999/xlink" xmlns:sketch="http://www.bohemiancoding.com/sketch/ns">
    <!-- Generator: Sketch 3.5.2 (25235) - http://www.bohemiancoding.com/sketch -->
    <title>Fill 64</title>
    <desc>Created with Sketch.</desc>
    <defs></defs>
    <g id="Page-1" stroke="none" stroke-width="1" fill="none" fill-rule="evenodd" sketch:type="MSPage">
        <g id="Artboard-2" sketch:type="MSArtboardGroup" transform="translate(-654.000000, -335.000000)" fill="#333333">
            <path d="M759.299291,362.2647 L762.577634,362.2647 C762.706292,361.48267 763.385466,360.8852 764.2037,360.8852 C765.022833,360.8852 765.701289,361.48267 765.829793,362.2647 L774.084478,362.2647 L771.0249,360.3149 C770.8989,360.2359 770.8609,360.0689 770.9419,359.9419 C770.9939,359.8619 771.0809,359.8169 771.1699,359.8169 C771.2179,359.8169 771.0809,359.8169 771.1699,359.8169 C771.2179,359.8169 771.2699,359.8309 771.3139,359.8589 L775.1529,362.3059 C775.2309,362.3569 775.2779,362.4419 775.2779,362.5339 C775.2779,362.6269 775.2309,362.7129 775.1529,362.7619 L771.3139,365.2079 C771.1909,365.2879 771.0219,365.2519 770.9419,365.1249 C770.8609,364.9999 770.8989,364.8329 771.0249,364.7539 L774.082159,362.8047 L765.829669,362.8047 C765.700852,363.586922 765.022569,364.1832 764.2037,364.1832 C763.38573,364.1832 762.706729,363.586922 762.577758,362.8047 L759.244579,362.8047 L756.5164,364.3804 C756.4744,364.4034 756.4274,364.4164 756.3804,364.4164 C756.3344,364.4164 756.2884,364.4034 756.2464,364.3804 C756.1624,364.3324 756.1114,364.2424 756.1114,364.1464 L756.1114,362.8047 L754.407154,362.8047 L741.3995,376.0245 C741.3465,376.0795 741.2755,376.1055 741.2075,376.1055 C741.1385,376.1055 741.0695,376.0795 741.0175,376.0275 C740.9105,375.9225 740.9105,375.7525 741.0135,375.6465 L753.650203,362.8047 L745.379345,362.8047 L732.4132,376.023 C732.3602,376.078 732.2902,376.104 732.2202,376.104 C732.1532,376.104 732.0842,376.079 732.0312,376.027 C731.9252,375.923 731.9242,375.751 732.0282,375.645 L744.622591,362.8047 L736.203806,362.8047 C736.166211,362.823233 736.125499,362.8325 736.0855,362.8325 C736.055304,362.8325 736.025108,362.82729 735.996277,362.81695 L715.321225,384.010908 L720.0153,388.8228 C720.1193,388.9288 720.1183,389.1008 720.0103,389.2048 C719.9593,389.2558 719.8903,389.2818 719.8233,389.2818 C719.7533,389.2818 719.6823,389.2538 719.6293,389.2008 L714.94385,384.397754 L710.2584,389.2008 C710.2054,389.2538 710.1364,389.2818 710.0664,389.2818 C709.9984,389.2818 709.9304,389.2558 709.8784,389.2048 C709.7714,389.1008 709.7684,388.9288 709.8734,388.8228 L714.566975,384.01142 L693.891834,362.817371 C693.863576,362.827433 693.833979,362.8325 693.8042,362.8325 C693.763007,362.8325 693.72217,362.823233 693.684882,362.8047 L685.265645,362.8047 L697.861,375.645 C697.964,375.751 697.963,375.923 697.857,376.027 C697.805,376.079 697.737,376.104 697.668,376.104 C697.598,376.104 697.527,376.078 697.476,376.023 L684.508863,362.8047 L676.237497,362.8047 L688.8742,375.6465 C688.9792,375.7525 688.9772,375.9225 688.8712,376.0275 C688.8182,376.0795 688.7492,376.1055 688.6822,376.1055 C688.6122,376.1055 688.5422,376.0795 688.4892,376.0245 L675.481546,362.8047 L673.7692,362.8047 L673.7692,364.1456 C673.7692,364.2426 673.7182,364.3316 673.6342,364.3806 C673.5932,364.4036 673.5462,364.4156 673.5002,364.4156 C673.4532,364.4156 673.4062,364.4036 673.3642,364.3806 L670.637351,362.8047 L667.302642,362.8047 C667.173671,363.586922 666.49467,364.1832 665.6767,364.1832 C664.85873,364.1832 664.179729,363.586922 664.050758,362.8047 L655.806698,362.8047 L658.8648,364.753 C658.9898,364.833 659.0278,365 658.9478,365.125 C658.8948,365.207 658.8088,365.25 658.7198,365.25 C658.6698,365.25 658.8088,365.25 658.7198,365.25 C658.6698,365.25 658.6198,365.238 658.5748,365.208 L654.7358,362.762 C654.6578,362.712 654.6108,362.627 654.6108,362.534 C654.6108,362.442 654.6578,362.357 654.7358,362.306 L658.5748,359.859 C658.6998,359.781 658.8668,359.817 658.9478,359.942 C659.0278,360.068 658.9898,360.235 658.8648,360.315 L655.8045,362.2647 L664.050634,362.2647 C664.179292,361.48267 664.858466,360.8852 665.6767,360.8852 C666.494934,360.8852 667.174108,361.48267 667.302766,362.2647 L670.581655,362.2647 L673.3642,360.6576 C673.4482,360.6086 673.5512,360.6086 673.6342,360.6576 C673.7182,360.7056 673.7692,360.7946 673.7692,360.8906 L673.7692,362.2647 L675.335465,362.2647 C675.347895,362.238489 675.364767,362.213848 675.3861,362.1919 L688.4481,348.9199 C688.5531,348.8129 688.7231,348.8119 688.8291,348.9159 C688.9351,349.0209 688.9361,349.1919 688.8321,349.2979 L676.074347,362.2647 L684.349555,362.2647 C684.356523,362.25536 684.364172,362.246371 684.3725,362.2378 L697.4345,348.9208 C697.5385,348.8148 697.7105,348.8128 697.8165,348.9178 C697.9225,349.0208 697.9235,349.1928 697.8195,349.2988 L685.101877,362.2647 L693.601672,362.2647 C693.614723,362.237225 693.632606,362.211494 693.6553,362.1888 C693.713698,362.132565 693.790224,362.10703 693.864799,362.112511 L714.567553,340.890136 L709.9155,336.1215 C709.8105,336.0145 709.8125,335.8445 709.9195,335.7395 C710.0255,335.6365 710.1965,335.6365 710.3005,335.7445 L714.944029,340.504211 L719.5872,335.7445 C719.6922,335.6365 719.8642,335.6365 719.9702,335.7395 C720.0762,335.8445 720.0792,336.0145 719.9742,336.1215 L715.321251,340.890871 L736.024859,362.112488 C736.099265,362.107101 736.175163,362.132643 736.2324,362.1888 C736.25531,362.211494 736.273409,362.237225 736.286646,362.2647 L744.786423,362.2647 L732.0688,349.2988 C731.9648,349.1928 731.9678,349.0208 732.0738,348.9178 C732.1798,348.8128 732.3498,348.8148 732.4538,348.9208 L745.5158,362.2378 C745.52429,362.246371 745.532081,362.25536 745.539172,362.2647 L753.814353,362.2647 L741.0566,349.2979 C740.9516,349.1919 740.9526,349.0209 741.0586,348.9159 C741.1646,348.8119 741.3356,348.8129 741.4416,348.9199 L754.5016,362.1919 C754.523138,362.213848 754.540173,362.238489 754.552733,362.2647 L756.1114,362.2647 L756.1114,360.8914 C756.1114,360.7944 756.1624,360.7054 756.2464,360.6574 C756.3294,360.6084 756.4324,360.6084 756.5164,360.6574 L759.299291,362.2647 Z M718.082182,359.237255 C718.076593,359.274489 718.070686,359.311484 718.0645,359.3482 C718.5665,359.5562 719.0445,359.7952 719.4895,360.0542 C719.491499,360.008233 719.494995,359.962267 719.497993,359.916051 C719.494905,359.961833 719.491401,360.007866 719.4894,360.0544 C719.6654,360.1574 719.8374,360.2624 720.0024,360.3684 C720.015342,360.259238 720.026701,360.149126 720.03416,360.037887 C720.026977,360.149092 720.015938,360.259171 720.003,360.3683 C721.34,361.2303 722.308,362.1773 722.677,362.5623 C721.927,363.3453 718.72,366.4423 714.94,366.4423 C711.165,366.4423 707.954,363.3453 707.201,362.5623 C707.571,362.1773 708.541,361.2283 709.878,360.3683 C709.865554,360.26718 709.854991,360.165522 709.847705,360.063186 C709.854998,360.165487 709.865558,360.267112 709.878,360.3682 C709.949434,360.321443 710.022179,360.275437 710.095993,360.229936 C710.022179,360.275649 709.949434,360.321843 709.878,360.3686 C710.181,362.8166 712.334,364.7226 714.94,364.7226 C717.546,364.7226 719.7,362.8166 720.002,360.3686 C719.837,360.2626 719.666,360.1576 719.489,360.0546 C719.339,362.3546 717.359,364.1836 714.94,364.1836 C712.521,364.1836 710.541,362.3526 710.391,360.0526 C710.390994,360.05267 710.390997,360.052735 710.391,360.0528 C710.835903,359.794856 711.312793,359.554904 711.815673,359.347935 C711.815715,359.34819 711.815757,359.348445 711.8158,359.3487 C711.81591,359.348655 711.816021,359.34861 711.816131,359.348565 C712.139345,361.237182 713.416206,362.6528 714.94,362.6528 C716.462784,362.6528 717.739638,361.237201 718.063862,359.348602 C718.063942,359.348635 718.064021,359.348667 718.0641,359.3487 C718.070492,359.311749 718.076524,359.274598 718.082182,359.237255 Z M718.102625,359.088105 C718.115185,358.986559 718.125067,358.883667 718.1315,358.7802 C718.6075,358.9662 719.0585,359.1842 719.4845,359.4172 C719.484507,359.417288 719.484513,359.417377 719.48452,359.417465 C719.676477,359.521446 719.860438,359.630423 720.0404,359.7414 C720.0404,359.741449 720.0404,359.741497 720.0404,359.741546 C721.932174,360.902495 723.163006,362.284307 723.25,362.3843 L723.405,362.5623 L723.25,362.7403 C723.099,362.9123 719.488,366.9803 714.94,366.9803 C710.393,366.9803 706.782,362.9123 706.63,362.7403 L706.474,362.5623 L706.63,362.3843 C706.718,362.2843 707.949,360.9023 709.84,359.7413 C709.84,359.75428 709.837009,359.765267 709.837,359.77625 C710.379509,359.655389 710.377008,359.71557 710.377,359.7765 C710.377,359.7764 710.377,359.7763 710.377,359.7762 C710.377,359.7152 710.3795,359.65495 710.383125,359.5952 C710.386755,359.535737 710.391502,359.476269 710.396,359.4168 C710.821944,359.184831 711.272881,358.965858 711.748812,358.779874 C711.748808,358.779816 711.748804,358.779758 711.7488,358.7797 C711.9218,358.7127 712.1018,358.6537 712.2808,358.5957 C712.283198,358.652353 712.286045,358.708737 712.289557,358.764798 C712.286149,358.708924 712.283395,358.652691 712.281,358.5961 C713.114,358.3211 714.005,358.1421 714.94,358.1421 C715.875,358.1421 716.766,358.3211 717.599,358.5961 C717.591,358.7851 717.579,358.9721 717.553,359.1511 C716.732,358.8671 715.853,358.6831 714.94,358.6831 C714.027,358.6831 713.148,358.8661 712.328,359.1511 C712.324877,359.130165 712.321955,359.109177 712.319216,359.088135 C712.321909,359.109389 712.324766,359.130579 712.3278,359.1517 C712.258073,359.176286 712.188833,359.201846 712.11995,359.22812 C712.188932,359.201924 712.258304,359.176375 712.328,359.1518 C712.576,360.8388 713.653,362.1128 714.94,362.1128 C716.228,362.1128 717.304,360.8398 717.553,359.1518 C717.594972,359.166599 717.636767,359.181752 717.6784,359.197186 C717.636655,359.181708 717.594907,359.166527 717.5531,359.1517 C717.5791,358.9727 717.5911,358.7847 717.5991,358.5957 C717.7791,358.6537 717.9581,358.7127 718.1311,358.7797 C718.124667,358.883703 718.115072,358.986556 718.102625,359.088105 Z M711.787241,359.159402 C711.772118,359.048959 711.76,358.937017 711.751901,358.823371 C711.760416,358.93692 711.772331,359.048796 711.787241,359.159402 Z M710.382494,359.915078 C710.385491,359.960921 710.388989,360.006638 710.390992,360.052605 C710.388971,360.006316 710.385487,359.960757 710.3825,359.915075 Z M714.94435,383.624574 L694.634242,362.8047 L699.6626,362.8047 C699.8106,362.8047 699.9326,362.6827 699.9326,362.5337 C699.9326,362.3847 699.8106,362.2647 699.6626,362.2647 L694.469166,362.2647 L714.944753,341.276789 L735.419552,362.2647 L730.2279,362.2647 C730.0779,362.2647 729.9579,362.3847 729.9579,362.5337 C729.9579,362.6827 730.0779,362.8047 730.2279,362.8047 L735.254458,362.8047 L714.94435,383.624574 Z M714.94,357.4102 C714.791,357.4102 714.67,357.2902 714.67,357.1402 L714.67,353.2252 C714.67,353.0772 714.791,352.9542 714.94,352.9542 C715.09,352.9542 715.21,353.0772 715.21,353.2252 L715.21,357.1402 C715.21,357.2902 715.09,357.4102 714.94,357.4102 Z M714.94,373.6773 C714.791,373.6773 714.67,373.5563 714.67,373.4063 L714.67,367.8723 C714.67,367.7233 714.791,367.6023 714.94,367.6023 C715.09,367.6023 715.21,367.7233 715.21,367.8723 L715.21,373.4063 C715.21,373.5563 715.09,373.6773 714.94,373.6773 Z" id="Fill-64" sketch:type="MSShapeGroup"></path>
        </g>
    </g>
</svg>