<?xml version="1.0" encoding="UTF-8" standalone="no"?>
<svg width="54px" height="54px" viewBox="0 0 54 54" version="1.1" xmlns="http://www.w3.org/2000/svg" xmlns:xlink="http://www.w3.org/1999/xlink" xmlns:sketch="http://www.bohemiancoding.com/sketch/ns">
    <!-- Generator: Sketch 3.5.2 (25235) - http://www.bohemiancoding.com/sketch -->
    <title>Fill 37</title>
    <desc>Created with Sketch.</desc>
    <defs></defs>
    <g id="Page-1" stroke="none" stroke-width="1" fill="none" fill-rule="evenodd" sketch:type="MSPage">
        <g id="Artboard-2" sketch:type="MSArtboardGroup" transform="translate(-1126.000000, -705.000000)" fill="#333333">
            <path d="M1178.64,757.551 L1161.779,757.551 L1161.779,738.132 L1178.64,738.132 L1178.64,757.551 Z M1144.386,738.132 L1161.226,738.132 L1161.226,757.551 L1144.386,757.551 L1144.386,738.132 Z M1126.996,727.547 L1161.226,727.547 L1161.226,737.579 L1144.11,737.579 C1143.958,737.579 1143.833,737.701 1143.833,737.854 L1143.833,757.551 L1126.996,757.551 L1126.996,727.547 Z M1140.203,717.986 L1126.996,717.986 L1126.996,705.867 L1140.203,705.867 L1140.203,717.986 Z M1161.226,717.986 L1140.755,717.986 L1140.755,705.867 L1161.226,705.867 L1161.226,717.986 Z M1126.996,718.539 L1140.341,718.539 C1140.382,718.561 1140.427,718.579 1140.479,718.579 C1140.53,718.579 1140.576,718.561 1140.616,718.539 L1161.226,718.539 L1161.226,726.994 L1126.996,726.994 L1126.996,718.539 Z M1178.64,705.867 L1178.64,737.579 L1161.779,737.579 L1161.779,727.272 L1161.779,718.261 L1161.779,705.867 L1178.64,705.867 Z M1178.918,705.312 L1161.503,705.312 L1126.719,705.312 C1126.567,705.312 1126.443,705.436 1126.443,705.589 L1126.443,718.261 L1126.443,727.272 L1126.443,757.825 C1126.443,757.979 1126.567,758.104 1126.719,758.104 L1144.11,758.104 L1161.503,758.104 L1178.918,758.104 C1179.068,758.104 1179.193,757.979 1179.193,757.825 L1179.193,737.854 L1179.193,705.589 C1179.193,705.436 1179.068,705.312 1178.918,705.312 L1178.918,705.312 Z" id="Fill-37" sketch:type="MSShapeGroup"></path>
        </g>
    </g>
</svg>