<?xml version="1.0" encoding="UTF-8" standalone="no"?>
<svg width="66px" height="58px" viewBox="0 0 66 58" version="1.1" xmlns="http://www.w3.org/2000/svg" xmlns:xlink="http://www.w3.org/1999/xlink" xmlns:sketch="http://www.bohemiancoding.com/sketch/ns">
    <!-- Generator: Sketch 3.5.2 (25235) - http://www.bohemiancoding.com/sketch -->
    <title>Group 6</title>
    <desc>Created with Sketch.</desc>
    <defs></defs>
    <g id="Page-1" stroke="none" stroke-width="1" fill="none" fill-rule="evenodd" sketch:type="MSPage">
        <g id="Artboard-2" sketch:type="MSArtboardGroup" transform="translate(-1120.000000, -786.000000)" fill="#333333">
            <g id="Group-6" sketch:type="MSLayerGroup" transform="translate(1120.000000, 786.000000)">
                <path d="M46.6304,25.6895 L28.8804,56.4555 L29.5174,56.4555 L46.9484,26.2425 L46.6304,25.6895 Z" id="Fill-13" sketch:type="MSShapeGroup"></path>
                <path d="M44.2583,56.4551 L44.8953,56.4551 L54.6363,39.5691 L54.3183,39.0141 L44.2583,56.4551 Z" id="Fill-14" sketch:type="MSShapeGroup"></path>
                <path d="M1.2563,56.4551 L32.8193,1.7481 L46.6303,25.6891 L46.9483,25.1331 L33.0603,1.0551 C32.9603,0.8861 32.6793,0.8861 32.5793,1.0551 L0.5373,56.5931 C0.4873,56.6771 0.4873,56.7831 0.5373,56.8671 C0.5883,56.9541 0.6783,57.0081 0.7783,57.0081 L28.5623,57.0081 L28.8803,56.4551 L1.2563,56.4551 Z" id="Fill-15" sketch:type="MSShapeGroup"></path>
                <path d="M29.5171,56.4551 L29.1991,57.0081 L43.9371,57.0081 L44.2581,56.4551 L29.5171,56.4551 Z" id="Fill-16" sketch:type="MSShapeGroup"></path>
                <path d="M65.0981,56.5928 L54.9571,39.0138 L54.6361,39.5698 L64.3801,56.4548 L44.8951,56.4548 L44.5771,57.0078 L64.8581,57.0078 C64.9541,57.0078 65.0481,56.9538 65.0981,56.8668 C65.1481,56.7828 65.1481,56.6768 65.0981,56.5928" id="Fill-17" sketch:type="MSShapeGroup"></path>
                <path d="M54.3179,39.0137 L54.6359,38.4607 L47.2699,25.6897 L46.9489,26.2427 L54.3179,39.0137 Z" id="Fill-18" sketch:type="MSShapeGroup"></path>
                <path d="M46.9488,26.2422 L47.2698,25.6892 L46.9488,25.1332 L46.6308,25.6892 L46.9488,26.2422 Z" id="Fill-19" sketch:type="MSShapeGroup"></path>
                <path d="M28.8804,56.4551 L28.5624,57.0081 L29.1984,57.0081 L29.5174,56.4551 L28.8804,56.4551 Z" id="Fill-20" sketch:type="MSShapeGroup"></path>
                <path d="M54.6363,39.5694 L54.9573,39.0134 L54.6363,38.4614 L54.3183,39.0134 L54.6363,39.5694 Z" id="Fill-21" sketch:type="MSShapeGroup"></path>
                <path d="M44.2583,56.4551 L43.9373,57.0081 L44.5763,57.0081 L44.8953,56.4551 L44.2583,56.4551 Z" id="Fill-22" sketch:type="MSShapeGroup"></path>
            </g>
        </g>
    </g>
</svg>