<?xml version="1.0" encoding="UTF-8" standalone="no"?>
<svg width="20px" height="55px" viewBox="0 0 20 55" version="1.1" xmlns="http://www.w3.org/2000/svg" xmlns:xlink="http://www.w3.org/1999/xlink" xmlns:sketch="http://www.bohemiancoding.com/sketch/ns">
    <!-- Generator: Sketch 3.5.2 (25235) - http://www.bohemiancoding.com/sketch -->
    <title>Group 22</title>
    <desc>Created with Sketch.</desc>
    <defs></defs>
    <g id="Page-1" stroke="none" stroke-width="1" fill="none" fill-rule="evenodd" sketch:type="MSPage">
        <g id="Artboard-2" sketch:type="MSArtboardGroup" transform="translate(-655.000000, -868.000000)" fill="#333333">
            <g id="Group-22" sketch:type="MSLayerGroup" transform="translate(655.000000, 868.000000)">
                <path d="M19.4214,54.7442 C19.2334,54.7442 19.0814,54.5952 19.0814,54.4072 C19.0814,49.3662 14.9854,45.2662 9.9474,45.2662 C4.9124,45.2662 0.8144,49.3662 0.8144,54.4072 C0.8144,54.5952 0.6654,54.7442 0.4754,54.7442 C0.2884,54.7442 0.1364,54.5952 0.1364,54.4072 C0.1364,48.9912 4.5384,44.5892 9.9474,44.5892 C15.3584,44.5892 19.7584,48.9912 19.7584,54.4072 C19.7584,54.5952 19.6084,54.7442 19.4214,54.7442" id="Fill-294" sketch:type="MSShapeGroup"></path>
                <path d="M9.9478,10.4444 C4.5378,10.4444 0.1368,6.0374 0.1368,0.6284 C0.1368,0.4384 0.2878,0.2924 0.4758,0.2924 C0.6648,0.2924 0.8138,0.4384 0.8138,0.6284 C0.8138,5.6674 4.9118,9.7664 9.9478,9.7664 C14.9848,9.7664 19.0808,5.6674 19.0808,0.6284 C19.0808,0.4384 19.2338,0.2924 19.4218,0.2924 C19.6088,0.2924 19.7588,0.4384 19.7588,0.6284 C19.7588,6.0374 15.3588,10.4444 9.9478,10.4444" id="Fill-295" sketch:type="MSShapeGroup"></path>
                <path d="M9.9478,45.2666 C9.7628,45.2666 9.6098,45.1116 9.6098,44.9286 L9.6098,10.1076 C9.6098,9.9166 9.7628,9.7666 9.9478,9.7666 C10.1348,9.7666 10.2848,9.9166 10.2848,10.1076 L10.2848,44.9286 C10.2848,45.1116 10.1348,45.2666 9.9478,45.2666" id="Fill-296" sketch:type="MSShapeGroup"></path>
                <path d="M17.939,22.1153 L1.958,22.1153 C1.771,22.1153 1.619,21.9623 1.619,21.7783 C1.619,21.5923 1.771,21.4373 1.958,21.4373 L17.939,21.4373 C18.125,21.4373 18.276,21.5923 18.276,21.7783 C18.276,21.9623 18.125,22.1153 17.939,22.1153" id="Fill-297" sketch:type="MSShapeGroup"></path>
                <path d="M5.2857,36.2735 L14.6097,36.2735 L9.9477,28.1935 L5.2857,36.2735 Z M15.2097,36.9525 L15.1977,36.9525 L4.7007,36.9525 C4.5807,36.9525 4.4687,36.8875 4.4097,36.7805 C4.3467,36.6765 4.3467,36.5465 4.4097,36.4425 L9.6557,27.3465 C9.7767,27.1395 10.1197,27.1395 10.2427,27.3465 L15.4487,36.3695 C15.5097,36.4335 15.5467,36.5195 15.5467,36.6115 C15.5467,36.7985 15.3947,36.9525 15.2097,36.9525 L15.2097,36.9525 Z" id="Fill-298" sketch:type="MSShapeGroup"></path>
            </g>
        </g>
    </g>
</svg>