<?xml version="1.0" encoding="UTF-8" standalone="no"?>
<svg width="64px" height="65px" viewBox="0 0 64 65" version="1.1" xmlns="http://www.w3.org/2000/svg" xmlns:xlink="http://www.w3.org/1999/xlink" xmlns:sketch="http://www.bohemiancoding.com/sketch/ns">
    <!-- Generator: Sketch 3.5.2 (25235) - http://www.bohemiancoding.com/sketch -->
    <title>Group 30</title>
    <desc>Created with Sketch.</desc>
    <defs></defs>
    <g id="Page-1" stroke="none" stroke-width="1" fill="none" fill-rule="evenodd" sketch:type="MSPage">
        <g id="Artboard-2" sketch:type="MSArtboardGroup" transform="translate(-1016.000000, -523.000000)" fill="#333333">
            <g id="Group-30" sketch:type="MSLayerGroup" transform="translate(1016.000000, 523.000000)">
                <path d="M43.8267,58.9727 C43.7987,58.9277 43.7747,58.8857 43.7417,58.8277 L43.7407,58.8277 C43.7687,58.8777 43.7987,58.9247 43.8267,58.9727" id="Fill-376" sketch:type="MSShapeGroup"></path>
                <path d="" id="Fill-377" sketch:type="MSShapeGroup"></path>
                <path d="M43.9077,59.1148 C43.9447,59.1768 43.9727,59.2278 43.9837,59.2458 C43.9727,59.2278 43.9497,59.1898 43.9077,59.1148" id="Fill-378" sketch:type="MSShapeGroup"></path>
                <path d="M43.8267,58.9727 C43.8587,59.0287 43.8857,59.0757 43.9077,59.1147 C43.8827,59.0717 43.8577,59.0257 43.8267,58.9727" id="Fill-379" sketch:type="MSShapeGroup"></path>
                <g id="Group-14" sketch:type="MSShapeGroup">
                    <path d="M15.8423,8.9571 L15.8443,8.9571 C15.8443,8.9571 15.8423,8.9571 15.8423,8.9541 L15.8423,8.9571 Z" id="Fill-361"></path>
                    <path d="M44.3941,6.4912 C44.3941,6.4912 44.3931,6.4922 44.3931,6.4942 C44.3941,6.4912 44.3981,6.4912 44.3981,6.4872 C44.3981,6.4912 44.3981,6.4912 44.3941,6.4912" id="Fill-362"></path>
                    <path d="M40.9068,32.4688 C40.0468,33.1758 37.5638,35.0318 34.4558,35.6958 C35.6828,35.0318 36.5098,33.8358 36.5098,32.4688 C36.5098,31.1028 35.6848,29.9078 34.4598,29.2438 C37.5618,29.9078 40.0468,31.7628 40.9068,32.4688 M28.7518,32.4688 C28.7518,30.8028 30.3218,29.4458 32.2518,29.4458 C34.1818,29.4458 35.7528,30.8028 35.7528,32.4688 C35.7528,34.1358 34.1818,35.4908 32.2518,35.4908 C30.3218,35.4908 28.7518,34.1358 28.7518,32.4688 M23.5998,32.4688 C24.4568,31.7608 26.9398,29.9058 30.0468,29.2418 C28.8198,29.9058 27.9968,31.1028 27.9968,32.4688 C27.9968,33.8358 28.8198,35.0298 30.0468,35.6938 C26.9448,35.0298 24.4588,33.1738 23.5998,32.4688 M22.7608,32.1908 C22.6858,32.2638 22.6418,32.3628 22.6418,32.4688 C22.6418,32.5748 22.6858,32.6748 22.7608,32.7468 C22.9368,32.9058 27.0658,36.6938 32.2518,36.6938 C37.4408,36.6938 41.5698,32.9058 41.7428,32.7468 C41.8198,32.6748 41.8628,32.5748 41.8628,32.4688 C41.8628,32.3628 41.8198,32.2638 41.7428,32.1908 C41.5698,32.0318 37.4408,28.2458 32.2518,28.2458 C27.0658,28.2458 22.9368,32.0318 22.7608,32.1908" id="Fill-363"></path>
                    <path d="M32.2515,33.2451 C31.7345,33.2451 31.3145,32.8951 31.3145,32.4691 C31.3145,32.0411 31.7345,31.6931 32.2515,31.6931 C32.7685,31.6931 33.1905,32.0411 33.1905,32.4691 C33.1905,32.8951 32.7685,33.2451 32.2515,33.2451 M32.2515,30.9351 C31.3185,30.9351 30.5595,31.6241 30.5595,32.4691 C30.5595,33.3141 31.3185,34.0021 32.2515,34.0021 C33.1875,34.0021 33.9475,33.3141 33.9475,32.4691 C33.9475,31.6241 33.1875,30.9351 32.2515,30.9351" id="Fill-364"></path>
                    <path d="M20.7632,6.1104 C20.6302,5.8824 20.5632,5.7634 20.5342,5.7104 C20.5732,5.7804 20.6662,5.9434 20.7632,6.1104" id="Fill-365"></path>
                    <path d="M5.9146,43.9678 C6.0466,43.8898 6.1746,43.8168 6.2606,43.7668 C6.1906,43.8088 6.0856,43.8678 5.9146,43.9678" id="Fill-366"></path>
                    <path d="M6.2608,43.7666 C6.3688,43.7046 6.3978,43.6866 6.2608,43.7666" id="Fill-367"></path>
                    <path d="M5.5713,44.166 C5.4603,44.227 5.4333,44.246 5.5713,44.166" id="Fill-368"></path>
                    <path d="M5.9146,43.9678 C5.7836,44.0428 5.6556,44.1158 5.5716,44.1658 C5.6416,44.1268 5.7456,44.0628 5.9146,43.9678" id="Fill-369"></path>
                    <path d="M8.7578,48.8921 L8.7578,48.8901 C8.7578,48.8921 8.7548,48.8921 8.7548,48.8921 L8.7578,48.8921 Z" id="Fill-370"></path>
                    <path d="M15.354,55.3155 C15.398,55.2415 15.421,55.2015 15.432,55.1825 C15.419,55.2065 15.392,55.2515 15.354,55.3155" id="Fill-371"></path>
                    <path d="M15.4322,55.1826 C15.4402,55.1666 15.4402,55.1666 15.4322,55.1826" id="Fill-372"></path>
                    <path d="M15.271,55.459 C15.302,55.406 15.33,55.357 15.354,55.315 C15.333,55.354 15.304,55.401 15.271,55.459" id="Fill-373"></path>
                    <path d="M15.189,55.6026 L15.189,55.6016 C15.223,55.5446 15.247,55.5046 15.271,55.4586 C15.244,55.5056 15.217,55.5556 15.189,55.6026" id="Fill-374"></path>
                    <path d="M20.1089,58.4483 C20.1109,58.4483 20.1109,58.4483 20.1109,58.4453 C20.1089,58.4483 20.1089,58.4483 20.1079,58.4493 C20.1089,58.4493 20.1089,58.4483 20.1089,58.4483" id="Fill-375"></path>
                    <path d="M55.5044,49.6231 C55.4614,49.6011 55.4214,49.5781 55.3694,49.5461 C54.5114,49.0481 55.0934,49.3871 55.5044,49.6231" id="Fill-380"></path>
                    <path d="M55.5044,49.6231 C55.6824,49.7261 55.7714,49.7791 55.8004,49.7941 C55.7604,49.7711 55.6434,49.7031 55.5044,49.6231" id="Fill-381"></path>
                    <path d="M60.8052,35.6909 C59.0312,35.6929 62.5792,35.6909 60.8052,35.6909" id="Fill-382"></path>
                    <path d="M60.8052,34.9351 C59.4462,34.9351 58.3422,33.8281 58.3422,32.4691 C58.3422,31.1101 59.4462,30.0031 60.8032,30.0031 L60.8052,30.0031 L60.8082,30.0031 C62.1652,30.0031 63.2682,31.1101 63.2682,32.4691 C63.2682,33.8281 62.1652,34.9351 60.8052,34.9351 M60.8022,30.0031 C60.4632,30.0031 60.1312,30.0031 60.8022,30.0031 M32.2512,46.5991 C24.4662,46.5991 18.1322,40.2621 18.1322,32.4691 C18.1322,24.6781 24.4662,18.3401 32.2512,18.3401 C40.0372,18.3401 46.3712,24.6781 46.3712,32.4691 C46.3712,40.2621 40.0372,46.5991 32.2512,46.5991 M34.7162,61.0421 C34.7162,62.4021 33.6112,63.5081 32.2532,63.5081 C30.8942,63.5081 29.7892,62.4021 29.7892,61.0421 C29.7892,59.6841 30.8942,58.5761 32.2532,58.5761 C33.6112,58.5761 34.7162,59.6841 34.7162,61.0421 M29.7872,3.8951 C29.7872,2.5361 30.8942,1.4301 32.2512,1.4301 C33.6112,1.4301 34.7162,2.5361 34.7162,3.8951 C34.7162,5.2541 33.6112,6.3621 32.2512,6.3621 C30.8942,6.3621 29.7872,5.2541 29.7872,3.8951 M54.8472,45.5251 C55.5262,44.3471 57.0362,43.9411 58.2112,44.6211 C59.3882,45.3001 59.7922,46.8121 59.1142,47.9891 C58.4352,49.1671 56.9252,49.5701 55.7472,48.8921 C54.5732,48.2111 54.1662,46.7011 54.8472,45.5251 M45.2982,55.0801 C46.4732,54.4031 47.9812,54.8051 48.6602,55.9791 C48.6602,55.9821 48.6602,55.9821 48.6622,55.9821 C48.6992,56.0461 48.7282,56.0951 48.7512,56.1381 C48.7262,56.0881 48.6942,56.0391 48.6622,55.9851 C49.3412,57.1611 48.9372,58.6701 47.7622,59.3501 C46.5852,60.0301 45.0752,59.6251 44.3982,58.4481 C43.7152,57.2721 44.1212,55.7601 45.2982,55.0801 M20.1112,58.4451 C20.2812,58.1531 20.4482,57.8611 20.1092,58.4481 C19.7702,59.0351 19.9392,58.7451 20.1082,58.4501 C19.4292,59.6251 17.9212,60.0301 16.7452,59.3491 C15.5662,58.6701 15.1632,57.1611 15.8422,55.9821 C16.5212,54.8061 18.0312,54.4001 19.2072,55.0801 C20.3842,55.7601 20.7872,57.2681 20.1112,58.4451 M8.7582,48.8901 C9.0512,48.7221 9.3442,48.5511 8.7582,48.8921 C8.1682,49.2311 8.4592,49.0611 8.7542,48.8921 C7.5782,49.5701 6.0702,49.1671 5.3912,47.9891 C4.7112,46.8121 5.1152,45.3001 6.2932,44.6211 C7.4702,43.9411 8.9792,44.3471 9.6582,45.5251 C10.3372,46.7011 9.9342,48.2111 8.7582,48.8901 M3.7002,34.9351 C2.3412,34.9351 1.2362,33.8291 1.2362,32.4691 C1.2362,31.1101 2.3412,30.0031 3.7002,30.0031 C5.0572,30.0031 6.1642,31.1101 6.1642,32.4691 C6.1642,33.8291 5.0572,34.9351 3.7002,34.9351 M9.6582,19.4151 C8.9792,20.5941 7.4702,20.9971 6.2932,20.3191 C5.1152,19.6381 4.7112,18.1271 5.3912,16.9521 C6.0702,15.7711 7.5782,15.3681 8.7582,16.0471 C9.9342,16.7271 10.3372,18.2371 9.6582,19.4151 M19.2072,9.8581 C18.0342,10.5391 16.5252,10.1351 15.8442,8.9571 C15.9282,9.1051 16.0112,9.2511 16.0352,9.2881 C16.0192,9.2651 15.9642,9.1691 15.8422,8.9571 C15.5042,8.3691 15.6712,8.6591 15.8422,8.9541 C15.1632,7.7761 15.5702,6.2681 16.7452,5.5881 C17.9212,4.9081 19.4302,5.3151 20.1092,6.4911 C20.7872,7.6691 20.3842,9.1791 19.2072,9.8581 M44.3932,6.4951 C44.2262,6.7881 44.0562,7.0771 44.3942,6.4911 C44.7332,5.9041 44.5662,6.1941 44.3982,6.4871 C45.0782,5.3141 46.5852,4.9081 47.7602,5.5881 C48.9372,6.2681 49.3412,7.7781 48.6602,8.9571 C47.9822,10.1321 46.4732,10.5391 45.2962,9.8581 C44.1212,9.1791 43.7152,7.6701 44.3932,6.4951 M55.7472,16.0471 C55.4532,16.2181 55.1602,16.3861 55.7472,16.0471 C56.3352,15.7071 56.0432,15.8791 55.7482,16.0461 C56.9252,15.3681 58.4352,15.7711 59.1142,16.9501 C59.7922,18.1271 59.3882,19.6381 58.2132,20.3171 C57.0362,20.9971 55.5262,20.5941 54.8472,19.4131 C54.1662,18.2371 54.5732,16.7281 55.7472,16.0471 M64.0252,32.4691 C64.0252,30.6921 62.5792,29.2461 60.8052,29.2461 C59.1612,29.2491 57.8152,30.4951 57.6242,32.0931 L47.1082,32.0931 C47.0472,29.6611 46.4132,27.3681 45.3172,25.3571 L54.4142,20.1001 C55.3762,21.3891 57.1652,21.7961 58.5872,20.9731 C58.2052,21.1951 57.8222,21.4151 58.5902,20.9731 C58.5902,20.9721 58.5902,20.9701 58.5922,20.9701 C60.1272,20.0821 60.6562,18.1071 59.7672,16.5711 C58.8792,15.0341 56.9072,14.5041 55.3702,15.3921 C53.9472,16.2181 53.4022,17.9701 54.0352,19.4471 L44.9232,24.7121 C43.6942,22.7071 42.0062,21.0181 40.0032,19.7881 L45.2652,10.6691 C46.7422,11.3031 48.4922,10.7591 49.3152,9.3371 C49.3152,9.3371 49.3152,9.3351 49.3172,9.3331 C49.7582,8.5671 49.5372,8.9491 49.3172,9.3331 C50.2032,7.7951 49.6732,5.8211 48.1382,4.9341 C46.6012,4.0441 44.6282,4.5751 43.7412,6.1131 C42.9182,7.5381 43.3242,9.3291 44.6122,10.2921 L39.3592,19.3941 C37.3502,18.2981 35.0592,17.6621 32.6312,17.6021 L32.6312,7.0791 C34.2262,6.8881 35.4732,5.5431 35.4732,3.8951 C35.4732,2.1191 34.0282,0.6741 32.2512,0.6741 C30.4762,0.6741 29.0332,2.1191 29.0332,3.8951 C29.0332,5.5431 30.2782,6.8881 31.8742,7.0791 L31.8742,17.6021 C29.4452,17.6621 27.1552,18.2981 25.1452,19.3941 L19.8942,10.2921 C21.1802,9.3291 21.5852,7.5401 20.7642,6.1171 C20.9882,6.5001 21.2072,6.8781 20.7632,6.1131 L20.7632,6.1101 C19.8752,4.5751 17.9042,4.0471 16.3672,4.9341 C14.8292,5.8211 14.3012,7.7951 15.1872,9.3331 C16.0092,10.7591 17.7622,11.3051 19.2402,10.6691 L24.5002,19.7881 C22.4962,21.0181 20.8102,22.7071 19.5802,24.7121 L10.4682,19.4471 C11.1012,17.9701 10.5582,16.2181 9.1352,15.3931 C9.2382,15.4531 9.3382,15.5091 9.4182,15.5591 C9.3502,15.5171 9.2592,15.4651 9.1342,15.3921 C8.3642,14.9501 8.7502,15.1701 9.1342,15.3921 C7.5972,14.5041 5.6242,15.0341 4.7362,16.5711 C3.8492,18.1101 4.3792,20.0831 5.9142,20.9731 C7.3392,21.7961 9.1292,21.3891 10.0902,20.1021 L19.1872,25.3571 C18.0912,27.3681 17.4562,29.6611 17.3952,32.0931 L6.8792,32.0931 C6.6902,30.4951 5.3452,29.2491 3.7002,29.2491 C1.9242,29.2491 0.4792,30.6931 0.4792,32.4691 C0.4792,34.2461 1.9242,35.6921 3.7002,35.6921 C5.3452,35.6921 6.6902,34.4441 6.8792,32.8491 L17.3952,32.8491 C17.4562,35.2801 18.0912,37.5731 19.1882,39.5811 L10.0902,44.8381 C9.1292,43.5491 7.3412,43.1431 5.9142,43.9681 C4.3792,44.8551 3.8492,46.8311 4.7362,48.3671 C5.6242,49.9051 7.5972,50.4331 9.1342,49.5461 C10.5582,48.7231 11.1012,46.9711 10.4682,45.4951 L19.5802,40.2281 C20.8132,42.2331 22.4962,43.9191 24.5002,45.1501 L19.2402,54.2691 C17.7652,53.6361 16.0112,54.1781 15.1892,55.6011 C15.1892,55.6031 15.1892,55.6031 15.1872,55.6041 C14.7452,56.3711 14.9652,55.9901 15.1872,55.6071 C14.3012,57.1441 14.8292,59.1171 16.3672,60.0031 C17.9042,60.8931 19.8752,60.3661 20.7632,58.8261 C21.5852,57.4021 21.1802,55.6091 19.8942,54.6481 L25.1452,45.5431 C27.1552,46.6401 29.4452,47.2751 31.8742,47.3361 L31.8752,57.8611 C30.2782,58.0501 29.0332,59.3971 29.0332,61.0421 C29.0332,62.8191 30.4772,64.2661 32.2532,64.2661 C34.0282,64.2661 35.4732,62.8191 35.4732,61.0421 C35.4732,59.3971 34.2272,58.0501 32.6312,57.8611 L32.6312,47.3361 C35.0592,47.2751 37.3502,46.6401 39.3592,45.5431 L44.6122,54.6481 C43.3272,55.6091 42.9192,57.3981 43.7412,58.8241 C43.5192,58.4401 43.2972,58.0591 43.7412,58.8261 C43.7412,58.8261 43.7412,58.8281 43.7422,58.8281 C44.6302,60.3661 46.6032,60.8931 48.1382,60.0031 C49.6772,59.1171 50.2042,57.1431 49.3172,55.6041 C48.4942,54.1781 46.7422,53.6361 45.2652,54.2691 L40.0032,45.1501 C42.0062,43.9191 43.6942,42.2331 44.9232,40.2281 L54.0352,45.4951 C53.4022,46.9711 53.9472,48.7231 55.3702,49.5461 C56.9072,50.4331 58.8792,49.9051 59.7672,48.3671 C60.6562,46.8311 60.1272,44.8551 58.5892,43.9681 C57.1652,43.1431 55.3762,43.5491 54.4142,44.8381 L45.3172,39.5811 C46.4132,37.5731 47.0472,35.2801 47.1082,32.8491 L57.6242,32.8491 C57.8152,34.4441 59.1612,35.6921 60.8052,35.6911 C62.5792,35.6911 64.0252,34.2461 64.0252,32.4691" id="Fill-383"></path>
                    <path d="M58.6919,20.9121 C58.8889,20.7981 58.9909,20.7421 59.0179,20.7251 C58.9759,20.7471 58.8419,20.8251 58.6919,20.9121" id="Fill-384"></path>
                    <path d="M58.6919,20.9121 C58.6599,20.9311 58.6309,20.9481 58.5919,20.9701 L58.5899,20.9701 C58.6259,20.9511 58.6599,20.9311 58.6919,20.9121" id="Fill-385"></path>
                    <path d="M55.7476,16.0474 L55.7476,16.0474 C55.7476,16.0474 55.7486,16.0474 55.7486,16.0464 L55.7476,16.0474 Z" id="Fill-386"></path>
                    <path d="M49.232,9.482 C49.064,9.771 48.96,9.954 49.232,9.482" id="Fill-387"></path>
                    <path d="M49.315,9.3369 L49.315,9.3369 C49.281,9.3949 49.258,9.4369 49.232,9.4819 C49.26,9.4339 49.287,9.3849 49.315,9.3369" id="Fill-388"></path>
                    <path d="M32.2515,44.794 C25.4605,44.794 19.9365,39.266 19.9365,32.469 C19.9365,25.672 25.4605,20.144 32.2515,20.144 C39.0445,20.144 44.5685,25.672 44.5685,32.469 C44.5685,39.266 39.0445,44.794 32.2515,44.794 M32.2515,19.386 C25.0425,19.386 19.1795,25.257 19.1795,32.469 C19.1795,39.683 25.0425,45.551 32.2515,45.551 C39.4615,45.551 45.3245,39.683 45.3245,32.469 C45.3245,25.257 39.4615,19.386 32.2515,19.386" id="Fill-389"></path>
                </g>
            </g>
        </g>
    </g>
</svg>