<?xml version="1.0" encoding="UTF-8" standalone="no"?>
<svg width="19px" height="55px" viewBox="0 0 19 55" version="1.1" xmlns="http://www.w3.org/2000/svg" xmlns:xlink="http://www.w3.org/1999/xlink" xmlns:sketch="http://www.bohemiancoding.com/sketch/ns">
    <!-- Generator: Sketch 3.5.2 (25235) - http://www.bohemiancoding.com/sketch -->
    <title>Group 23</title>
    <desc>Created with Sketch.</desc>
    <defs></defs>
    <g id="Page-1" stroke="none" stroke-width="1" fill="none" fill-rule="evenodd" sketch:type="MSPage">
        <g id="Artboard-2" sketch:type="MSArtboardGroup" transform="translate(-721.000000, -868.000000)" fill="#333333">
            <g id="Group-23" sketch:type="MSLayerGroup" transform="translate(721.000000, 868.000000)">
                <path d="M15.815,30.8028 C15.629,30.8028 15.477,30.6538 15.477,30.4658 C15.477,27.2708 12.88,24.6738 9.688,24.6738 C6.497,24.6738 3.899,27.2708 3.899,30.4658 C3.899,30.6538 3.747,30.8028 3.56,30.8028 C3.374,30.8028 3.223,30.6538 3.223,30.4658 C3.223,26.8978 6.122,23.9958 9.688,23.9958 C13.253,23.9958 16.154,26.8978 16.154,30.4658 C16.154,30.6538 16.002,30.8028 15.815,30.8028" id="Fill-299" sketch:type="MSShapeGroup"></path>
                <path d="M15.8384,44.6309 L3.5404,44.6309 C3.3484,44.6309 3.1994,44.4779 3.1994,44.2899 C3.1994,44.1029 3.3484,43.9499 3.5404,43.9499 L15.8384,43.9499 C16.0234,43.9499 16.1754,44.1029 16.1754,44.2899 C16.1754,44.4779 16.0234,44.6309 15.8384,44.6309" id="Fill-300" sketch:type="MSShapeGroup"></path>
                <path d="M1.8496,11.3457 L17.5236,11.3457 L9.6886,1.1417 L1.8496,11.3457 Z M18.2246,12.0237 L18.2096,12.0237 L1.1636,12.0237 C1.0356,12.0237 0.9166,11.9497 0.8606,11.8357 C0.8036,11.7207 0.8176,11.5827 0.8966,11.4787 L9.4186,0.3807 C9.5476,0.2087 9.8266,0.2087 9.9566,0.3807 L18.4326,11.4177 C18.5116,11.4817 18.5636,11.5767 18.5636,11.6867 C18.5636,11.8737 18.4126,12.0237 18.2246,12.0237 L18.2246,12.0237 Z" id="Fill-301" sketch:type="MSShapeGroup"></path>
                <path d="M9.6885,49.6358 C9.4995,49.6358 9.3485,49.4818 9.3485,49.2988 L9.3485,11.7598 C9.3485,11.5738 9.4995,11.4188 9.6885,11.4188 C9.8755,11.4188 10.0275,11.5738 10.0275,11.7598 L10.0275,49.2988 C10.0275,49.4818 9.8755,49.6358 9.6885,49.6358" id="Fill-302" sketch:type="MSShapeGroup"></path>
                <path d="M9.6885,49.6358 C8.4555,49.6358 7.4535,50.6418 7.4535,51.8738 C7.4535,53.1068 8.4555,54.1118 9.6885,54.1118 C10.9205,54.1118 11.9235,53.1068 11.9235,51.8738 C11.9235,50.6418 10.9205,49.6358 9.6885,49.6358 M9.6885,54.7858 C8.0815,54.7858 6.7755,53.4808 6.7755,51.8738 C6.7755,50.2668 8.0815,48.9578 9.6885,48.9578 C11.2945,48.9578 12.5995,50.2668 12.5995,51.8738 C12.5995,53.4808 11.2945,54.7858 9.6885,54.7858" id="Fill-303" sketch:type="MSShapeGroup"></path>
            </g>
        </g>
    </g>
</svg>