<?xml version="1.0" encoding="UTF-8" standalone="no"?>
<svg width="22px" height="51px" viewBox="0 0 22 51" version="1.1" xmlns="http://www.w3.org/2000/svg" xmlns:xlink="http://www.w3.org/1999/xlink" xmlns:sketch="http://www.bohemiancoding.com/sketch/ns">
    <!-- Generator: Sketch 3.5.2 (25235) - http://www.bohemiancoding.com/sketch -->
    <title>Group 25</title>
    <desc>Created with Sketch.</desc>
    <defs></defs>
    <g id="Page-1" stroke="none" stroke-width="1" fill="none" fill-rule="evenodd" sketch:type="MSPage">
        <g id="Artboard-2" sketch:type="MSArtboardGroup" transform="translate(-858.000000, -870.000000)" fill="#333333">
            <g id="Group-25" sketch:type="MSLayerGroup" transform="translate(858.000000, 870.000000)">
                <path d="M1.8404,1.6367 L11.1594,14.7927 L20.4744,1.6367 L1.8404,1.6367 Z M11.1594,15.7157 C11.0464,15.7157 10.9424,15.6657 10.8794,15.5747 L0.9104,1.4957 C0.8354,1.3917 0.8274,1.2557 0.8844,1.1437 C0.9424,1.0327 1.0594,0.9627 1.1864,0.9627 L21.1274,0.9627 C21.2544,0.9627 21.3694,1.0327 21.4304,1.1437 C21.4864,1.2557 21.4784,1.3917 21.4054,1.4957 L11.4344,15.5747 C11.3694,15.6657 11.2674,15.7157 11.1594,15.7157 L11.1594,15.7157 Z" id="Fill-311" sketch:type="MSShapeGroup"></path>
                <path d="M11.1592,47.6719 C10.9702,47.6719 10.8202,47.5189 10.8202,47.3309 L10.8202,15.3789 C10.8202,15.1919 10.9702,15.0409 11.1592,15.0409 C11.3442,15.0409 11.4952,15.1919 11.4952,15.3789 L11.4952,47.3309 C11.4952,47.5189 11.3442,47.6719 11.1592,47.6719" id="Fill-312" sketch:type="MSShapeGroup"></path>
                <path d="M13.3633,47.1875 C13.3633,45.9695 12.3753,44.9795 11.1593,44.9795 C9.9393,44.9795 8.9513,45.9695 8.9513,47.1875 C8.9513,48.4045 9.9393,49.3995 11.1593,49.3995 C12.3753,49.3995 13.3633,48.4045 13.3633,47.1875 C13.3633,45.9695 13.3633,48.4045 13.3633,47.1875 M8.2723,47.1875 C8.2723,45.5965 9.5693,44.3015 11.1593,44.3015 C12.7463,44.3015 14.0423,45.5965 14.0423,47.1875 C14.0423,48.7795 12.7463,50.0745 11.1593,50.0745 C9.5693,50.0745 8.2723,48.7795 8.2723,47.1875 C8.2723,45.5965 8.2723,48.7795 8.2723,47.1875" id="Fill-313" sketch:type="MSShapeGroup"></path>
                <path d="M14.9976,24.042 L7.0976,24.042 C6.9096,24.042 6.7566,23.889 6.7566,23.704 C6.7566,23.514 6.9096,23.363 7.0976,23.363 L14.9976,23.363 C15.1836,23.363 15.3376,23.514 15.3376,23.704 C15.3376,23.889 15.1836,24.042 14.9976,24.042" id="Fill-314" sketch:type="MSShapeGroup"></path>
                <path d="M14.9976,28.752 L7.0976,28.752 C6.9096,28.752 6.7566,28.602 6.7566,28.414 C6.7566,28.224 6.9096,28.074 7.0976,28.074 L14.9976,28.074 C15.1836,28.074 15.3376,28.224 15.3376,28.414 C15.3376,28.602 15.1836,28.752 14.9976,28.752" id="Fill-315" sketch:type="MSShapeGroup"></path>
            </g>
        </g>
    </g>
</svg>