<?xml version="1.0" encoding="UTF-8" standalone="no"?>
<svg width="72px" height="72px" viewBox="0 0 72 72" version="1.1" xmlns="http://www.w3.org/2000/svg" xmlns:xlink="http://www.w3.org/1999/xlink" xmlns:sketch="http://www.bohemiancoding.com/sketch/ns">
    <!-- Generator: Sketch 3.5.2 (25235) - http://www.bohemiancoding.com/sketch -->
    <title>Group 9</title>
    <desc>Created with Sketch.</desc>
    <defs></defs>
    <g id="Page-1" stroke="none" stroke-width="1" fill="none" fill-rule="evenodd" sketch:type="MSPage">
        <g id="Artboard-2" sketch:type="MSArtboardGroup" transform="translate(-793.000000, -779.000000)" fill="#333333">
            <g id="Group-9" sketch:type="MSLayerGroup" transform="translate(793.000000, 779.000000)">
                <path d="M59.2656,47.2813 L59.2656,39.8763 L62.9686,36.1723 L63.1746,35.9663 L59.2656,32.0543 L59.2656,24.6493 L70.5746,35.9663 L59.2656,47.2813 Z M58.6836,58.9473 L48.4366,58.9473 L58.6836,48.6963 L58.6836,58.9473 Z M35.7186,70.8513 L24.4096,59.5323 L31.8086,59.5323 L35.7186,63.4453 L39.6256,59.5323 L47.0256,59.5323 L35.7186,70.8513 Z M12.7536,58.9473 L12.7536,48.6963 L22.9976,58.9473 L12.7536,58.9473 Z M0.8606,35.9663 L12.1696,24.6493 L12.1696,32.0543 L8.2606,35.9663 L12.1696,39.8763 L12.1696,47.2853 L0.8606,35.9663 Z M12.7536,12.9863 L22.9996,12.9863 L12.7536,23.2373 L12.7536,12.9863 Z M35.7186,1.0833 L47.0276,12.4023 L39.6276,12.4023 L35.7186,8.4883 L31.8086,12.4023 L24.4096,12.4023 L35.7186,1.0833 Z M40.2106,12.9863 L47.6116,12.9863 L58.6836,24.0653 L58.6836,31.4703 L40.2106,12.9863 Z M32.6366,12.4023 L35.7186,9.3163 L38.8006,12.4023 L32.6366,12.4023 Z M12.7536,31.4703 L12.7536,24.0653 L23.8256,12.9863 L31.2256,12.9863 L12.7536,31.4703 Z M12.1696,39.0523 L9.0876,35.9663 L12.1696,32.8833 L12.1696,39.0523 Z M31.2236,58.9473 L23.8256,58.9473 L12.7536,47.8693 L12.7536,40.4633 L31.2236,58.9473 Z M38.8006,59.5323 L35.7186,62.6183 L32.6346,59.5323 L38.8006,59.5323 Z M58.6836,40.4633 L58.6836,47.8693 L47.6096,58.9473 L40.2106,58.9473 L58.6836,40.4633 Z M59.2656,32.8833 L62.3476,35.9663 L59.2656,39.0523 L59.2656,32.8833 Z M58.6836,39.6363 L39.3846,58.9473 L32.0506,58.9473 L12.7536,39.6363 L12.7536,32.2993 L32.0506,12.9863 L39.3856,12.9863 L58.6836,32.2993 L58.6836,39.6363 Z M58.6836,12.9863 L58.6836,23.2373 L48.4366,12.9863 L58.6836,12.9863 Z M71.4006,35.9663 L59.2656,23.8213 L59.2656,12.4023 L47.8526,12.4023 L35.9256,0.4653 L35.7186,0.2593 L23.5816,12.4023 L12.1696,12.4023 L12.1696,23.8253 L0.2406,35.7603 L0.0346,35.9663 L12.1696,48.1093 L12.1696,59.5323 L23.5816,59.5323 L35.5106,71.4703 L35.7186,71.6763 L47.8526,59.5323 L59.2656,59.5323 L59.2656,48.1093 L71.1946,36.1723 L71.4006,35.9663 Z" id="Fill-38" sketch:type="MSShapeGroup"></path>
                <path d="M35.7183,54.3848 L17.3133,35.9658 L35.7183,17.5498 L54.1223,35.9658 L35.7183,54.3848 Z M16.4873,35.9658 L35.7183,55.2118 L54.7413,36.1718 L54.9483,35.9658 L35.7183,16.7218 L16.4873,35.9658 Z" id="Fill-39" sketch:type="MSShapeGroup"></path>
                <path d="M35.7183,46.1543 L25.5403,35.9663 L35.7183,25.7803 L45.8963,35.9663 L35.7183,46.1543 Z M24.7133,35.9663 L35.7183,46.9783 L46.7233,35.9663 L35.7183,24.9523 L24.7133,35.9663 Z" id="Fill-40" sketch:type="MSShapeGroup"></path>
            </g>
        </g>
    </g>
</svg>