<?xml version="1.0" encoding="UTF-8" standalone="no"?>
<svg width="91px" height="10px" viewBox="0 0 91 10" version="1.1" xmlns="http://www.w3.org/2000/svg" xmlns:xlink="http://www.w3.org/1999/xlink" xmlns:sketch="http://www.bohemiancoding.com/sketch/ns">
    <!-- Generator: Sketch 3.5.2 (25235) - http://www.bohemiancoding.com/sketch -->
    <title>DAVIDVICTOR</title>
    <desc>Created with Sketch.</desc>
    <defs></defs>
    <g id="Page-2" stroke="none" stroke-width="1" fill="none" fill-rule="evenodd" sketch:type="MSPage">
        <g id="Artboard-1" sketch:type="MSArtboardGroup" transform="translate(-544.000000, -40.000000)" fill="#221F20">
            <path d="M549.854,40.744 C549.374,40.744 548.486,40.756 547.826,40.756 C547.118,40.756 545.906,40.732 545.786,40.732 L545.702,41.296 L546.518,41.296 C546.986,41.296 547.094,41.416 547.058,41.884 C547.01,42.352 546.146,47.488 546.038,47.944 C545.93,48.352 545.81,48.424 545.258,48.424 L544.55,48.424 L544.478,49.024 C544.622,49.012 545.942,49 546.446,49 C546.962,49 548.33,49.012 548.486,49.012 C551.03,49.012 553.01,47.968 553.466,45.04 C553.922,42.016 552.698,40.744 549.854,40.744 L549.854,40.744 Z M547.202,47.896 C547.262,47.308 548.114,42.148 548.21,41.788 C548.318,41.416 548.486,41.236 548.87,41.236 L549.65,41.236 C551.99,41.236 552.734,42.148 552.254,45.016 C551.786,47.776 550.49,48.496 548.426,48.496 L547.73,48.496 C547.298,48.496 547.154,48.352 547.202,47.896 L547.202,47.896 Z M559.634,46.336 L559.814,47.368 C559.946,48.112 559.778,48.424 559.07,48.424 L558.542,48.424 L558.458,49.024 C558.458,49.024 559.766,49 560.486,49 C561.218,49 562.514,49.024 562.514,49.024 L562.586,48.424 L562.046,48.424 C561.422,48.424 561.266,48.208 561.098,47.488 C560.702,45.856 559.958,42.304 559.646,40.672 C559.646,40.672 559.322,40.684 559.142,40.684 C558.962,40.684 558.638,40.672 558.626,40.672 C558.086,41.752 555.482,46.408 554.882,47.476 C554.462,48.232 554.162,48.424 553.466,48.424 L553.046,48.424 L552.974,49.024 C552.974,49.024 554.138,49 554.774,49 C555.422,49 556.574,49.024 556.574,49.024 L556.646,48.424 L556.094,48.424 C555.302,48.424 555.242,48.052 555.578,47.392 C555.674,47.188 555.878,46.804 556.142,46.336 C557.054,46.312 558.686,46.312 559.634,46.336 L559.634,46.336 Z M556.418,45.832 C557.198,44.404 558.254,42.52 558.698,41.692 C558.938,42.748 559.286,44.44 559.538,45.832 C558.65,45.844 557.294,45.844 556.418,45.832 L556.418,45.832 Z M564.89,42.208 C564.782,41.524 565.022,41.296 565.598,41.296 L566.126,41.296 L566.174,40.732 C565.994,40.732 564.998,40.756 564.326,40.756 C563.654,40.756 562.466,40.732 562.466,40.732 L562.406,41.296 L562.766,41.296 C563.402,41.296 563.558,41.512 563.69,42.124 C564.074,43.78 564.758,47.404 565.07,49.072 C565.25,49.06 565.766,49.06 565.958,49.072 C566.786,47.44 568.634,43.936 569.51,42.292 C569.954,41.476 570.206,41.296 570.866,41.296 L571.238,41.296 L571.298,40.732 C571.106,40.732 570.278,40.756 569.702,40.756 C569.114,40.756 568.094,40.732 568.094,40.732 L568.034,41.296 L568.466,41.296 C569.162,41.296 569.282,41.56 568.922,42.292 C568.286,43.636 566.882,46.348 565.994,48.028 C565.658,46.42 565.106,43.576 564.89,42.208 L564.89,42.208 Z M570.638,49.024 C570.638,49.024 571.91,49 572.618,49 C573.326,49 574.598,49.024 574.598,49.024 L574.658,48.424 L573.926,48.424 C573.374,48.424 573.278,48.352 573.314,47.944 C573.35,47.536 574.226,42.364 574.358,41.896 C574.478,41.428 574.646,41.296 575.078,41.296 L575.882,41.296 L575.942,40.732 C575.75,40.732 574.682,40.756 573.962,40.756 C573.254,40.756 571.982,40.732 571.982,40.732 L571.91,41.296 L572.714,41.296 C573.146,41.296 573.278,41.428 573.242,41.896 C573.206,42.364 572.318,47.536 572.198,47.944 C572.09,48.364 571.958,48.424 571.406,48.424 L570.698,48.424 L570.638,49.024 Z M580.862,40.744 C580.382,40.744 579.494,40.756 578.834,40.756 C578.126,40.756 576.914,40.732 576.794,40.732 L576.71,41.296 L577.526,41.296 C577.994,41.296 578.102,41.416 578.066,41.884 C578.018,42.352 577.154,47.488 577.046,47.944 C576.938,48.352 576.818,48.424 576.266,48.424 L575.558,48.424 L575.486,49.024 C575.63,49.012 576.95,49 577.454,49 C577.97,49 579.338,49.012 579.494,49.012 C582.038,49.012 584.018,47.968 584.474,45.04 C584.93,42.016 583.706,40.744 580.862,40.744 L580.862,40.744 Z M578.21,47.896 C578.27,47.308 579.122,42.148 579.218,41.788 C579.326,41.416 579.494,41.236 579.878,41.236 L580.658,41.236 C582.998,41.236 583.742,42.148 583.262,45.016 C582.794,47.776 581.498,48.496 579.434,48.496 L578.738,48.496 C578.306,48.496 578.162,48.352 578.21,47.896 L578.21,47.896 Z M589.49,42.892 C589.394,42.16 589.634,41.86 590.102,41.86 L590.45,41.86 C590.462,41.668 590.57,40.912 590.618,40.732 C590.426,40.732 589.13,40.756 588.29,40.756 C587.45,40.756 585.95,40.732 585.95,40.732 C585.938,40.912 585.83,41.668 585.794,41.86 L586.046,41.86 C586.718,41.86 586.91,42.136 587.042,42.76 C587.378,44.26 587.93,47.56 588.17,49.072 C588.71,49.048 589.886,49.048 590.426,49.072 C591.086,47.572 592.598,44.332 593.354,42.82 C593.738,42.04 594.074,41.86 594.71,41.86 L595.034,41.86 C595.046,41.668 595.154,40.912 595.19,40.732 C594.998,40.732 594.05,40.756 593.402,40.756 C592.754,40.756 591.614,40.732 591.614,40.732 C591.59,40.912 591.494,41.668 591.446,41.86 L591.746,41.86 C592.322,41.86 592.382,42.22 592.106,42.904 C591.722,43.876 590.822,45.796 590.234,47.008 C589.994,45.832 589.622,43.864 589.49,42.892 L589.49,42.892 Z M594.47,49.024 C594.47,49.024 595.886,49 596.678,49 C597.47,49 598.886,49.024 598.886,49.024 C598.898,48.832 599.006,48.052 599.042,47.86 L598.61,47.86 C598.058,47.86 597.986,47.68 598.01,47.272 C598.034,46.864 598.634,42.976 598.754,42.508 C598.886,42.04 599.09,41.86 599.522,41.86 L599.954,41.86 C599.966,41.668 600.074,40.912 600.11,40.732 C599.918,40.732 598.706,40.756 597.914,40.756 C597.122,40.756 595.706,40.732 595.706,40.732 C595.682,40.912 595.586,41.668 595.538,41.86 L596.03,41.86 C596.462,41.86 596.582,42.04 596.546,42.508 C596.522,42.976 595.922,46.804 595.79,47.272 C595.67,47.752 595.598,47.86 595.082,47.86 L594.638,47.86 C594.614,48.04 594.518,48.832 594.47,49.024 L594.47,49.024 Z M604.37,40.48 C602.042,40.48 600.398,41.836 599.93,44.848 C599.474,48.004 600.818,49.3 603.422,49.3 C605.882,49.3 607.058,48.112 607.454,45.772 C607.406,45.784 606.974,45.796 606.698,45.796 C606.434,45.796 606.014,45.784 605.966,45.772 C605.702,47.212 605.042,48.004 603.698,48.004 C602.714,48.004 601.97,47.476 602.366,44.848 C602.726,42.472 603.422,41.704 604.634,41.704 C605.87,41.704 606.29,42.508 606.098,43.78 C606.158,43.78 606.65,43.756 606.818,43.756 C606.998,43.756 607.43,43.78 607.49,43.78 C607.562,42.82 607.814,41.404 608.138,40.66 C607.934,40.684 607.358,40.684 607.154,40.66 C607.07,41.14 606.782,41.224 606.386,41.008 C605.834,40.708 605.198,40.48 604.37,40.48 L604.37,40.48 Z M614.738,41.968 C615.386,41.968 615.59,42.388 615.518,43.084 L615.41,44.02 C615.71,43.996 616.262,43.996 616.562,44.02 C616.658,43.204 616.97,41.512 617.126,40.696 C616.694,40.708 616.178,40.756 614.918,40.756 L611.198,40.756 C609.962,40.756 609.458,40.72 608.978,40.696 C608.906,41.512 608.678,43.204 608.534,44.02 C608.87,43.996 609.398,43.996 609.698,44.02 L609.902,43.084 C610.058,42.352 610.37,41.968 611.018,41.968 L611.762,41.968 C611.57,43.456 611.15,46.396 610.958,47.212 C610.85,47.668 610.634,47.86 610.094,47.86 L609.626,47.86 C609.614,48.04 609.506,48.832 609.458,49.024 C609.458,49.024 610.958,49 611.798,49 C612.638,49 614.126,49.024 614.126,49.024 C614.15,48.832 614.246,48.04 614.294,47.86 L613.814,47.86 C613.274,47.86 613.13,47.608 613.166,47.212 C613.226,46.384 613.706,43.456 613.958,41.968 L614.738,41.968 Z M620.894,48.076 C619.622,48.076 619.25,47.248 619.61,44.848 C619.958,42.496 620.654,41.704 621.89,41.704 C623.138,41.704 623.546,42.412 623.174,44.836 C622.826,47.152 622.214,48.076 620.894,48.076 L620.894,48.076 Z M620.726,49.3 C623.162,49.3 625.202,47.92 625.658,44.836 C626.09,41.98 624.878,40.48 622.058,40.48 C619.514,40.48 617.57,41.836 617.114,44.848 C616.682,47.776 618.122,49.3 620.726,49.3 L620.726,49.3 Z M633.398,46.792 C633.398,45.94 633.146,45.34 632.294,45.112 C633.362,44.884 634.31,44.224 634.442,43.012 C634.61,41.56 633.686,40.744 631.346,40.744 C630.866,40.744 629.774,40.756 629.222,40.756 C628.754,40.756 627.05,40.72 626.858,40.72 C626.834,40.972 626.75,41.608 626.702,41.86 L627.194,41.86 C627.638,41.86 627.746,42.04 627.71,42.508 C627.686,42.976 627.086,46.816 626.966,47.272 C626.822,47.764 626.69,47.86 626.21,47.86 L625.814,47.86 C625.79,48.052 625.682,48.832 625.634,49.024 C625.634,49.024 627.026,49 627.83,49 C628.634,49 630.074,49.024 630.074,49.024 C630.086,48.832 630.206,48.04 630.242,47.86 L629.774,47.86 C629.33,47.86 629.174,47.68 629.174,47.224 C629.174,47.044 629.282,46.276 629.414,45.4 L629.822,45.4 C630.686,45.4 631.13,45.676 630.998,47.02 C630.866,48.4 631.142,49.264 632.882,49.264 C634.538,49.264 635.018,47.896 634.922,46.516 L634.25,46.576 C634.31,47.308 634.166,48.088 633.818,48.088 C633.494,48.088 633.386,47.752 633.398,46.792 L633.398,46.792 Z M629.93,42.376 C630.038,42.016 630.206,41.824 630.65,41.824 L630.926,41.824 C631.862,41.824 632.21,42.28 632.078,43.204 C631.934,44.2 631.442,44.62 630.326,44.62 L629.534,44.62 C629.702,43.552 629.882,42.52 629.93,42.376 L629.93,42.376 Z" id="DAVIDVICTOR" sketch:type="MSShapeGroup"></path>
        </g>
    </g>
</svg>