<?xml version="1.0" encoding="UTF-8" standalone="no"?>
<svg width="58px" height="57px" viewBox="0 0 58 57" version="1.1" xmlns="http://www.w3.org/2000/svg" xmlns:xlink="http://www.w3.org/1999/xlink" xmlns:sketch="http://www.bohemiancoding.com/sketch/ns">
    <!-- Generator: Sketch 3.5.2 (25235) - http://www.bohemiancoding.com/sketch -->
    <title>dark</title>
    <desc>Created with Sketch.</desc>
    <defs></defs>
    <g id="Page-1" stroke="none" stroke-width="1" fill="none" fill-rule="evenodd" sketch:type="MSPage">
        <g id="Artboard-1" sketch:type="MSArtboardGroup" transform="translate(0.000000, -1.000000)" fill="#231F1F">
            <path d="M52.1049479,6.51288986 L50.920884,5.86746079 L50.9125543,5.30092439 L47.4001606,5.76216702 L52.1049479,6.51288986 Z M52.3906287,14.0831703 C52.3906287,14.0831703 56.2621287,16.1387283 54.9401606,22.9387181 C54.9401606,22.9387181 54.2932138,20.2666169 53.1366074,20.2666169 C53.1366074,20.2666169 56.6653521,27.7182477 51.4536819,35.1695679 C51.4536819,35.1695679 51.688767,33.5224503 51.5539479,31.9135366 C50.832033,33.8420588 49.8114798,35.8047471 48.368267,37.6251801 C48.368267,37.6251801 45.669416,47.3330173 47.338767,56.0879303 C50.1452883,56.4218265 49.5986074,57.8272964 49.5986074,57.8272964 L47.8527457,57.8272964 L45.2955011,57.8272964 C45.2955011,57.8272964 41.9200862,45.9054947 42.0635436,40.984331 C42.0635436,40.984331 44.4042138,39.6655187 45.6225223,34.675091 C45.0369691,36.6536199 41.3548947,42.6538118 32.1535649,43.0880322 C32.1535649,43.0880322 40.2624585,38.5231279 41.6322457,32.5887834 C41.6322457,32.5887834 37.7058309,39.5782398 30.2306181,43.049207 C30.2306181,43.049207 24.8319904,49.8547876 23.8635755,55.8599491 C24.8023734,56.177694 25.064916,56.8315093 24.7144479,57.8400311 L19.9822032,57.8400311 C19.9822032,57.8400311 19.7878415,56.3876603 20.9774585,55.8391388 C21.3075649,51.7500754 22.312384,42.4031567 24.7955862,38.7163218 C24.7955862,38.7163218 26.1181713,36.1780896 24.5700649,31.0391946 C24.5700649,31.0391946 25.4308096,35.5621677 24.008884,38.4262203 C24.008884,38.4262203 21.9859798,41.9012254 21.5670223,43.7701122 C19.9251287,43.8474518 19.6351287,43.7735288 17.5884691,44.9892214 C16.4111926,45.8585939 15.1003309,46.696285 13.8595011,47.4355157 C13.8595011,47.4355157 13.858884,47.4361369 13.8585755,47.4361369 C11.2149479,49.0105738 8.55311809,49.6445106 8.55311809,49.6445106 C6.7409266,52.0771384 7.49924574,54.5374096 8.1215117,55.7257694 C10.2955862,55.8723731 10.1212777,57.808971 10.1212777,57.808971 L4.45856489,57.808971 C4.45856489,57.808971 4.38544787,57.2536162 4.61559681,56.7078901 C3.90910745,52.3675504 5.67749043,48.553369 5.67749043,48.553369 C5.67749043,48.553369 9.63413936,46.350586 10.7000436,40.2553502 C10.912916,39.0362409 11.2167989,37.9833032 11.5771394,37.0692042 C9.74612872,37.4941065 7.68250106,37.8385631 5.79996915,37.8385631 C0.995532979,37.8385631 -3.66914787,34.5775622 4.30122447,29.1901863 C5.23632021,26.0751679 7.41872447,26.550077 7.41872447,26.550077 C5.87030957,26.9951683 5.42605426,27.9452971 5.42605426,27.9452971 C8.07153298,26.0316837 9.73039468,27.3852833 9.73039468,27.3852833 C8.53584149,27.2970726 8.32975638,27.4486459 7.24966064,28.9764927 C6.52095851,30.0061353 5.6882883,29.925379 5.2215117,29.7638665 C0.206671277,32.4698232 -0.080243617,36.8548894 5.16567128,36.4824787 C7.82441596,36.2936332 10.8620117,35.2475288 13.0922351,34.3259753 C15.0920011,31.6824494 17.4570436,31.2808422 17.4570436,31.2808422 C21.0456394,31.2808422 23.4233309,23.0871854 23.4233309,23.0871854 C22.9917245,25.8459443 23.9987032,26.9137908 23.9987032,26.9137908 C23.8552457,22.2100479 26.282916,17.3926249 26.282916,17.3926249 C23.963533,18.5825377 22.26765,21.3102365 22.26765,21.3102365 C23.9477989,12.9243176 32.5555543,7.67329554 32.5555543,7.67329554 C27.32815,9.05205379 22.60115,15.5116247 22.60115,15.5116247 C28.1059053,2.7462304 37.6888628,1.16930866 40.5422777,1.26963281 C43.3950755,1.37057816 45.6339372,3.29754734 45.6339372,3.29754734 L50.2162457,3.58081554 L51.3336713,4.89217336 C51.3336713,4.89217336 54.8972777,5.54101904 57.2317777,5.63916898 L57.2083309,6.61632002 L55.1817245,7.0082986 L57.1873521,7.4925257 L57.1089904,10.7535266 L57.7398947,13.1265189 C57.7398947,13.1265189 54.9241181,13.0519747 52.3906287,14.0831703 L52.3906287,14.0831703 Z M39.3825862,57.3964927 L36.157416,57.3964927 C34.0536819,54.8775178 30.4925436,52.1417434 30.4925436,52.1417434 C29.9856606,48.9204995 28.1059053,47.7989189 28.1059053,47.7989189 C28.1059053,47.7989189 29.7601394,45.8520713 30.90965,44.8677764 C31.8826926,44.0350549 34.0104904,44.0350549 34.0104904,44.0350549 C34.7583202,46.5074396 34.1718415,51.3419456 34.1718415,51.3419456 C35.43365,51.8618918 37.2788521,55.7934805 37.2788521,55.7934805 C39.3825862,55.7934805 39.3825862,57.3964927 39.3825862,57.3964927 L39.3825862,57.3964927 Z" id="dark" sketch:type="MSShapeGroup"></path>
        </g>
    </g>
</svg>